<svg width="16" height="16" viewBox="0 0 16 16" fill="none" xmlns="http://www.w3.org/2000/svg">
<path d="M14.8801 3.85308C14.225 3.43263 13.35 3.62362 12.9295 4.27871L11.7648 6.09352V2.82353H9.88244V2.60969C9.88244 1.94915 9.34506 1.41176 8.68454 1.41176H8.33928L7.8687 0H4.3668L3.89621 1.41176H3.55095C2.89044 1.41176 2.35306 1.94915 2.35306 2.60969V2.82353H0.470703V16H11.7648V11.3213L15.3058 5.80373C15.7262 5.14861 15.5353 4.27357 14.8801 3.85308ZM3.2942 2.60969C3.2942 2.46811 3.40937 2.35294 3.55092 2.35294H4.57455L5.04513 0.941177H7.1903L7.66088 2.35294H8.68451C8.82606 2.35294 8.94123 2.46811 8.94123 2.60969V3.76471H3.29417V2.60969H3.2942ZM10.8236 15.0588H1.41185V3.76471H2.35302V4.70588H9.88244V3.76471H10.8236V7.56009L9.63528 9.41177H5.17655V10.3529H9.03127L8.42725 11.2941H5.17655V12.2353H8.04589L8.30481 14.0987L10.3825 13.4751L10.8236 12.7878V15.0588H10.8236ZM14.5137 5.2954L9.7785 12.6738L9.08592 12.8816L8.98641 12.1654L13.7216 4.78707C13.8617 4.56872 14.1534 4.50504 14.3718 4.64521C14.5902 4.78532 14.6538 5.07702 14.5137 5.2954Z" fill="#3D3D46"/>
</svg>
