<svg width="14" height="12" viewBox="0 0 14 12" fill="none" xmlns="http://www.w3.org/2000/svg">
<path d="M6.5625 4.92344V6.25H5.24219C5.17812 6.25 5.125 6.29844 5.125 6.35938V7.01562C5.125 7.075 5.17812 7.125 5.24219 7.125H6.5625V8.45156C6.5625 8.5125 6.6125 8.5625 6.67188 8.5625H7.32812C7.38906 8.5625 7.4375 8.5125 7.4375 8.45156V7.125H8.75781C8.82187 7.125 8.875 7.075 8.875 7.01562V6.35938C8.875 6.29844 8.82187 6.25 8.75781 6.25H7.4375V4.92344C7.4375 4.8625 7.38906 4.8125 7.32812 4.8125H6.67188C6.6125 4.8125 6.5625 4.8625 6.5625 4.92344ZM12.75 2.6625H7.14062L5.30781 0.909375C5.28449 0.887543 5.25382 0.875274 5.22188 0.875H1.25C0.973437 0.875 0.75 1.09844 0.75 1.375V10.625C0.75 10.9016 0.973437 11.125 1.25 11.125H12.75C13.0266 11.125 13.25 10.9016 13.25 10.625V3.1625C13.25 2.88594 13.0266 2.6625 12.75 2.6625ZM12.125 10H1.875V2H4.82031L6.68906 3.7875H12.125V10Z" fill="#9292A3"/>
</svg>
