<svg width="12" height="12" viewBox="0 0 12 12" fill="none" xmlns="http://www.w3.org/2000/svg">
<path d="M11.4359 10.1875H0.564063C0.49375 10.1875 0.4375 10.2437 0.4375 10.3125V11.25C0.4375 11.3188 0.49375 11.375 0.564063 11.375H11.4359C11.5063 11.375 11.5625 11.3188 11.5625 11.25V10.3125C11.5625 10.2437 11.5063 10.1875 11.4359 10.1875ZM5.90156 8.45312C5.91326 8.46807 5.92819 8.48015 5.94525 8.48846C5.96231 8.49677 5.98103 8.50109 6 8.50109C6.01897 8.50109 6.03769 8.49677 6.05475 8.48846C6.0718 8.48015 6.08674 8.46807 6.09844 8.45312L7.84844 6.23906C7.9125 6.15781 7.85469 6.0375 7.75 6.0375H6.59219V0.75C6.59219 0.68125 6.53594 0.625 6.46719 0.625H5.52969C5.46094 0.625 5.40469 0.68125 5.40469 0.75V6.03594H4.25C4.14531 6.03594 4.0875 6.15625 4.15156 6.2375L5.90156 8.45312Z" fill="#9292A3"/>
</svg>
