<svg width="24" height="24" viewBox="0 0 24 24" fill="none" xmlns="http://www.w3.org/2000/svg">
<path d="M21.5085 3.48784L20.5148 2.49409C20.4773 2.45659 20.4304 2.44019 20.3812 2.44019C20.332 2.44019 20.2851 2.45894 20.2476 2.49409L18.464 4.27769C17.6886 3.75234 16.7732 3.47225 15.8366 3.47378C14.6366 3.47378 13.4366 3.93081 12.5202 4.84722L10.132 7.2355C10.0971 7.27074 10.0775 7.31833 10.0775 7.36792C10.0775 7.41751 10.0971 7.4651 10.132 7.50034L16.4999 13.8683C16.5374 13.9058 16.5843 13.9222 16.6335 13.9222C16.6804 13.9222 16.7296 13.9035 16.7671 13.8683L19.1554 11.48C20.7702 9.86284 20.9601 7.36206 19.7249 5.53862L21.5085 3.75503C21.5812 3.68003 21.5812 3.5605 21.5085 3.48784ZM18.0257 10.3527L16.6335 11.7449L12.2554 7.36675L13.6476 5.97456C14.2312 5.39097 15.0093 5.06753 15.8366 5.06753C16.664 5.06753 17.4398 5.38862 18.0257 5.97456C18.6093 6.55815 18.9327 7.33628 18.9327 8.16362C18.9327 8.99097 18.6093 9.76675 18.0257 10.3527ZM13.5679 12.8136C13.5327 12.7787 13.4851 12.7592 13.4355 12.7592C13.3859 12.7592 13.3383 12.7787 13.3031 12.8136L11.7421 14.3746L9.62571 12.2582L11.189 10.6949C11.2616 10.6222 11.2616 10.5027 11.189 10.43L10.3359 9.5769C10.3006 9.54201 10.253 9.52244 10.2034 9.52244C10.1539 9.52244 10.1063 9.54201 10.071 9.5769L8.50774 11.1402L7.49993 10.1324C7.48243 10.1149 7.46158 10.1011 7.43863 10.0918C7.41567 10.0825 7.39108 10.078 7.36633 10.0785C7.31946 10.0785 7.27024 10.0972 7.23274 10.1324L4.8468 12.5207C3.23196 14.1378 3.04212 16.6386 4.27727 18.4621L2.49368 20.2457C2.45878 20.2809 2.43921 20.3285 2.43921 20.3781C2.43921 20.4277 2.45878 20.4753 2.49368 20.5105L3.48743 21.5042C3.52493 21.5417 3.5718 21.5582 3.62102 21.5582C3.67024 21.5582 3.71712 21.5394 3.75462 21.5042L5.53821 19.7207C6.32805 20.2574 7.2468 20.5246 8.16555 20.5246C9.36555 20.5246 10.5656 20.0675 11.482 19.1511L13.8702 16.7628C13.9429 16.6902 13.9429 16.5707 13.8702 16.498L12.8624 15.4902L14.4257 13.9269C14.4984 13.8542 14.4984 13.7347 14.4257 13.6621L13.5679 12.8136ZM10.3523 18.0261C10.0654 18.3144 9.72426 18.5431 9.34853 18.6987C8.97279 18.8544 8.56992 18.9341 8.16321 18.9332C7.33587 18.9332 6.56008 18.6121 5.97415 18.0261C5.68582 17.7393 5.45721 17.3981 5.30153 17.0224C5.14584 16.6466 5.06617 16.2438 5.06712 15.8371C5.06712 15.0097 5.38821 14.2339 5.97415 13.648L7.36633 12.2558L11.7445 16.6339L10.3523 18.0261Z" fill="#54B2D3"/>
</svg>
