<svg width="16" height="16" viewBox="0 0 16 16" fill="none" xmlns="http://www.w3.org/2000/svg">
<path d="M14.7892 7.89103L8.75168 1.85666L8.34699 1.45197C8.25478 1.36037 8.13008 1.30896 8.00011 1.30896C7.87014 1.30896 7.74545 1.36037 7.65324 1.45197L1.21105 7.89103C1.11657 7.98514 1.0419 8.09723 0.991445 8.22068C0.940993 8.34413 0.915782 8.47643 0.917301 8.60978C0.923551 9.15978 1.38136 9.59884 1.93136 9.59884H2.59543V14.6879H13.4048V9.59884H14.0829C14.3501 9.59884 14.6017 9.49416 14.7907 9.30509C14.8838 9.2123 14.9576 9.10196 15.0077 8.98046C15.0579 8.85896 15.0835 8.72872 15.0829 8.59728C15.0829 8.33166 14.9782 8.08009 14.7892 7.89103V7.89103ZM8.87511 13.5629H7.12511V10.3754H8.87511V13.5629ZM12.2798 8.47384V13.5629H9.87511V10.0004C9.87511 9.65509 9.59543 9.37541 9.25011 9.37541H6.75011C6.4048 9.37541 6.12511 9.65509 6.12511 10.0004V13.5629H3.72043V8.47384H2.22043L8.00168 2.69728L8.36261 3.05822L13.7814 8.47384H12.2798Z" fill="white"/>
</svg>
