<svg width="16" height="16" viewBox="0 0 16 16" fill="none" xmlns="http://www.w3.org/2000/svg">
<path fill-rule="evenodd" clip-rule="evenodd" d="M11.0322 2.75819C11.1542 2.63615 11.3522 2.63623 11.4741 2.75819L13.2419 4.52595C13.3639 4.648 13.3639 4.84585 13.2419 4.96789L5.85187 12.3579C5.82014 12.3896 5.77546 12.4182 5.72973 12.4334L3.07809 13.3173C2.9664 13.3545 2.84244 13.3259 2.7583 13.2418C2.67459 13.1581 2.64536 13.0343 2.6828 12.922L3.56669 10.2703C3.58111 10.2271 3.60775 10.1826 3.64217 10.1482L3.64259 10.1478L11.0322 2.75819ZM4.30508 10.3692L5.63092 11.695L11.2532 6.07274L9.92734 4.74691L4.30508 10.3692ZM5.05244 12.0004L3.99973 10.9476L3.47338 12.5267L5.05244 12.0004ZM11.2532 3.42108L10.3693 4.30498L11.6951 5.63081L12.579 4.74691L11.2532 3.42108ZM9.70671 5.85067C9.82876 5.72862 10.0266 5.72862 10.1487 5.85067C10.2707 5.97271 10.2707 6.17056 10.1487 6.2926L5.85224 10.589C5.73019 10.7111 5.53232 10.7111 5.4103 10.589C5.28826 10.467 5.28826 10.2691 5.4103 10.1471L9.70671 5.85067Z" fill="#9292A3"/>
</svg>
