<svg width="20" height="20" viewBox="0 0 20 20" fill="none" xmlns="http://www.w3.org/2000/svg">
<path d="M17.6875 18.1875H18.1875V17.6875V2.3125V1.8125H17.6875H2.3125H1.8125V2.3125V17.6875V18.1875H2.3125H17.6875ZM1.375 1.125H18.625C18.7637 1.125 18.875 1.2363 18.875 1.375V18.625C18.875 18.7637 18.7637 18.875 18.625 18.875H1.375C1.2363 18.875 1.125 18.7637 1.125 18.625V1.375C1.125 1.2363 1.2363 1.125 1.375 1.125ZM13.5312 6.875H9.84375V6.375H13.5312V6.875ZM13.5312 10.25H9.84375V9.75H13.5312V10.25ZM13.5312 13.625H9.84375V13.125H13.5312V13.625ZM6.59689 6.93436C6.51484 6.85231 6.46875 6.74103 6.46875 6.625C6.46875 6.50897 6.51484 6.39769 6.59689 6.31564L6.24334 5.96209L6.59689 6.31564C6.67894 6.23359 6.79022 6.1875 6.90625 6.1875C7.02228 6.1875 7.13356 6.23359 7.21561 6.31564L7.56916 5.96209L7.21561 6.31564C7.29766 6.39769 7.34375 6.50897 7.34375 6.625C7.34375 6.74103 7.29766 6.85231 7.21561 6.93436L7.56916 7.28791L7.21561 6.93436C7.13356 7.01641 7.02228 7.0625 6.90625 7.0625C6.79022 7.0625 6.67894 7.01641 6.59689 6.93436L6.24334 7.28791L6.59689 6.93436ZM6.59689 10.3094C6.51484 10.2273 6.46875 10.116 6.46875 10C6.46875 9.88397 6.51484 9.77269 6.59689 9.69064C6.67894 9.60859 6.79022 9.5625 6.90625 9.5625C7.02228 9.5625 7.13356 9.60859 7.21561 9.69064C7.29766 9.77269 7.34375 9.88397 7.34375 10C7.34375 10.116 7.29766 10.2273 7.21561 10.3094C7.13356 10.3914 7.02228 10.4375 6.90625 10.4375C6.79022 10.4375 6.67894 10.3914 6.59689 10.3094ZM6.59689 13.6844C6.51484 13.6023 6.46875 13.491 6.46875 13.375C6.46875 13.259 6.51484 13.1477 6.59689 13.0656C6.67894 12.9836 6.79022 12.9375 6.90625 12.9375C7.02228 12.9375 7.13356 12.9836 7.21561 13.0656C7.29766 13.1477 7.34375 13.259 7.34375 13.375C7.34375 13.491 7.29766 13.6023 7.21561 13.6844C7.13356 13.7664 7.02228 13.8125 6.90625 13.8125C6.79022 13.8125 6.67894 13.7664 6.59689 13.6844Z" stroke="#9292A3"/>
</svg>
