<svg width="9" height="12" viewBox="0 0 9 12" fill="none" xmlns="http://www.w3.org/2000/svg">
<path d="M8.31228 1.41021V0.202401C8.31228 0.0977137 8.19197 0.0399012 8.11072 0.103964L1.06697 5.60553C1.00712 5.65207 0.958694 5.71166 0.925383 5.77977C0.892072 5.84787 0.874756 5.92268 0.874756 5.9985C0.874756 6.07431 0.892072 6.14912 0.925383 6.21722C0.958694 6.28533 1.00712 6.34492 1.06697 6.39146L8.11072 11.893C8.19353 11.9571 8.31228 11.8993 8.31228 11.7946V10.5868C8.31228 10.5102 8.27634 10.4368 8.21697 10.3899L2.59197 5.99928L8.21697 1.60709C8.27634 1.56021 8.31228 1.48678 8.31228 1.41021Z" fill="#9292A3"/>
</svg>
