<svg width="126" height="129" viewBox="0 0 126 129" fill="none" xmlns="http://www.w3.org/2000/svg">
<g filter="url(#filter0_d)">
<path d="M10 31C10 22.1634 17.1634 15 26 15H94C102.837 15 110 22.1634 110 31V118H10V31Z" fill="white"/>
</g>
<rect x="22" y="58" width="44" height="2" rx="1" fill="#9292A2"/>
<rect x="22" y="63" width="38" height="2" rx="1" fill="#9292A2"/>
<rect x="22" y="69" width="76" height="2" rx="1" fill="#DBDBE1"/>
<rect x="22" y="74" width="70" height="2" rx="1" fill="#DBDBE1"/>
<rect x="22" y="79" width="76" height="2" rx="1" fill="#DBDBE1"/>
<rect x="22" y="84" width="70" height="2" rx="1" fill="#DBDBE1"/>
<rect x="22" y="89" width="74" height="2" rx="1" fill="#DBDBE1"/>
<rect x="22" y="94" width="64" height="2" rx="1" fill="#DBDBE1"/>
<rect x="22" y="99" width="70" height="2" rx="1" fill="#DBDBE1"/>
<rect x="22" y="104" width="65" height="2" rx="1" fill="#DBDBE1"/>
<rect x="72" y="27" width="28" height="16" rx="8" fill="#54B2D3"/>
<g filter="url(#filter1_d)">
<rect x="86" y="29" width="12" height="12" rx="6" fill="white"/>
</g>
<defs>
<filter id="filter0_d" x="0" y="0" width="126" height="129" filterUnits="userSpaceOnUse" color-interpolation-filters="sRGB">
<feFlood flood-opacity="0" result="BackgroundImageFix"/>
<feColorMatrix in="SourceAlpha" type="matrix" values="0 0 0 0 0 0 0 0 0 0 0 0 0 0 0 0 0 0 127 0"/>
<feOffset dx="3" dy="-2"/>
<feGaussianBlur stdDeviation="6.5"/>
<feColorMatrix type="matrix" values="0 0 0 0 0 0 0 0 0 0 0 0 0 0 0 0 0 0 0.05 0"/>
<feBlend mode="normal" in2="BackgroundImageFix" result="effect1_dropShadow"/>
<feBlend mode="normal" in="SourceGraphic" in2="effect1_dropShadow" result="shape"/>
</filter>
<filter id="filter1_d" x="82" y="27" width="20" height="20" filterUnits="userSpaceOnUse" color-interpolation-filters="sRGB">
<feFlood flood-opacity="0" result="BackgroundImageFix"/>
<feColorMatrix in="SourceAlpha" type="matrix" values="0 0 0 0 0 0 0 0 0 0 0 0 0 0 0 0 0 0 127 0"/>
<feOffset dy="2"/>
<feGaussianBlur stdDeviation="2"/>
<feColorMatrix type="matrix" values="0 0 0 0 0 0 0 0 0 0.137255 0 0 0 0 0.0431373 0 0 0 0.2 0"/>
<feBlend mode="normal" in2="BackgroundImageFix" result="effect1_dropShadow"/>
<feBlend mode="normal" in="SourceGraphic" in2="effect1_dropShadow" result="shape"/>
</filter>
</defs>
</svg>
