<svg width="24" height="24" viewBox="0 0 24 24" fill="none" xmlns="http://www.w3.org/2000/svg">
<path d="M22.849 6.98239L21.5729 7.57334C22.2483 9.03167 22.5907 10.521 22.5907 12C22.5907 17.8414 17.8384 22.5937 11.997 22.5937C9.86552 22.5937 7.8109 21.9375 6.01816 20.6908C6.29594 19.9413 6.13484 19.0646 5.53357 18.4633C4.71115 17.6409 3.37287 17.641 2.55045 18.4633C1.72798 19.2858 1.72798 20.624 2.55045 21.4465C3.24218 22.1383 4.3017 22.2498 5.11207 21.773C7.16524 23.2316 9.53393 24 11.997 24C18.6044 24 23.997 18.6071 23.997 12C23.997 10.3154 23.6107 8.62728 22.849 6.98239ZM4.53921 20.4522C4.26504 20.7263 3.81907 20.7264 3.5448 20.4522C3.27063 20.178 3.27063 19.7319 3.5448 19.4578C3.81888 19.1837 4.26499 19.1836 4.53921 19.4578C4.81338 19.7319 4.81338 20.178 4.53921 20.4522Z" fill="#FAAD14"/>
<path d="M15.5156 9.1875V7.07812H16.9219V5.67188H7.07812V7.07812H8.48438V9.1875C8.48438 10.3363 9.03834 11.358 9.89306 12C9.03834 12.642 8.48438 13.6637 8.48438 14.8125V16.9219H7.07812V18.3281H16.9219V16.9219H15.5156V14.8125C15.5156 13.6637 14.9617 12.642 14.1069 12C14.9617 11.358 15.5156 10.3363 15.5156 9.1875ZM14.1094 14.8125V16.9219H9.89062V14.8125C9.89062 13.6494 10.8369 12.7031 12 12.7031C13.1631 12.7031 14.1094 13.6494 14.1094 14.8125ZM14.1094 9.1875C14.1094 10.3506 13.1631 11.2969 12 11.2969C10.8369 11.2969 9.89062 10.3506 9.89062 9.1875V7.07812H14.1094V9.1875Z" fill="#FAAD14"/>
<path d="M18.4634 5.53664C19.2858 6.35902 20.6241 6.35906 21.4465 5.53664C22.269 4.71422 22.269 3.37594 21.4465 2.55352C20.7532 1.86019 19.6933 1.75134 18.8849 2.22703C16.8317 0.768375 14.463 0 12 0C5.39255 0 0 5.39292 0 12C0 13.6845 0.38625 15.3727 1.14802 17.0176L2.42409 16.4266C1.74872 14.9683 1.40625 13.479 1.40625 12C1.40625 6.15858 6.15858 1.40625 12 1.40625C14.1315 1.40625 16.1861 2.0625 17.9788 3.30919C17.701 4.05867 17.8621 4.93537 18.4634 5.53664ZM19.4578 3.54788C19.7319 3.27375 20.178 3.2737 20.4522 3.54788C20.7263 3.82205 20.7263 4.26811 20.4522 4.54223C20.178 4.81641 19.7319 4.81645 19.4578 4.54223C19.1836 4.26811 19.1836 3.822 19.4578 3.54788Z" fill="#FAAD14"/>
</svg>
