<svg width="12" height="12" viewBox="0 0 12 12" fill="none" xmlns="http://www.w3.org/2000/svg">
  <path d="M11.9999 1.42784C12.0038 1.04484 11.8568 0.684797 11.586 0.413953C11.3187 0.146648 10.9646 0 10.5872 0C10.5822 0 10.5772 2.34375e-05 10.5721 7.03125e-05C10.1891 0.00400781 9.83217 0.158391 9.567 0.434719L7.4666 2.62343L1.97053 0.804586L0.347414 2.4277L4.94046 5.25577L3.05058 7.22513L1.56727 6.98161L0 8.54883L2.55595 9.44407L3.45117 12L5.01844 10.4327L4.77492 8.94942L6.74428 7.05954L9.57234 11.6526L11.1955 10.0295L9.37664 4.53342L11.5653 2.43302C11.8416 2.1678 11.996 1.81083 11.9999 1.42784ZM11.078 1.9252L8.56894 4.33303L10.3909 9.83866L9.70458 10.525L6.88627 5.9478L4.0204 8.69803L4.26541 10.1904L3.74527 10.7106L3.10823 8.89177L1.28944 8.25473L1.80959 7.73459L3.30197 7.9796L6.0522 5.11376L1.47499 2.29547L2.16136 1.6091L7.66699 3.43111L10.0748 0.922055C10.2079 0.783328 10.3871 0.705844 10.5794 0.703852C10.5819 0.703805 10.5844 0.703805 10.5869 0.703805C10.7764 0.703805 10.9542 0.777422 11.0884 0.911625C11.2244 1.04759 11.2981 1.22834 11.2962 1.42059C11.2942 1.61285 11.2167 1.79205 11.078 1.9252Z" fill="#9292A3"/>
</svg>
