<svg width="24" height="24" viewBox="0 0 24 24" fill="none" xmlns="http://www.w3.org/2000/svg">
<g clip-path="url(#clip0)">
<path d="M24 5.02049L16.012 0.442257C15.0835 -0.194962 13.8372 -0.139368 12.9688 0.581757L11.9823 1.4008L10.9958 0.58171C10.1272 -0.139415 8.88103 -0.194915 7.95258 0.442257L0 5.00019C0 5.00019 1.6958 7.93204 3.69473 9.67082C5.0963 10.8899 6.74944 11.7643 8.69531 12.3807L8.68313 14.5677L15.6772 21.568L17.333 19.9122L18.8673 21.4465L17.308 23.0057L18.3024 24L22.3151 19.9873L21.3207 18.9929L19.8616 20.452L18.3273 18.9177L19.8927 17.3523L14.8651 12.3202C16.2894 12.0043 17.6915 11.329 19.0881 10.3588C21.6453 8.58243 24 5.02049 24 5.02049ZM8.69991 1.61835L8.72691 1.59927C9.14512 1.30349 9.71245 1.32552 10.1065 1.65271L11.9823 3.21018L13.858 1.65276C14.2522 1.32557 14.8194 1.30354 15.2376 1.59923L15.2646 1.61835L20.1825 4.43694L19.7074 4.40854C17.5531 4.2801 15.3524 4.78396 13.3442 5.86687C13.0145 6.04466 12.5497 6.13865 12 6.13865C11.4504 6.13865 10.9856 6.04466 10.656 5.86687C8.64783 4.78396 6.44766 4.27996 4.29267 4.40854L3.77803 4.43934L8.69991 1.61835ZM13.6791 14.9075L14.571 14.0155L15.5401 14.9854L13.3132 17.2123L10.0926 13.9887L10.1047 11.8053L12.3229 11.7653L13.5771 13.0207L12.6847 13.9131L13.6791 14.9075ZM15.6776 19.5787L14.3072 18.2071L16.534 15.9802L17.9045 17.3519L15.6776 19.5787ZM13.6542 11.1082L12.8952 10.3485L9.69558 10.4061L6.37912 7.02379L5.37502 8.00835L7.94578 10.6302C6.68184 10.1116 5.5762 9.44488 4.59745 8.61112C3.73392 7.87551 2.96606 7.01113 2.23027 5.94074L4.37663 5.8123C6.27028 5.69868 8.21062 6.14591 9.9885 7.10465C10.5302 7.39673 11.207 7.5449 12 7.5449C12.793 7.5449 13.4698 7.39677 14.0116 7.10465C15.7895 6.14591 17.7298 5.69859 19.6235 5.8123L21.6453 5.93329C20.6203 7.24762 19.4726 8.37266 18.2785 9.2264C16.7492 10.3197 15.1947 10.9519 13.6542 11.1082Z" fill="#9292A3"/>
</g>
<defs>
<clipPath id="clip0">
<rect width="24" height="24" fill="white"/>
</clipPath>
</defs>
</svg>
