<svg width="32" height="32" viewBox="0 0 32 32" fill="none" xmlns="http://www.w3.org/2000/svg">
<path d="M15.9999 30.7693C24.4966 30.7693 31.3845 23.8813 31.3845 15.3846C31.3845 6.88793 24.4966 0 15.9999 0C7.50317 0 0.615234 6.88793 0.615234 15.3846C0.615234 23.8813 7.50317 30.7693 15.9999 30.7693Z" fill="#54B2D3"/>
<path d="M16.0004 30.7693C23.4774 30.7693 29.5388 23.8813 29.5388 15.3846C29.5388 6.88793 23.4774 0 16.0004 0C8.52328 0 2.46191 6.88793 2.46191 15.3846C2.46191 23.8813 8.52328 30.7693 16.0004 30.7693Z" fill="#DCF0F9"/>
<path d="M2.46142 15.3846C2.46142 6.88794 8.5228 0 15.9999 0C7.50317 0 0.615234 6.88794 0.615234 15.3846C0.615234 23.8813 7.50317 30.7693 15.9999 30.7693C8.5228 30.7693 2.46142 23.8813 2.46142 15.3846Z" fill="white"/>
<path d="M16 32C7.16344 32 0 24.8366 0 16C0 7.16344 7.16344 0 16 0C24.8366 0 32 7.16344 32 16C31.9901 24.8324 24.8324 31.9901 16 32ZM16 1.23075C7.84319 1.23075 1.23075 7.84319 1.23075 16C1.23075 24.1568 7.84319 30.7693 16 30.7693C24.1568 30.7693 30.7693 24.1568 30.7693 16C30.7599 7.84706 24.1529 1.24012 16 1.23075Z" fill="#54B2D3"/>
<path d="M10.462 22.1544C10.2131 22.1543 9.9888 22.0044 9.89355 21.7745C9.7983 21.5445 9.85093 21.2799 10.0269 21.1039L21.1038 10.027C21.2587 9.86917 21.4865 9.80667 21.7003 9.86329C21.9141 9.91992 22.081 10.0869 22.1377 10.3007C22.1943 10.5145 22.1318 10.7422 21.974 10.8972L10.897 21.974C10.7818 22.0896 10.6252 22.1545 10.462 22.1544Z" fill="#54B2D3"/>
<path d="M21.5389 22.1543C21.3756 22.1545 21.2191 22.0896 21.1038 21.974L10.0269 10.8971C9.7903 10.6561 9.79205 10.2696 10.0308 10.0308C10.2696 9.79205 10.6561 9.7903 10.8971 10.0269L21.974 21.1038C22.1499 21.2798 22.2026 21.5444 22.1073 21.7744C22.0121 22.0043 21.7877 22.1542 21.5389 22.1543Z" fill="#54B2D3"/>
</svg>
