<svg width="32" height="32" viewBox="0 0 32 32" fill="none" xmlns="http://www.w3.org/2000/svg">
<g clip-path="url(#clip0)">
<path d="M14.4584 26.133L16.2478 28.573C16.3674 28.7345 16.5678 28.8151 16.766 28.7813C16.9642 28.7475 17.1265 28.6051 17.1859 28.413L22.9091 9.75538C22.9661 9.5671 22.9149 9.36271 22.7758 9.22361C22.6367 9.0845 22.4323 9.03327 22.244 9.09031L3.58536 14.8135C3.39326 14.8729 3.25086 15.0352 3.21706 15.2334C3.18326 15.4316 3.26379 15.632 3.42536 15.7516L7.71602 18.8983C7.841 18.9904 7.91964 19.1324 7.93143 19.2872C7.94321 19.442 7.88696 19.5942 7.77736 19.7042L0.688823 26.7932C0.48133 27.0014 0.48133 27.3382 0.688823 27.5463L2.57096 29.4284L4.45309 31.3106C4.66123 31.5181 4.99801 31.5181 5.20616 31.3106L12.2958 24.221C12.4057 24.1114 12.558 24.0551 12.7128 24.0669C12.8675 24.0787 13.0095 24.1573 13.1016 24.2823L14.4584 26.133Z" fill="#DCF0F9"/>
<path d="M11.5018 24.2824C11.4097 24.1574 11.2678 24.0788 11.113 24.067C10.9582 24.0552 10.8059 24.1114 10.696 24.221L4.0293 30.8877L4.45276 31.3144C4.66091 31.5219 4.99769 31.5219 5.20583 31.3144L11.8117 24.7053L11.5018 24.2824Z" fill="#B4DDF0"/>
<path d="M22.245 9.09031L21.285 9.38524C21.3391 9.50117 21.3484 9.633 21.3112 9.75538L15.749 27.8887L16.2498 28.5719C16.3695 28.7335 16.5699 28.814 16.7681 28.7802C16.9663 28.7464 17.1286 28.604 17.188 28.4119L22.9101 9.75538C22.9671 9.5671 22.9159 9.36271 22.7768 9.22361C22.6377 9.0845 22.4333 9.03327 22.245 9.09031Z" fill="#B4DDF0"/>
<path d="M0.30957 26.4141L3.3261 23.3975L4.08023 24.1517L1.0637 27.1682L0.30957 26.4141Z" fill="white"/>
<path d="M31.4665 6.93262H29.3331C29.0386 6.93262 28.7998 7.1714 28.7998 7.46595C28.7998 7.7605 29.0386 7.99929 29.3331 7.99929H31.4665C31.761 7.99929 31.9998 7.7605 31.9998 7.46595C31.9998 7.1714 31.761 6.93262 31.4665 6.93262Z" fill="#54B2D3"/>
<path d="M17.5997 6.93262C17.3052 6.93262 17.0664 7.1714 17.0664 7.46595C17.0664 7.7605 17.3052 7.99929 17.5997 7.99929H19.7331C20.0276 7.99929 20.2664 7.7605 20.2664 7.46595C20.2664 7.1714 20.0276 6.93262 19.7331 6.93262H17.5997Z" fill="#54B2D3"/>
<path d="M28.3052 10.4837C28.0959 10.2816 27.7633 10.2845 27.5576 10.4902C27.3519 10.6959 27.349 11.0286 27.5511 11.2378L29.0594 12.7466C29.2677 12.955 29.6056 12.955 29.814 12.7466C30.0224 12.5382 30.0224 12.2004 29.814 11.992L28.3052 10.4837Z" fill="#54B2D3"/>
<path d="M21.1398 4.60577C21.3555 4.60573 21.5499 4.47579 21.6324 4.27652C21.715 4.07726 21.6694 3.8479 21.5169 3.69537L20.0086 2.18657C19.8002 1.97817 19.4623 1.97817 19.254 2.18657C19.0456 2.39497 19.0456 2.73284 19.254 2.94124L20.7622 4.44951C20.8623 4.54966 20.9982 4.60589 21.1398 4.60577Z" fill="#54B2D3"/>
<path d="M24.5333 11.7334C24.2388 11.7334 24 11.9722 24 12.2667V14.4001C24 14.6946 24.2388 14.9334 24.5333 14.9334C24.8279 14.9334 25.0667 14.6946 25.0667 14.4001V12.2667C25.0667 11.9722 24.8279 11.7334 24.5333 11.7334Z" fill="#54B2D3"/>
<path d="M25.0667 2.66667V0.533333C25.0667 0.238781 24.8279 0 24.5333 0C24.2388 0 24 0.238781 24 0.533333V2.66667C24 2.96122 24.2388 3.2 24.5333 3.2C24.8279 3.2 25.0667 2.96122 25.0667 2.66667Z" fill="#54B2D3"/>
<path d="M29.8144 2.18643C29.6062 1.97822 29.2686 1.97822 29.0603 2.18643L27.5515 3.69523C27.4129 3.82913 27.3573 4.02743 27.4061 4.2139C27.4549 4.40037 27.6005 4.54599 27.787 4.5948C27.9734 4.64361 28.1717 4.588 28.3056 4.44936L29.8144 2.94109C29.9146 2.84106 29.9709 2.70531 29.9709 2.56376C29.9709 2.42221 29.9146 2.28646 29.8144 2.18643Z" fill="#54B2D3"/>
<path d="M2.20841 24.752H2.20255C1.9068 24.7536 1.66814 24.9942 1.66895 25.2899C1.66976 25.5857 1.90973 25.825 2.20548 25.825C2.50123 25.825 2.7412 25.5857 2.74201 25.2899C2.74282 24.9942 2.50415 24.7536 2.20841 24.752Z" fill="#54B2D3"/>
<path d="M4.07648 31.6885C4.49289 32.1042 5.16727 32.1042 5.58368 31.6885L12.6717 24.5989C12.8459 24.8365 13.1797 24.8878 13.4173 24.7136C13.6548 24.5394 13.7062 24.2056 13.5319 23.968C13.3478 23.7176 13.0637 23.56 12.7538 23.5363C12.4439 23.5126 12.1391 23.6253 11.9191 23.8448L4.83062 30.9339L1.06688 27.1723C1.27543 26.964 1.27566 26.6262 1.06742 26.4176C0.859168 26.2091 0.521292 26.2088 0.312749 26.4171C-0.102948 26.8335 -0.102948 27.5079 0.312749 27.9243L4.07648 31.6885Z" fill="#54B2D3"/>
<path d="M16.6792 28.2584L14.8898 25.8184C14.7772 25.6644 14.591 25.5821 14.4013 25.6026C14.2115 25.6231 14.0472 25.7432 13.9701 25.9178C13.8929 26.0923 13.9148 26.2948 14.0274 26.4488L15.8168 28.8894C16.0163 29.163 16.3346 29.3248 16.6733 29.3246C16.7337 29.3246 16.794 29.3196 16.8536 29.3096C17.2516 29.2437 17.5776 28.9576 17.6946 28.5715L23.42 9.91282C23.5362 9.53514 23.4342 9.12411 23.1548 8.84467C22.8753 8.56524 22.4643 8.46319 22.0866 8.57949L3.43009 14.3043C3.04511 14.4226 2.7596 14.7477 2.69195 15.1447C2.62429 15.5417 2.78603 15.943 3.11009 16.1822L7.40076 19.3288L3.32982 23.3998C3.19118 23.5337 3.13558 23.732 3.18438 23.9184C3.23319 24.1049 3.37882 24.2505 3.56528 24.2993C3.75175 24.3481 3.95005 24.2925 4.08396 24.1539L8.15649 20.0814C8.37601 19.8614 8.48866 19.5566 8.46499 19.2467C8.44132 18.9368 8.28368 18.6527 8.03329 18.4686L3.74262 15.3219L22.4008 9.60029L16.6792 28.2584Z" fill="#54B2D3"/>
<path d="M9.97757 14.5267L7.1045 15.4083C6.82291 15.4948 6.66472 15.7932 6.75117 16.0748C6.83762 16.3563 7.13598 16.5145 7.41757 16.4281L10.2901 15.5465C10.4749 15.4928 10.6164 15.3438 10.6605 15.1565C10.7045 14.9692 10.6443 14.7727 10.5029 14.6422C10.3614 14.5118 10.1607 14.4677 9.97757 14.5267Z" fill="#54B2D3"/>
<path d="M12.8006 14.7525C12.8536 14.7523 12.9062 14.7443 12.9568 14.7285L13.8811 14.4453C14.1585 14.3558 14.3127 14.0602 14.2273 13.7815C14.1419 13.5028 13.8485 13.3443 13.5686 13.4256L12.6443 13.7088C12.391 13.7856 12.2324 14.0364 12.2716 14.2982C12.3107 14.5599 12.5359 14.7533 12.8006 14.7525Z" fill="#54B2D3"/>
<path d="M25.5839 10.0699C25.6274 10.07 25.6707 10.0648 25.7129 10.0545C26.9792 9.73768 27.8301 8.55082 27.7235 7.24987C27.617 5.94892 26.5844 4.91631 25.2834 4.80977C23.9825 4.70322 22.7956 5.55407 22.4788 6.82034C22.4077 7.10621 22.5817 7.39561 22.8676 7.46674C23.1535 7.53788 23.4429 7.36381 23.514 7.07794C23.7046 6.3186 24.4166 5.80868 25.1969 5.87277C25.9771 5.93686 26.5964 6.55615 26.6605 7.33641C26.7246 8.11667 26.2147 8.82871 25.4553 9.01928C25.1943 9.08469 25.0229 9.33428 25.0556 9.60137C25.0883 9.86846 25.3148 10.0694 25.5839 10.0699Z" fill="#54B2D3"/>
</g>
<defs>
<clipPath id="clip0">
<rect width="32" height="32" fill="white"/>
</clipPath>
</defs>
</svg>
