<svg width="32" height="32" viewBox="0 0 32 32" fill="none" xmlns="http://www.w3.org/2000/svg">
<path d="M1.60087 4.26953H30.4009C30.99 4.26953 31.4676 4.74709 31.4676 5.33622V26.6695C31.4676 27.2587 30.99 27.7362 30.4009 27.7362H1.60087C1.01174 27.7362 0.53418 27.2587 0.53418 26.6695V5.33616C0.53418 4.74709 1.01174 4.26953 1.60087 4.26953Z" fill="#54B2D3"/>
<path d="M29.8671 5.33616V26.6695C29.8653 27.2579 29.3888 27.7344 28.8004 27.7362H1.60041C1.5471 27.7362 1.49372 27.7309 1.44041 27.7255C1.42441 27.7202 1.4031 27.7202 1.3871 27.7148C1.33416 27.7037 1.28235 27.6876 1.23241 27.6668H1.2271C1.16954 27.6455 1.11416 27.6188 1.06179 27.5868C1.01347 27.5578 0.967162 27.5258 0.923099 27.4908L0.912412 27.4801C0.672662 27.2791 0.534037 26.9823 0.533724 26.6694V5.33616C0.531662 5.07804 0.626849 4.8286 0.800412 4.63754C0.827099 4.61085 0.853724 4.57885 0.885724 4.55222C1.07885 4.36985 1.33472 4.26866 1.60041 4.26954H28.8004C29.3888 4.27129 29.8653 4.74779 29.8671 5.33616Z" fill="#DCF0F9"/>
<path d="M29.867 5.77353V5.33622C29.8652 4.74784 29.3887 4.27128 28.8003 4.26953H30.4003C30.7079 4.26959 31.0001 4.40397 31.2003 4.63753L29.867 5.77353Z" fill="#B4DDF0"/>
<path d="M29.867 5.33616V5.77348L19.2696 14.8242L17.0296 16.7389C16.435 17.2402 15.5656 17.2402 14.9709 16.7389L12.7256 14.8242L0.800293 4.63754C0.82698 4.61085 0.853605 4.57885 0.885605 4.55222C1.07873 4.36985 1.33461 4.26866 1.60029 4.26954H28.8003C29.3887 4.27129 29.8652 4.74779 29.867 5.33616Z" fill="#DCF0F9"/>
<path d="M31.0883 27.4805C30.8971 27.6456 30.6529 27.7365 30.4003 27.7365H28.8003C29.3887 27.7348 29.8652 27.2582 29.867 26.6698V26.1738L31.0883 27.4805Z" fill="#A4C2F7"/>
<path d="M29.8668 26.1736V26.6696C29.865 27.258 29.3885 27.7345 28.8001 27.7363H1.60011C1.5468 27.7363 1.49342 27.731 1.44011 27.7256C1.42411 27.7203 1.4028 27.7203 1.3868 27.7149C1.33386 27.7038 1.28205 27.6877 1.23211 27.6669H1.2268C1.16923 27.6456 1.11386 27.6189 1.06148 27.5869C1.01317 27.558 0.966859 27.5259 0.922797 27.4909L0.912109 27.4802L12.7254 14.8242L14.9707 16.7389C15.5654 17.2403 16.4347 17.2403 17.0294 16.7389L19.2694 14.8242L29.8668 26.1736Z" fill="#DCF0F9"/>
<path d="M0.577953 26.9575C0.592141 27.009 0.609953 27.0595 0.631266 27.1085C0.640891 27.1293 0.653141 27.1485 0.664328 27.1693C0.687828 27.2141 0.714391 27.2572 0.743766 27.2983C0.757078 27.316 0.771516 27.332 0.785891 27.349C0.819641 27.3901 0.856578 27.4284 0.896266 27.4637C0.902141 27.469 0.906391 27.4755 0.912266 27.4803L0.922953 27.491C0.935203 27.5 0.949078 27.5086 0.961891 27.5182C0.988578 27.5379 1.0152 27.5571 1.04402 27.5747C1.04964 27.5791 1.05552 27.5832 1.06164 27.587C1.07552 27.5955 1.09095 27.6003 1.10483 27.6078C1.14039 27.6277 1.17708 27.6455 1.2147 27.6611L1.22695 27.667H1.23227C1.2822 27.6878 1.33395 27.7038 1.38695 27.715C1.40295 27.7203 1.42427 27.7203 1.44027 27.7257C1.49358 27.731 1.54695 27.7363 1.60027 27.7363H3.19983C3.14652 27.7363 3.09314 27.731 3.03983 27.7257C3.02383 27.7203 3.00252 27.7203 2.98652 27.715C2.93358 27.7038 2.88177 27.6878 2.83183 27.667H2.82652L2.81427 27.6611C2.77664 27.6455 2.73995 27.6277 2.70439 27.6078C2.69052 27.6003 2.67508 27.5955 2.6612 27.587C2.65514 27.5832 2.64927 27.5791 2.64358 27.5747C2.61477 27.5571 2.59027 27.5379 2.56145 27.5182C2.54864 27.5085 2.53477 27.5 2.52252 27.491L2.51183 27.4803C2.50595 27.4755 2.5017 27.4691 2.49583 27.4637C2.45608 27.4284 2.4192 27.3901 2.38545 27.349C2.37108 27.332 2.35664 27.316 2.34333 27.2983C2.31389 27.2572 2.28733 27.2141 2.26389 27.1693C2.2527 27.1485 2.24045 27.1293 2.23083 27.1085C2.20945 27.0595 2.19164 27.009 2.17752 26.9575C2.17164 26.9367 2.16314 26.9175 2.15833 26.8967C2.14183 26.8221 2.13345 26.7459 2.13327 26.6695V5.33616C2.13358 5.26647 2.1407 5.19697 2.15458 5.12872C2.15458 5.11328 2.16314 5.09884 2.16683 5.08341C2.17852 5.03284 2.19402 4.98328 2.2132 4.93516C2.22227 4.91384 2.23402 4.89409 2.24414 4.87328C2.26102 4.83659 2.28008 4.80097 2.3012 4.76659C2.32639 4.72891 2.35395 4.69291 2.38389 4.65884C2.38977 4.65247 2.39402 4.64447 2.39989 4.63753L2.40845 4.62897C2.47383 4.55522 2.54902 4.49078 2.63189 4.43753C2.64627 4.42791 2.66227 4.42153 2.6772 4.41297C2.71664 4.38891 2.75758 4.36753 2.79989 4.34897C2.83777 4.33491 2.87639 4.32297 2.91564 4.31322C2.94127 4.30578 2.96527 4.29616 2.99139 4.29084C3.06002 4.27666 3.12989 4.26953 3.19995 4.26953H1.59983C1.52977 4.26953 1.45989 4.27672 1.39127 4.29084C1.36514 4.29616 1.34114 4.30578 1.31552 4.31322C1.27633 4.32297 1.23764 4.33491 1.19977 4.34897C1.15752 4.36753 1.11652 4.38891 1.07708 4.41297C1.06214 4.42153 1.04614 4.42791 1.03177 4.43753C0.948891 4.49084 0.873703 4.55528 0.808328 4.62897L0.799828 4.63753C0.793953 4.64447 0.789703 4.65247 0.783828 4.65884C0.753891 4.69341 0.726266 4.72997 0.701141 4.76816C0.679953 4.80253 0.660953 4.83816 0.644078 4.87484C0.633953 4.89566 0.622203 4.91541 0.613141 4.93672C0.593891 4.98491 0.578391 5.03447 0.566766 5.08497C0.563016 5.10041 0.557141 5.11484 0.554516 5.13028C0.540766 5.19803 0.533578 5.26697 0.533203 5.33616V26.6695C0.533578 26.7459 0.542141 26.8221 0.558828 26.8967C0.563578 26.9175 0.572078 26.9362 0.577953 26.9575Z" fill="white"/>
<path d="M1.60059 3.73535H8.5339H30.4006V4.80204H8.5339H1.60059V3.73535Z" fill="white"/>
<path d="M6.24549 4.64758C6.29368 4.59658 6.33174 4.53683 6.35749 4.47158C6.38481 4.40745 6.39931 4.33858 6.40018 4.26889C6.40143 4.0522 6.27149 3.85633 6.07137 3.7732C5.87125 3.69014 5.64075 3.73633 5.48818 3.8902L5.42418 3.9702C5.404 3.99995 5.38781 4.0322 5.37618 4.0662C5.36075 4.09645 5.35 4.12877 5.34418 4.1622C5.33825 4.19745 5.33468 4.23314 5.3335 4.26889C5.33556 4.41008 5.39081 4.54527 5.48818 4.64758C5.53918 4.69577 5.59893 4.73383 5.66418 4.75958C5.86312 4.84008 6.09075 4.7962 6.24549 4.64758Z" fill="#54B2D3"/>
<path d="M30.4 3.73535H8C7.70544 3.73535 7.46669 3.97416 7.46669 4.26866C7.46669 4.56316 7.7055 4.80198 8 4.80198H30.4C30.6946 4.80198 30.9333 5.04079 30.9333 5.33529V26.6686C30.9333 26.9632 30.6946 27.2019 30.4 27.2019H1.6C1.30544 27.2019 1.06669 26.9631 1.06669 26.6686V5.33535C1.06669 5.04079 1.3055 4.80204 1.6 4.80204H3.73331C4.02787 4.80204 4.26662 4.56323 4.26662 4.26873C4.26662 3.97423 4.02781 3.73541 3.73331 3.73541H1.6C0.716375 3.73535 0 4.45173 0 5.33535V26.6687C0 27.5523 0.716375 28.2687 1.6 28.2687H30.4C31.2836 28.2687 32 27.5523 32 26.6687V5.33535C32 4.45173 31.2837 3.73535 30.4 3.73535Z" fill="#54B2D3"/>
<path d="M2.25771 6.05966C2.16677 6.16804 2.12252 6.30804 2.13484 6.44898C2.14715 6.58991 2.21496 6.72016 2.32327 6.8111L14.6273 17.1465C15.4203 17.8142 16.5788 17.8142 17.3718 17.1465L29.6758 6.8111C29.9015 6.62173 29.9308 6.28529 29.7415 6.05966C29.5521 5.83404 29.2156 5.80466 28.99 5.99404L16.686 16.33C16.2891 16.6636 15.71 16.6636 15.3131 16.33L3.00921 5.99404C2.90084 5.9031 2.76084 5.85885 2.6199 5.87116C2.47896 5.88354 2.34865 5.95129 2.25771 6.05966Z" fill="#54B2D3"/>
<path d="M9.74343 17.239L2.27675 25.239C2.14162 25.3774 2.092 25.5781 2.14712 25.7635C2.20225 25.9489 2.35343 26.0899 2.54218 26.1321C2.731 26.1742 2.92775 26.1108 3.0565 25.9664L10.5232 17.9664C10.6583 17.8281 10.7079 17.6273 10.6528 17.4419C10.5977 17.2565 10.4465 17.1155 10.2577 17.0734C10.069 17.0312 9.87218 17.0946 9.74343 17.239Z" fill="#54B2D3"/>
<path d="M21.5024 17.2126C21.2872 17.4136 21.2755 17.7509 21.4763 17.9662L28.943 25.9663C29.1455 26.1736 29.4765 26.1814 29.6884 25.9836C29.9003 25.7859 29.9155 25.4551 29.7227 25.2388L22.256 17.2387C22.0551 17.0235 21.7177 17.0118 21.5024 17.2126Z" fill="#54B2D3"/>
</svg>
