<svg xmlns="http://www.w3.org/2000/svg" width="36" height="37" viewBox="0 0 36 37">
  <g id="red" transform="translate(5633 22338)">
    <g id="Path_1009" data-name="Path 1009" transform="translate(11.95 45.629)" fill="#ff5b64">
      <path d="M -5612.4345703125 -22347.62890625 L -5641.1015625 -22347.62890625 L -5643.8681640625 -22382.62890625 L -5610.021484375 -22382.62890625 L -5612.4345703125 -22347.62890625 Z" stroke="none"/>
      <path d="M -5613.36767578125 -22348.62890625 L -5611.0927734375 -22381.62890625 L -5642.7861328125 -22381.62890625 L -5640.177734375 -22348.62890625 L -5613.36767578125 -22348.62890625 M -5611.5009765625 -22346.62890625 L -5642.02587890625 -22346.62890625 L -5644.9501953125 -22383.62890625 L -5608.9501953125 -22383.62890625 L -5611.5009765625 -22346.62890625 Z" stroke="none" fill="#fff"/>
    </g>
    <path id="Path_1005" data-name="Path 1005" d="M9.887,9.983l8.245-.159a.161.161,0,0,0,.119-.266L17.2,8.345a.328.328,0,0,0-.25-.111l-6.8.131L11.223,1.65a.321.321,0,0,0-.076-.263L10.092.174a.161.161,0,0,0-.281.081L8.507,8.4.262,8.555a.161.161,0,0,0-.119.267L1.2,10.035a.327.327,0,0,0,.25.111l6.8-.131L7.171,16.729a.321.321,0,0,0,.076.263L8.3,18.205a.161.161,0,0,0,.281-.081Z" transform="translate(-5628.157 -22318.486) rotate(-48)" fill="#fff"/>
  </g>
</svg>
