<svg xmlns="http://www.w3.org/2000/svg" width="36" height="37" viewBox="0 0 36 37">
  <g id="green" transform="translate(5585 22338)">
    <g id="Path_1010" data-name="Path 1010" transform="translate(59.95 45.629)" fill="#65cd98">
      <path d="M -5612.4345703125 -22347.62890625 L -5641.1015625 -22347.62890625 L -5643.8681640625 -22382.62890625 L -5610.021484375 -22382.62890625 L -5612.4345703125 -22347.62890625 Z" stroke="none"/>
      <path d="M -5613.36767578125 -22348.62890625 L -5611.0927734375 -22381.62890625 L -5642.7861328125 -22381.62890625 L -5640.177734375 -22348.62890625 L -5613.36767578125 -22348.62890625 M -5611.5009765625 -22346.62890625 L -5642.02587890625 -22346.62890625 L -5644.9501953125 -22383.62890625 L -5608.9501953125 -22383.62890625 L -5611.5009765625 -22346.62890625 Z" stroke="none" fill="#fff"/>
    </g>
    <path id="Path_1011" data-name="Path 1011" d="M21.277,13.984a8.5,8.5,0,1,0,8.5,8.5A8.5,8.5,0,0,0,21.277,13.984Zm0,15.558a7.058,7.058,0,1,1,7.058-7.058A7.059,7.059,0,0,1,21.277,29.542Z" transform="translate(-5587.777 -22341.984)" fill="#fff"/>
  </g>
</svg>
