<svg width="14" height="14" viewBox="0 0 14 14" fill="none" xmlns="http://www.w3.org/2000/svg">
<path d="M12.9072 11.2895C12.5856 10.5279 12.119 9.83606 11.5333 9.25259C10.9494 8.66744 10.2577 8.20089 9.49638 7.87873C9.48957 7.87532 9.48275 7.87361 9.47593 7.87021C10.5379 7.10316 11.2282 5.85373 11.2282 4.44407C11.2282 2.10884 9.33616 0.216797 7.00093 0.216797C4.6657 0.216797 2.77366 2.10884 2.77366 4.44407C2.77366 5.85373 3.464 7.10316 4.52593 7.87191C4.51911 7.87532 4.51229 7.87702 4.50548 7.88043C3.74184 8.20259 3.05661 8.66452 2.46854 9.2543C1.88339 9.83822 1.41685 10.5299 1.09468 11.2912C0.778184 12.0365 0.607491 12.8356 0.591839 13.6452C0.591385 13.6634 0.594576 13.6815 0.601224 13.6984C0.607873 13.7154 0.617846 13.7308 0.630554 13.7438C0.643262 13.7569 0.658449 13.7672 0.675219 13.7743C0.69199 13.7813 0.710005 13.785 0.728203 13.785H1.75093C1.82593 13.785 1.88559 13.7253 1.88729 13.652C1.92138 12.3361 2.44979 11.1037 3.38388 10.1696C4.35036 9.20316 5.63388 8.67134 7.00093 8.67134C8.36798 8.67134 9.6515 9.20316 10.618 10.1696C11.5521 11.1037 12.0805 12.3361 12.1146 13.652C12.1163 13.727 12.1759 13.785 12.2509 13.785H13.2737C13.2919 13.785 13.3099 13.7813 13.3266 13.7743C13.3434 13.7672 13.3586 13.7569 13.3713 13.7438C13.384 13.7308 13.394 13.7154 13.4006 13.6984C13.4073 13.6815 13.4105 13.6634 13.41 13.6452C13.393 12.8304 13.2242 12.0378 12.9072 11.2895ZM7.00093 7.37589C6.21854 7.37589 5.48218 7.07077 4.9282 6.5168C4.37423 5.96282 4.06911 5.22646 4.06911 4.44407C4.06911 3.66168 4.37423 2.92532 4.9282 2.37134C5.48218 1.81736 6.21854 1.51225 7.00093 1.51225C7.78332 1.51225 8.51968 1.81736 9.07366 2.37134C9.62763 2.92532 9.93275 3.66168 9.93275 4.44407C9.93275 5.22646 9.62763 5.96282 9.07366 6.5168C8.51968 7.07077 7.78332 7.37589 7.00093 7.37589Z" fill="#54B2D3"/>
</svg>
