<svg width="32" height="32" viewBox="0 0 32 32" fill="none" xmlns="http://www.w3.org/2000/svg">
<g clip-path="url(#clip0)">
<path d="M31.4646 10.6659L18.9473 21.0659L18.3766 21.5406C16.9959 22.6811 15 22.6811 13.6193 21.5406L13.0486 21.0659L0.53125 10.6659L5.33125 7.26325L11.0699 3.19925L12.8406 1.94058C12.8459 1.94058 12.8513 1.93525 12.8566 1.93525L13.6193 1.39125C14.9977 0.244584 16.9981 0.244584 18.3766 1.39125L20.9259 3.19925L26.6646 7.26325L31.4646 10.6659Z" fill="#DCF0F9"/>
<path d="M30.3963 11.7278L17.879 22.1279L17.8523 22.1492C16.5985 22.6303 15.1826 22.3957 14.151 21.5359L13.5803 21.0612L1.06299 10.6612L5.86299 7.25852L11.6017 3.19452L13.3723 1.93585C13.3777 1.93585 13.383 1.93052 13.3883 1.93052C14.6868 1.33625 16.211 1.53947 17.3083 2.45318L19.8577 4.26118L25.5963 8.32518L30.3963 11.7278Z" fill="#DCF0F9"/>
<path d="M26.6619 3.73707V25.6037H5.32861V3.73707C5.34663 3.42719 5.61053 3.18943 5.92061 3.20374H26.0699C26.38 3.18943 26.6439 3.42719 26.6619 3.73707Z" fill="#DCF0F9"/>
<path d="M25.0619 3.73707V25.6037H5.32861V3.73707C5.34663 3.42719 5.61053 3.18943 5.92061 3.20374H24.4699C24.78 3.18943 25.0439 3.42719 25.0619 3.73707Z" fill="white"/>
<path d="M31.4646 10.6719L31.4646 30.4052C31.4652 30.7023 31.3391 30.9855 31.1179 31.1839C30.9246 31.37 30.6663 31.4734 30.3979 31.4719H1.59792C1.32956 31.4734 1.07122 31.37 0.877919 31.1839C0.656779 30.9855 0.530684 30.7023 0.531252 30.4052L0.53125 10.6719L13.0486 21.0719L13.6193 21.5465C15.0003 22.686 16.9955 22.686 18.3766 21.5465L18.9473 21.0719L29.8646 11.9999L31.4646 10.6719Z" fill="#DCF0F9"/>
<path d="M29.8646 12.002V30.4073C29.8652 30.7044 29.7391 30.9876 29.5179 31.186C29.3246 31.3721 29.0663 31.4754 28.7979 31.474H1.59792C1.32956 31.4754 1.07122 31.3721 0.877919 31.186C0.656779 30.9876 0.530684 30.7044 0.531252 30.4073L0.53125 10.1406L11.4486 19.7993L12.0193 20.274C12.9313 21.0313 14.1099 22.0293 15.1979 21.7839C16.2859 22.0293 17.4646 22.306 18.3766 21.5486L18.9473 21.074L29.8646 12.002Z" fill="#DCF0F9"/>
<path d="M31.115 31.1745C30.9217 31.3607 30.6634 31.464 30.395 31.4625H1.595C1.32664 31.464 1.0683 31.3607 0.875 31.1745L12.2563 21.7185L13.0457 21.0625L13.6163 21.5372C14.9105 22.6052 16.758 22.6794 18.1337 21.7185C18.2137 21.6598 18.2937 21.6012 18.3737 21.5372L18.9443 21.0625L31.115 31.1745Z" fill="#B4DDF0"/>
<path d="M29.515 31.1748C29.3217 31.3609 29.0634 31.4642 28.795 31.4628H1.595C1.32664 31.4642 1.0683 31.3609 0.875 31.1748L12.2563 21.7188C13.1091 22.3204 14.1765 22.5335 15.195 22.3054C16.2135 22.5335 17.2809 22.3204 18.1337 21.7188L29.515 31.1748Z" fill="#DCF0F9"/>
<path d="M1.59792 31.486H3.19792C2.92956 31.4875 2.67122 31.3842 2.47792 31.198C2.25678 30.9997 2.13068 30.7164 2.13125 30.4194V10.1527L2.46592 10.4488L6.93125 7.28336V3.7527C6.94926 3.44281 7.21317 3.20505 7.52325 3.21936H5.92325C5.61317 3.20505 5.34926 3.44281 5.33125 3.7527V7.28336L0.865919 10.4488L0.531252 10.1527V30.4194C0.530684 30.7164 0.656779 30.9997 0.877919 31.198C1.07122 31.3842 1.32956 31.4875 1.59792 31.486Z" fill="white"/>
<path d="M14.4331 1.94845C14.4384 1.94845 14.4438 1.94312 14.4491 1.94312L15.2117 1.39912C15.6694 1.0225 16.2108 0.761214 16.7904 0.637197C15.67 0.385359 14.4962 0.666726 13.6118 1.39912L12.8491 1.94312C12.8438 1.94312 12.8385 1.94845 12.8331 1.94845L11.0625 3.20712H12.6625L14.4331 1.94845Z" fill="white"/>
<path d="M16.6686 18.1329C15.4732 18.1273 14.2855 17.94 13.1463 17.5774C11.3262 16.9685 9.97424 15.4275 9.60728 13.5436C9.20574 11.6095 9.93752 9.56439 11.6146 7.93292C11.7945 7.75766 11.9815 7.58979 12.1755 7.42929C13.8926 5.99171 16.2076 5.49212 18.3647 6.09361C20.4531 6.76018 21.8961 8.66874 21.9683 10.8597C22.0465 12.1209 21.6354 13.3637 20.8206 14.3296C20.1922 15.1212 19.174 15.4951 18.1826 15.2983C17.7772 15.2142 17.4235 14.9686 17.2029 14.6182C17.0049 14.2778 16.9542 13.8715 17.0623 13.4929C17.5287 11.7299 18.0029 9.05068 18.0075 9.02353C18.0407 8.83585 18.1714 8.68009 18.3505 8.61494C18.5296 8.54979 18.7299 8.58513 18.8758 8.70766C19.0218 8.83019 19.0913 9.02129 19.0582 9.20897C19.0384 9.32044 18.5715 11.9595 18.0936 13.7655C18.0595 13.8656 18.0681 13.9753 18.1173 14.0689C18.1911 14.1709 18.3023 14.2395 18.4266 14.2595C19.0335 14.3608 19.6465 14.1173 20.0186 13.6272C20.6513 12.8702 20.9683 11.8987 20.9039 10.9142C20.8517 9.17019 19.7081 7.64757 18.0477 7.11153C16.2353 6.61302 14.2937 7.03889 12.8563 8.2502C12.6849 8.39244 12.5183 8.54134 12.3584 8.69708C11.5293 9.50358 10.2053 11.1771 10.6514 13.3264C10.9512 14.828 12.0236 16.0586 13.4701 16.5608C15.9714 17.3587 19.5655 17.4548 21.4593 15.1001C21.6453 14.876 21.9767 14.8427 22.2037 15.0251C22.4307 15.2076 22.4694 15.5385 22.2905 15.7683C20.8902 17.5098 18.7592 18.1329 16.6686 18.1329Z" fill="#54B2D3"/>
<path d="M14.8375 15.3663C14.2737 15.376 13.7239 15.1911 13.2805 14.8428C12.2568 14.0236 12.2286 12.6004 12.5156 11.6312C12.6123 11.3084 12.7421 10.9965 12.9029 10.7004C13.3031 9.89299 13.9429 9.22894 14.7349 8.79911C15.7213 8.28732 16.9263 8.4814 17.7021 9.27698C18.0869 9.69875 18.3768 10.1982 18.5522 10.7416C18.6451 11.0173 18.4998 11.3166 18.2257 11.4142C17.9516 11.5118 17.6499 11.3718 17.5475 11.0994C17.4211 10.6979 17.2109 10.3279 16.9309 10.0137C16.4786 9.55115 15.7739 9.44591 15.2062 9.75613C14.6122 10.0911 14.1349 10.5997 13.8382 11.2137C13.7135 11.4437 13.6128 11.686 13.5377 11.9366C13.3304 12.6377 13.3759 13.5526 13.9478 14.0106C14.5731 14.5127 15.6278 14.3004 16.2213 13.7884C16.6635 13.3903 17.0435 12.928 17.3486 12.4171C17.4474 12.2516 17.6278 12.1522 17.8205 12.1573C18.0132 12.1623 18.1882 12.2709 18.2782 12.4414C18.3682 12.6118 18.3592 12.8176 18.2547 12.9795C17.8934 13.5816 17.4436 14.1259 16.9203 14.5941C16.3371 15.0862 15.6005 15.3593 14.8375 15.3663Z" fill="#54B2D3"/>
<path d="M1.06667 10.6562V17.5896V30.3896H0V17.5896V10.6562H1.06667Z" fill="white"/>
<path d="M0.533333 13.3229C0.827533 13.322 1.06582 13.0837 1.06667 12.7895V10.6562H0V12.7895C0.000849488 13.0837 0.239134 13.322 0.533333 13.3229Z" fill="#54B2D3"/>
<path d="M0 30.3977H1.06667V17.0646C1.06667 16.77 0.827885 16.5312 0.533333 16.5312C0.238781 16.5312 0 16.77 0 17.0646V30.3977Z" fill="#54B2D3"/>
<path d="M1.07812 14.924C1.07601 14.7828 1.02078 14.6476 0.923451 14.5453L0.843451 14.4813C0.813714 14.4611 0.781433 14.445 0.747451 14.4333C0.717232 14.4179 0.684872 14.4071 0.651451 14.4013C0.616182 14.3953 0.580543 14.3917 0.544784 14.3906C0.403575 14.3926 0.268322 14.4478 0.166118 14.5453C-0.0351903 14.7576 -0.0351903 15.0903 0.166118 15.3027C0.217136 15.3508 0.276868 15.3888 0.342118 15.4147C0.406236 15.442 0.47509 15.4565 0.544784 15.4573C0.685953 15.4552 0.821136 15.3999 0.923451 15.3027C1.02074 15.2003 1.07595 15.0651 1.07812 14.924Z" fill="#54B2D3"/>
<path d="M30.4 32.0076H1.6C0.716747 32.0067 0.000969979 31.2909 0 30.4076C0 30.1131 0.238781 29.8743 0.533333 29.8743C0.827885 29.8743 1.06667 30.1131 1.06667 30.4076C1.06705 30.702 1.30561 30.9406 1.6 30.941H30.4C30.6944 30.9407 30.9331 30.7021 30.9333 30.4076V11.811L18.7211 21.9603C17.1421 23.2652 14.8591 23.2656 13.2797 21.9611L0.192427 11.0844C-0.0313414 10.8954 -0.0608069 10.5613 0.126426 10.3361C0.313659 10.1108 0.647515 10.0787 0.87424 10.2642L13.9607 21.1402C15.1448 22.1181 16.8564 22.1178 18.0401 21.1394L31.1253 10.2642C31.2844 10.1317 31.5057 10.1032 31.6931 10.1911C31.8805 10.279 32.0001 10.4673 32 10.6743V30.4076C31.999 31.2909 31.2833 32.0067 30.4 32.0076Z" fill="#54B2D3"/>
<path d="M0.533855 11.2004C0.301551 11.2006 0.0958314 11.0505 0.0252505 10.8292C-0.0453303 10.6078 0.035465 10.3663 0.225002 10.232L5.025 6.82941C5.26532 6.66285 5.59494 6.72084 5.76398 6.95941C5.93302 7.19798 5.87845 7.52817 5.64164 7.69967L0.841642 11.1022C0.751762 11.1662 0.644168 11.2005 0.533855 11.2004Z" fill="#54B2D3"/>
<path d="M31.4684 11.2004C31.358 11.2005 31.2505 11.1662 31.1606 11.1022L26.3607 7.69967C26.1239 7.52817 26.0693 7.19798 26.2383 6.95941C26.4074 6.72084 26.737 6.66285 26.9773 6.82941L31.7772 10.232C31.9667 10.3663 32.0475 10.6078 31.9769 10.8292C31.9064 11.0505 31.7007 11.2006 31.4684 11.2004Z" fill="#54B2D3"/>
<path d="M20.9204 3.73559C20.81 3.73565 20.7023 3.70133 20.6123 3.6374L18.063 1.8294C16.8796 0.829395 15.1504 0.818977 13.955 1.80466L11.3738 3.63746C11.2183 3.7477 11.0158 3.76664 10.8426 3.68713C10.6694 3.60762 10.5518 3.44174 10.5341 3.25198C10.5163 3.06222 10.6012 2.87741 10.7566 2.76716L13.3059 0.959162C14.8811 -0.328856 17.1485 -0.318611 18.7121 0.983589L21.2293 2.76695C21.419 2.90123 21.4999 3.1429 21.4293 3.36433C21.3587 3.58575 21.1528 3.73595 20.9204 3.73559Z" fill="#54B2D3"/>
<path d="M0.877576 31.7136C0.652812 31.7138 0.452049 31.573 0.375587 31.3617C0.299125 31.1503 0.363377 30.9137 0.536243 30.7701L12.7069 20.6583C12.8532 20.5339 13.055 20.4978 13.2353 20.5636C13.4156 20.6294 13.5467 20.7871 13.5784 20.9764C13.6101 21.1657 13.5377 21.3575 13.3887 21.4785L1.218 31.5903C1.12245 31.67 1.00198 31.7136 0.877576 31.7136Z" fill="#54B2D3"/>
<path d="M31.1297 31.7135C31.0054 31.7136 30.885 31.67 30.7896 31.5903L18.6189 21.4785C18.4699 21.3575 18.3975 21.1657 18.4292 20.9764C18.461 20.7871 18.592 20.6294 18.7723 20.5636C18.9527 20.4978 19.1545 20.5339 19.3007 20.6583L31.4711 30.7701C31.6439 30.9137 31.7082 31.1503 31.6317 31.3617C31.5552 31.573 31.3545 31.7138 31.1297 31.7136V31.7135Z" fill="#54B2D3"/>
<path d="M26.664 15.1949C26.3695 15.1949 26.1307 14.9561 26.1307 14.6616V3.74305C26.1292 3.75425 26.1078 3.73916 26.072 3.73889H5.9227C5.89912 3.73745 5.87599 3.74574 5.8587 3.76183L5.86403 14.6616C5.86403 14.9561 5.62525 15.1949 5.3307 15.1949C5.03614 15.1949 4.79736 14.9561 4.79736 14.6616V3.73889C4.81457 3.13404 5.31779 2.65705 5.9227 2.67223H26.072C26.6769 2.65711 27.1801 3.13406 27.1974 3.73889V14.6616C27.1974 14.9561 26.9586 15.1949 26.664 15.1949Z" fill="#54B2D3"/>
</g>
<defs>
<clipPath id="clip0">
<rect width="32" height="32" fill="white"/>
</clipPath>
</defs>
</svg>
