<svg width="10" height="10" viewBox="0 0 10 10" fill="none" xmlns="http://www.w3.org/2000/svg">
<path d="M4.72283 0.983869L1.0996 4.31721C0.862126 4.51184 0.866888 4.88626 1.08087 5.10508C1.29485 5.32389 1.6738 5.34185 1.88622 5.12156L4.54406 2.67943V8.52468C4.54406 8.83149 4.80019 9.08023 5.11614 9.08023C5.4321 9.08023 5.68823 8.83149 5.68823 8.52468V2.67943L8.34606 5.12156C8.5585 5.34182 8.93905 5.32378 9.15303 5.10489C9.36701 4.88608 9.36795 4.50634 9.13269 4.31709L5.50945 0.983754C5.3985 0.882361 5.2691 0.834772 5.11614 0.833291C4.97981 0.838628 4.82222 0.893091 4.72283 0.983869Z" fill="#54B2D3" stroke="#54B2D3" stroke-width="0.2"/>
</svg>
