<svg width="17" height="16" viewBox="0 0 17 16" fill="none" xmlns="http://www.w3.org/2000/svg">
<g clip-path="url(#clip0)">
<path d="M16.9871 1.90378C16.9924 1.39313 16.7964 0.913063 16.4353 0.551938C16.0789 0.195531 15.6067 0 15.1035 0C15.0969 0 15.0902 3.125e-05 15.0835 9.375e-05C14.5728 0.00534375 14.0969 0.211188 13.7433 0.579625L10.9429 3.49791L3.61508 1.07278L1.451 3.23694L7.57485 7.00769L5.05509 9.6335L3.07741 9.30881L0.987793 11.3984L4.39561 12.5921L5.5892 16L7.67881 13.9103L7.35413 11.9326L9.97986 9.41272L13.7505 15.5368L15.9146 13.3727L13.4895 6.04456L16.4077 3.24403C16.7761 2.89041 16.9819 2.41444 16.9871 1.90378ZM15.7579 2.56694L12.4126 5.77738L14.8419 13.1182L13.9268 14.0334L10.1692 7.93041L6.34814 11.5974L6.67481 13.5872L5.98131 14.2808L5.13196 11.8557L2.70698 11.0063L3.40049 10.3128L5.39026 10.6395L9.05711 6.81834L2.95438 3.06063L3.86951 2.14547L11.2101 4.57481L14.4204 1.22941C14.5979 1.04444 14.8368 0.941125 15.0932 0.938469C15.0965 0.938406 15.0999 0.938406 15.1032 0.938406C15.3558 0.938406 15.5929 1.03656 15.7718 1.2155C15.9531 1.39678 16.0515 1.63778 16.0488 1.89412C16.0462 2.15047 15.9429 2.38941 15.7579 2.56694Z" fill="#9292A3"/>
</g>
<defs>
<clipPath id="clip0">
<rect width="15.9994" height="16" fill="white" transform="translate(0.987793)"/>
</clipPath>
</defs>
</svg>
