<svg width="14" height="14" viewBox="0 0 14 14" fill="none" xmlns="http://www.w3.org/2000/svg">
<path d="M7 0C3.13438 0 0 3.13438 0 7C0 10.8656 3.13438 14 7 14C10.8656 14 14 10.8656 14 7C14 3.13438 10.8656 0 7 0ZM10 7.375C10 7.44375 9.94375 7.5 9.875 7.5H7.5V9.875C7.5 9.94375 7.44375 10 7.375 10H6.625C6.55625 10 6.5 9.94375 6.5 9.875V7.5H4.125C4.05625 7.5 4 7.44375 4 7.375V6.625C4 6.55625 4.05625 6.5 4.125 6.5H6.5V4.125C6.5 4.05625 6.55625 4 6.625 4H7.375C7.44375 4 7.5 4.05625 7.5 4.125V6.5H9.875C9.94375 6.5 10 6.55625 10 6.625V7.375Z" fill="#54B2D3"/>
</svg>
