<svg width="33" height="32" viewBox="0 0 33 32" fill="none" xmlns="http://www.w3.org/2000/svg">
<path d="M31.51 22.169C31.508 18.528 28.557 15.578 24.9169 15.575H24.8263L24.725 15.725L20.5108 21.907C20.4409 22.913 20.5003 23.925 20.6868 24.916C20.8717 25.668 21.3061 26.336 21.919 26.809C22.1595 26.978 22.4467 27.068 22.7405 27.066C22.8975 27.06 23.0523 27.03 23.1993 26.975C23.7299 26.781 24.1057 26.304 24.1702 25.743C24.1807 26.206 24.2415 26.668 24.3516 27.119C24.5365 27.87 24.9711 28.536 25.5838 29.007C25.828 29.181 26.1218 29.271 26.4214 29.263C27.2113 29.234 27.8374 28.587 27.8404 27.796V22.905L27.8562 22.91V26.249C27.8562 26.66 27.8404 27.071 27.8455 27.482C27.8277 28.099 27.8904 28.716 28.032 29.317C28.218 30.067 28.65 30.734 29.259 31.21C29.633 31.477 30.115 31.539 30.545 31.376C31.127 31.165 31.517 30.614 31.521 29.994L31.51 22.169Z" fill="#54B2D3"/>
<path d="M6.34267 7.88501C6.38127 7.87901 6.42027 7.87601 6.45937 7.87701H9.15007C8.58997 7.87801 6.88937 7.90701 6.34267 7.88501ZM10.1472 11.543C9.14157 11.614 8.13107 11.555 7.14067 11.367C6.08337 11.087 4.61107 10.144 5.08317 8.85301C5.27607 8.32401 5.75077 7.94901 6.31017 7.88301C5.84697 7.87401 5.38617 7.81301 4.93637 7.70201C3.88387 7.42701 2.41167 6.47502 2.87837 5.18802C3.08807 4.60602 3.63827 4.21701 4.25627 4.21301H9.14907L9.14427 4.19702H5.80597C5.39157 4.19702 4.98177 4.21301 4.57207 4.20801C3.95517 4.22601 3.33837 4.16401 2.73767 4.02101C1.68527 3.74701 0.208172 2.79901 0.679672 1.50801C0.889872 0.926011 1.44007 0.53702 2.05857 0.53302L9.88507 0.544022C13.5258 0.545022 16.4765 3.49601 16.478 7.13701V7.23001L10.1472 11.543Z" fill="#DCF0F9"/>
<path d="M31.511 22.169C31.508 18.528 28.558 15.578 24.9175 15.575H24.8269L24.7256 15.725C27.7511 16.391 29.907 19.071 29.911 22.169L29.921 29.994C29.921 30.485 29.672 30.943 29.26 31.21C29.634 31.477 30.116 31.539 30.545 31.376C31.128 31.165 31.518 30.614 31.522 29.994L31.511 22.169Z" fill="#B4DDF0"/>
<path d="M29.921 29.995C29.92 30.486 29.671 30.944 29.259 31.211C28.65 30.735 28.218 30.068 28.032 29.318C27.8904 28.717 27.8277 28.1 27.8455 27.483C27.8404 27.072 27.8562 26.661 27.8562 26.25V22.911L27.8404 22.906V27.797C27.8374 28.588 27.2113 29.235 26.4214 29.264C26.1218 29.271 25.828 29.182 25.5838 29.008C24.9711 28.536 24.5365 27.871 24.3516 27.12C24.2415 26.669 24.1807 26.207 24.1702 25.743C24.1057 26.305 23.7299 26.782 23.1993 26.976C23.0523 27.031 22.8975 27.061 22.7405 27.066C22.4467 27.069 22.1595 26.979 21.919 26.81C21.3061 26.337 20.8717 25.669 20.6868 24.917C20.5003 23.925 20.4409 22.914 20.5108 21.908L24.725 15.726C27.7505 16.392 29.906 19.071 29.91 22.169L29.921 29.995Z" fill="#DCF0F9"/>
<path d="M16.3131 13.805L9.17571 13.01C9.16031 12.71 9.27272 12.417 9.48512 12.205L14.7127 6.97699C14.9286 6.75599 15.2316 6.64299 15.5395 6.66699L16.3131 13.805Z" fill="#DCF0F9"/>
<path d="M19.0491 22.874C18.7822 22.868 18.528 22.759 18.3397 22.57L9.4847 13.715C9.2952 13.528 9.18459 13.276 9.17529 13.011L16.3127 13.806L16.4407 14.968C16.477 15.309 16.7459 15.578 17.086 15.614L18.2542 15.747L19.0491 22.874Z" fill="#DCF0F9"/>
<path d="M25.392 16.557C25.4021 16.85 25.29 17.134 25.0827 17.341L19.8494 22.569C19.6397 22.782 19.3476 22.893 19.0492 22.873L18.2544 15.746L25.392 16.557Z" fill="#DCF0F9"/>
<path d="M25.3924 16.558L18.2547 15.747L17.0865 15.614C16.7463 15.578 16.4775 15.309 16.4411 14.968L16.3131 13.806L15.5396 6.66797C15.7969 6.68597 16.0392 6.79597 16.2223 6.97797L25.083 15.833C25.2783 16.024 25.3897 16.285 25.3924 16.558Z" fill="#B4DDF0"/>
<path d="M3.63267 0.535034H2.05857C1.44077 0.539034 0.890672 0.927026 0.679672 1.50803C0.208172 2.79903 1.68527 3.74703 2.73767 4.02203C3.33837 4.16403 3.95517 4.22702 4.57207 4.20802C4.93637 4.21302 5.30147 4.20204 5.66937 4.19904C5.21967 4.19004 4.77227 4.13103 4.33587 4.02203C3.28537 3.74703 1.80827 2.79903 2.27987 1.50803C2.48717 0.935026 3.02437 0.549034 3.63267 0.535034Z" fill="white"/>
<path d="M4.93552 7.70198C5.38532 7.81398 5.84582 7.87499 6.30902 7.88399C5.74982 7.94899 5.27512 8.32398 5.08222 8.85298C4.61002 10.144 6.08242 11.087 7.13982 11.367C8.09382 11.554 9.06862 11.613 10.0383 11.544C9.60052 11.532 9.16512 11.473 8.73992 11.367C7.68262 11.087 6.21042 10.144 6.68242 8.85298C6.87552 8.32398 7.35022 7.94899 7.90942 7.88399C7.44622 7.87499 6.98541 7.81398 6.53591 7.70198C5.48341 7.42798 4.01102 6.47599 4.47782 5.18799C4.68762 4.60699 5.23831 4.21699 5.85681 4.21399H4.25642C3.63712 4.21699 3.08552 4.60599 2.87522 5.18799C2.41082 6.47399 3.88302 7.42798 4.93552 7.70198Z" fill="white"/>
<path d="M25.0517 15.049L17.0056 7.00301C16.9302 3.12301 13.7665 0.0160016 9.88599 0.0110016L2.05878 0C1.21538 0.001 0.463483 0.530997 0.178283 1.325C-0.0151167 1.837 0.0224837 2.40801 0.281784 2.89101C0.810684 3.72101 1.64289 4.31199 2.60139 4.53799L2.61678 4.54201C2.51638 4.68601 2.43529 4.842 2.37549 5.007C2.18409 5.519 2.22288 6.089 2.48218 6.571C3.01058 7.402 3.84278 7.99299 4.80128 8.21899H4.80908C4.71358 8.35799 4.63618 8.509 4.57878 8.668C4.38568 9.179 4.42228 9.748 4.67938 10.23C5.21008 11.061 6.04269 11.653 7.00169 11.881C7.62169 12.03 8.25828 12.099 8.89588 12.086C8.48508 12.719 8.57279 13.553 9.10609 14.088L17.9648 22.948C18.4991 23.481 19.333 23.569 19.9664 23.158C19.9537 23.797 20.0228 24.434 20.1723 25.055C20.3996 26.014 20.9915 26.847 21.8223 27.377C22.3031 27.634 22.8718 27.671 23.3819 27.479C23.5421 27.421 23.694 27.343 23.8344 27.246V27.256C24.0605 28.214 24.6517 29.046 25.4822 29.574C25.9628 29.834 26.5324 29.873 27.044 29.68C27.2098 29.621 27.3668 29.54 27.5109 29.439L27.5146 29.453C27.74 30.412 28.331 31.245 29.162 31.774C29.437 31.921 29.743 31.999 30.055 32C30.283 31.999 30.51 31.958 30.724 31.878C31.52 31.594 32.053 30.841 32.055 29.995L32.044 22.169C32.039 18.289 28.931 15.125 25.0517 15.049ZM20.1349 21.534L19.5059 22.163L18.8605 16.348L24.6717 16.995L20.1349 21.534ZM15.0597 7.383L15.7063 13.197L9.89188 12.548L15.0597 7.383ZM16.1656 7.67101L24.3838 15.89L17.1465 15.085C17.0537 15.075 16.9802 15.002 16.9705 14.908L16.1656 7.67101ZM5.62588 9.739C5.50548 9.522 5.48959 9.263 5.58269 9.033C5.70159 8.708 5.98728 8.47301 6.32938 8.41901H6.37258L6.47929 8.42101H7.02289C7.43899 8.42101 7.93569 8.417 8.37209 8.412C8.69219 8.409 8.97549 8.40601 9.14709 8.40601C9.44159 8.40601 9.68038 8.16699 9.68038 7.87199C9.68038 7.57799 9.44159 7.339 9.14709 7.339H6.45759C6.41439 7.339 6.36628 7.339 6.31988 7.345C5.89868 7.338 5.47938 7.284 5.07008 7.185C4.40298 7.032 3.81738 6.636 3.42748 6.073C3.30558 5.857 3.28798 5.598 3.37958 5.367C3.51218 5 3.85848 4.75299 4.24918 4.74699H9.14979C9.32199 4.74399 9.48238 4.659 9.58028 4.517C9.68038 4.374 9.70628 4.19199 9.65018 4.02699C9.57688 3.81099 9.37368 3.66499 9.14488 3.66499H5.80608C5.62538 3.66499 5.44538 3.66801 5.26618 3.67101C5.03638 3.67401 4.80708 3.678 4.57298 3.675C4.00198 3.693 3.43108 3.636 2.87538 3.504C2.20678 3.353 1.61879 2.957 1.22659 2.395C1.10519 2.178 1.08889 1.918 1.18169 1.687C1.31719 1.319 1.66558 1.072 2.05828 1.067L9.88528 1.078C12.8664 1.083 15.4013 3.25401 15.8653 6.19901C15.3207 6.05901 14.7425 6.21 14.3364 6.599L9.92168 11.013C9.79638 11.013 9.67139 11.013 9.54829 11.018C8.78719 11.067 8.02289 11.011 7.27689 10.853C6.60749 10.699 6.01908 10.302 5.62588 9.739ZM10.1835 13.656L15.8274 14.286L15.9095 15.026C15.9722 15.617 16.4389 16.084 17.0298 16.147L17.7739 16.23L18.3985 21.874L10.1835 13.656ZM30.363 30.874C30.134 30.966 29.874 30.95 29.659 30.828C29.097 30.436 28.701 29.848 28.549 29.18C28.417 28.621 28.36 28.047 28.379 27.473C28.376 27.245 28.379 27.017 28.384 26.787C28.387 26.608 28.39 26.428 28.39 26.246V22.91C28.383 22.677 28.231 22.473 28.01 22.399C27.8469 22.345 27.6682 22.372 27.529 22.473C27.3898 22.573 27.3075 22.734 27.3075 22.905V27.803C27.3031 28.196 27.0548 28.544 26.6851 28.676C26.4546 28.767 26.1957 28.749 25.9798 28.628C25.4182 28.237 25.0221 27.652 24.8688 26.986C24.7679 26.576 24.713 26.157 24.7049 25.735C24.7086 25.688 24.7103 25.64 24.7103 25.598V22.907C24.7103 22.613 24.4715 22.374 24.1768 22.374C23.8823 22.374 23.6434 22.613 23.6434 22.907C23.6434 23.079 23.6434 23.359 23.6376 23.68C23.6376 23.848 23.6337 24.025 23.6322 24.203C23.6273 24.768 23.6251 25.337 23.6349 25.66V25.723C23.5807 26.067 23.3446 26.354 23.0176 26.473C22.7883 26.565 22.5299 26.549 22.3141 26.429C21.7519 26.036 21.3556 25.449 21.2018 24.781C21.0438 24.034 20.9884 23.27 21.0374 22.508C21.0374 22.383 21.0374 22.258 21.0411 22.135L25.4561 17.719C25.8536 17.319 26.0106 16.739 25.8683 16.193C28.807 16.662 30.971 19.194 30.977 22.17L30.988 29.996C30.982 30.39 30.733 30.74 30.363 30.874Z" fill="#54B2D3"/>
<path d="M3.24921 19.721C3.39061 19.721 3.52611 19.665 3.62621 19.565L7.36041 15.831C7.56261 15.622 7.55961 15.289 7.35381 15.083C7.14821 14.877 6.81531 14.874 6.60611 15.076L2.87191 18.811C2.71951 18.963 2.67391 19.193 2.75641 19.392C2.83901 19.591 3.03331 19.721 3.24921 19.721Z" fill="#54B2D3"/>
<path d="M2.87205 24.899C3.08035 25.107 3.41804 25.107 3.62634 24.899L7.36054 21.165C7.56274 20.955 7.55974 20.623 7.35394 20.417C7.14834 20.211 6.81554 20.208 6.60624 20.411L2.87205 24.144C2.66375 24.353 2.66375 24.69 2.87205 24.899Z" fill="#54B2D3"/>
<path d="M12.6946 20.411C12.4863 20.203 12.1486 20.203 11.9403 20.411L6.07239 26.279C5.93369 26.413 5.87829 26.611 5.92709 26.798C5.97569 26.984 6.12148 27.13 6.30798 27.179C6.49458 27.227 6.69288 27.172 6.82668 27.033L12.6946 21.165C12.9029 20.957 12.9029 20.619 12.6946 20.411Z" fill="#54B2D3"/>
<path d="M14.2947 30.233L18.0286 26.499C18.2308 26.289 18.2278 25.957 18.0222 25.751C17.8164 25.545 17.4838 25.542 17.2743 25.744L13.5404 29.479C13.4017 29.612 13.346 29.811 13.3948 29.997C13.4437 30.184 13.5892 30.329 13.7758 30.378C13.9623 30.427 14.1606 30.371 14.2947 30.233Z" fill="#54B2D3"/>
<path d="M11.9403 25.744L8.20619 29.479C8.06769 29.612 8.01199 29.811 8.06089 29.997C8.10969 30.184 8.2552 30.329 8.4418 30.378C8.6284 30.427 8.8266 30.371 8.9605 30.233L12.6946 26.499C12.8968 26.289 12.8939 25.957 12.688 25.751C12.4824 25.545 12.1496 25.542 11.9403 25.744Z" fill="#54B2D3"/>
</svg>
