<svg width="20" height="22" viewBox="0 0 20 22" fill="none" xmlns="http://www.w3.org/2000/svg">
<path d="M19.6748 13.6652L18.1397 12.3527C18.2123 11.9074 18.2498 11.4527 18.2498 10.9981C18.2498 10.5434 18.2123 10.0887 18.1397 9.64337L19.6748 8.33087C19.7906 8.23175 19.8735 8.09972 19.9124 7.95235C19.9513 7.80498 19.9445 7.64925 19.8928 7.50587L19.8717 7.44493C19.4491 6.26375 18.8162 5.16877 18.0037 4.2129L17.9615 4.16368C17.863 4.04779 17.7316 3.96448 17.5847 3.92473C17.4379 3.88499 17.2824 3.89067 17.1389 3.94103L15.2334 4.61837C14.5303 4.04181 13.7451 3.58712 12.8967 3.26837L12.5287 1.27618C12.501 1.12628 12.4282 0.988377 12.3202 0.880788C12.2122 0.773199 12.074 0.70102 11.924 0.67384L11.8607 0.662122C10.6397 0.441809 9.35528 0.441809 8.13418 0.662122L8.0709 0.67384C7.9209 0.70102 7.78271 0.773199 7.6747 0.880788C7.56669 0.988377 7.49398 1.12628 7.46622 1.27618L7.0959 3.27775C6.25424 3.59656 5.47043 4.05101 4.77559 4.62306L2.85606 3.94103C2.71254 3.89027 2.55698 3.88438 2.41003 3.92415C2.26309 3.96392 2.13173 4.04747 2.0334 4.16368L1.99122 4.2129C1.17968 5.16944 0.546941 6.26424 0.123247 7.44493L0.102153 7.50587C-0.0033156 7.79884 0.0834032 8.12697 0.320122 8.33087L1.87403 9.65743C1.80137 10.0981 1.76622 10.5481 1.76622 10.9957C1.76622 11.4457 1.80137 11.8957 1.87403 12.334L0.320122 13.6606C0.204331 13.7597 0.121457 13.8917 0.0825219 14.0391C0.0435864 14.1864 0.0504336 14.3422 0.102153 14.4856L0.123247 14.5465C0.547466 15.7277 1.17559 16.8176 1.99122 17.7785L2.0334 17.8277C2.13197 17.9436 2.26333 18.027 2.41019 18.0667C2.55704 18.1064 2.7125 18.1008 2.85606 18.0504L4.77559 17.3684C5.47403 17.9426 6.2545 18.3973 7.0959 18.7137L7.46622 20.7152C7.49398 20.8651 7.56669 21.0031 7.6747 21.1106C7.78271 21.2182 7.9209 21.2904 8.0709 21.3176L8.13418 21.3293C9.3665 21.5508 10.6284 21.5508 11.8607 21.3293L11.924 21.3176C12.074 21.2904 12.2122 21.2182 12.3202 21.1106C12.4282 21.0031 12.501 20.8651 12.5287 20.7152L12.8967 18.7231C13.7448 18.4051 14.5344 17.949 15.2334 17.3731L17.1389 18.0504C17.2824 18.1012 17.438 18.107 17.5849 18.0673C17.7318 18.0275 17.8632 17.944 17.9615 17.8277L18.0037 17.7785C18.8193 16.8152 19.4475 15.7277 19.8717 14.5465L19.8928 14.4856C19.9982 14.1973 19.9115 13.8692 19.6748 13.6652ZM16.4756 9.91993C16.5342 10.2738 16.5647 10.6371 16.5647 11.0004C16.5647 11.3637 16.5342 11.727 16.4756 12.0809L16.3209 13.0207L18.0717 14.5184C17.8063 15.1298 17.4712 15.7087 17.0732 16.2434L14.8982 15.4723L14.1623 16.077C13.6022 16.5363 12.9787 16.8973 12.3037 17.1504L11.4107 17.4856L10.9912 19.759C10.3293 19.834 9.66097 19.834 8.99903 19.759L8.5795 17.4809L7.69356 17.141C7.02559 16.8879 6.4045 16.527 5.84903 16.0699L5.11309 15.4629L2.92403 16.241C2.52559 15.7043 2.19278 15.1254 1.92559 14.516L3.69512 13.0043L3.54278 12.0668C3.48653 11.7176 3.45606 11.3567 3.45606 11.0004C3.45606 10.6418 3.48418 10.2832 3.54278 9.934L3.69512 8.9965L1.92559 7.48478C2.19043 6.87306 2.52559 6.2965 2.92403 5.75978L5.11309 6.5379L5.84903 5.93087C6.4045 5.47384 7.02559 5.1129 7.69356 4.85978L8.58184 4.52462L9.00137 2.2465C9.65997 2.1715 10.3326 2.1715 10.9936 2.2465L11.4131 4.51993L12.3061 4.85509C12.9787 5.10822 13.6045 5.46915 14.1647 5.92853L14.9006 6.53322L17.0756 5.76212C17.474 6.29884 17.8068 6.87775 18.074 7.48712L16.3232 8.98478L16.4756 9.91993ZM9.99981 6.64103C7.72168 6.64103 5.87481 8.4879 5.87481 10.766C5.87481 13.0442 7.72168 14.891 9.99981 14.891C12.2779 14.891 14.1248 13.0442 14.1248 10.766C14.1248 8.4879 12.2779 6.64103 9.99981 6.64103ZM11.8561 12.6223C11.6126 12.8664 11.3233 13.0601 11.0047 13.192C10.6861 13.3239 10.3446 13.3916 9.99981 13.391C9.29903 13.391 8.64043 13.1168 8.14356 12.6223C7.8994 12.3788 7.70578 12.0895 7.57385 11.7709C7.44192 11.4523 7.37427 11.1108 7.37481 10.766C7.37481 10.0652 7.64903 9.40665 8.14356 8.90978C8.64043 8.4129 9.29903 8.14103 9.99981 8.14103C10.7006 8.14103 11.3592 8.4129 11.8561 8.90978C12.1002 9.15324 12.2938 9.44258 12.4258 9.76115C12.5577 10.0797 12.6253 10.4212 12.6248 10.766C12.6248 11.4668 12.3506 12.1254 11.8561 12.6223Z" fill="#9292A3"/>
</svg>
