<svg width="14" height="12" viewBox="0 0 14 12" fill="none" xmlns="http://www.w3.org/2000/svg">
<path d="M13.125 0.5H0.875C0.80625 0.5 0.75 0.55625 0.75 0.625V1.625C0.75 1.69375 0.80625 1.75 0.875 1.75H13.125C13.1938 1.75 13.25 1.69375 13.25 1.625V0.625C13.25 0.55625 13.1938 0.5 13.125 0.5ZM13.125 10.25H0.875C0.80625 10.25 0.75 10.3062 0.75 10.375V11.375C0.75 11.4438 0.80625 11.5 0.875 11.5H13.125C13.1938 11.5 13.25 11.4438 13.25 11.375V10.375C13.25 10.3062 13.1938 10.25 13.125 10.25ZM13.125 5.375H0.875C0.80625 5.375 0.75 5.43125 0.75 5.5V6.5C0.75 6.56875 0.80625 6.625 0.875 6.625H13.125C13.1938 6.625 13.25 6.56875 13.25 6.5V5.5C13.25 5.43125 13.1938 5.375 13.125 5.375Z" fill="#B5B8C5"/>
</svg>
