<svg width="40" height="40" viewBox="0 0 40 40" fill="none" xmlns="http://www.w3.org/2000/svg">
<mask id="mask0" mask-type="alpha" maskUnits="userSpaceOnUse" x="0" y="0" width="40" height="40">
<path d="M0 4C0 1.79086 1.79086 0 4 0H36C38.2091 0 40 1.79086 40 4V36C40 38.2091 38.2091 40 36 40H4C1.79086 40 0 38.2091 0 36V4Z" fill="#C4C4C4"/>
</mask>
<g mask="url(#mask0)">
<path d="M5.0707 7.23828H3.96688L3.59105 9.36176C3.59105 9.36176 4.01055 9.36176 4.33508 9.36176C4.76297 9.36176 4.96891 9.34453 5.09633 9.31328C6.39527 8.99117 6.52789 7.23828 5.0707 7.23828ZM20.51 9.36254C22.1884 9.45551 22.7253 6.30152 21.075 6.20977C19.4651 6.12043 18.9932 9.27801 20.51 9.36254ZM5.45574 4.46012H4.45891L4.10113 6.48625C4.10113 6.48625 4.53785 6.48625 4.86277 6.48625C5.20293 6.48625 5.38922 6.47344 5.52988 6.42734C6.55836 6.08797 6.65211 4.46012 5.45574 4.46012ZM0 0V40H40V0H0ZM18.5104 7.90898C18.6526 6.65211 19.5012 5.47219 20.9335 5.47219C21.7441 5.47219 22.2465 5.89969 22.4244 6.25629L22.5558 5.56555H23.5402L22.7453 10.0914H22.4588C22.1286 10.0914 21.7781 9.83293 21.8626 9.41184L21.8782 9.34371C21.5878 9.79285 21.1114 10.1867 20.2227 10.1867C19.2756 10.1863 18.3473 9.34609 18.5103 7.90895L18.5104 7.90898ZM7.23906 8.33328C7.14691 8.94508 6.68137 9.78004 5.53387 10.0229C5.28266 10.0754 4.83754 10.0905 4.36957 10.0905C3.68164 10.0909 2.46324 10.0914 2.32461 10.0914L3.45086 3.75898C3.85832 3.75898 4.97535 3.76059 5.68574 3.76059C6.84004 3.76059 7.49672 4.23738 7.49672 5.26066C7.49672 6.22023 6.68059 6.69062 6.22422 6.78918C6.83281 6.925 7.3677 7.48551 7.2391 8.33332L7.23906 8.33328ZM12.4821 6.25023C12.4584 6.41531 12.1587 8.05559 12.097 8.37934C11.9071 9.36254 11.3121 10.1895 9.72875 10.1895C8.81125 10.1895 8.07004 9.67465 7.97266 8.83047C7.95344 8.66578 7.96945 8.41098 8.01434 8.16059C8.12293 7.53758 8.40816 5.94816 8.47231 5.57035C8.47231 5.57035 8.68387 5.57035 8.73234 5.57035C9.0757 5.57035 9.49199 5.76148 9.40543 6.24988C9.37898 6.39531 9.06727 8.20227 9.02602 8.4475C8.91902 9.08215 9.37617 9.36539 9.84496 9.36539C10.6703 9.36539 10.9632 8.94871 11.0686 8.33973C11.117 8.05645 11.5513 5.57 11.5513 5.57C11.5513 5.57 11.7384 5.57 11.8454 5.57C12.1479 5.57039 12.551 5.76152 12.4821 6.25031V6.25023ZM12.6163 11.0269C12.7333 10.4403 13.5847 5.57031 13.5847 5.57031H13.898C14.2137 5.57031 14.5859 5.81313 14.4938 6.24984L14.4814 6.31074C14.7727 5.88566 15.344 5.47777 16.1838 5.47777C17.1501 5.47777 17.9835 6.29473 17.8873 7.71383C17.7964 9.04883 16.8929 10.1891 15.4317 10.1891C14.62 10.1891 14.1116 9.73676 13.9325 9.38016L13.4733 11.8759C13.3367 11.8759 13.3816 11.8759 13.2153 11.8759C13.0382 11.8767 12.4785 11.7164 12.6163 11.0269H12.6163ZM37.4779 13.0586C36.4886 13.0502 35.6561 12.8988 34.9393 12.5979C34.497 12.412 34.16 12.192 33.9008 11.9961C33.7169 11.8675 33.543 11.7257 33.2818 11.7773C33.1095 11.811 32.9492 11.9733 32.8498 12.1095C32.573 12.4601 32.2677 12.894 31.9984 13.2766C31.7873 13.5779 31.5878 13.8623 31.4247 14.0723C31.1899 14.3756 30.9864 14.6084 30.6718 14.6084C30.4839 14.6084 30.2455 14.5062 30.1414 14.2194C30.1233 14.1693 30.1085 14.1116 30.0945 14.0391C30.0757 13.9401 30.0568 13.8039 30.038 13.6232C30.0043 13.3143 29.9699 12.8731 29.9306 12.275C29.8585 11.1732 29.7828 9.68312 29.7082 8.24234C29.6589 7.26113 29.6081 6.25508 29.5572 5.36922C29.5564 5.35879 29.554 5.34039 29.5359 5.33957C29.5195 5.33875 29.5139 5.3532 29.5111 5.3648C29.1505 6.7627 28.7098 8.5252 28.2835 10.2312C27.8336 12.0317 27.4077 13.7329 27.0715 15.0286C26.89 15.7282 26.7505 16.2422 26.6464 16.6C26.5879 16.8035 26.5414 16.955 26.5034 17.0628C26.4797 17.1329 26.4581 17.1858 26.4377 17.2291C26.2898 17.5428 26.0278 17.5768 25.922 17.5768C25.8102 17.5768 25.5979 17.542 25.4336 17.3092C25.3951 17.2551 25.3607 17.191 25.3242 17.1084C25.2765 16.9998 25.2248 16.8564 25.1607 16.6573C25.0521 16.3155 24.9243 15.8564 24.7905 15.3704C24.6371 14.8175 24.4696 14.2482 24.325 13.7646C24.2641 13.557 24.1707 13.4116 24.0057 13.3735C23.8743 13.343 23.7749 13.3767 23.6615 13.4436C22.984 13.8839 21.9775 14.4441 20.6814 14.4441H13.01L13.2076 13.3663H20.6814C21.8489 13.3663 22.752 12.7589 23.3498 12.3566C23.7356 12.097 23.9909 11.9231 24.2857 11.9251C24.6964 11.9287 24.8907 12.2969 24.9941 12.4888C25.2025 12.8743 25.5498 14.0321 25.8086 15.0089C25.8186 15.047 25.8375 15.0955 25.8852 15.0935C25.9361 15.0915 25.9533 15.0438 25.9633 15.0053C25.9757 14.9564 26.8115 11.6734 27.2374 9.96906C27.7094 8.08398 28.1962 6.13516 28.5772 4.67316C28.7855 3.88066 28.9434 3.29691 29.0632 2.88902C29.1305 2.65625 29.1854 2.48355 29.2291 2.36055C29.2579 2.2816 29.2816 2.22191 29.3056 2.17383C29.459 1.86051 29.7195 1.82645 29.8236 1.82645C30.0131 1.82645 30.2507 1.92902 30.3541 2.21547C30.3721 2.26555 30.387 2.32324 30.401 2.39578C30.4198 2.49473 30.4386 2.63098 30.4575 2.81125C30.4903 3.12016 30.5256 3.56008 30.5648 4.15785C30.637 5.25844 30.7119 6.7473 30.7864 8.18727C30.8537 9.50223 30.9226 10.8621 30.9883 11.9178C31.0007 12.1145 31.0128 12.2916 31.0236 12.4507C31.0268 12.4987 31.03 12.5737 31.0909 12.5881C31.1502 12.6021 31.1991 12.5392 31.2371 12.4859C32.1518 11.1914 32.6503 10.5696 33.1503 10.4626C33.6118 10.3637 33.9408 10.6377 34.2593 10.9025C34.7773 11.3341 35.5558 11.9815 37.5719 11.9815C37.6064 11.9815 37.6408 11.9815 37.6761 11.9807L37.4778 13.0585L37.4779 13.0586ZM15.2895 9.45191C16.9001 9.54125 17.3725 6.37406 15.8552 6.28914C14.1765 6.19699 13.64 9.3602 15.2895 9.45191Z" fill="#0079C8"/>
</g>
</svg>
