<svg width="22" height="18" viewBox="0 0 22 18" fill="none" xmlns="http://www.w3.org/2000/svg">
<path d="M20.75 0.75H1.25C0.835156 0.75 0.5 1.08516 0.5 1.5V16.5C0.5 16.9148 0.835156 17.25 1.25 17.25H20.75C21.1648 17.25 21.5 16.9148 21.5 16.5V1.5C21.5 1.08516 21.1648 0.75 20.75 0.75ZM2.1875 2.4375H19.8125V5.25H2.1875V2.4375ZM19.8125 15.5625H2.1875V7.3125H19.8125V15.5625ZM14.2578 14.0625H18.125C18.2281 14.0625 18.3125 13.9781 18.3125 13.875V12.1875C18.3125 12.0844 18.2281 12 18.125 12H14.2578C14.1547 12 14.0703 12.0844 14.0703 12.1875V13.875C14.0703 13.9781 14.1547 14.0625 14.2578 14.0625Z" fill="#54B2D3"/>
</svg>
