<svg xmlns="http://www.w3.org/2000/svg" fill="none" viewBox="0 0 24 24" height="24" width="24">
<path fill="#9292A3" d="M20.8422 6.094V3.6347H19.4359V6.094H17.6843V0.783203L6.31566 3.4578V6.094H4.56408V3.6347H3.15783V6.094H0V23.2167H24V6.094H20.8422ZM1.40625 21.8105V7.50025H6.31566V21.8105H1.40625ZM12.7031 21.8105H11.2969V20.4042H12.7031V21.8105ZM16.2781 21.8105H14.1094V18.998H9.89062V21.8105H7.72191V4.57159L16.278 2.55869V21.8105H16.2781ZM22.5938 21.8105H17.6843V7.50025H22.5938V21.8105Z"></path>
<path fill="#9292A3" d="M9.12817 6.3418H11.2969V7.74805H9.12817V6.3418Z"></path>
<path fill="#9292A3" d="M12.7031 6.3418H14.8718V7.74805H12.7031V6.3418Z"></path>
<path fill="#9292A3" d="M9.12817 9.1543H11.2969V10.5605H9.12817V9.1543Z"></path>
<path fill="#9292A3" d="M12.7031 9.1543H14.8718V10.5605H12.7031V9.1543Z"></path>
<path fill="#9292A3" d="M9.12817 11.9668H11.2969V13.373H9.12817V11.9668Z"></path>
<path fill="#9292A3" d="M12.7031 11.9668H14.8718V13.373H12.7031V11.9668Z"></path>
<path fill="#9292A3" d="M9.12817 14.7793H11.2969V16.1855H9.12817V14.7793Z"></path>
<path fill="#9292A3" d="M2.77661 9.1543H4.94533V10.5605H2.77661V9.1543Z"></path>
<path fill="#9292A3" d="M2.77661 11.9668H4.94533V13.373H2.77661V11.9668Z"></path>
<path fill="#9292A3" d="M2.77661 14.7793H4.94533V16.1855H2.77661V14.7793Z"></path>
<path fill="#9292A3" d="M19.0547 9.1543H21.2234V10.5605H19.0547V9.1543Z"></path>
<path fill="#9292A3" d="M19.0547 11.9668H21.2234V13.373H19.0547V11.9668Z"></path>
<path fill="#9292A3" d="M19.0547 14.7793H21.2234V16.1855H19.0547V14.7793Z"></path>
<path fill="#9292A3" d="M2.77661 17.5918H4.94533V18.998H2.77661V17.5918Z"></path>
<path fill="#9292A3" d="M19.0547 17.5918H21.2234V18.998H19.0547V17.5918Z"></path>
<path fill="#9292A3" d="M12.7031 14.7793H14.8718V16.1855H12.7031V14.7793Z"></path>
</svg>
