<svg width="50" height="15" viewBox="0 0 50 15" fill="none" xmlns="http://www.w3.org/2000/svg">
<path d="M25.5201 10.0571C25.2069 10.5571 24.2794 8.53259 23.5326 9.63023C23.4001 9.82536 22.846 11.5572 24.0144 12.0694C25.3635 12.6548 26.2548 11.2157 26.7848 8.20329C26.8089 8.05694 26.7969 9.83756 26.8691 9.78877C26.9414 9.73999 27.0257 9.72779 27.11 9.76438C27.1943 9.80097 27.2546 9.87414 27.3028 9.97171C27.3509 10.0693 27.363 10.2156 27.3509 10.3864C27.3148 10.5815 27.2546 10.8132 27.1703 11.0815C27.0859 11.3499 26.1464 13.0695 24.3517 13.0573C22.5208 13.0451 21.5933 11.0572 21.509 10.7401C21.4126 10.4352 21.3765 10.1303 21.3765 9.83756C21.3765 9.54485 21.4246 9.27654 21.509 9.03262C21.5933 8.7887 21.6896 8.61796 21.7981 8.52039C21.9065 8.42282 22.4124 7.49593 24.3035 7.98377C26.1103 8.47161 25.6405 9.84975 25.5201 10.0571Z" fill="#4097E1"/>
<path d="M30.0007 4.60427C30.0007 4.60427 28.495 10.9584 28.4589 11.2145C28.3866 11.8243 28.3745 12.1536 28.8684 12.3121C29.567 12.5561 30.1934 11.3974 30.1934 11.3974C31.0366 9.61682 30.6511 9.47047 32.0363 9.53145C32.229 9.54365 31.6268 10.2876 31.6027 10.4583C31.5906 10.5437 31.5425 10.7389 31.4461 11.0194C31.3618 11.2999 31.2293 11.6048 31.0606 11.8975C30.892 12.2024 30.6752 12.4707 30.4343 12.7024C30.1934 12.9341 29.9163 13.0561 29.6273 13.0561C29.037 13.0561 28.5311 12.8853 28.1336 12.5561C27.7361 12.2268 27.4109 11.8121 27.17 11.3243C26.9171 10.8364 26.6761 10.2754 26.6641 9.73878C26.5798 7.79962 27.7241 3.6164 27.8325 3.48224C27.953 3.34809 28.0975 3.28711 28.2902 3.28711C28.4589 3.28711 28.6877 3.39687 28.9888 3.49444C30.2897 3.9213 30.0007 4.60427 30.0007 4.60427Z" fill="#4097E1"/>
<path d="M43.7205 10.226C43.841 9.95764 43.9976 9.88447 44.2144 9.98204C44.4312 10.0796 44.5155 10.2991 44.4674 10.6162C44.4433 10.8358 44.383 11.0675 44.2987 11.3114C44.2144 11.5553 43.7808 12.9579 42.4919 12.9579C41.3235 12.9579 40.5888 11.409 40.4442 11.1529C40.3117 10.9089 40.1913 10.6284 40.107 10.3235C40.0106 10.0186 39.9624 9.75031 39.9383 9.4942C39.9142 9.25028 39.9263 9.04294 39.9624 8.8722C39.9985 8.71365 40.0829 8.64048 40.2033 8.65267C40.3238 8.67707 40.4563 8.72585 40.6129 8.77463C40.7574 8.82342 40.9019 8.8844 41.0465 8.94538C41.191 9.00636 41.3115 9.09173 41.4319 9.1771C41.5524 9.26247 41.6367 9.37224 41.6969 9.482C41.7572 9.60396 41.8053 9.7747 41.8415 9.99423C41.8776 10.226 41.9137 10.4577 41.9499 10.6894C41.986 10.9211 42.0342 11.1407 42.0703 11.3236C42.1065 11.5187 42.1787 11.6285 42.2631 11.6773C42.3233 11.7017 42.4196 11.6895 42.5401 11.6163C42.6606 11.5553 42.7931 11.4456 42.9256 11.3236C43.0581 11.1894 43.2026 11.0309 43.3471 10.8358C43.4917 10.6772 43.6242 10.4699 43.7205 10.226Z" fill="#4097E1"/>
<path d="M25.6767 6.15306C26.5199 6.09208 27.351 6.0189 28.158 5.92134C28.9651 5.83596 28.3628 5.87255 29.0132 5.78718C29.6637 5.70181 30.2057 5.62863 30.6273 5.56765C31.0609 5.50667 31.3259 5.47008 31.4223 5.47008C31.615 5.45789 31.8318 5.49448 32.0848 5.56765C32.3377 5.64083 32.5666 5.7262 32.7714 5.82377C32.9882 5.92134 33.1568 6.0433 33.2893 6.15306C33.4218 6.27502 33.47 6.38478 33.4218 6.49455C33.3857 6.55553 33.1809 6.59211 32.7834 6.61651C32.3859 6.6409 31.868 6.66529 31.2296 6.67749C30.5791 6.70188 29.8323 6.71407 28.9771 6.73847C28.1219 6.76286 30.3984 6.53113 27.6039 6.67749C24.8215 6.83603 25.6767 6.15306 25.6767 6.15306Z" fill="#4097E1"/>
<path d="M18.0878 8.11816C18.3046 8.11816 18.5214 8.17915 18.7262 8.28891C18.931 8.39867 19.0635 8.55722 19.1237 8.75235C19.5573 8.84992 19.8826 9.05725 20.1114 9.36215C20.3403 9.66705 20.4607 10.0207 20.4969 10.3988C20.9064 10.4476 21.6773 9.99635 21.6773 9.09384C21.6773 8.89871 21.8941 9.66705 21.8219 10.2281C21.7978 10.3744 21.4123 11.4599 20.2801 11.5818C20.0753 11.6062 19.991 11.8014 19.8946 12.0209C19.8223 12.1794 19.2803 13.0331 17.9192 13.0331C17.0881 13.0331 16.4978 12.2648 16.281 11.9965C16.0642 11.716 15.9438 11.4111 15.9438 11.0818C15.9197 10.7525 15.9558 10.4232 16.0522 10.0817C16.1485 9.74023 16.281 9.41094 16.4737 9.13043C16.6544 8.83773 16.8833 8.606 17.1603 8.41087C17.4253 8.21573 17.7265 8.11816 18.0878 8.11816ZM17.5578 12.1916C17.7024 12.3868 17.9553 12.3868 18.2926 12.1916C18.6299 11.9965 18.943 11.7038 19.2321 11.3013C18.943 11.1184 18.678 10.8623 18.4371 10.533C18.1962 10.2159 18.0035 9.8378 17.871 9.41094C17.5578 9.95976 17.3651 10.4964 17.2928 11.0208C17.2206 11.5696 17.3169 11.9599 17.5578 12.1916Z" fill="#4097E1"/>
<path d="M32.8915 8.11816C33.1083 8.11816 33.3252 8.17915 33.5299 8.28891C33.7347 8.39867 33.8672 8.55722 33.9274 8.75235C34.3611 8.84992 34.6863 9.05725 34.9151 9.36215C35.144 9.66705 35.2645 10.0207 35.3006 10.3988C35.7101 10.4476 36.481 9.99635 36.481 9.09384C36.481 8.89871 36.6978 9.66705 36.6256 10.2281C36.6015 10.3744 36.216 11.4599 35.0838 11.5818C34.879 11.6062 34.7947 11.8014 34.6983 12.0209C34.6261 12.1794 34.084 13.0331 32.7229 13.0331C31.8918 13.0331 31.3015 12.2648 31.0847 11.9965C30.8679 11.716 30.7475 11.4111 30.7475 11.0818C30.7234 10.7525 30.7595 10.4232 30.8559 10.0817C30.9522 9.74023 31.0847 9.41094 31.2775 9.13043C31.4581 8.83773 31.687 8.606 31.964 8.41087C32.229 8.21573 32.5422 8.11816 32.8915 8.11816ZM32.3736 12.1916C32.5181 12.3868 32.7711 12.3868 33.1083 12.1916C33.4456 11.9965 33.7588 11.7038 34.0479 11.3013C33.7588 11.1184 33.4938 10.8623 33.2529 10.533C33.012 10.2159 32.8193 9.8378 32.6868 9.41094C32.3736 9.95976 32.1809 10.4964 32.1086 11.0208C32.0363 11.5696 32.1206 11.9599 32.3736 12.1916Z" fill="#4097E1"/>
<path d="M40.6488 10.0087C40.5163 9.92329 39.9261 8.56953 39.9743 8.88663C40.0466 9.41106 38.7818 12.2893 37.8302 11.8015C36.8425 11.2892 37.2159 9.67937 37.2761 9.594C37.5291 9.17933 39.2154 7.11821 39.9141 3.02036C39.9863 2.61789 40.1429 1.04461 38.5288 0.764103C36.7943 0.4714 36.4089 1.36171 36.2402 1.73978C35.5657 3.28867 35.7946 8.80126 36.3727 11.1185C36.5052 11.6429 37.1918 12.9601 38.1073 12.9601C39.5768 12.9601 40.3236 11.4478 40.432 11.2039C40.5525 10.9599 40.6488 10.7282 40.7452 10.4843C40.8054 10.2648 40.7813 10.094 40.6488 10.0087ZM37.4809 4.97172C37.505 4.54486 37.5291 4.118 37.5532 3.70334C37.5773 3.28867 37.6255 2.92279 37.6857 2.5935C37.7459 2.26421 37.8302 2.00809 37.9386 1.81296C38.047 1.61782 38.1795 1.53245 38.3361 1.54465C38.577 1.56904 38.7336 1.72759 38.8179 2.03249C38.9023 2.33739 38.9263 2.71546 38.9023 3.17891C38.8782 3.63016 38.8059 4.13019 38.6854 4.67901C38.565 5.22783 38.4445 5.75226 38.312 6.26449C38.1193 7.02064 37.6736 7.94754 37.5773 8.11828C37.517 6.55719 37.4568 5.78885 37.4809 4.97172Z" fill="#4097E1"/>
<path d="M49.9959 10.0327C49.9357 10.0205 49.8754 10.0327 49.8152 10.0693C49.755 10.1059 49.6948 10.1546 49.6466 10.2156C49.5382 10.423 49.3936 10.5449 49.2129 10.6059C49.0323 10.6547 48.8034 10.6425 48.5143 10.5693C48.5143 10.3986 48.4782 10.2156 48.418 10.0449C48.3577 9.87414 48.2614 9.71559 48.1289 9.58143C47.9964 9.42289 47.8036 9.30093 47.5627 9.22775C47.3218 9.15458 47.1171 9.11799 46.9605 9.11799C46.7918 9.13018 46.6593 9.17897 46.5509 9.27654C46.4425 9.36191 46.3702 9.47167 46.3462 9.60583C46.3221 9.73998 46.3341 9.88633 46.3823 10.0449C46.4305 10.2034 46.5268 10.3742 46.6593 10.5327C46.6473 10.6669 46.6232 10.8254 46.5871 11.0206C46.5509 11.2157 46.5027 11.3864 46.4425 11.545C46.3823 11.7035 46.298 11.8377 46.2137 11.9475C46.1293 12.045 46.033 12.0694 45.9005 11.9962C45.78 11.9231 45.6837 11.7889 45.6234 11.606C45.5632 11.423 45.515 11.2279 45.4789 11.0206C45.4428 10.7888 45.4187 10.5327 45.4187 10.2766C45.6957 9.87414 45.9607 9.42289 46.2257 8.91066C46.4907 8.39842 46.7316 7.8618 46.9484 7.28859C47.1652 6.72757 47.358 6.15436 47.5266 5.59335C47.6952 5.03233 47.8157 4.49571 47.9 3.99567C47.9843 3.49564 48.0205 3.04439 47.9964 2.64192C47.9723 2.23945 47.888 1.92236 47.7314 1.67844C47.5989 1.47111 47.3821 1.28817 47.105 1.14181C46.828 0.983267 46.5268 0.873503 46.2377 0.788131C45.9366 0.702759 45.6596 0.653976 45.3946 0.64178C45.1296 0.629584 44.9369 0.653976 44.8284 0.70276C44.455 0.861308 44.166 1.2028 43.9371 1.72722C43.7082 2.25165 43.5516 2.86145 43.4553 3.55662C43.3589 4.25179 43.2987 4.99575 43.2866 5.78849C43.2746 6.58122 43.2987 7.33737 43.371 8.03255C43.4312 8.73991 43.5155 9.34971 43.6239 9.88633C43.7323 10.4108 43.8407 10.7766 43.9732 10.9718C44.1419 11.2157 45.2259 12.9719 46.7316 12.9719C48.1409 12.9719 48.5745 11.2523 48.2373 11.2035C49.4418 11.3742 50.0561 10.0449 49.9959 10.0327ZM45.2139 5.04453C45.238 4.61767 45.2621 4.19081 45.2862 3.77615C45.3103 3.36148 45.3705 2.9956 45.4307 2.66631C45.503 2.33702 45.5993 2.08091 45.7198 1.88577C45.8403 1.69063 45.9848 1.60526 46.1534 1.61746C46.4184 1.64185 46.5991 1.8004 46.6834 2.1053C46.7677 2.4102 46.8039 2.78827 46.7677 3.25172C46.7437 3.70297 46.6593 4.20301 46.5268 4.75183C46.3943 5.30065 46.2618 5.82507 46.1173 6.3373C45.9728 6.84954 45.8162 7.30079 45.6475 7.70325C45.4789 8.10572 45.3344 8.39842 45.2259 8.56917C45.1898 7.23981 45.1778 6.06899 45.2139 5.04453ZM47.4664 10.1425C47.4182 10.1059 47.37 10.0571 47.3339 10.0205C47.2857 9.9839 47.2496 9.93512 47.2255 9.89853C47.1893 9.86194 47.1773 9.82535 47.1652 9.80096C47.1532 9.76437 47.1532 9.73998 47.1773 9.72779C47.2014 9.70339 47.2375 9.6912 47.2857 9.71559C47.3339 9.73998 47.3821 9.76438 47.4302 9.81316C47.4784 9.86194 47.5266 9.91073 47.5748 9.97171C47.623 10.0327 47.6711 10.1059 47.7193 10.1668C47.7675 10.2278 47.8036 10.2888 47.8277 10.3376C47.8518 10.3986 47.8759 10.4352 47.888 10.4595C47.7193 10.3498 47.5868 10.24 47.4664 10.1425Z" fill="#4097E1"/>
<path d="M41.7567 6.3366C41.7567 6.82444 41.3833 7.2269 40.9135 7.2269C40.4437 7.2269 40.0703 6.82444 40.0703 6.3366C40.0703 5.84876 40.4437 5.44629 40.9135 5.44629C41.3833 5.44629 41.7567 5.83656 41.7567 6.3366Z" fill="#4097E1"/>
<path d="M1.93516 7.55625C1.93516 7.55625 1.92312 7.59283 1.88698 7.66601C1.85084 7.73919 1.81471 7.83675 1.76653 7.95871C1.67016 8.21483 1.53767 8.59291 1.47744 9.04416C1.45335 9.27588 1.42926 9.5198 1.4413 9.77592C1.4413 9.91007 1.45335 10.0442 1.47744 10.1784C1.48949 10.2516 1.48949 10.3125 1.50153 10.3369C1.51358 10.3857 1.52562 10.4345 1.54971 10.4955C1.69426 10.9223 2.13993 11.4346 2.75424 11.8858C3.36856 12.3371 4.13945 12.7639 4.98263 13.1786C5.8258 13.5811 6.78942 13.9713 7.83737 14.1299C8.36736 14.2031 8.9094 14.2153 9.45144 14.1421C9.71643 14.1055 9.99348 14.0445 10.2585 13.9713C10.5235 13.886 10.7764 13.7884 11.0294 13.6664C11.5232 13.4225 11.9689 13.081 12.3423 12.6786C12.7037 12.2761 12.9928 11.8004 13.2096 11.3004C13.318 11.0565 13.4023 10.8004 13.4866 10.5443C13.5589 10.2881 13.6191 10.032 13.6914 9.72713C13.7034 9.65396 13.7275 9.58078 13.7396 9.50761L13.7877 9.30027C13.8118 9.16612 13.848 9.03196 13.8721 8.89781C13.8962 8.76365 13.9323 8.6173 13.9564 8.48314C13.9805 8.34899 14.0046 8.21483 14.0287 8.08067C14.2093 6.99523 14.2455 5.93418 14.0768 5.03168C13.9925 4.58043 13.848 4.17796 13.6673 3.83647C13.5709 3.66573 13.4625 3.50718 13.3541 3.34863C13.2337 3.20228 13.1132 3.05593 12.9687 2.93397C12.4025 2.42174 11.6437 2.06805 10.8848 1.84853C10.1139 1.629 9.35507 1.50704 8.66849 1.43386C7.98191 1.36069 7.3676 1.3363 6.84965 1.3241C6.34375 1.3119 5.93421 1.3119 5.65716 1.3119C5.38012 1.3119 5.23558 1.3119 5.23558 1.3119H5.12717L5.09103 1.16555L5.1874 1.11677C5.1874 1.11677 5.3199 1.04359 5.58489 0.933828C5.84989 0.824065 6.23534 0.665517 6.75329 0.519165C7.25919 0.360617 7.89759 0.214265 8.6444 0.104501C9.39121 0.00693329 10.2585 -0.054047 11.2341 0.0679128C11.716 0.128893 12.2339 0.226461 12.7639 0.421597C12.8964 0.47038 13.0289 0.519165 13.1614 0.580145C13.2939 0.641125 13.4264 0.702104 13.5589 0.77528C13.8239 0.909436 14.0889 1.08018 14.3298 1.27532C14.5827 1.47045 14.8116 1.70217 15.0405 1.94609C15.2573 2.20221 15.45 2.48272 15.6066 2.77542C15.7632 3.08032 15.9077 3.38522 15.992 3.71451C16.0523 3.87306 16.0764 4.0438 16.1245 4.20235C16.1607 4.3609 16.1848 4.53164 16.2089 4.69019C16.2932 5.34877 16.2811 5.99516 16.2089 6.62935C16.1366 7.26354 16.0041 7.88554 15.8475 8.48314C15.7993 8.62949 15.7632 8.78804 15.715 8.93439C15.6668 9.08074 15.6186 9.2271 15.5705 9.37345C15.5223 9.5198 15.462 9.66615 15.4018 9.8125L15.3175 10.032C15.2934 10.1052 15.2573 10.1662 15.2332 10.2394L15.0525 10.6662C14.9802 10.8126 14.908 10.9589 14.8357 11.1053C14.6791 11.398 14.5105 11.6785 14.3057 11.9346C13.9202 12.459 13.4505 12.9347 12.9446 13.3128C12.4387 13.703 11.8846 14.0079 11.3185 14.2396C11.1739 14.3006 11.0294 14.3494 10.8969 14.3982C10.7523 14.447 10.6078 14.4958 10.4632 14.5324C10.1742 14.6177 9.88507 14.6909 9.59598 14.7397C9.01781 14.8616 8.42758 14.9348 7.84941 14.9714C6.69306 15.0446 5.53671 14.9836 4.47672 14.7153C3.41673 14.447 2.45311 13.9591 1.68221 13.3006C1.28471 12.9835 0.947446 12.6176 0.658359 12.2151C0.381316 11.8126 0.152455 11.3492 0.0560929 10.8492C0.0320023 10.7272 0.0199577 10.6052 0.00791243 10.4711C-0.00413289 10.3247 -0.00413399 10.215 0.0199566 10.1174C0.0320019 10.0198 0.0440484 9.92227 0.068139 9.8247C0.0801843 9.72713 0.104275 9.64176 0.128366 9.54419C0.224728 9.17831 0.357226 8.87341 0.513815 8.6051C0.826993 8.08067 1.17631 7.77577 1.42926 7.60503C1.48949 7.55625 1.54971 7.51966 1.59789 7.49527C1.64607 7.45868 1.69426 7.44648 1.71835 7.42209C1.79062 7.3855 1.82675 7.37331 1.82675 7.37331L1.92312 7.32452L2.01948 7.40989L1.93516 7.55625Z" fill="#4097E1"/>
<path d="M8.83705 3.73934C8.39137 6.01999 7.95774 8.28844 7.51207 10.5691C7.36752 11.313 8.89728 10.4471 9.00568 9.9471C9.45136 7.66645 9.88499 5.398 10.3307 3.11735C10.4632 2.3612 8.93341 3.22711 8.83705 3.73934Z" fill="#4097E1"/>
</svg>
