<svg width="50" height="48" viewBox="0 0 50 48" fill="none" xmlns="http://www.w3.org/2000/svg">
<g clip-path="url(#clip0)">
<path d="M36.0052 9.03874L21.2455 0.517179C20.5744 0.17968 19.8336 0.00390625 19.0824 0.00390625C18.3312 0.00390625 17.5904 0.17968 16.9193 0.517179L2.15963 9.03874C1.53219 9.45175 1.01009 10.0058 0.635094 10.6567C0.260098 11.3076 0.0426005 12.0372 0 12.7871V29.8303C0.0436503 30.579 0.261644 31.3073 0.636595 31.9569C1.01155 32.6064 1.53309 33.1595 2.15963 33.5718L3.80341 34.5209L19.0858 43.7165L34.3751 34.5347L35.9983 33.5993C36.6248 33.187 37.1464 32.634 37.5213 31.9844C37.8963 31.3348 38.1143 30.6065 38.1579 29.8578V12.7803C38.115 12.0321 37.8981 11.3043 37.5243 10.6547C37.1506 10.0052 36.6304 9.45182 36.0052 9.03874ZM10.3029 30.4974C9.78601 30.4944 9.29137 30.2867 8.92735 29.9197L1.63003 22.6155C1.27045 22.2479 1.06909 21.7541 1.06909 21.2399C1.06909 20.7257 1.27045 20.2319 1.63003 19.8644L8.92735 12.5258C9.09558 12.2983 9.3109 12.1097 9.55864 11.973C9.80638 11.8363 10.0807 11.7546 10.3629 11.7336C10.6451 11.7126 10.9284 11.7527 11.1937 11.8512C11.459 11.9497 11.6998 12.1042 11.8999 12.3043C12.1 12.5044 12.2546 12.7453 12.3531 13.0105C12.4515 13.2758 12.4916 13.5592 12.4706 13.8414C12.4496 14.1235 12.3679 14.3979 12.2312 14.6456C12.0945 14.8933 11.906 15.1087 11.6785 15.2769L5.74983 21.2055L11.6578 27.1136C11.9397 27.385 12.1343 27.7345 12.2165 28.1171C12.2987 28.4997 12.2649 28.8982 12.1195 29.2616C11.974 29.6249 11.7234 29.9366 11.3998 30.1567C11.0762 30.3769 10.6943 30.4955 10.3029 30.4974ZM15.9564 32.2237C15.7968 32.5617 15.5449 32.8476 15.2296 33.0484C14.9144 33.2492 14.5488 33.3567 14.1751 33.3586C13.8434 33.3589 13.5171 33.2755 13.2263 33.1159C12.9356 32.9563 12.6899 32.7257 12.5122 32.4457C12.3344 32.1657 12.2303 31.8453 12.2096 31.5143C12.1889 31.1833 12.2523 30.8524 12.3937 30.5524L22.4215 9.23133C22.5313 8.9974 22.686 8.78738 22.8769 8.61325C23.0678 8.43912 23.2912 8.30429 23.5342 8.21648C23.7772 8.12866 24.0351 8.08957 24.2932 8.10143C24.5514 8.1133 24.8046 8.1759 25.0385 8.28564C25.2725 8.39538 25.4825 8.55011 25.6566 8.74102C25.8308 8.93193 25.9656 9.15526 26.0534 9.39827C26.1412 9.64128 26.1803 9.89921 26.1684 10.1573C26.1566 10.4154 26.094 10.6687 25.9842 10.9026L15.9564 32.2237ZM36.5485 22.5948L29.2306 29.9128C29.0623 30.1403 28.847 30.3289 28.5993 30.4656C28.3515 30.6023 28.0772 30.6839 27.795 30.705C27.5129 30.726 27.2295 30.6859 26.9642 30.5874C26.6989 30.4889 26.4581 30.3343 26.258 30.1343C26.0579 29.9342 25.9033 29.6933 25.8049 29.428C25.7064 29.1628 25.6663 28.8794 25.6873 28.5972C25.7083 28.315 25.79 28.0407 25.9267 27.793C26.0634 27.5452 26.2519 27.3299 26.4794 27.1617L32.4081 21.233L26.4657 15.2769C26.1061 14.9093 25.9047 14.4155 25.9047 13.9013C25.9047 13.3871 26.1061 12.8934 26.4657 12.5258C26.8389 12.1772 27.3305 11.9833 27.8412 11.9833C28.3519 11.9833 28.8436 12.1772 29.2168 12.5258L36.521 19.8231C36.8926 20.1882 37.1042 20.6858 37.1093 21.2067C37.1145 21.7276 36.9128 22.2293 36.5485 22.6017V22.5948Z" fill="#4367B1"/>
<g style="mix-blend-mode:multiply">
<path d="M48.2613 43.1859L49.3273 41.0813C49.3935 40.9328 49.405 40.7657 49.3596 40.6095C49.3143 40.4534 49.2151 40.3184 49.0797 40.2284L46.7963 38.8529C46.9511 38.1418 47.0066 37.4127 46.9614 36.6864L49.4305 35.6822C49.5773 35.6134 49.6951 35.4949 49.7631 35.3477C49.8311 35.2004 49.8448 35.0339 49.8019 34.8775L49.066 32.6354C49.0088 32.4828 48.8992 32.3555 48.7569 32.2761C48.6146 32.1967 48.4487 32.1705 48.2888 32.2021L45.7028 32.8486C45.3091 32.2355 44.8323 31.6799 44.2859 31.1979L45.3176 28.7425C45.3727 28.5896 45.3718 28.4221 45.3151 28.2698C45.2585 28.1175 45.1497 27.9901 45.0081 27.9103L42.9035 26.8443C42.755 26.7781 42.5879 26.7667 42.4318 26.812C42.2756 26.8573 42.1406 26.9565 42.0507 27.0919L40.6751 29.3753C39.9639 29.2214 39.2349 29.1659 38.5086 29.2102L37.5044 26.7411C37.4356 26.5943 37.3171 26.4765 37.1699 26.4085C37.0226 26.3406 36.8561 26.3268 36.6997 26.3697L34.4576 27.1056C34.305 27.1628 34.1777 27.2724 34.0983 27.4147C34.019 27.5571 33.9927 27.7229 34.0243 27.8828L34.6708 30.4689C34.0576 30.8624 33.5021 31.3393 33.0201 31.8857L30.5648 30.854C30.4119 30.799 30.2444 30.7998 30.092 30.8565C29.9397 30.9131 29.8123 31.0219 29.7326 31.1635L28.6665 33.2681C28.6003 33.4166 28.5889 33.5837 28.6342 33.7399C28.6795 33.896 28.7787 34.031 28.9141 34.121L31.1975 35.4965C31.0428 36.2076 30.9873 36.9367 31.0325 37.663L28.5702 38.6603C28.4234 38.7291 28.3056 38.8476 28.2376 38.9948C28.1697 39.1421 28.1559 39.3086 28.1988 39.465L28.9347 41.7071C28.9919 41.8597 29.1015 41.9871 29.2438 42.0664C29.3862 42.1458 29.552 42.172 29.7119 42.1405L32.298 41.4939C32.6915 42.1071 33.1684 42.6626 33.7148 43.1446L32.6831 45.6C32.6281 45.7529 32.6289 45.9204 32.6856 46.0727C32.7422 46.2251 32.851 46.3524 32.9926 46.4322L35.0972 47.4982C35.2457 47.5644 35.4128 47.5759 35.569 47.5305C35.7251 47.4852 35.8601 47.386 35.9501 47.2506L37.3256 44.9672C38.0368 45.1214 38.7658 45.1769 39.4921 45.1323L40.4963 47.6014C40.5592 47.7531 40.6769 47.8756 40.826 47.9444C40.9752 48.0132 41.1447 48.0234 41.301 47.9728L43.5431 47.2369C43.6957 47.1797 43.823 47.0701 43.9024 46.9278C43.9818 46.7855 44.008 46.6196 43.9764 46.4597L43.3162 43.8737C43.9294 43.4802 44.4849 43.0033 44.9668 42.4568L47.4428 43.4747C47.5917 43.528 47.7543 43.5283 47.9034 43.4757C48.0524 43.4231 48.1788 43.3207 48.2613 43.1859ZM41.6586 38.509C41.3479 39.1241 40.8335 39.6124 40.203 39.8907C39.5726 40.169 38.8651 40.22 38.2013 40.0351C37.5374 39.8502 36.9582 39.4407 36.5624 38.8766C36.1667 38.3124 35.9788 37.6285 36.0308 36.9413C36.0829 36.2541 36.3717 35.6063 36.8479 35.1082C37.3242 34.6101 37.9584 34.2926 38.6426 34.2098C39.3267 34.127 40.0184 34.284 40.5997 34.6541C41.1811 35.0242 41.6161 35.5844 41.8306 36.2393C41.9522 36.6107 41.999 37.0025 41.9683 37.3921C41.9376 37.7816 41.83 38.1612 41.6517 38.509H41.6586Z" fill="#F0546A"/>
</g>
</g>
<defs>
<clipPath id="clip0">
<rect width="49.8432" height="48" fill="white"/>
</clipPath>
</defs>
</svg>
