<svg width="94" height="13" viewBox="0 0 94 13" fill="none" xmlns="http://www.w3.org/2000/svg">
<path d="M5.11667 12.3077C2.08333 12.3077 0 9.71282 0 6.18462V6.1641C0 2.77949 2.15833 0 5.1 0C6.85 0 7.9 0.574359 8.91667 1.64103L7.56667 3.64103C6.80833 2.88205 6.15 2.43077 5.01667 2.43077C3.45833 2.43077 2.21667 4.12308 2.21667 6.14359V6.1641C2.23333 8.32821 3.45833 9.92821 5.175 9.92821C5.95 9.92821 6.65 9.69231 7.2 9.21026V7.51795H5.04167V5.26154H9.26667V10.4308C8.26667 11.4462 6.88333 12.3077 5.11667 12.3077Z" fill="#1C2A4B"/>
<path d="M15.5669 0C12.6669 0 10.5586 2.78974 10.5586 6.1641V6.18462C10.5586 9.56923 12.6503 12.3077 15.5503 12.3077C18.4503 12.3077 20.5586 9.54872 20.5586 6.14359V6.12308C20.5586 2.73846 18.4669 0 15.5669 0ZM18.3919 6.1641C18.3919 8.21539 17.2419 9.87692 15.5669 9.87692C13.9086 9.87692 12.7253 8.18462 12.7253 6.14359V6.12308C12.7253 4.07179 13.8753 2.41026 15.5503 2.41026C17.2086 2.41026 18.3919 4.10256 18.3919 6.14359V6.1641Z" fill="#1C2A4B"/>
<path d="M26.5996 12.3077C23.8746 12.3077 21.8496 9.58974 21.8496 6.1641C21.8496 2.75897 23.8579 0 26.6412 0C28.3662 0 29.3829 0.758974 30.3329 1.87692L29.5912 2.85128C28.7996 1.89744 27.9079 1.21026 26.6162 1.21026C24.5163 1.21026 22.9413 3.33333 22.9413 6.11282C22.9413 8.8718 24.5329 11.0359 26.6162 11.0359C27.9246 11.0359 28.7746 10.4205 29.6662 9.32308L30.3662 10.1846C29.4079 11.4769 28.3246 12.3077 26.5996 12.3077Z" fill="#1C2A4B"/>
<path d="M36.4251 0.256836H35.4251L31.1084 12.1132H32.2084L33.3251 9.00555H38.4751L39.5917 12.1132H40.7417L36.4251 0.256836ZM33.7584 7.80555L35.9167 1.80555L38.0751 7.80555H33.7584Z" fill="#1C2A4B"/>
<path d="M47.2163 7.25316C48.6997 6.92495 49.7747 5.78649 49.7747 3.79675C49.7747 1.66342 48.4413 0.268555 46.3747 0.268555H42.333V12.1249H43.383V7.53008H46.0663L48.7913 12.1249V12.1044H50.108L47.2163 7.25316ZM43.3997 6.29931V1.48907H46.2913C47.7913 1.48907 48.6997 2.37112 48.7163 3.83778C48.7163 5.37624 47.6997 6.29931 46.2913 6.29931H43.3997Z" fill="#1C2A4B"/>
<path d="M55.0415 0.256836H51.6748V12.1132H55.0415C58.0831 12.1132 60.1748 9.50812 60.1915 6.16453C60.1915 2.82094 58.0831 0.256836 55.0415 0.256836ZM55.0415 10.8722H52.7748V1.48761H55.0415C57.4831 1.48761 59.0498 3.54914 59.0498 6.20555C59.0498 8.84145 57.4831 10.8722 55.0415 10.8722Z" fill="#1C2A4B"/>
<path d="M61.8994 0.256836H63.0078V10.8517H68.5662V12.1132H61.8994V0.256836Z" fill="#1C2A4B"/>
<path d="M76.7089 1.48761H71.1423V5.52863H76.1089V6.73889H71.1423V10.8825H76.7673V12.1132H70.1006V0.256836H76.7089V1.48761Z" fill="#1C2A4B"/>
<path d="M82.225 5.50769C84.3083 6.08205 85.2833 7.06667 85.2833 8.91282C85.2833 10.9744 83.95 12.318 82.075 12.318C80.5917 12.318 79.375 11.6923 78.25 10.4L78.9083 9.41539C79.8833 10.5436 80.825 11.1179 82.1167 11.1179C83.375 11.1179 84.2 10.2769 84.2 9.05641C84.2 7.92821 83.7333 7.28205 81.7583 6.75898C79.6 6.1641 78.6083 5.2718 78.6083 3.28205C78.6083 1.3641 79.9 0 81.6833 0C83.05 0 84.025 0.502564 84.9833 1.45641L84.3667 2.51282C83.5 1.6 82.625 1.22051 81.6667 1.22051C80.45 1.22051 79.675 2.08205 79.675 3.15898C79.675 4.30769 80.1417 4.95385 82.225 5.50769Z" fill="#1C2A4B"/>
<path d="M90.7416 5.50769C92.8249 6.08205 93.7999 7.06667 93.7999 8.91282C93.7999 10.9744 92.4666 12.318 90.5916 12.318C89.1083 12.318 87.8916 11.6923 86.7666 10.4L87.4249 9.41539C88.3999 10.5436 89.3416 11.1179 90.6333 11.1179C91.8916 11.1179 92.7166 10.2769 92.7166 9.05641C92.7166 7.92821 92.2499 7.28205 90.2749 6.75898C88.1166 6.1641 87.1249 5.2718 87.1249 3.28205C87.1249 1.3641 88.4166 0 90.1999 0C91.5666 0 92.5416 0.502564 93.4999 1.45641L92.8833 2.51282C92.0166 1.6 91.1416 1.22051 90.1833 1.22051C88.9666 1.22051 88.1916 2.08205 88.1916 3.15898C88.1916 4.30769 88.6749 4.95385 90.7416 5.50769Z" fill="#1C2A4B"/>
</svg>
