<svg width="17" height="24" viewBox="0 0 17 24" fill="none" xmlns="http://www.w3.org/2000/svg">
<g clip-path="url(#clip0)">
<g clip-path="url(#clip1)">
<path d="M16.3442 12.1842C16.3442 11.6403 16.3001 11.0936 16.206 10.5586H8.66016V13.6392H12.9813C12.802 14.6328 12.2258 15.5117 11.3822 16.0703V18.0692H13.9602C15.4741 16.6758 16.3442 14.6181 16.3442 12.1842Z" fill="#4285F4"/>
<path d="M8.66072 20.0002C10.8184 20.0002 12.6379 19.2918 13.9637 18.0689L11.3857 16.07C10.6684 16.558 9.74248 16.8343 8.66366 16.8343C6.57657 16.8343 4.80696 15.4263 4.17202 13.5332H1.51172V15.5938C2.86979 18.2953 5.63592 20.0002 8.66072 20.0002Z" fill="#34A853"/>
<path d="M4.16852 13.5338C3.83341 12.5402 3.83341 11.4644 4.16852 10.4708V8.41016H1.51116C0.376489 10.6707 0.376489 13.3339 1.51116 15.5944L4.16852 13.5338Z" fill="#FBBC04"/>
<path d="M8.66072 7.16644C9.80127 7.1488 10.9036 7.57798 11.7296 8.36578L14.0136 6.08174C12.5674 4.72367 10.6479 3.97702 8.66072 4.00054C5.63592 4.00054 2.86979 5.70548 1.51172 8.40987L4.16908 10.4705C4.80108 8.57449 6.57363 7.16644 8.66072 7.16644Z" fill="#EA4335"/>
</g>
</g>
<defs>
<clipPath id="clip0">
<rect width="16" height="24" fill="white" transform="translate(0.5)"/>
</clipPath>
<clipPath id="clip1">
<rect width="16" height="16" fill="white" transform="translate(0.5 4)"/>
</clipPath>
</defs>
</svg>
