<svg width="491" height="153" viewBox="0 0 491 153" fill="none" xmlns="http://www.w3.org/2000/svg">
<mask id="mask0" mask-type="alpha" maskUnits="userSpaceOnUse" x="0" y="0" width="491" height="142">
<rect x="0.5" y="0.5" width="490" height="141" rx="1.5" fill="#DDF0F6" stroke="#ECEDF0"/>
</mask>
<g mask="url(#mask0)">
<path d="M592.5 9.5001C592.5 95.9327 497.933 360 411.5 360C325.067 360 158 284.433 158 198C158 111.567 202 47.0002 411.5 47C564 46.9998 592.5 -76.9325 592.5 9.5001Z" fill="#54B2D3"/>
</g>
<g filter="url(#filter0_d)">
<path d="M299 55C299 46.1634 306.163 39 315 39H383C391.837 39 399 46.1634 399 55V142H299V55Z" fill="white"/>
</g>
<rect x="311" y="82" width="44" height="2" rx="1" fill="#9292A2"/>
<rect x="311" y="87" width="38" height="2" rx="1" fill="#9292A2"/>
<rect x="311" y="93" width="76" height="2" rx="1" fill="#DBDBE1"/>
<rect x="311" y="98" width="70" height="2" rx="1" fill="#DBDBE1"/>
<rect x="311" y="103" width="76" height="2" rx="1" fill="#DBDBE1"/>
<rect x="311" y="108" width="70" height="2" rx="1" fill="#DBDBE1"/>
<rect x="311" y="113" width="74" height="2" rx="1" fill="#DBDBE1"/>
<rect x="311" y="118" width="64" height="2" rx="1" fill="#DBDBE1"/>
<rect x="311" y="123" width="70" height="2" rx="1" fill="#DBDBE1"/>
<rect x="311" y="128" width="65" height="2" rx="1" fill="#DBDBE1"/>
<rect x="361" y="51" width="28" height="16" rx="8" fill="#54B2D3"/>
<g filter="url(#filter1_d)">
<rect x="375" y="53" width="12" height="12" rx="6" fill="white"/>
</g>
<defs>
<filter id="filter0_d" x="289" y="24" width="126" height="129" filterUnits="userSpaceOnUse" color-interpolation-filters="sRGB">
<feFlood flood-opacity="0" result="BackgroundImageFix"/>
<feColorMatrix in="SourceAlpha" type="matrix" values="0 0 0 0 0 0 0 0 0 0 0 0 0 0 0 0 0 0 127 0"/>
<feOffset dx="3" dy="-2"/>
<feGaussianBlur stdDeviation="6.5"/>
<feColorMatrix type="matrix" values="0 0 0 0 0 0 0 0 0 0 0 0 0 0 0 0 0 0 0.05 0"/>
<feBlend mode="normal" in2="BackgroundImageFix" result="effect1_dropShadow"/>
<feBlend mode="normal" in="SourceGraphic" in2="effect1_dropShadow" result="shape"/>
</filter>
<filter id="filter1_d" x="371" y="51" width="20" height="20" filterUnits="userSpaceOnUse" color-interpolation-filters="sRGB">
<feFlood flood-opacity="0" result="BackgroundImageFix"/>
<feColorMatrix in="SourceAlpha" type="matrix" values="0 0 0 0 0 0 0 0 0 0 0 0 0 0 0 0 0 0 127 0"/>
<feOffset dy="2"/>
<feGaussianBlur stdDeviation="2"/>
<feColorMatrix type="matrix" values="0 0 0 0 0 0 0 0 0 0.137255 0 0 0 0 0.0431373 0 0 0 0.2 0"/>
<feBlend mode="normal" in2="BackgroundImageFix" result="effect1_dropShadow"/>
<feBlend mode="normal" in="SourceGraphic" in2="effect1_dropShadow" result="shape"/>
</filter>
</defs>
</svg>
