<svg width="18" height="18" viewBox="0 0 18 18" fill="none" xmlns="http://www.w3.org/2000/svg">
<path d="M14.9893 5.01985V0.859375H3.01207V5.01985L0.273438 6.97599V17.14H17.728V6.97599L14.9893 5.01985ZM6.47773 11.9339L1.29617 15.6349V8.23282L6.47773 11.9339ZM9.00071 11.3886L15.6209 16.1172H2.38054L9.00071 11.3886ZM11.5237 11.9339L16.7052 8.23282V15.6349L11.5237 11.9339ZM16.3368 7.23914L14.9893 8.2016V6.27668L16.3368 7.23914ZM13.9666 1.88211V8.93213L10.6439 11.3055L9.00071 10.1318L7.35752 11.3055L4.0348 8.93213V1.88211H13.9666ZM3.01207 8.20163L1.66459 7.23917L3.01207 6.27671V8.20163Z" fill="#54B2D3"/>
<path d="M5.48047 3.20703H9.00148V4.22976H5.48047V3.20703Z" fill="#54B2D3"/>
<path d="M5.48047 5.55273H12.5225V6.57546H5.48047V5.55273Z" fill="#54B2D3"/>
<path d="M5.48047 7.90039H12.5225V8.92312H5.48047V7.90039Z" fill="#54B2D3"/>
</svg>
