<svg xmlns="http://www.w3.org/2000/svg" fill="none" viewBox="0 0 24 24" height="24" width="24">
<path fill="#9292A3" d="M1.00856 13.3365C1.02169 13.3301 2.34066 12.7031 3.5625 12.7031C4.46958 12.7031 5.54203 13.5703 5.87784 13.9035L6.37406 14.3978L6.87122 13.9044C7.20797 13.5703 8.28042 12.7031 9.1875 12.7031C9.95395 12.7031 10.8385 13.3223 11.2969 13.7152V21.8906C11.2969 23.0537 12.2431 24 13.4062 24C14.5694 24 15.5156 23.0537 15.5156 21.8906V20.4844H14.1094V21.8906C14.1094 22.2783 13.794 22.5938 13.4062 22.5938C13.0185 22.5938 12.7031 22.2783 12.7031 21.8906V13.7153C13.1623 13.3217 14.0464 12.7031 14.8125 12.7031C15.7196 12.7031 16.792 13.5703 17.1278 13.9035L17.6241 14.3978L18.1212 13.9044C18.458 13.5703 19.5304 12.7031 20.4375 12.7031C21.6566 12.7031 22.9723 13.3273 22.9913 13.3364L24 13.8245V12.7031C24 6.36281 19.015 1.74544 12.7031 1.42477V0H11.2969V1.42477C4.98291 1.74558 0 6.36487 0 12.7031L0.000890625 13.8207L1.00856 13.3365ZM7.13311 11.9442C7.34939 9.04148 8.63648 3.91439 11.2969 2.94272V11.9775C10.7107 11.6195 9.96642 11.2969 9.1875 11.2969C8.43272 11.2969 7.71052 11.5998 7.13311 11.9442ZM12.7031 11.9774V2.94272C15.3751 3.91866 16.6511 9.04861 16.8669 11.9443C16.2895 11.5998 15.5673 11.2969 14.8125 11.2969C14.0336 11.2969 13.2893 11.6195 12.7031 11.9774ZM22.5409 11.6602C21.956 11.4749 21.1966 11.2969 20.4375 11.2969C19.6374 11.2969 18.874 11.6373 18.2808 12.0067C18.0869 9.11428 17.2134 5.54381 15.3757 3.28716C19.3238 4.44591 22.1272 7.62389 22.5409 11.6602ZM8.62434 3.28716C6.78661 5.54381 5.91309 9.11428 5.71917 12.0067C5.12597 11.6373 4.36261 11.2969 3.5625 11.2969C2.80341 11.2969 2.04403 11.4749 1.45913 11.6602C1.8728 7.62389 4.6762 4.44591 8.62434 3.28716Z"></path>
</svg>
