<svg width="468" height="468" viewBox="0 0 468 468" fill="none" xmlns="http://www.w3.org/2000/svg">
<path d="M383.331 195.241C370.947 177.223 342.062 173.713 325.748 188.286C325.579 180.918 323.253 173.762 319.058 167.702C314.862 161.643 308.982 156.948 302.145 154.197C295.307 151.446 287.814 150.761 280.591 152.227C273.368 153.693 266.734 157.245 261.51 162.443C263.841 154.253 255.248 146.269 246.749 145.829C238.251 145.389 230.379 149.957 223.087 154.347C215.796 158.737 207.877 163.258 199.378 162.687C190.178 162.069 182.53 155.648 173.938 152.325C152.897 144.191 126.267 158.624 121.606 180.695C98.3185 171.335 68.4414 186.686 62.582 211.106L403.548 215.084C402.332 210.235 399.801 205.817 396.233 202.316C392.666 198.814 388.201 196.366 383.331 195.241Z" fill="white"/>
<path d="M369.608 85.513C370.198 81.2261 364.151 77.6974 359.602 77.3324C357.44 77.1639 355.184 77.4915 353.135 76.7801C348.689 75.2264 346.91 69.4793 342.577 67.6541C339.329 66.2782 335.594 67.5044 332.449 69.0862C329.304 70.6681 326.197 72.6617 322.677 72.8864C319.626 73.0829 316.303 71.9504 313.635 73.4386C311.642 74.5525 310.593 76.8457 308.759 78.2029C306.924 79.5601 304.622 79.8034 302.385 79.9251C300.148 80.0468 297.854 80.0749 295.833 81.0015C293.811 81.9281 292.089 84.0809 292.547 86.2712L369.608 85.513Z" fill="white"/>
<path d="M72.7935 50.2638C73.1211 47.8676 69.7515 45.902 67.1775 45.7055C65.9927 45.7443 64.8076 45.6374 63.6488 45.3872C61.1684 44.5261 60.1762 41.3156 57.752 40.2954C55.9455 39.5372 53.8582 40.2111 52.136 41.1003C50.4138 41.9895 48.5698 43.0566 46.6136 43.2157C44.9007 43.328 43.0568 42.6915 41.5592 43.5246C40.4453 44.1517 39.865 45.3966 38.8448 46.1828C37.7747 46.8324 36.5392 47.1576 35.288 47.1188C34.0384 47.0891 32.7941 47.2922 31.6189 47.7179C31.0307 47.939 30.5301 48.3451 30.1926 48.8751C29.855 49.4051 29.6986 50.0304 29.7469 50.6569L72.7935 50.2638Z" fill="white"/>
<path d="M424.254 129.215C424.928 124.292 417.982 120.239 412.76 119.855C410.26 119.65 407.677 120.033 405.272 119.21C400.161 117.431 398.121 110.786 393.104 108.717C389.36 107.145 385.082 108.549 381.46 110.364C377.837 112.18 374.271 114.473 370.228 114.736C366.708 114.96 362.899 113.659 359.819 115.372C357.536 116.654 356.338 119.294 354.203 120.848C352.069 122.401 349.439 122.72 346.884 122.832C344.329 122.944 341.661 123 339.33 124.067C337 125.134 335.062 127.606 335.586 130.123L424.254 129.215Z" fill="#D9F0F7"/>
<path d="M414.716 44.7129C415.193 41.2403 410.298 38.3949 406.62 38.0954C404.869 37.955 403.044 38.2264 401.387 37.6461C397.784 36.3918 396.352 31.7399 392.842 30.261C390.211 29.1566 387.226 30.1394 384.652 31.4217C382.078 32.704 379.588 34.3139 376.742 34.4918C374.271 34.6509 371.585 33.7336 369.423 34.941C367.813 35.877 366.971 37.749 365.482 38.7974C363.946 39.7464 362.168 40.2308 360.362 40.192C358.552 40.1525 356.749 40.4476 355.046 41.0625C353.408 41.8113 352.051 43.5522 352.388 45.3306L414.716 44.7129Z" fill="#D9F0F7"/>
<path d="M86.8824 127.484C87.2381 124.9 83.5971 122.804 80.8639 122.56C79.5539 122.614 78.2423 122.501 76.9608 122.223C74.2839 121.287 73.2168 117.833 70.6054 116.729C68.6492 115.905 66.4028 116.645 64.512 117.59C62.6213 118.535 60.768 119.743 58.634 119.883C56.762 119.996 54.7964 119.322 53.1864 120.22C51.979 120.885 51.3144 122.27 50.2474 123.084C49.095 123.793 47.7624 124.154 46.4098 124.123C45.0644 124.091 43.7248 124.31 42.4599 124.769C41.8311 125.013 41.2981 125.454 40.9405 126.026C40.5828 126.598 40.4198 127.27 40.4756 127.942L86.8824 127.484Z" fill="#D9F0F7"/>
<path d="M183.101 87.9191C183.85 82.4715 176.156 77.9881 170.381 77.5201C167.62 77.2955 164.765 77.7167 162.144 76.8087C156.528 74.8338 154.225 67.5236 148.712 65.2023C144.585 63.4614 139.83 65.0058 135.833 67.0182C131.836 69.0306 127.877 71.5671 123.403 71.8573C119.519 72.1007 115.297 70.6592 111.89 72.5593C109.354 73.9727 108.034 76.893 105.694 78.6246C103.354 80.3562 100.424 80.6651 97.5881 80.8148C94.752 80.9646 91.8223 81.002 89.239 82.1814C86.6556 83.3607 84.5215 86.1126 85.0551 88.9206L183.101 87.9191Z" fill="white"/>
<path d="M26.0696 283.524C26.0696 283.524 18.0949 284.656 22.6345 302.113C27.1741 319.569 30.993 328.536 30.993 328.536C30.993 328.536 31.6014 332.495 28.4096 332.383C25.2178 332.271 18.722 329.734 16.513 333.216C14.3041 336.698 16.2416 341.088 21.2679 345.581C26.2942 350.073 36.9178 360.304 37.8726 361.24C38.8273 362.176 39.5293 364.048 37.3484 364.357C35.1675 364.666 19.658 362.822 19.2181 370.244C18.7782 377.667 34.8586 387.879 36.5902 389.03C38.3218 390.181 38.5933 391.08 38.2095 392.091C37.8258 393.101 32.659 392.006 28.213 391.679C23.767 391.351 18.5722 391.754 18.7033 396.059C18.8343 400.365 27.2677 411.213 51.8096 419.225L63.4254 422.192L71.9711 413.712C89.1747 394.459 91.028 380.849 88.9782 377.058C86.9283 373.268 82.2203 375.542 78.5418 378.051C74.8633 380.559 70.9415 384.097 70.1178 383.423C69.2941 382.749 69.0694 381.823 69.9867 379.96C70.904 378.097 79.6463 361.24 75.6027 354.997C71.5592 348.754 58.97 358.123 56.9202 358.984C54.8703 359.845 54.5334 357.814 54.889 356.551C55.2447 355.287 59.307 341.069 61.441 334.667C63.5751 328.265 63.1071 323.538 59.3444 321.563C55.5817 319.588 51.3697 325.176 48.6646 326.879C45.9596 328.583 44.5088 324.848 44.5088 324.848C44.5088 324.848 43.2546 315.17 38.378 297.798C33.5014 280.426 25.8824 283.552 25.8824 283.552" fill="white"/>
<path d="M63.4138 425.076C59.9038 412.299 54.0538 389.508 48.9152 369.927C43.7765 350.345 39.1246 332.674 35.6708 319.879C33.9485 313.495 32.5539 308.319 31.5804 304.734L30.4666 300.606L30.1858 299.539L30.1016 299.165C30.1016 299.165 30.1484 299.287 30.2232 299.53L30.5415 300.588C30.8129 301.524 31.206 302.918 31.7208 304.687C32.7411 308.254 34.1732 313.42 35.9328 319.804C39.4428 332.58 44.1416 350.271 49.2708 369.833C54.4001 389.395 60.222 412.215 63.6478 425.01" fill="#E0E0E0"/>
<path d="M25.4805 337.147C25.745 337.262 25.9988 337.4 26.2386 337.559C26.7254 337.84 27.4086 338.271 28.251 338.804C29.9265 339.881 32.201 341.416 34.6907 343.166L41.0368 347.659L42.965 349.016C43.2149 349.164 43.4473 349.34 43.6576 349.54C43.387 349.436 43.1295 349.301 42.8901 349.138C42.4033 348.857 41.7201 348.426 40.887 347.883C39.2209 346.788 36.9558 345.216 34.4754 343.475L28.0825 339.019L26.2105 337.681C25.9415 337.541 25.6953 337.361 25.4805 337.147Z" fill="#E0E0E0"/>
<path d="M44.6193 348.969C44.5257 348.913 47.5022 344.074 51.2556 338.158C55.0089 332.243 58.1258 327.497 58.2101 327.6C58.2943 327.703 55.3272 332.486 51.5738 338.402C47.8205 344.317 44.7036 349.025 44.6193 348.969Z" fill="#E0E0E0"/>
<path d="M51.1445 379.351C51.3328 379.122 51.5463 378.915 51.781 378.734L53.5875 377.152C55.1038 375.804 57.2005 373.941 59.4375 371.798C61.6745 369.654 63.6401 367.651 65.0535 366.182L66.7289 364.45C66.9182 364.221 67.1351 364.017 67.3748 363.842C67.2178 364.093 67.036 364.329 66.8319 364.544C66.4669 364.984 65.8959 365.601 65.2501 366.36C63.8929 367.876 61.9553 369.916 59.6996 372.06C57.4438 374.203 55.3378 376.047 53.7653 377.339C52.9791 377.985 52.3333 378.5 51.8933 378.837C51.667 379.04 51.4153 379.213 51.1445 379.351Z" fill="#E0E0E0"/>
<path d="M31.4805 372.528C31.7522 372.559 32.0193 372.622 32.2761 372.716L34.4008 373.371C36.1885 373.932 38.6596 374.737 41.374 375.645C44.0884 376.553 46.5407 377.405 48.3191 378.032L50.4064 378.799C50.6687 378.877 50.9203 378.987 51.1552 379.127C50.8838 379.09 50.6171 379.024 50.3596 378.931L48.2349 378.285C46.4377 377.714 43.9761 376.909 41.2523 376.001C38.5285 375.093 36.0856 374.251 34.3165 373.614L32.2293 372.856C31.9688 372.773 31.7178 372.664 31.4805 372.528Z" fill="#E0E0E0"/>
<path d="M33.8281 400.037C34.1748 400.092 34.5162 400.176 34.8484 400.29L37.5721 401.113C39.8747 401.825 43.0384 402.836 46.539 403.921C50.0396 405.007 53.1846 406.102 55.4591 406.879L58.1548 407.815C58.4781 407.917 58.7914 408.049 59.0908 408.208C58.7429 408.159 58.401 408.075 58.0705 407.956L55.3842 407.16C53.0816 406.449 49.918 405.438 46.4173 404.352C42.9167 403.266 39.7717 402.171 37.4972 401.394L34.8016 400.458C34.4624 400.355 34.1359 400.213 33.8281 400.037Z" fill="#E0E0E0"/>
<path d="M58.5781 407.891C58.8141 407.598 59.0774 407.328 59.3644 407.086L61.5827 404.989C63.4547 403.211 66.0193 400.758 68.7899 397.96C71.5604 395.161 73.994 392.578 75.7444 390.687L77.8223 388.441C78.0638 388.155 78.33 387.892 78.6179 387.654C78.4132 387.965 78.1848 388.259 77.9346 388.534C77.476 389.096 76.7927 389.891 75.9409 390.855C74.2374 392.793 71.8225 395.414 69.052 398.212C66.2814 401.011 63.6512 403.417 61.7792 405.186C60.8432 406.037 60.0289 406.73 59.4767 407.198C59.196 407.452 58.8955 407.684 58.5781 407.891Z" fill="#E0E0E0"/>
<path d="M395.135 426.02C375.731 415.284 368.44 391.388 366.184 369.327C365.81 365.639 364.911 361.839 366.109 358.385C367.307 354.931 370.789 352.217 374.093 353.34C376.817 354.276 378.352 357.28 380.131 359.705C382.447 362.893 385.621 365.357 389.285 366.809C391.634 367.745 394.433 368.091 396.417 366.528C399.141 364.366 398.897 359.976 398.392 356.307L395.528 335.93C395.013 332.28 394.498 328.555 395.097 324.951C395.696 321.347 397.606 317.8 400.713 316.386C403.821 314.973 408.117 316.387 409.278 319.887C409.611 321.381 409.849 322.894 409.989 324.417C410.289 325.915 411.168 327.497 412.572 327.74C413.976 327.984 415.221 326.804 416.092 325.55C419.124 321.375 420.875 316.302 422.466 311.276C424.057 306.25 425.583 301.12 428.241 296.665C430.899 292.21 434.887 288.409 439.726 287.445C444.565 286.481 450.218 288.98 452.137 293.904C454.056 298.827 451.969 304.481 449.469 309.067C445.815 315.807 441.209 321.985 435.795 327.413C434.706 328.288 433.92 329.483 433.548 330.829C433.136 333.356 435.617 335.509 437.975 335.968C440.634 336.52 443.357 335.855 446.062 335.827C448.767 335.799 451.819 336.651 453.185 339.206C455.057 342.735 452.699 347.05 450.171 350.008C445.17 355.888 439.164 360.835 432.434 364.619C430.057 365.948 427.53 367.174 425.761 369.299C423.992 371.423 423.205 374.915 424.778 377.311C426.35 379.707 429.598 380.119 432.153 379.183C434.709 378.247 436.833 376.45 439.23 375.092C443.657 372.556 449.76 372.069 453.345 375.982C455.703 378.556 456.415 382.534 455.872 386.034C455.193 389.501 453.849 392.804 451.912 395.759C445.669 406.224 437.067 415.144 426.734 420.676C416.401 426.207 406.47 428.688 395.097 425.945" fill="white"/>
<path d="M398.59 411.522C400.381 399.107 402.85 386.799 405.984 374.653C406.799 371.433 407.604 368.241 408.39 365.106C409.176 361.97 409.972 358.862 410.926 355.877C412.751 350.167 414.879 344.559 417.3 339.075C419.575 333.843 421.915 328.967 424.133 324.427C426.352 319.887 428.504 315.694 430.62 311.969C433.916 306.096 437.672 300.494 441.852 295.214C443.312 293.342 444.491 291.957 445.306 291.021L446.242 289.964C446.343 289.838 446.456 289.722 446.579 289.617C446.495 289.755 446.401 289.886 446.298 290.01L445.409 291.115C444.632 292.051 443.48 293.511 442.048 295.392C437.968 300.728 434.288 306.36 431.041 312.24C428.954 315.984 426.838 320.168 424.629 324.708C422.42 329.247 420.08 334.152 417.834 339.356C415.434 344.823 413.325 350.412 411.516 356.101C410.58 359.078 409.794 362.157 408.998 365.293C408.203 368.428 407.407 371.62 406.593 374.84C403.469 386.959 400.988 399.234 399.161 411.615" fill="#E0E0E0"/>
<path d="M411.101 355.83C410.865 355.349 410.683 354.843 410.558 354.323C410.239 353.34 409.828 351.899 409.341 350.111C408.405 346.545 407.188 341.575 405.906 336.071C404.623 330.567 403.369 325.644 402.349 322.106C401.843 320.337 401.413 318.905 401.123 317.922C400.938 317.418 400.8 316.898 400.711 316.368C400.981 316.831 401.195 317.324 401.347 317.838C401.722 318.774 402.218 320.206 402.77 321.965C403.903 325.485 405.232 330.389 406.514 335.921C407.796 341.453 408.91 346.217 409.771 349.961C410.174 351.655 410.52 353.078 410.792 354.22C410.945 354.746 411.048 355.285 411.101 355.83Z" fill="#E0E0E0"/>
<path d="M453.784 341.013C453.227 341.226 452.65 341.383 452.062 341.481C450.948 341.743 449.338 342.117 447.382 342.641C443.432 343.662 438.022 345.272 432.116 347.321C426.209 349.371 420.968 351.505 417.205 353.162C415.333 353.967 413.817 354.669 412.768 355.146C412.241 355.422 411.689 355.651 411.121 355.83C411.6 355.462 412.118 355.148 412.665 354.894C413.676 354.341 415.165 353.574 417.027 352.703C421.884 350.437 426.855 348.422 431.919 346.666C436.952 344.88 442.08 343.374 447.279 342.155C449.272 341.696 450.901 341.396 452.034 341.219C452.609 341.091 453.195 341.022 453.784 341.013Z" fill="#E0E0E0"/>
<path d="M399.01 410.576C399.01 410.576 398.86 410.408 398.626 410.052L397.69 408.452C396.847 407.066 395.668 405.026 394.255 402.489C391.447 397.407 387.703 390.256 383.697 382.318C379.691 374.381 376.04 367.193 373.307 362.054L370.05 355.989L369.17 354.323C369.051 354.137 368.96 353.935 368.898 353.724C369.049 353.884 369.178 354.063 369.282 354.257L370.218 355.848C371.061 357.234 372.24 359.274 373.653 361.82C376.461 366.903 380.205 374.044 384.211 381.991C388.218 389.937 391.868 397.107 394.601 402.246L397.858 408.32L398.738 409.968C398.854 410.158 398.945 410.363 399.01 410.576Z" fill="#E0E0E0"/>
<path d="M454.588 382.459C454.424 382.596 454.241 382.71 454.045 382.796L452.435 383.629L446.473 386.652C441.447 389.208 434.548 392.821 426.929 396.827C419.31 400.833 412.375 404.38 407.273 406.823C404.737 408.049 402.678 409.013 401.236 409.631L399.579 410.352C399.196 410.511 398.99 410.586 398.98 410.558C399.147 410.426 399.329 410.316 399.523 410.23L401.133 409.388L407.086 406.364C412.103 403.809 419.011 400.196 426.63 396.19C434.249 392.184 441.185 388.637 446.286 386.194C448.822 384.977 450.891 384.003 452.332 383.386L453.989 382.665C454.178 382.568 454.38 382.498 454.588 382.459Z" fill="#E0E0E0"/>
<path d="M453.708 447.736C453.708 447.876 354.914 447.988 233.075 447.988C111.235 447.988 12.4219 447.876 12.4219 447.736C12.4219 447.595 111.198 447.492 233.075 447.492C354.951 447.492 453.708 447.605 453.708 447.736Z" fill="#263238"/>
<path d="M396.256 206.285H66.2508C58.719 206.285 52.6133 212.391 52.6133 219.923V428.913C52.6133 436.445 58.719 442.55 66.2508 442.55H396.256C403.788 442.55 409.894 436.445 409.894 428.913V219.923C409.894 212.391 403.788 206.285 396.256 206.285Z" fill="#455A64"/>
<path d="M38.6484 427.293H425.741V431.655C425.741 435.979 424.023 440.126 420.965 443.184C417.907 446.242 413.76 447.96 409.435 447.96H54.9536C50.6292 447.96 46.4819 446.242 43.4241 443.184C40.3663 440.126 38.6484 435.979 38.6484 431.655V427.293Z" fill="#455A64"/>
<path d="M399.3 215.673H62.1992V415.2H399.3V215.673Z" fill="#263238"/>
<path d="M196.027 425.085L200.838 432.723H268.427L272.882 425.085H196.027Z" fill="#263238"/>
<path d="M389.996 222.431H72.2052C70.5149 222.431 69.1445 223.801 69.1445 225.491V411.503C69.1445 413.193 70.5149 414.563 72.2052 414.563H389.996C391.686 414.563 393.057 413.193 393.057 411.503V225.491C393.057 223.801 391.686 222.431 389.996 222.431Z" fill="#EBEBEB"/>
<path d="M392.709 414.844H68.7969L69.1432 236.789H392.709V414.844Z" fill="#FAFAFA"/>
<path d="M95.7058 229.853C95.7039 230.364 95.5508 230.863 95.2658 231.286C94.9809 231.71 94.5767 232.039 94.1045 232.233C93.6323 232.428 93.1132 232.477 92.6127 232.377C92.1122 232.276 91.6528 232.029 91.2924 231.668C90.9321 231.306 90.6869 230.846 90.588 230.345C90.4891 229.844 90.5408 229.325 90.7366 228.853C90.9324 228.382 91.2635 227.979 91.6881 227.695C92.1128 227.412 92.6119 227.261 93.1224 227.261C93.4624 227.261 93.7991 227.328 94.1132 227.458C94.4272 227.589 94.7124 227.78 94.9524 228.021C95.1924 228.262 95.3825 228.547 95.5118 228.862C95.6411 229.176 95.707 229.513 95.7058 229.853Z" fill="#263238"/>
<path d="M80.0292 229.853C80.0292 230.367 79.8769 230.868 79.5916 231.295C79.3063 231.721 78.9008 232.054 78.4265 232.25C77.9522 232.446 77.4304 232.496 76.9272 232.396C76.424 232.295 75.9621 232.047 75.5998 231.683C75.2376 231.32 74.9914 230.857 74.8924 230.354C74.7935 229.85 74.8461 229.328 75.0438 228.855C75.2415 228.381 75.5753 227.977 76.0029 227.693C76.4305 227.409 76.9326 227.259 77.4458 227.261C77.7859 227.261 78.1226 227.328 78.4366 227.458C78.7507 227.589 79.0359 227.78 79.2759 228.021C79.5159 228.262 79.706 228.547 79.8352 228.862C79.9645 229.177 80.0304 229.513 80.0292 229.853Z" fill="#263238"/>
<path d="M87.5534 229.853C87.5516 230.364 87.3985 230.863 87.1135 231.286C86.8285 231.71 86.4244 232.039 85.9522 232.233C85.48 232.428 84.9609 232.477 84.4604 232.377C83.9599 232.276 83.5004 232.029 83.1401 231.668C82.7797 231.306 82.5346 230.846 82.4357 230.345C82.3368 229.844 82.3885 229.325 82.5843 228.853C82.7801 228.382 83.1112 227.979 83.5358 227.695C83.9604 227.412 84.4595 227.261 84.9701 227.261C85.3101 227.261 85.6468 227.328 85.9608 227.458C86.2749 227.589 86.5601 227.78 86.8001 228.021C87.0401 228.262 87.2302 228.547 87.3595 228.862C87.4887 229.176 87.5547 229.513 87.5534 229.853Z" fill="#263238"/>
<path d="M406.824 425.085C406.824 425.206 327.526 425.309 229.723 425.309C131.921 425.309 52.6133 425.206 52.6133 425.085C52.6133 424.963 131.892 424.851 229.723 424.851C327.554 424.851 406.824 424.944 406.824 425.085Z" fill="#263238"/>
<path d="M358.593 313.447C354.079 317.338 350.729 322.401 348.912 328.077C347.095 333.752 346.882 339.819 348.297 345.608C344.076 344.776 339.715 344.992 335.597 346.239C331.48 347.486 327.731 349.725 324.681 352.759C321.631 355.793 319.373 359.53 318.105 363.641C316.837 367.752 316.598 372.112 317.409 376.337C308.133 369.954 293.953 372.34 287.279 381.42C287.139 375.429 286.905 369.111 283.76 364.01C280.615 358.909 273.464 355.764 268.419 359.002C270.331 356.824 271.492 354.088 271.732 351.2C271.972 348.311 271.277 345.422 269.75 342.957C268.224 340.493 265.946 338.585 263.252 337.514C260.559 336.442 257.592 336.264 254.79 337.006C254.65 329.818 250.11 278.918 246.366 235.975H214.393C210.649 278.169 206.371 326.636 206.231 333.646C203.421 332.888 200.442 333.057 197.736 334.128C195.03 335.198 192.742 337.114 191.212 339.589C189.682 342.064 188.992 344.967 189.244 347.866C189.497 350.765 190.678 353.506 192.612 355.68C187.567 352.441 180.444 355.595 177.271 360.687C174.098 365.779 173.883 372.106 173.742 378.097C167.068 369.027 152.897 366.631 143.612 373.014C144.423 368.789 144.184 364.43 142.916 360.318C141.648 356.207 139.39 352.47 136.34 349.436C133.29 346.402 129.541 344.163 125.424 342.916C121.306 341.669 116.945 341.453 112.724 342.285C114.224 336.497 114.05 330.401 112.222 324.707C110.394 319.013 106.988 313.955 102.398 310.121C97.8093 306.287 92.2261 303.834 86.2979 303.047C80.3698 302.261 74.3402 303.173 68.9102 305.679V414.751H392.111V308.983C386.657 306.559 380.638 305.694 374.721 306.482C368.805 307.27 363.223 309.681 358.593 313.447Z" fill="#D9F0F7"/>
<g opacity="0.8">
<path opacity="0.8" d="M358.593 313.447C354.079 317.338 350.729 322.401 348.912 328.077C347.095 333.752 346.882 339.819 348.297 345.608C344.076 344.776 339.715 344.992 335.597 346.239C331.48 347.486 327.731 349.725 324.681 352.759C321.631 355.793 319.373 359.53 318.105 363.641C316.837 367.752 316.598 372.112 317.409 376.337C308.133 369.954 293.953 372.34 287.279 381.42C287.139 375.429 286.905 369.111 283.76 364.01C280.615 358.909 273.464 355.764 268.419 359.002C270.331 356.824 271.492 354.088 271.732 351.2C271.972 348.311 271.277 345.422 269.75 342.957C268.224 340.493 265.946 338.585 263.252 337.514C260.559 336.442 257.592 336.264 254.79 337.006C254.65 329.818 250.11 278.918 246.366 235.975H214.393C210.649 278.169 206.371 326.636 206.231 333.646C203.421 332.888 200.442 333.057 197.736 334.128C195.03 335.198 192.742 337.114 191.212 339.589C189.682 342.064 188.992 344.967 189.244 347.866C189.497 350.765 190.678 353.506 192.612 355.68C187.567 352.441 180.444 355.595 177.271 360.687C174.098 365.779 173.883 372.106 173.742 378.097C167.068 369.027 152.897 366.631 143.612 373.014C144.423 368.789 144.184 364.43 142.916 360.318C141.648 356.207 139.39 352.47 136.34 349.436C133.29 346.402 129.541 344.163 125.424 342.916C121.306 341.669 116.945 341.453 112.724 342.285C114.224 336.497 114.05 330.401 112.222 324.707C110.394 319.013 106.988 313.955 102.398 310.121C97.8093 306.287 92.2261 303.834 86.2979 303.047C80.3698 302.261 74.3402 303.173 68.9102 305.679V414.751H392.111V308.983C386.657 306.559 380.638 305.694 374.721 306.482C368.805 307.27 363.223 309.681 358.593 313.447Z" fill="#D9F0F7"/>
</g>
<path d="M356.618 392.97C350.818 389.074 344.28 386.409 337.409 385.141C330.537 383.872 323.479 384.027 316.67 385.596C309.861 387.165 303.446 390.114 297.823 394.261C292.199 398.408 287.486 403.664 283.975 409.706C281.132 405.864 277.417 402.752 273.136 400.626C273.44 399.819 273.693 398.994 273.894 398.155C274.723 394.569 274.622 390.831 273.602 387.295C272.581 383.759 270.675 380.542 268.064 377.948C265.453 375.355 262.222 373.471 258.679 372.475C255.136 371.479 251.398 371.403 247.817 372.256L238.251 235.975H225.709V361.296C217.94 362.484 212.521 371.685 215.263 379.08C212.557 379.501 209.993 380.572 207.792 382.203C205.591 383.833 203.819 385.973 202.627 388.44C201.879 390.05 201.766 393.457 202.412 397.313C197.677 397.399 193.024 398.565 188.806 400.72C184.589 402.876 180.919 405.965 178.076 409.752C174.565 403.711 169.852 398.454 164.229 394.307C158.605 390.16 152.19 387.211 145.381 385.643C138.572 384.074 131.514 383.919 124.643 385.187C117.771 386.456 111.233 389.121 105.433 393.017C102.148 377.105 84.3544 365.798 68.5547 369.617V415.041L214.374 414.854C215.376 415.139 216.412 415.284 217.454 415.284L253.096 414.863L393.562 415.041V369.532C377.725 365.751 359.932 377.058 356.618 392.97Z" fill="#B3E1EF"/>
<g opacity="0.6">
<path opacity="0.6" d="M356.618 392.97C350.818 389.074 344.28 386.409 337.409 385.141C330.537 383.872 323.479 384.027 316.67 385.596C309.861 387.165 303.446 390.114 297.823 394.261C292.199 398.408 287.486 403.664 283.975 409.706C281.132 405.864 277.417 402.752 273.136 400.626C273.44 399.819 273.693 398.994 273.894 398.155C274.723 394.569 274.622 390.831 273.602 387.295C272.581 383.759 270.675 380.542 268.064 377.948C265.453 375.355 262.222 373.471 258.679 372.475C255.136 371.479 251.398 371.403 247.817 372.256L238.251 235.975H225.709V361.296C217.94 362.484 212.521 371.685 215.263 379.08C212.557 379.501 209.993 380.572 207.792 382.203C205.591 383.833 203.819 385.973 202.627 388.44C201.879 390.05 201.766 393.457 202.412 397.313C197.677 397.399 193.024 398.565 188.806 400.72C184.589 402.876 180.919 405.965 178.076 409.752C174.565 403.711 169.852 398.454 164.229 394.307C158.605 390.16 152.19 387.211 145.381 385.643C138.572 384.074 131.514 383.919 124.643 385.187C117.771 386.456 111.233 389.121 105.433 393.017C102.148 377.105 84.3544 365.798 68.5547 369.617V415.041L214.374 414.854C215.376 415.139 216.412 415.284 217.454 415.284L253.096 414.863L393.562 415.041V369.532C377.725 365.751 359.932 377.058 356.618 392.97Z" fill="#B3E1EF"/>
</g>
<path d="M218.322 193.312C211.133 196.728 207.876 206.575 211.62 213.604C213.099 216.412 215.514 218.818 215.832 221.944C216.319 226.736 211.788 230.48 210.384 235.048C209.672 237.785 210.046 240.692 211.428 243.161C212.809 245.629 215.092 247.468 217.797 248.292C220.259 248.938 223.208 248.826 224.855 250.763C226.961 253.234 225.435 257.315 227.242 260.039C228.861 262.482 232.652 262.604 235.095 260.975C237.538 259.346 238.886 256.529 239.85 253.758C240.814 250.988 241.534 248.077 243.201 245.662C245.073 243.013 247.834 241.197 250.061 238.867C255.415 233.251 257.053 224.827 255.846 217.142C254.638 209.458 250.923 202.428 246.72 195.904" fill="#78CAE4"/>
<g opacity="0.3">
<path opacity="0.3" d="M218.322 193.312C211.133 196.728 207.876 206.575 211.62 213.604C213.099 216.412 215.514 218.818 215.832 221.944C216.319 226.736 211.788 230.48 210.384 235.048C209.672 237.785 210.046 240.692 211.428 243.161C212.809 245.629 215.092 247.468 217.797 248.292C220.259 248.938 223.208 248.826 224.855 250.763C226.961 253.234 225.435 257.315 227.242 260.039C228.861 262.482 232.652 262.604 235.095 260.975C237.538 259.346 238.886 256.529 239.85 253.758C240.814 250.988 241.534 248.077 243.201 245.662C245.073 243.013 247.834 241.197 250.061 238.867C255.415 233.251 257.053 224.827 255.846 217.142C254.638 209.458 250.923 202.428 246.72 195.904" fill="#78CAE4"/>
</g>
<path d="M224.64 197.355C218.546 200.042 215.879 208.494 219.323 214.203C221.429 217.685 225.51 220.83 224.518 224.771C223.844 227.448 220.98 229.086 220.156 231.716C219.061 235.217 222.374 238.933 226.025 239.372C229.675 239.812 233.195 237.866 235.956 235.441C245.512 227.017 247.843 210.544 241.881 199.302" fill="#2FB2D8"/>
<path d="M256.053 143.778C256.053 143.778 287.353 164.483 283.937 200.303L255.164 187.387L256.053 143.778Z" fill="#2FB2D8"/>
<path d="M204.047 186.666L211.16 198.45H248.048L255.162 187.34L204.047 186.666Z" fill="#233239"/>
<path d="M227.693 67.7664C220.674 68.2368 214.106 71.3938 209.354 76.5815C204.602 81.7691 202.032 88.5882 202.178 95.6217L204.05 187.35H255.165L256.868 95.5749C256.94 91.786 256.224 88.0235 254.765 84.5259C253.306 81.0284 251.136 77.8722 248.393 75.2576C245.65 72.6429 242.394 70.6269 238.83 69.3373C235.267 68.0478 231.474 67.5128 227.693 67.7664Z" fill="#D9F0F7"/>
<g opacity="0.8">
<path opacity="0.8" d="M227.693 67.7664C220.674 68.2368 214.106 71.3938 209.354 76.5815C204.602 81.7691 202.032 88.5882 202.178 95.6217L204.05 187.35H255.165L256.868 95.5749C256.94 91.786 256.224 88.0235 254.765 84.5259C253.306 81.0284 251.136 77.8722 248.393 75.2576C245.65 72.6429 242.394 70.6269 238.83 69.3373C235.267 68.0478 231.474 67.5128 227.693 67.7664Z" fill="#D9F0F7"/>
</g>
<path d="M203.111 143.778C203.111 143.778 171.848 164.483 175.274 200.303L204.047 187.368L203.111 143.778Z" fill="#2FB2D8"/>
<path d="M202.456 92.5793C213.266 83.1164 247.196 83.3223 256.304 91.0256C253.964 56.9739 227.962 44.2256 227.962 44.2256C201.36 62.6461 202.456 92.5793 202.456 92.5793Z" fill="#2FB2D8"/>
<path d="M227.965 44.2344L228.274 44.5152C228.47 44.7024 228.77 44.9738 229.144 45.3389L230.567 46.6867L231.503 47.5478L232.439 48.5961C233.113 49.3356 233.88 50.1499 234.695 51.0672L237.184 54.1747C237.606 54.7457 238.027 55.3634 238.467 55.9812C238.907 56.5989 239.403 57.2354 239.796 57.9374C240.629 59.3227 241.556 60.7454 242.351 62.3834C244.177 65.8648 245.594 69.546 246.572 73.3533C247.124 75.4701 247.534 77.6215 247.799 79.793C247.958 80.9162 248.042 82.0581 248.201 83.1907C248.303 84.3672 248.344 85.5481 248.323 86.7288C248.323 96.2292 248.201 106.675 248.079 117.617C247.817 139.557 247.508 159.409 247.274 173.777C247.153 180.956 247.05 186.768 246.975 190.793C246.975 192.796 246.9 194.359 246.881 195.473C246.881 195.997 246.881 196.409 246.881 196.671C246.881 196.933 246.881 197.083 246.881 197.083C246.881 197.083 246.881 196.943 246.881 196.671C246.881 196.4 246.881 195.997 246.881 195.473C246.881 194.406 246.881 192.843 246.928 190.793C246.975 186.768 247.05 180.956 247.134 173.777C247.321 159.39 247.574 139.538 247.864 117.617C247.986 106.647 248.126 96.2011 248.126 86.7288C248.152 85.5605 248.111 84.3918 248.005 83.2281C247.855 82.0769 247.771 80.9443 247.621 79.8305C247.359 77.6653 246.953 75.5202 246.404 73.4095C245.437 69.6183 244.04 65.9502 242.239 62.477C241.396 60.839 240.47 59.4163 239.618 58.031C239.206 57.329 238.682 56.7113 238.298 56.0748C237.915 55.4383 237.456 54.8393 237.035 54.2683L234.564 51.1514C233.759 50.2154 233.001 49.4198 232.327 48.671L231.391 47.6133L230.501 46.7429L229.097 45.3763L228.246 44.5339L227.965 44.2344Z" fill="#263238"/>
<path d="M239.916 115.775C241.523 108.496 237.343 101.385 230.579 99.8914C223.815 98.398 217.029 103.088 215.422 110.367C213.814 117.646 217.995 124.757 224.759 126.251C231.523 127.744 238.309 123.054 239.916 115.775Z" fill="#FAFAFA"/>
<path d="M230.575 99.8896C230.504 99.9 230.431 99.9 230.36 99.8896L229.751 99.8054L229.302 99.7305H228.75H228.113C227.879 99.7305 227.636 99.7305 227.383 99.7305C226.814 99.7659 226.248 99.841 225.689 99.9551C225.025 100.096 224.373 100.293 223.742 100.545C222.201 101.16 220.791 102.062 219.587 103.203C218.127 104.581 216.986 106.261 216.245 108.126C216.039 108.635 215.867 109.158 215.73 109.69C215.665 109.961 215.58 110.232 215.515 110.504L215.375 111.346L215.3 111.777V112.207C215.3 112.498 215.253 112.797 215.234 113.087C215.215 113.377 215.234 113.677 215.234 113.976V114.426L215.281 114.884C215.528 117.427 216.503 119.845 218.089 121.848C219.759 124.025 222.144 125.543 224.823 126.135C227.503 126.728 230.305 126.356 232.737 125.087C235.008 123.923 236.899 122.133 238.185 119.929L238.419 119.546L238.615 119.134L239.009 118.338L239.317 117.515L239.467 117.103L239.589 116.681L239.813 115.858C239.879 115.586 239.907 115.306 239.963 115.034C240.057 114.492 240.12 113.945 240.15 113.396C240.275 111.392 239.955 109.385 239.214 107.518C238.357 105.333 236.917 103.426 235.049 102.005C234.589 101.662 234.108 101.35 233.608 101.069C233.374 100.957 233.168 100.826 232.962 100.732L232.372 100.489L231.857 100.283L231.427 100.152L230.828 99.9739C230.76 99.9564 230.694 99.9313 230.631 99.899H230.837L231.436 100.049L231.886 100.17L232.4 100.367L232.999 100.601L233.655 100.929C234.167 101.208 234.661 101.521 235.133 101.865C235.681 102.279 236.197 102.732 236.678 103.222C237.842 104.43 238.764 105.85 239.392 107.406C240.166 109.294 240.508 111.331 240.394 113.368C240.371 113.927 240.312 114.483 240.216 115.034C240.16 115.315 240.132 115.596 240.066 115.877C240.001 116.157 239.916 116.438 239.832 116.719L239.72 117.14L239.57 117.552L239.252 118.394L238.859 119.209L238.662 119.63L238.419 120.023C237.12 122.276 235.195 124.103 232.878 125.283C230.393 126.587 227.527 126.971 224.786 126.367C222.046 125.762 219.607 124.208 217.902 121.979C216.3 119.928 215.325 117.458 215.094 114.866V114.407V113.948C215.094 113.649 215.094 113.34 215.094 113.012C215.094 112.685 215.094 112.413 215.169 112.076V111.636L215.234 111.197C215.29 110.916 215.337 110.626 215.384 110.345C215.431 110.064 215.534 109.793 215.609 109.512C215.747 108.972 215.925 108.443 216.142 107.93C216.896 106.034 218.063 104.329 219.558 102.941C220.786 101.795 222.222 100.896 223.789 100.292C224.43 100.043 225.091 99.8491 225.764 99.7118C226.33 99.6036 226.902 99.5348 227.477 99.5059C227.739 99.5059 227.982 99.5059 228.216 99.5059H228.862H229.415L229.864 99.5901L230.472 99.7024L230.575 99.8896Z" fill="#263238"/>
<path d="M214.737 111.047C214.737 111.206 211.854 111.131 208.381 111.758C204.909 112.385 202.232 113.434 202.176 113.284C202.691 112.909 203.267 112.627 203.879 112.451C206.745 111.375 209.785 110.836 212.846 110.86C213.482 110.819 214.121 110.882 214.737 111.047Z" fill="#263238"/>
<path d="M256.062 111.028C255.29 111.033 254.518 110.96 253.76 110.812C252.356 110.644 250.409 110.419 248.256 110.26C246.103 110.101 244.147 110.063 242.724 110.035C241.955 110.076 241.184 110.042 240.422 109.932C241.17 109.738 241.942 109.65 242.715 109.67C244.587 109.585 246.462 109.61 248.331 109.745C250.184 109.874 252.028 110.108 253.854 110.447C254.611 110.548 255.353 110.743 256.062 111.028Z" fill="#263238"/>
<path d="M256.343 163.518C256.163 163.543 255.98 163.543 255.8 163.518L254.256 163.397L248.574 162.966C243.782 162.629 237.146 162.302 229.854 162.311C222.563 162.32 215.889 162.657 211.088 163.004L205.415 163.453L203.871 163.565C203.691 163.592 203.508 163.592 203.328 163.565C203.5 163.504 203.68 163.467 203.862 163.453L205.397 163.238C206.726 163.06 208.663 162.845 211.013 162.629C215.805 162.18 222.46 161.787 229.808 161.778C237.155 161.768 243.848 162.152 248.593 162.592C250.999 162.807 252.927 163.013 254.265 163.191L255.8 163.397C255.986 163.413 256.168 163.454 256.343 163.518Z" fill="#263238"/>
<path d="M216.097 124.197C216.097 124.272 215.778 124.3 215.563 124.665C215.501 124.759 215.459 124.866 215.441 124.977C215.423 125.089 215.43 125.203 215.46 125.311C215.508 125.426 215.588 125.525 215.691 125.595C215.794 125.665 215.916 125.703 216.04 125.704C216.166 125.723 216.293 125.705 216.408 125.652C216.523 125.598 216.62 125.513 216.686 125.405C216.733 125.302 216.757 125.19 216.757 125.077C216.757 124.964 216.733 124.853 216.686 124.75C216.527 124.357 216.218 124.282 216.237 124.207C216.256 124.132 216.668 124.066 217.014 124.572C217.112 124.723 217.173 124.894 217.192 125.073C217.212 125.252 217.189 125.433 217.126 125.601C217.032 125.811 216.873 125.985 216.672 126.098C216.472 126.211 216.241 126.257 216.012 126.229C215.815 126.218 215.626 126.152 215.464 126.039C215.303 125.925 215.177 125.769 215.101 125.587C215.025 125.405 215.001 125.206 215.033 125.011C215.066 124.817 215.152 124.635 215.282 124.488C215.694 123.992 216.134 124.132 216.097 124.197Z" fill="#263238"/>
<path d="M227.234 130.198C227.234 130.282 226.916 130.31 226.701 130.675C226.64 130.768 226.6 130.873 226.582 130.982C226.564 131.092 226.57 131.204 226.598 131.311C226.643 131.429 226.723 131.53 226.826 131.602C226.93 131.674 227.052 131.713 227.178 131.714C227.304 131.731 227.432 131.71 227.547 131.655C227.662 131.601 227.758 131.514 227.824 131.405C227.868 131.303 227.891 131.193 227.891 131.082C227.891 130.971 227.868 130.861 227.824 130.759C227.656 130.366 227.347 130.291 227.366 130.216C227.384 130.141 227.796 130.076 228.142 130.581C228.24 130.73 228.301 130.901 228.321 131.078C228.34 131.255 228.318 131.435 228.255 131.602C228.161 131.812 228.002 131.987 227.802 132.102C227.602 132.216 227.37 132.264 227.141 132.238C226.935 132.235 226.734 132.172 226.564 132.056C226.394 131.94 226.261 131.777 226.183 131.586C226.105 131.395 226.085 131.186 226.126 130.984C226.166 130.782 226.265 130.596 226.411 130.45C226.832 130.001 227.272 130.104 227.234 130.198Z" fill="#263238"/>
<path d="M239.522 125.077C239.522 125.162 239.213 125.19 238.988 125.555C238.928 125.648 238.887 125.752 238.869 125.862C238.852 125.972 238.857 126.084 238.885 126.191C238.934 126.308 239.016 126.408 239.121 126.48C239.225 126.551 239.348 126.591 239.475 126.594C239.6 126.612 239.727 126.593 239.841 126.538C239.955 126.482 240.049 126.394 240.111 126.285C240.156 126.183 240.178 126.073 240.178 125.962C240.178 125.851 240.156 125.741 240.111 125.639C239.952 125.246 239.634 125.171 239.653 125.087C239.672 125.002 240.083 124.956 240.43 125.461C240.531 125.609 240.595 125.779 240.616 125.956C240.638 126.134 240.615 126.314 240.551 126.481C240.453 126.691 240.293 126.865 240.091 126.979C239.89 127.093 239.658 127.142 239.428 127.118C239.199 127.108 238.978 127.026 238.798 126.883C238.618 126.74 238.488 126.544 238.427 126.322C238.39 126.147 238.395 125.966 238.442 125.793C238.489 125.621 238.577 125.462 238.698 125.33C239.119 124.881 239.559 125.021 239.522 125.077Z" fill="#263238"/>
<path d="M243.519 115.896C243.519 115.97 243.2 115.999 242.976 116.364C242.916 116.459 242.878 116.566 242.861 116.677C242.845 116.788 242.852 116.901 242.882 117.009C242.927 117.127 243.007 117.228 243.11 117.3C243.214 117.372 243.337 117.411 243.462 117.412C243.587 117.428 243.714 117.407 243.827 117.352C243.94 117.297 244.034 117.211 244.099 117.103C244.143 117.001 244.166 116.891 244.166 116.78C244.166 116.669 244.143 116.559 244.099 116.457C243.94 116.064 243.631 115.98 243.64 115.905C243.65 115.83 244.071 115.774 244.427 116.279C244.525 116.428 244.587 116.598 244.606 116.776C244.626 116.953 244.603 117.133 244.539 117.3C244.443 117.508 244.284 117.682 244.084 117.794C243.884 117.907 243.653 117.953 243.425 117.927C243.194 117.918 242.972 117.836 242.79 117.693C242.609 117.55 242.477 117.353 242.414 117.131C242.378 116.956 242.384 116.775 242.431 116.602C242.478 116.43 242.565 116.271 242.686 116.139C243.107 115.699 243.547 115.839 243.519 115.896Z" fill="#263238"/>
<path d="M212.033 115.006C212.033 115.081 211.714 115.109 211.499 115.474C211.439 115.569 211.398 115.675 211.381 115.786C211.363 115.897 211.368 116.011 211.396 116.12C211.442 116.237 211.522 116.337 211.625 116.409C211.729 116.48 211.851 116.52 211.976 116.522C212.102 116.537 212.23 116.515 212.344 116.461C212.458 116.406 212.555 116.32 212.622 116.213C212.669 116.112 212.693 116.002 212.693 115.89C212.693 115.779 212.669 115.669 212.622 115.568C212.463 115.174 212.154 115.09 212.173 115.015C212.192 114.94 212.604 114.884 212.95 115.39C213.048 115.539 213.11 115.709 213.129 115.886C213.149 116.064 213.126 116.243 213.062 116.41C212.968 116.62 212.809 116.794 212.608 116.907C212.408 117.02 212.177 117.065 211.948 117.037C211.717 117.028 211.495 116.946 211.314 116.803C211.132 116.66 211.001 116.464 210.937 116.241C210.901 116.066 210.907 115.884 210.956 115.711C211.005 115.538 211.095 115.38 211.218 115.249C211.63 114.809 212.07 114.95 212.033 115.006Z" fill="#263238"/>
<path d="M239.504 102.407C239.504 102.333 239.823 102.304 240.038 101.939C240.1 101.845 240.142 101.739 240.16 101.628C240.177 101.516 240.171 101.402 240.141 101.294C240.093 101.178 240.012 101.079 239.91 101.007C239.807 100.936 239.686 100.896 239.56 100.891C239.436 100.875 239.309 100.896 239.196 100.951C239.083 101.005 238.989 101.092 238.924 101.2C238.875 101.301 238.85 101.411 238.85 101.523C238.85 101.635 238.875 101.745 238.924 101.846C239.083 102.239 239.392 102.323 239.373 102.398C239.355 102.473 238.943 102.529 238.596 102.024C238.498 101.875 238.436 101.705 238.417 101.527C238.397 101.35 238.42 101.17 238.484 101.003C238.578 100.794 238.737 100.619 238.938 100.507C239.138 100.394 239.37 100.348 239.598 100.376C239.804 100.379 240.005 100.442 240.175 100.558C240.345 100.674 240.478 100.837 240.555 101.028C240.633 101.219 240.653 101.428 240.613 101.63C240.572 101.832 240.473 102.018 240.328 102.164C239.907 102.613 239.467 102.464 239.504 102.407Z" fill="#263238"/>
<path d="M227.216 96.9601C227.216 96.8852 227.535 96.8571 227.75 96.4921C227.81 96.3972 227.851 96.2909 227.868 96.1798C227.886 96.0688 227.881 95.9552 227.853 95.8463C227.803 95.73 227.721 95.6304 227.617 95.5591C227.512 95.4878 227.39 95.4478 227.263 95.4438C227.139 95.4278 227.012 95.4484 226.899 95.5033C226.786 95.5582 226.691 95.6448 226.627 95.7527C226.583 95.8546 226.56 95.9645 226.56 96.0756C226.56 96.1866 226.583 96.2965 226.627 96.3985C226.786 96.801 227.104 96.8759 227.085 96.9507C227.067 97.0256 226.655 97.0911 226.309 96.5763C226.184 96.4103 226.113 96.2109 226.103 96.0039C226.093 95.7968 226.145 95.5914 226.253 95.4143C226.36 95.2371 226.519 95.0962 226.707 95.0098C226.896 94.9233 227.106 94.8951 227.31 94.929C227.54 94.9385 227.76 95.0207 227.94 95.1636C228.12 95.3066 228.25 95.503 228.312 95.7246C228.348 95.8996 228.342 96.0808 228.295 96.2532C228.248 96.4257 228.161 96.5845 228.04 96.7167C227.619 97.166 227.179 97.0256 227.216 96.9601Z" fill="#263238"/>
<path d="M215.064 102.407C215.064 102.332 215.382 102.304 215.598 101.939C215.658 101.844 215.698 101.738 215.716 101.627C215.734 101.516 215.728 101.402 215.701 101.294C215.651 101.177 215.569 101.078 215.464 101.006C215.36 100.935 215.237 100.895 215.111 100.891C214.986 100.875 214.86 100.896 214.747 100.951C214.634 101.005 214.539 101.092 214.474 101.2C214.43 101.302 214.408 101.412 214.408 101.523C214.408 101.634 214.43 101.744 214.474 101.846C214.634 102.239 214.952 102.323 214.933 102.398C214.914 102.473 214.503 102.529 214.156 102.024C214.032 101.858 213.96 101.658 213.95 101.451C213.94 101.244 213.993 101.039 214.1 100.862C214.208 100.684 214.366 100.544 214.555 100.457C214.743 100.371 214.953 100.342 215.158 100.376C215.387 100.386 215.608 100.468 215.788 100.611C215.968 100.754 216.098 100.95 216.159 101.172C216.196 101.347 216.19 101.528 216.143 101.701C216.096 101.873 216.008 102.032 215.888 102.164C215.467 102.613 215.027 102.464 215.064 102.407Z" fill="#263238"/>
<path d="M225.661 147.541L226.756 202.307C226.773 203.067 227.091 203.79 227.64 204.316C228.189 204.843 228.925 205.13 229.685 205.115C230.425 205.098 231.13 204.797 231.653 204.274C232.176 203.751 232.477 203.046 232.493 202.307C232.606 192.441 232.971 159.251 233.027 147.485C233.029 146.954 232.916 146.429 232.696 145.946C232.476 145.463 232.154 145.033 231.752 144.686C231.35 144.34 230.877 144.084 230.367 143.937C229.857 143.79 229.321 143.755 228.796 143.835C227.913 143.968 227.109 144.418 226.532 145.099C225.956 145.781 225.646 146.649 225.661 147.541Z" fill="#237C96"/>
<g opacity="0.3">
<path opacity="0.3" d="M225.661 147.541L226.756 202.307C226.773 203.067 227.091 203.79 227.64 204.316C228.189 204.843 228.925 205.13 229.685 205.115C230.425 205.098 231.13 204.797 231.653 204.274C232.176 203.751 232.477 203.046 232.493 202.307C232.606 192.441 232.971 159.251 233.027 147.485C233.029 146.954 232.916 146.429 232.696 145.946C232.476 145.463 232.154 145.033 231.752 144.686C231.35 144.34 230.877 144.084 230.367 143.937C229.857 143.79 229.321 143.755 228.796 143.835C227.913 143.968 227.109 144.418 226.532 145.099C225.956 145.781 225.646 146.649 225.661 147.541Z" fill="#237C96"/>
</g>
<path d="M227.355 47.3609C227.514 47.5481 225.698 49.3077 223.05 52.3965C221.72 53.9316 220.242 55.841 218.678 58.0125C217.016 60.3954 215.485 62.8669 214.092 65.4163C212.734 67.9808 211.519 70.6181 210.451 73.3161C209.515 75.8153 208.719 78.1085 208.167 80.0647C207.053 83.9772 206.585 86.4669 206.295 86.4295C206.005 86.3921 206.192 83.8461 207.053 79.7933C207.569 77.4248 208.238 75.0924 209.056 72.8107C210.07 70.0156 211.277 67.2946 212.669 64.6675C214.099 62.0683 215.7 59.5668 217.462 57.1795C218.916 55.2383 220.495 53.3936 222.188 51.6571C225.137 48.6713 227.233 47.2205 227.355 47.3609Z" fill="white"/>
<path d="M201.961 149.226C202.11 149.46 199.518 151.098 195.905 154.486L194.51 155.815C194.023 156.283 193.574 156.817 193.069 157.332C192.048 158.361 191.094 159.578 190.055 160.823C187.886 163.591 185.96 166.541 184.298 169.64C182.679 172.765 181.326 176.022 180.255 179.375C179.815 180.928 179.319 182.407 179.075 183.821C178.926 184.532 178.748 185.206 178.635 185.87C178.523 186.535 178.42 187.162 178.327 187.742C177.596 192.619 177.662 195.698 177.391 195.708C177.278 195.708 177.175 194.95 177.082 193.546C177.082 193.19 177.035 192.797 177.016 192.376C176.997 191.954 177.016 191.486 177.016 190.99C177.023 189.861 177.089 188.734 177.213 187.611C177.278 186.984 177.353 186.329 177.428 185.646C177.503 184.962 177.662 184.26 177.784 183.54C178.018 182.07 178.439 180.545 178.86 178.935C180.847 171.952 184.274 165.464 188.922 159.887C189.93 158.674 190.999 157.512 192.123 156.405C192.647 155.89 193.143 155.366 193.658 154.917L195.156 153.635C196.014 152.898 196.911 152.207 197.842 151.566C198.245 151.276 198.619 150.995 198.975 150.761L199.976 150.162C201.24 149.479 201.895 149.132 201.961 149.226Z" fill="white"/>
<path d="M161.676 327.796C160.417 327.082 159.407 326 158.782 324.694C158.158 323.388 157.949 321.922 158.183 320.494C158.418 319.066 159.085 317.744 160.094 316.706C161.104 315.669 162.407 314.966 163.828 314.692C166.393 314.187 169.604 314.917 171.213 312.82C172.683 310.948 171.578 308.477 172.224 305.482C172.87 302.487 175.444 301.074 178.28 301.111C179.702 301.194 181.08 301.635 182.284 302.395C183.489 303.154 184.482 304.207 185.169 305.454C186.688 308.227 187.373 311.38 187.144 314.533C186.386 321.001 182.932 324.315 178.636 327.057C174.34 329.799 166.206 330.427 161.676 327.74" fill="#D9F0F7"/>
<g opacity="0.8">
<path opacity="0.8" d="M161.676 327.796C160.417 327.082 159.407 326 158.782 324.694C158.158 323.388 157.949 321.922 158.183 320.494C158.418 319.066 159.085 317.744 160.094 316.706C161.104 315.669 162.407 314.966 163.828 314.692C166.393 314.187 169.604 314.917 171.213 312.82C172.683 310.948 171.578 308.477 172.224 305.482C172.87 302.487 175.444 301.074 178.28 301.111C179.702 301.194 181.08 301.635 182.284 302.395C183.489 303.154 184.482 304.207 185.169 305.454C186.688 308.227 187.373 311.38 187.144 314.533C186.386 321.001 182.932 324.315 178.636 327.057C174.34 329.799 166.206 330.427 161.676 327.74" fill="#D9F0F7"/>
</g>
<path d="M266.684 275.951C267.728 273.956 269.356 272.327 271.35 271.283C273.345 270.239 275.612 269.829 277.846 270.109C280.08 270.389 282.175 271.345 283.85 272.85C285.526 274.354 286.702 276.334 287.22 278.525C288.156 282.503 287.22 287.539 290.524 289.944C293.529 292.125 297.329 290.244 302.046 291.067C306.764 291.891 309.122 295.822 309.225 300.259C309.328 304.696 306.614 308.908 302.861 311.266C298.626 313.8 293.752 315.061 288.821 314.898C278.684 314.102 273.302 308.908 268.762 302.374C264.223 295.841 262.762 283.177 266.684 275.951Z" fill="#D9F0F7"/>
<g opacity="0.8">
<path opacity="0.8" d="M266.684 275.951C267.728 273.956 269.356 272.327 271.35 271.283C273.345 270.239 275.612 269.829 277.846 270.109C280.08 270.389 282.175 271.345 283.85 272.85C285.526 274.354 286.702 276.334 287.22 278.525C288.156 282.503 287.22 287.539 290.524 289.944C293.529 292.125 297.329 290.244 302.046 291.067C306.764 291.891 309.122 295.822 309.225 300.259C309.328 304.696 306.614 308.908 302.861 311.266C298.626 313.8 293.752 315.061 288.821 314.898C278.684 314.102 273.302 308.908 268.762 302.374C264.223 295.841 262.762 283.177 266.684 275.951Z" fill="#D9F0F7"/>
</g>
<path d="M191.049 262.678C189.92 263.259 188.974 264.139 188.313 265.222C187.653 266.305 187.304 267.55 187.305 268.818C187.352 270.228 187.852 271.584 188.732 272.687C189.611 273.789 190.823 274.578 192.187 274.936C193.551 275.295 194.994 275.204 196.302 274.677C197.61 274.15 198.713 273.215 199.447 272.011C200.181 270.807 200.507 269.398 200.377 267.994C200.247 266.59 199.667 265.265 198.723 264.217C197.78 263.169 196.524 262.453 195.141 262.176C193.758 261.898 192.323 262.075 191.049 262.678Z" fill="#D9F0F7"/>
<g opacity="0.8">
<path opacity="0.8" d="M191.049 262.678C189.92 263.259 188.974 264.139 188.313 265.222C187.653 266.305 187.304 267.55 187.305 268.818C187.352 270.228 187.852 271.584 188.732 272.687C189.611 273.789 190.823 274.578 192.187 274.936C193.551 275.295 194.994 275.204 196.302 274.677C197.61 274.15 198.713 273.215 199.447 272.011C200.181 270.807 200.507 269.398 200.377 267.994C200.247 266.59 199.667 265.265 198.723 264.217C197.78 263.169 196.524 262.453 195.141 262.176C193.758 261.898 192.323 262.075 191.049 262.678Z" fill="#D9F0F7"/>
</g>
<path d="M290.563 341.171C290.001 341.463 289.529 341.904 289.199 342.445C288.869 342.986 288.694 343.608 288.691 344.241C288.714 344.949 288.964 345.63 289.404 346.184C289.845 346.737 290.453 347.134 291.137 347.314C291.821 347.495 292.545 347.45 293.202 347.186C293.858 346.922 294.412 346.452 294.78 345.848C295.149 345.244 295.312 344.537 295.246 343.833C295.181 343.128 294.889 342.464 294.415 341.938C293.941 341.412 293.31 341.054 292.616 340.916C291.922 340.778 291.202 340.867 290.563 341.171Z" fill="#FF725E"/>
<g opacity="0.8">
<path opacity="0.8" d="M290.563 341.171C290.001 341.463 289.529 341.904 289.199 342.445C288.869 342.986 288.694 343.608 288.691 344.241C288.714 344.949 288.964 345.63 289.404 346.184C289.845 346.737 290.453 347.134 291.137 347.314C291.821 347.495 292.545 347.45 293.202 347.186C293.858 346.922 294.412 346.452 294.78 345.848C295.149 345.244 295.312 344.537 295.246 343.833C295.181 343.128 294.889 342.464 294.415 341.938C293.941 341.412 293.31 341.054 292.616 340.916C291.922 340.778 291.202 340.867 290.563 341.171Z" fill="white"/>
</g>
<path d="M264.494 315.554H206.313C196.108 315.554 187.836 323.826 187.836 334.03V336.623C187.836 346.827 196.108 355.1 206.313 355.1H264.494C274.699 355.1 282.971 346.827 282.971 336.623V334.03C282.971 323.826 274.699 315.554 264.494 315.554Z" fill="#78CAE4"/>
<path d="M216.281 337.943L216.927 336.511C217.722 337.063 218.664 337.363 219.632 337.372C220.755 337.372 221.214 336.997 221.214 336.492C221.214 334.957 216.44 336.005 216.44 332.963C216.44 331.568 217.573 330.408 219.904 330.408C220.887 330.393 221.857 330.642 222.712 331.129L222.131 332.57C221.44 332.167 220.657 331.948 219.857 331.934C218.724 331.934 218.294 332.355 218.294 332.87C218.294 334.376 223.067 333.338 223.067 336.351C223.067 337.718 221.925 338.897 219.585 338.897C218.413 338.918 217.262 338.585 216.281 337.943Z" fill="white"/>
<path d="M225.986 332.093H223.355V330.549H230.507V332.093H227.886V338.758H226.014L225.986 332.093Z" fill="white"/>
<path d="M236.516 336.96H232.707L231.986 338.719H230.039L233.689 330.511H235.561L239.231 338.719H237.237L236.516 336.96ZM235.917 335.518L234.616 332.373L233.315 335.518H235.917Z" fill="white"/>
<path d="M245.325 338.758L243.734 336.464H241.993V338.758H240.121V330.549H243.678C245.868 330.549 247.235 331.681 247.235 333.525C247.257 334.079 247.106 334.625 246.804 335.09C246.503 335.554 246.064 335.913 245.55 336.118L247.422 338.758H245.325ZM243.537 332.093H241.993V334.957H243.537C244.698 334.957 245.288 334.415 245.288 333.525C245.288 332.636 244.698 332.093 243.537 332.093Z" fill="white"/>
<path d="M250.285 332.093H247.664V330.549H254.815V332.093H252.185V338.758H250.313L250.285 332.093Z" fill="white"/>
<path d="M379.25 429.39L390.314 433.274L390.192 443.907C384.894 445.405 384.155 448.082 384.155 448.082L395.228 447.829L404.859 428.239L397.24 423.259L382.994 417.025" fill="#2FB2D8"/>
<g opacity="0.6">
<path opacity="0.6" d="M404.861 428.238L395.229 447.829L384.156 448.082L385.364 446.387L394.359 445.685L403.241 427.181L404.861 428.238Z" fill="white"/>
</g>
<path d="M390.155 439.04C390.24 439.152 390.867 438.769 391.728 438.778C392.589 438.787 393.216 439.124 393.3 439.012C393.385 438.9 392.767 438.273 391.728 438.291C390.689 438.31 390.052 438.984 390.155 439.04Z" fill="#263238"/>
<path d="M390.312 436.4C390.425 436.475 390.902 435.811 391.782 435.614C392.662 435.418 393.373 435.811 393.439 435.698C393.504 435.586 393.345 435.464 393.036 435.296C392.612 435.094 392.132 435.041 391.674 435.144C391.216 435.248 390.805 435.502 390.509 435.867C390.256 436.176 390.219 436.363 390.312 436.4Z" fill="#263238"/>
<path d="M390.125 433.013C390.247 433.069 390.612 432.423 391.379 432.142C392.147 431.861 392.839 432.095 392.896 431.964C392.952 431.833 392.774 431.758 392.465 431.655C392.054 431.515 391.606 431.523 391.2 431.677C390.794 431.83 390.453 432.121 390.237 432.498C390.078 432.779 390.069 432.994 390.125 433.013Z" fill="#263238"/>
<path d="M389.313 433.003C389.453 433.003 389.369 432.273 389.697 431.525C390.024 430.776 390.567 430.345 390.502 430.224C390.436 430.102 389.641 430.411 389.248 431.337C388.854 432.264 389.191 433.069 389.313 433.003Z" fill="#263238"/>
<path d="M388.003 431.758C388.167 431.279 388.255 430.777 388.265 430.27C388.312 429.737 388.359 429.203 388.415 428.651C388.462 428.309 388.462 427.963 388.415 427.621C388.357 427.395 388.217 427.197 388.022 427.069C387.909 426.995 387.777 426.956 387.643 426.956C387.508 426.956 387.376 426.995 387.263 427.069C386.964 427.329 386.746 427.671 386.636 428.052C386.523 428.375 386.457 428.712 386.44 429.053C386.407 429.627 386.506 430.2 386.73 430.729C387.123 431.665 387.666 431.955 387.666 431.918C387.422 431.494 387.203 431.056 387.011 430.607C386.854 430.118 386.797 429.602 386.842 429.091C386.875 428.793 386.944 428.501 387.048 428.22C387.131 427.936 387.286 427.678 387.497 427.472C387.531 427.446 387.572 427.433 387.614 427.433C387.657 427.433 387.698 427.446 387.731 427.472C387.823 427.53 387.89 427.62 387.919 427.724C387.952 428.017 387.952 428.312 387.919 428.604C387.919 429.156 387.919 429.699 387.872 430.233C387.833 430.745 387.878 431.26 388.003 431.758Z" fill="#263238"/>
<path d="M387.825 432.245C387.872 432.245 387.544 431.73 386.693 431.449C386.117 431.275 385.501 431.29 384.935 431.493C384.369 431.695 383.882 432.073 383.548 432.573C383.523 432.643 383.514 432.719 383.522 432.793C383.531 432.868 383.555 432.939 383.594 433.003C383.664 433.11 383.765 433.192 383.885 433.237C384.053 433.298 384.23 433.332 384.409 433.34C384.72 433.371 385.033 433.371 385.345 433.34C385.848 433.295 386.342 433.169 386.805 432.966C387.6 432.619 387.965 432.217 387.928 432.179C387.891 432.142 387.46 432.404 386.693 432.647C386.244 432.791 385.778 432.873 385.307 432.891C385.036 432.914 384.764 432.914 384.493 432.891C384.365 432.881 384.24 432.856 384.119 432.816C384.025 432.76 384.053 432.769 384.053 432.741C384.104 432.639 384.178 432.549 384.268 432.479C384.369 432.381 384.478 432.293 384.596 432.217C384.813 432.064 385.053 431.948 385.307 431.871C385.741 431.739 386.201 431.716 386.646 431.805C387.049 431.923 387.443 432.07 387.825 432.245Z" fill="#263238"/>
<g opacity="0.6">
<path opacity="0.6" d="M396.024 428.107C396.027 428.279 396.065 428.449 396.134 428.607C396.203 428.764 396.303 428.907 396.427 429.026C396.552 429.145 396.698 429.238 396.859 429.301C397.019 429.363 397.19 429.393 397.362 429.39C397.534 429.386 397.704 429.348 397.862 429.279C398.019 429.21 398.161 429.11 398.281 428.986C398.4 428.862 398.493 428.715 398.555 428.555C398.618 428.394 398.648 428.223 398.644 428.051C398.641 427.879 398.603 427.709 398.534 427.552C398.465 427.394 398.365 427.252 398.241 427.133C398.117 427.014 397.97 426.92 397.81 426.858C397.649 426.795 397.478 426.765 397.306 426.769C397.134 426.773 396.964 426.81 396.807 426.879C396.649 426.949 396.507 427.048 396.388 427.173C396.269 427.297 396.175 427.443 396.113 427.604C396.05 427.764 396.02 427.935 396.024 428.107Z" fill="white"/>
</g>
<path d="M322.493 424.944L322.643 439.434C322.643 439.434 307.957 444.46 307.723 447.137L335.803 447.858L336.495 425.263L322.493 424.944Z" fill="#2FB2D8"/>
<g opacity="0.6">
<path opacity="0.6" d="M331.344 438.441C331.612 438.532 331.837 438.717 331.976 438.962C332.116 439.207 332.161 439.495 332.103 439.771C332.022 440.041 331.842 440.27 331.598 440.412C331.355 440.555 331.067 440.6 330.792 440.538C330.508 440.442 330.27 440.245 330.122 439.984C329.973 439.724 329.926 439.418 329.987 439.125C330.1 438.849 330.315 438.628 330.587 438.508C330.859 438.387 331.168 438.377 331.447 438.479" fill="white"/>
</g>
<g opacity="0.6">
<path opacity="0.6" d="M335.837 447.857V445.573L308.89 445.742C308.89 445.742 307.617 446.247 307.739 447.136L335.837 447.857Z" fill="white"/>
</g>
<path d="M322.184 439.283C322.184 439.414 322.877 439.499 323.541 439.957C324.206 440.416 324.543 441.006 324.674 440.95C324.805 440.893 324.618 440.098 323.803 439.564C322.989 439.031 322.165 439.152 322.184 439.283Z" fill="#263238"/>
<path d="M319.176 440.425C319.176 440.556 319.728 440.809 320.177 441.361C320.627 441.913 320.748 442.569 320.889 442.569C321.029 442.569 321.132 441.792 320.561 441.062C319.99 440.332 319.176 440.294 319.176 440.425Z" fill="#263238"/>
<path d="M317.437 443.907C317.568 443.907 317.774 443.262 317.437 442.503C317.1 441.745 316.501 441.427 316.408 441.567C316.314 441.708 316.735 442.092 317.007 442.719C317.278 443.346 317.306 443.898 317.437 443.907Z" fill="#263238"/>
<path d="M322.52 435.97C322.576 436.101 323.203 435.97 323.98 435.97C324.757 435.97 325.356 436.307 325.431 436.185C325.506 436.064 324.935 435.568 324.018 435.493C323.101 435.418 322.455 435.867 322.52 435.97Z" fill="#263238"/>
<g opacity="0.3">
<path opacity="0.3" d="M322.52 427.808L322.548 430.391L336.363 430.625L336.438 428.294L322.52 427.808Z" fill="black"/>
</g>
<path d="M322.539 433.05C323.001 433.179 323.49 433.179 323.952 433.05C324.46 432.974 324.957 432.835 325.431 432.638C325.715 432.519 325.99 432.382 326.255 432.226C326.416 432.146 326.562 432.038 326.686 431.908C326.779 431.813 326.838 431.689 326.853 431.557C326.868 431.425 326.839 431.291 326.77 431.178C326.703 431.082 326.615 431.002 326.513 430.946C326.411 430.889 326.297 430.856 326.18 430.85C326.001 430.847 325.821 430.865 325.647 430.906C325.345 430.971 325.05 431.066 324.767 431.187C324.287 431.388 323.842 431.663 323.447 432.001C322.773 432.591 322.511 433.096 322.586 433.124C322.661 433.153 322.979 432.75 323.653 432.273C324.045 431.992 324.473 431.765 324.926 431.599C325.19 431.499 325.463 431.42 325.74 431.365C326.04 431.299 326.292 431.299 326.367 431.44C326.442 431.58 326.367 431.505 326.367 431.589C326.276 431.686 326.168 431.765 326.049 431.823C325.796 431.983 325.544 432.114 325.3 432.235C324.856 432.435 324.396 432.598 323.924 432.722C323.455 432.794 322.991 432.903 322.539 433.05Z" fill="#263238"/>
<path d="M322.717 433.256C322.988 432.856 323.129 432.382 323.119 431.899C323.161 431.379 323.11 430.856 322.969 430.354C322.89 430.056 322.777 429.767 322.632 429.493C322.562 429.305 322.444 429.138 322.29 429.008C322.135 428.879 321.95 428.791 321.753 428.754C321.626 428.753 321.503 428.789 321.396 428.857C321.29 428.925 321.206 429.023 321.154 429.138C321.079 429.299 321.026 429.469 320.994 429.643C320.95 429.954 320.95 430.269 320.994 430.579C321.053 431.109 321.247 431.615 321.556 432.049C322.09 432.788 322.651 432.985 322.67 432.919C322.689 432.854 322.239 432.573 321.837 431.861C321.607 431.452 321.467 430.999 321.425 430.532C321.404 430.26 321.42 429.986 321.472 429.718C321.528 429.418 321.64 429.184 321.753 429.213C321.865 429.241 322.127 429.447 322.239 429.69C322.368 429.937 322.478 430.194 322.567 430.457C322.709 430.916 322.788 431.391 322.801 431.871C322.801 432.723 322.642 433.228 322.717 433.256Z" fill="#263238"/>
<path d="M387.844 417.559L355.468 405.522L389.501 400.739L391.214 384.162L327.575 389.713L318.59 402.657L320.949 418.888L382.959 434.65L387.844 417.559Z" fill="#263238"/>
<path d="M319.176 429.156L316.078 369.908C316.162 367.07 316.97 364.301 318.425 361.864C319.879 359.426 321.933 357.401 324.39 355.98C326.432 354.796 328.702 354.06 331.049 353.819C333.397 353.579 335.769 353.84 338.009 354.585L379.296 368.354L401.956 374.185C401.956 374.185 405.822 383.704 403.547 391.099C401.329 398.343 393.392 403.164 386.409 401.095C377.732 398.521 337.915 381.439 337.915 381.439V429.624L319.176 429.156Z" fill="#263238"/>
<path d="M385.829 401.245L385.586 401.17L384.875 400.898L382.17 399.813L372.239 395.76L339.525 382.263L337.859 381.57L338.131 381.392C338.131 394.805 338.084 406.851 338.065 415.584C338.065 419.918 338.065 423.428 338.009 425.88C338.009 427.069 338.009 428.005 338.009 428.688C338.009 428.988 338.009 429.231 338.009 429.409C338.023 429.493 338.023 429.578 338.009 429.662C338.001 429.578 338.001 429.493 338.009 429.409V428.688C338.009 428.024 338.009 427.088 338.009 425.88C338.009 423.428 338.009 419.918 337.953 415.584C337.953 406.851 337.953 394.805 337.897 381.392V381.111L338.159 381.214L339.825 381.907L372.491 395.507L382.226 399.672L384.903 400.823L385.595 401.132L385.829 401.245Z" fill="#455A64"/>
<path d="M347.696 401.319C350.69 401.843 353.422 403.356 355.455 405.616C355.371 405.7 353.902 404.333 351.711 403.145C349.521 401.956 347.658 401.432 347.696 401.319Z" fill="#455A64"/>
<path d="M334.342 373.38C335.231 374.622 335.967 375.967 336.533 377.386C337.209 378.754 337.724 380.196 338.068 381.682C337.965 381.682 337.207 379.81 336.196 377.545C335.185 375.28 334.249 373.464 334.342 373.38Z" fill="#455A64"/>
<path d="M334.435 347.275L327.135 345.908L319.469 353.733L320.882 358.722L329.821 355.427L334.435 347.275Z" fill="#FFBE9D"/>
<path d="M266.977 329.416L275.279 327.544L288.645 329.631L288.131 338.158C288.131 338.158 283.984 338.757 282.515 338.27C281.629 337.98 280.678 337.961 279.781 338.214C279.781 338.214 280.596 339.89 279.192 340.161C277.788 340.433 275.495 341.022 275.064 339.038C274.711 339.06 274.362 338.957 274.076 338.749C273.791 338.54 273.587 338.239 273.501 337.896C273.501 337.896 272.415 338.289 271.928 336.389C271.442 334.489 271.722 331.634 275.476 330.726C275.672 330.68 275.766 330.23 275.392 330.249L269.457 331.363C269.457 331.363 265.47 331.541 266.977 329.416Z" fill="#FFBE9D"/>
<path d="M274.044 335.359C274.503 335.217 274.978 335.132 275.458 335.106C275.978 335.028 276.504 334.981 277.03 334.966C277.208 334.969 277.384 335.01 277.545 335.086C277.706 335.161 277.85 335.271 277.966 335.406C278.082 335.572 278.148 335.767 278.158 335.969C278.168 336.171 278.121 336.371 278.022 336.548C277.827 336.828 277.575 337.065 277.284 337.244C276.992 337.423 276.667 337.54 276.328 337.587C275.824 337.73 275.311 337.842 274.793 337.924C274.317 338.017 273.828 338.017 273.352 337.924C273.81 337.799 274.276 337.702 274.746 337.633C275.177 337.54 275.682 337.409 276.234 337.231C276.515 337.161 276.791 337.07 277.058 336.96C277.327 336.831 277.551 336.626 277.704 336.37C277.773 336.256 277.81 336.124 277.81 335.991C277.81 335.857 277.773 335.726 277.704 335.612C277.529 335.416 277.283 335.299 277.021 335.284C276.487 335.284 275.935 335.34 275.495 335.35C275.014 335.414 274.526 335.417 274.044 335.359Z" fill="#EB996E"/>
<path d="M275.468 333.525C275.468 333.628 275.056 333.844 274.738 334.34C274.419 334.836 274.373 335.322 274.27 335.332C274.167 335.341 274.036 334.733 274.438 334.134C274.841 333.535 275.468 333.432 275.468 333.525Z" fill="#EB996E"/>
<path d="M277.75 336.566C277.75 336.566 277.834 336.566 277.965 336.566C278.096 336.566 278.246 336.838 278.358 337.016C278.446 337.153 278.505 337.307 278.529 337.469C278.553 337.63 278.543 337.795 278.498 337.952C278.432 338.139 278.317 338.305 278.166 338.433C278.015 338.561 277.832 338.647 277.637 338.682C277.041 338.867 276.43 339.005 275.812 339.094C275.335 339.14 275.035 339.094 275.035 339.047C275.035 339 275.325 338.953 275.775 338.841C276.224 338.729 276.842 338.532 277.534 338.345C277.676 338.322 277.81 338.265 277.924 338.179C278.038 338.092 278.13 337.979 278.189 337.849C278.281 337.624 278.281 337.372 278.189 337.147C278.077 336.913 278.04 336.763 277.946 336.688C277.853 336.613 277.731 336.585 277.75 336.566Z" fill="#EB996E"/>
<path d="M278.301 338.018C278.301 338.018 278.394 337.849 278.656 337.812C278.987 337.79 279.315 337.875 279.592 338.055C279.735 338.155 279.852 338.286 279.935 338.439C280.017 338.592 280.064 338.762 280.07 338.935C280.07 339.179 280.07 339.328 279.986 339.328C279.901 339.328 279.892 339.188 279.817 338.982C279.752 338.736 279.607 338.519 279.405 338.364C279.181 338.217 278.929 338.116 278.666 338.065C278.46 338.027 278.329 338.065 278.301 338.018Z" fill="#EB996E"/>
<path d="M282.438 331.391L278.694 332.879L275.184 335.369C275.184 335.369 275.184 336.23 277.177 335.912C278.431 335.701 279.629 335.236 280.697 334.545C280.697 334.545 283.308 336.192 285.62 335.809" fill="#FFBE9D"/>
<path d="M285.583 335.809C285.583 335.809 285.461 335.855 285.218 335.902C284.863 335.941 284.506 335.941 284.151 335.902C282.885 335.746 281.667 335.325 280.575 334.667H280.744C279.436 335.55 277.912 336.061 276.335 336.146C276.069 336.154 275.803 336.116 275.549 336.033C275.398 335.988 275.263 335.901 275.16 335.781C275.057 335.662 274.991 335.515 274.969 335.359V335.275L275.044 335.219L278.6 332.748C279.752 332.308 280.697 331.952 281.362 331.718C281.699 331.574 282.05 331.464 282.41 331.391C282.095 331.583 281.763 331.746 281.418 331.877C280.772 332.158 279.845 332.551 278.703 333.019L275.184 335.537L275.259 335.387C275.259 335.5 275.418 335.659 275.605 335.724C275.819 335.795 276.044 335.827 276.27 335.818C277.777 335.733 279.235 335.255 280.501 334.433L280.594 334.376H280.678C281.726 335.031 282.889 335.478 284.104 335.696C284.594 335.769 285.088 335.806 285.583 335.809Z" fill="#EB996E"/>
<path d="M276.991 331.203C276.991 331.306 276.551 331.297 276.121 331.035C275.69 330.773 275.475 330.389 275.55 330.333C275.625 330.277 275.924 330.501 276.299 330.726C276.673 330.951 277.057 331.11 276.991 331.203Z" fill="#EB996E"/>
<path d="M287.926 340.414L319.619 345.019C322.767 346.013 326.18 345.727 329.119 344.223L357.349 329.743L348.925 311.107C347.835 311.481 346.772 311.928 345.743 312.446L322.52 329.182L288.824 328.002L287.926 340.414Z" fill="#2FB2D8"/>
<path d="M401.347 374.044L399.326 370.497L377.723 365.087L380.269 369.486L401.347 374.044Z" fill="#FFBE9D"/>
<path d="M348.896 311.108C348.896 311.856 345.723 335.313 345.723 340.124C345.723 344.935 354.895 350.111 354.895 350.111L364.939 371.442H400.722L388.489 348.473L382.957 330.071C380.86 323.107 381.085 319.503 375.89 314.402L365.884 307.663L348.896 311.108Z" fill="#2FB2D8"/>
<path d="M359.286 329.622L365.295 354.837L334.987 346.32L329.82 355.455L369.254 373.408C371.612 374.48 374.27 374.692 376.769 374.009C379.267 373.325 381.446 371.787 382.929 369.664C383.845 368.353 384.468 366.86 384.754 365.286C385.04 363.713 384.982 362.096 384.586 360.547L375.759 326.055C375.473 324.931 374.958 323.877 374.246 322.961C373.534 322.045 372.64 321.286 371.62 320.731C370.601 320.176 369.478 319.839 368.322 319.738C367.166 319.638 366.001 319.778 364.902 320.149C362.985 320.791 361.363 322.102 360.332 323.841C359.301 325.58 358.929 327.631 359.286 329.622Z" fill="#2FB2D8"/>
<path d="M355.455 351.281C355.194 350.801 354.88 350.352 354.519 349.942C354.295 349.83 353.976 349.661 353.583 349.427C352.425 348.774 351.314 348.039 350.261 347.228C348.646 346.051 347.31 344.533 346.348 342.782C345.412 340.685 345.412 338.102 345.796 335.574C346.18 333.047 346.732 330.651 346.994 328.451C347.256 326.252 347.565 324.277 347.687 322.611C347.808 320.945 347.836 319.588 347.836 318.652C347.836 317.716 347.836 317.191 347.836 317.191C347.874 317.313 347.896 317.439 347.902 317.566C347.902 317.809 347.958 318.174 347.986 318.642C348.055 319.97 348.055 321.301 347.986 322.63C347.902 324.305 347.696 326.308 347.378 328.508C347.059 330.707 346.573 333.103 346.208 335.631C345.843 338.158 345.796 340.638 346.694 342.632C347.617 344.341 348.893 345.835 350.438 347.012C351.471 347.836 352.549 348.602 353.668 349.306C354.374 349.855 354.978 350.523 355.455 351.281Z" fill="#263238"/>
<path d="M367.512 309.329C367.356 309.558 367.17 309.766 366.96 309.947C366.595 310.321 366.024 310.883 365.359 311.491C363.983 312.774 362.027 314.496 359.743 316.293C357.46 318.09 355.4 319.625 353.847 320.692C353.07 321.226 352.433 321.628 351.975 321.918C351.752 322.081 351.509 322.216 351.254 322.321C351.448 322.125 351.661 321.95 351.89 321.797L353.678 320.468C355.185 319.354 357.263 317.791 359.5 315.993C361.737 314.196 363.712 312.521 365.116 311.313L366.801 309.853C367.016 309.651 367.255 309.475 367.512 309.329Z" fill="#263238"/>
<path d="M359.283 329.622C359.349 329.779 359.399 329.942 359.433 330.109C359.527 330.458 359.648 330.926 359.798 331.513C360.116 332.776 360.556 334.555 361.108 336.773C362.204 341.285 363.729 347.575 365.47 354.791L365.545 355.1L365.246 355.016L357.552 352.872L334.985 346.461L335.144 346.395L331.316 353.041L330.249 354.838L329.968 355.297C329.902 355.409 329.865 355.456 329.855 355.456C329.874 355.394 329.899 355.334 329.93 355.278L330.183 354.8L331.175 352.928L334.919 346.217L334.975 346.124H335.078L357.673 352.432L365.405 354.623L365.171 354.838C363.477 347.612 361.998 341.313 360.931 336.792C360.425 334.564 359.995 332.767 359.733 331.503C359.602 330.904 359.499 330.436 359.424 330.081C359.365 329.932 359.318 329.778 359.283 329.622Z" fill="#263238"/>
<path d="M375.891 328.049C375.96 328.188 376.01 328.336 376.04 328.489C376.134 328.816 376.246 329.228 376.396 329.743L377.613 334.423C378.614 338.392 379.99 343.783 381.497 349.783C382.237 352.787 382.967 355.642 383.585 358.263C384.199 360.581 384.392 362.99 384.156 365.377C383.964 366.991 383.386 368.535 382.471 369.879C382.142 370.373 381.73 370.807 381.254 371.161C381.645 370.73 382.008 370.273 382.34 369.794C383.198 368.451 383.73 366.925 383.893 365.339C384.082 362.985 383.861 360.616 383.238 358.338C382.583 355.736 381.872 352.881 381.123 349.914L377.379 334.526L376.274 329.846L375.994 328.573C375.944 328.402 375.91 328.226 375.891 328.049Z" fill="#263238"/>
<g opacity="0.3">
<path opacity="0.3" d="M381.392 371.423C385.829 371.826 388.403 369.299 388.88 365.807C388.985 363.884 388.645 361.962 387.888 360.191C385.164 352.217 382.413 344.176 378.098 336.932C379.726 344.176 381.842 351.131 383.442 358.375C383.959 360.389 384.189 362.466 384.125 364.544C384.024 367.078 383.06 369.502 381.392 371.414" fill="black"/>
</g>
<path d="M345.011 335.088C344.33 334.51 343.726 333.846 343.214 333.113C341.908 331.406 340.793 329.561 339.892 327.61C338.988 325.655 338.306 323.605 337.86 321.498C337.637 320.632 337.523 319.742 337.523 318.849C337.794 319.691 338.019 320.547 338.197 321.413C338.734 323.468 339.448 325.472 340.331 327.404C341.221 329.328 342.279 331.17 343.495 332.907C344.45 334.283 345.068 335.088 345.011 335.088Z" fill="#FAFAFA"/>
<path d="M336.326 340.264C335.783 339.638 335.306 338.957 334.903 338.232C334.08 336.941 333.031 335.125 331.889 333.075C330.748 331.025 329.83 329.135 329.194 327.749C328.802 327.02 328.488 326.251 328.258 325.456C328.73 326.13 329.138 326.848 329.475 327.6L332.283 332.841C333.359 334.807 334.342 336.585 335.156 338.055C335.61 338.755 336.002 339.494 336.326 340.264Z" fill="#FAFAFA"/>
<path d="M324.373 344.926C323.729 342.463 323.241 339.962 322.912 337.437C322.426 334.937 322.098 332.407 321.93 329.865C322.574 332.328 323.061 334.829 323.39 337.353C323.882 339.853 324.21 342.383 324.373 344.926Z" fill="#FAFAFA"/>
<path d="M313.741 344.205C313.571 343.507 313.489 342.79 313.497 342.071C313.413 340.742 313.366 338.907 313.413 336.876C313.46 334.845 313.6 333.02 313.741 331.7C313.768 330.98 313.884 330.266 314.087 329.575C314.164 330.288 314.164 331.006 314.087 331.719C314.031 333.048 313.956 334.873 313.9 336.885C313.844 338.898 313.844 340.732 313.844 342.061C313.891 342.778 313.856 343.497 313.741 344.205Z" fill="#FAFAFA"/>
<path d="M303.099 328.724C303.265 329.372 303.353 330.038 303.361 330.708C303.455 331.943 303.511 333.656 303.483 335.547C303.455 337.438 303.324 339.151 303.183 340.377C303.16 341.05 303.047 341.718 302.846 342.361C302.706 342.361 302.93 339.3 302.987 335.538C303.043 331.775 302.949 328.733 303.099 328.724Z" fill="#FAFAFA"/>
<path d="M294.354 329.847C294.422 331.754 294.331 333.664 294.082 335.556C293.996 337.462 293.742 339.357 293.324 341.219C293.342 337.406 293.687 333.601 294.354 329.847Z" fill="#FAFAFA"/>
<path d="M347.044 321.189C346.904 321.189 346.342 319.672 345.387 317.894C344.433 316.116 343.515 314.768 343.59 314.684C345.382 316.446 346.588 318.717 347.044 321.189Z" fill="#FAFAFA"/>
<path d="M363.515 346.657C363.279 346.731 363.031 346.76 362.785 346.742C362.113 346.769 361.441 346.754 360.772 346.695C358.559 346.525 356.381 346.039 354.304 345.253C352.222 344.481 350.259 343.419 348.473 342.099C347.933 341.7 347.417 341.269 346.929 340.807C346.582 340.48 346.404 340.293 346.433 340.265C346.461 340.236 347.284 340.882 348.67 341.818C352.311 344.269 356.481 345.824 360.838 346.358C362.466 346.564 363.515 346.573 363.515 346.657Z" fill="#FAFAFA"/>
<path d="M360.099 334.705C359.442 334.734 358.786 334.661 358.152 334.489C356.598 334.196 355.069 333.789 353.575 333.273C352.078 332.762 350.622 332.137 349.222 331.401C348.618 331.139 348.054 330.792 347.547 330.371C347.622 330.24 350.261 331.616 353.734 332.805C357.206 333.993 360.127 334.564 360.099 334.705Z" fill="#FAFAFA"/>
<path d="M358.114 326.112C356.422 326.218 354.728 325.947 353.154 325.317C351.581 324.687 350.167 323.715 349.016 322.471C351.694 324.43 354.823 325.682 358.114 326.112Z" fill="#FAFAFA"/>
<path d="M372.128 319.991C372.082 320.065 371.351 319.569 370.022 319.195C368.291 318.714 366.453 318.783 364.762 319.392C363.082 320.034 361.647 321.19 360.662 322.696C359.895 323.847 359.67 324.699 359.586 324.671C359.667 323.898 359.934 323.156 360.363 322.508C361.315 320.863 362.809 319.6 364.59 318.935C366.372 318.271 368.328 318.247 370.125 318.867C370.873 319.078 371.559 319.463 372.128 319.991Z" fill="#FAFAFA"/>
<path d="M373.784 331.485C373.308 331.881 372.77 332.197 372.193 332.421C369.489 333.594 366.566 334.175 363.619 334.124C363.009 334.16 362.398 334.091 361.812 333.918C361.812 333.768 364.62 333.918 367.896 333.254C371.172 332.589 373.718 331.344 373.784 331.485Z" fill="#FAFAFA"/>
<path d="M378.577 345.908C376.418 346.364 374.228 346.661 372.025 346.798C369.829 347.091 367.614 347.226 365.398 347.2C367.557 346.74 369.747 346.443 371.95 346.311C374.147 346.017 376.362 345.882 378.577 345.908Z" fill="#FAFAFA"/>
<path d="M382.825 365.892C382.569 365.884 382.316 365.833 382.077 365.742C381.412 365.559 380.759 365.337 380.12 365.078C378.003 364.226 375.979 363.157 374.083 361.886C372.197 360.619 370.379 359.254 368.636 357.796C367.88 357.238 367.178 356.612 366.539 355.924C367.332 356.403 368.084 356.948 368.785 357.552C370.18 358.591 372.099 360.042 374.299 361.502C376.175 362.75 378.147 363.848 380.195 364.788C381.796 365.471 382.825 365.817 382.825 365.892Z" fill="#FAFAFA"/>
<path d="M360.11 368.934C359.954 368.237 359.903 367.521 359.96 366.809C360.034 363.363 360.858 359.974 362.375 356.878C362.648 356.22 363.021 355.608 363.48 355.062C362.539 357.264 361.745 359.524 361.102 361.83C360.62 364.174 360.289 366.547 360.11 368.934Z" fill="#FAFAFA"/>
<path d="M348.7 362.822C348.337 358.895 349.538 354.984 352.042 351.937C351.163 353.64 350.4 355.4 349.758 357.206C349.275 359.051 348.922 360.928 348.7 362.822Z" fill="#FAFAFA"/>
<path d="M342.335 347.883C341.018 349.448 339.852 351.134 338.853 352.918C337.999 354.778 337.325 356.715 336.84 358.703C336.776 358.076 336.823 357.442 336.981 356.831C337.261 355.376 337.743 353.968 338.413 352.647C339.083 351.326 339.937 350.106 340.949 349.025C341.344 348.569 341.812 348.183 342.335 347.883Z" fill="#FAFAFA"/>
<path d="M384.381 334.808C383.68 335.683 382.764 336.361 381.722 336.774C380.68 337.188 379.548 337.323 378.438 337.166C378.438 337.017 379.898 336.979 381.536 336.315C383.174 335.65 384.278 334.705 384.381 334.808Z" fill="#FAFAFA"/>
<path d="M380.091 321.675C379.769 322.615 379.156 323.428 378.341 323.996C377.624 324.688 376.701 325.129 375.711 325.25C375.711 325.119 376.834 324.604 378.032 323.612C379.23 322.62 380.017 321.591 380.091 321.675Z" fill="#FAFAFA"/>
<path d="M364.808 312.933C365.638 313.424 366.293 314.164 366.68 315.048C367.21 315.86 367.48 316.812 367.457 317.781C367.317 317.781 366.98 316.611 366.25 315.282C365.52 313.953 364.715 313.026 364.808 312.933Z" fill="#FAFAFA"/>
<path d="M387.505 347.172C386.69 347.902 385.689 348.394 384.613 348.594C383.578 348.943 382.467 348.998 381.402 348.753C381.402 348.613 382.825 348.557 384.491 348.117C386.157 347.677 387.449 347.05 387.505 347.172Z" fill="#FAFAFA"/>
<path d="M394.059 358.694C390.684 359.305 387.258 359.594 383.828 359.555C385.5 359.17 387.205 358.944 388.92 358.881C390.623 358.65 392.344 358.587 394.059 358.694Z" fill="#FAFAFA"/>
<path d="M398.607 367.961C393.584 368.16 388.554 368.035 383.547 367.586C388.57 367.387 393.6 367.512 398.607 367.961Z" fill="#FAFAFA"/>
<path d="M365.481 275.071C366.108 278.244 370.666 279.508 371.097 282.709C371.284 284.076 370.629 285.442 370.685 286.827C370.741 288.699 372.042 290.263 372.697 292.004C374.064 295.598 372.529 299.857 369.637 302.393C366.745 304.93 362.795 305.959 358.957 306.034" fill="#263238"/>
<path d="M339.667 278.348C340.07 280.042 339.181 281.745 338.245 283.215C337.309 284.684 336.251 286.219 336.27 287.951C336.27 291.04 339.696 293.37 339.564 296.45C339.49 298.097 338.385 299.585 338.404 301.242C338.484 302.039 338.733 302.809 339.135 303.502C339.537 304.195 340.082 304.793 340.734 305.258C341.951 306.287 343.131 305.922 344.254 307.064C345.549 308.339 347.095 309.33 348.793 309.975C352.378 311.257 355.935 308.009 357.461 307.289" fill="#263238"/>
<path d="M366.417 276.803C366.211 275.24 364.545 274.267 363.047 273.93C361.55 273.593 359.874 273.63 358.442 272.994C357.253 272.275 356.137 271.441 355.11 270.504C353.727 269.482 352.097 268.846 350.387 268.663C348.677 268.479 346.949 268.754 345.38 269.459C343.811 270.164 342.459 271.275 341.461 272.675C340.464 274.076 339.857 275.717 339.703 277.43C339.498 279.733 340.293 282.288 342.268 283.486C344.561 284.872 347.51 284.02 350.018 283.074C352.527 282.129 355.381 281.146 357.787 282.326C359.163 283.185 360.34 284.327 361.241 285.677C362.252 286.931 363.478 288.185 365.069 288.485C366.66 288.784 368.57 287.549 368.383 285.939" fill="#263238"/>
<path d="M366.961 309.948L363.217 279.631C363.126 278.977 362.795 278.382 362.287 277.961C361.78 277.54 361.133 277.324 360.474 277.356L346.135 276.018C341.642 276.242 339.583 282.139 339.957 286.622C340.416 291.593 341.165 297.658 342.325 301.243C344.647 308.45 350.459 308.506 350.459 308.506C350.459 308.506 351.507 319.177 351.938 321.797" fill="#FFBE9D"/>
<path d="M341.886 292.154C341.901 292.278 341.941 292.398 342.003 292.507C342.065 292.615 342.148 292.711 342.248 292.786C342.347 292.862 342.461 292.918 342.582 292.949C342.703 292.98 342.829 292.987 342.953 292.968C343.198 292.944 343.424 292.825 343.582 292.636C343.74 292.447 343.816 292.203 343.796 291.957C343.781 291.833 343.741 291.713 343.679 291.604C343.617 291.496 343.534 291.401 343.434 291.325C343.335 291.249 343.221 291.194 343.1 291.162C342.979 291.131 342.852 291.125 342.729 291.143C342.483 291.167 342.257 291.286 342.1 291.475C341.942 291.665 341.865 291.908 341.886 292.154Z" fill="#263238"/>
<path d="M341.641 290.281C341.781 290.394 342.417 289.748 343.438 289.589C344.458 289.429 345.31 289.832 345.375 289.682C345.441 289.532 345.263 289.42 344.907 289.233C344.417 288.993 343.864 288.911 343.325 288.999C342.793 289.08 342.301 289.329 341.921 289.71C341.641 290 341.547 290.234 341.641 290.281Z" fill="#263238"/>
<path d="M352.171 290.647C352.186 290.77 352.225 290.89 352.286 290.998C352.348 291.105 352.43 291.2 352.529 291.276C352.627 291.352 352.74 291.407 352.86 291.439C352.98 291.471 353.105 291.478 353.228 291.461C353.472 291.438 353.696 291.319 353.854 291.132C354.011 290.945 354.089 290.704 354.071 290.46C354.056 290.337 354.016 290.217 353.955 290.109C353.893 290.001 353.811 289.907 353.712 289.831C353.614 289.755 353.501 289.7 353.381 289.668C353.261 289.636 353.136 289.629 353.013 289.646C352.77 289.669 352.545 289.787 352.388 289.975C352.23 290.162 352.152 290.403 352.171 290.647Z" fill="#263238"/>
<path d="M351.675 288.915C351.815 289.018 352.452 288.372 353.472 288.222C354.492 288.072 355.344 288.456 355.409 288.316C355.475 288.175 355.297 288.044 354.932 287.857C354.444 287.62 353.894 287.542 353.359 287.632C352.83 287.715 352.339 287.96 351.955 288.334C351.684 288.625 351.609 288.868 351.675 288.915Z" fill="#263238"/>
<path d="M349.131 297.059C348.566 296.991 347.994 296.991 347.428 297.059C347.166 297.059 346.913 297.059 346.838 296.881C346.771 296.617 346.791 296.338 346.894 296.085C347.035 295.421 347.194 294.719 347.353 293.979C347.809 292.188 348.122 290.363 348.289 288.522C347.69 290.274 347.233 292.07 346.922 293.895C346.773 294.638 346.632 295.34 346.501 296.001C346.38 296.34 346.38 296.711 346.501 297.049C346.553 297.136 346.624 297.209 346.708 297.265C346.792 297.32 346.888 297.355 346.988 297.368C347.14 297.382 347.294 297.382 347.447 297.368C348.019 297.339 348.586 297.235 349.131 297.059Z" fill="#263238"/>
<path d="M350.422 308.506C353.888 308.092 357.159 306.68 359.838 304.443C359.052 306.234 357.764 307.758 356.129 308.832C354.494 309.905 352.583 310.481 350.628 310.49L350.422 308.506Z" fill="#EB996E"/>
<path d="M349.963 299.455C350.121 299.181 350.345 298.952 350.615 298.788C350.885 298.625 351.192 298.532 351.507 298.519C351.735 298.505 351.963 298.537 352.179 298.612C352.394 298.688 352.592 298.806 352.762 298.959C352.924 299.108 353.038 299.304 353.086 299.52C353.135 299.736 353.116 299.961 353.033 300.166C352.899 300.375 352.704 300.539 352.476 300.635C352.247 300.732 351.994 300.758 351.751 300.709C351.24 300.617 350.753 300.423 350.319 300.138C350.195 300.07 350.082 299.985 349.982 299.885C349.937 299.833 349.908 299.769 349.898 299.702C349.888 299.634 349.898 299.564 349.925 299.502" fill="#EB996E"/>
<path d="M352.266 297.302C352.097 297.302 352.266 298.425 351.442 299.352C350.618 300.278 349.42 300.353 349.43 300.503C349.439 300.653 349.729 300.681 350.235 300.615C350.889 300.512 351.486 300.18 351.92 299.679C352.335 299.207 352.556 298.595 352.537 297.966C352.509 297.536 352.341 297.283 352.266 297.302Z" fill="#263238"/>
<path d="M350.76 286.135C350.91 286.397 351.911 286.135 353.128 286.06C354.345 285.985 355.365 286.191 355.487 285.92C355.608 285.648 355.327 285.555 354.897 285.349C354.325 285.099 353.704 284.984 353.081 285.012C352.458 285.039 351.85 285.209 351.303 285.508C350.891 285.751 350.704 286.004 350.76 286.135Z" fill="#263238"/>
<path d="M341.531 287.278C341.746 287.474 342.41 287.128 343.253 286.987C344.095 286.847 344.844 286.894 344.966 286.632C345.087 286.37 344.872 286.285 344.526 286.117C344.068 285.912 343.557 285.856 343.066 285.958C342.569 286.04 342.111 286.276 341.755 286.632C341.493 286.922 341.437 287.175 341.531 287.278Z" fill="#263238"/>
<path d="M367.371 302.328C365.406 303.058 365.059 302.056 363.319 300.877C362.451 300.282 361.734 299.492 361.225 298.57C360.717 297.649 360.43 296.621 360.389 295.57C360.333 293.698 361.016 291.713 360.117 290.094C358.919 287.96 355.625 287.764 354.427 285.629C353.725 284.385 353.921 282.775 353.163 281.577C352.748 281.051 352.232 280.614 351.645 280.293C351.058 279.971 350.413 279.771 349.747 279.705C348.411 279.574 347.103 279.236 345.871 278.703C344.701 278.057 343.812 276.625 344.308 275.38C349.934 275.173 355.565 275.635 361.081 276.756C362.386 276.898 363.613 277.445 364.591 278.319C365.413 279.438 365.861 280.787 365.874 282.176C366.616 288.859 367.353 295.545 368.083 302.234" fill="#263238"/>
<path d="M369.636 286.51C369.563 285.264 369.897 284.027 370.589 282.988C371.28 281.948 372.292 281.163 373.47 280.749C374.648 280.336 375.929 280.317 377.118 280.696C378.308 281.075 379.342 281.831 380.063 282.85C380.678 283.859 381.066 284.989 381.201 286.162C381.335 287.336 381.212 288.524 380.84 289.646C380.101 292.351 378.135 295.018 375.346 295.327C372.734 295.617 370.282 293.67 369.14 291.293C367.998 288.916 367.876 286.201 367.773 283.571" fill="#263238"/>
<path d="M372.69 296.413C372.828 296.27 372.936 296.101 373.008 295.917C373.225 295.424 373.334 294.891 373.327 294.353C373.312 293.557 373.163 292.769 372.887 292.023C372.606 291.18 372.166 290.319 371.801 289.383C371.423 288.527 371.22 287.604 371.202 286.669C371.202 285.826 371.501 285.068 371.576 284.385C371.658 283.849 371.586 283.301 371.37 282.803C371.193 282.457 371.005 282.326 370.996 282.345C370.987 282.363 371.118 282.513 371.249 282.85C371.408 283.336 371.44 283.855 371.342 284.357C371.148 285.115 371.001 285.884 370.902 286.659C370.903 287.626 371.104 288.582 371.492 289.467C371.866 290.403 372.316 291.274 372.606 292.088C372.88 292.802 373.044 293.553 373.093 294.316C373.118 295.036 372.981 295.753 372.69 296.413Z" fill="#455A64"/>
<path d="M371.398 287.511C371.752 287.922 372.198 288.243 372.699 288.447C373.883 289.034 375.215 289.25 376.523 289.066C377.831 288.882 379.053 288.308 380.028 287.417C380.453 287.08 380.795 286.651 381.03 286.163C380.983 286.163 380.637 286.631 379.879 287.239C378.9 288.033 377.727 288.55 376.481 288.737C375.232 288.904 373.961 288.729 372.802 288.232C371.904 287.857 371.427 287.464 371.398 287.511Z" fill="#455A64"/>
<path d="M371.941 288.615C372.143 289.016 372.419 289.375 372.756 289.673C373.522 290.446 374.44 291.051 375.451 291.451C376.455 291.863 377.531 292.067 378.615 292.05C379.064 292.075 379.513 292.009 379.935 291.854C379.498 291.827 379.061 291.827 378.624 291.854C376.513 291.76 374.497 290.944 372.915 289.542C372.61 289.213 372.285 288.903 371.941 288.615Z" fill="#455A64"/>
<path d="M371.685 299.099C371.685 299.099 371.685 299.099 371.76 298.996C371.817 298.89 371.867 298.781 371.91 298.669C372.09 298.235 372.188 297.772 372.2 297.302C372.222 296.554 372.061 295.812 371.732 295.14C371.302 294.23 370.562 293.504 369.645 293.09C368.543 292.734 367.509 292.196 366.584 291.499C366.362 291.282 366.187 291.02 366.071 290.732C365.955 290.444 365.901 290.134 365.91 289.824C365.948 289.139 366.061 288.461 366.247 287.802C366.426 287.053 366.448 286.276 366.311 285.519C366.174 284.762 365.882 284.041 365.452 283.403C364.998 282.722 364.384 282.162 363.664 281.774C362.905 281.414 362.079 281.216 361.24 281.194C360.416 281.138 359.602 281.194 358.825 281.053C358.062 280.979 357.329 280.719 356.691 280.295C356.113 279.841 355.707 279.204 355.539 278.489C355.357 277.775 355.125 277.074 354.847 276.392C354.309 275.116 353.427 274.015 352.301 273.21C351.306 272.519 350.124 272.149 348.913 272.152C347.906 272.136 346.922 272.444 346.105 273.032C345.496 273.468 345.006 274.051 344.682 274.726C344.476 275.149 344.346 275.605 344.298 276.074C344.276 276.235 344.276 276.399 344.298 276.561C344.339 275.941 344.504 275.336 344.785 274.782C345.178 274.041 345.77 273.423 346.494 272.998C347.218 272.574 348.045 272.358 348.884 272.377C350.043 272.392 351.17 272.761 352.114 273.434C353.192 274.218 354.034 275.283 354.547 276.514C354.808 277.19 355.03 277.881 355.212 278.582C355.399 279.361 355.844 280.054 356.475 280.548C357.152 281.011 357.934 281.297 358.75 281.381C359.564 281.493 360.379 281.465 361.193 281.521C361.985 281.542 362.763 281.73 363.477 282.074C364.155 282.427 364.734 282.946 365.162 283.581C365.567 284.185 365.844 284.867 365.975 285.584C366.105 286.301 366.086 287.037 365.92 287.746C365.736 288.424 365.626 289.121 365.592 289.824C365.582 290.172 365.645 290.519 365.777 290.841C365.909 291.164 366.108 291.455 366.36 291.696C367.312 292.415 368.383 292.963 369.523 293.315C370.393 293.683 371.106 294.346 371.536 295.187C371.866 295.833 372.039 296.548 372.041 297.274C372.044 297.9 371.923 298.52 371.685 299.099Z" fill="#455A64"/>
<path d="M367.934 278.544C367.962 278.427 367.962 278.305 367.934 278.188C367.907 277.842 367.769 277.514 367.541 277.252C367.176 276.831 366.683 276.542 366.137 276.429C365.415 276.313 364.676 276.404 364.003 276.691C363.254 276.962 362.496 277.393 361.644 277.702C361.216 277.898 360.75 278 360.278 278C359.806 278 359.34 277.898 358.911 277.702C358.038 277.089 357.344 276.256 356.899 275.287C356.33 274.238 355.594 273.289 354.718 272.479C353.023 270.906 350.853 269.942 348.55 269.736C347.539 269.668 346.528 269.858 345.611 270.288C344.811 270.67 344.136 271.27 343.664 272.02C343.28 272.649 343.103 273.382 343.158 274.117C343.194 274.664 343.365 275.195 343.655 275.661C343.831 275.955 344.063 276.213 344.338 276.419C344.436 276.487 344.539 276.547 344.647 276.597C344.297 276.315 343.996 275.977 343.758 275.596C343.505 275.135 343.361 274.623 343.336 274.098C343.307 273.408 343.49 272.725 343.86 272.142C344.32 271.439 344.969 270.881 345.732 270.532C346.611 270.131 347.578 269.963 348.54 270.045C350.769 270.256 352.865 271.197 354.503 272.722C355.353 273.501 356.073 274.411 356.637 275.418C357.107 276.433 357.844 277.3 358.771 277.926C359.245 278.178 359.781 278.288 360.315 278.244C360.806 278.206 361.289 278.096 361.747 277.917C362.637 277.58 363.376 277.14 364.097 276.859C364.727 276.576 365.424 276.472 366.109 276.56C366.622 276.653 367.092 276.909 367.448 277.29C367.68 277.527 367.831 277.832 367.878 278.16C367.944 278.413 367.916 278.544 367.934 278.544Z" fill="#455A64"/>
</svg>
