<svg width="468" height="468" viewBox="0 0 468 468" fill="none" xmlns="http://www.w3.org/2000/svg">
<path d="M375.056 403.969C398.184 383.171 415.369 354.763 428.342 327.217C447.615 286.295 457.873 235.236 430.973 195.446C415.454 172.496 391.211 158.006 364.301 152.55C338.411 147.308 313.233 148.44 290.966 132.032C268.445 115.418 248.846 94.6954 228.684 75.4044C176.848 25.7964 82.6682 40.0236 38.9289 106.817C-4.81041 173.61 7.10487 260.377 49.2249 300.625C87.0486 336.782 139.82 343.849 181.585 372.116C202.28 386.156 216.75 406.814 238.681 419.141C264.187 433.471 295.458 439.349 324.194 432.03C343.756 427.041 360.567 416.998 375.056 403.969Z" fill="#78CAE4"/>
<path opacity="0.7" d="M375.056 403.969C398.184 383.171 415.369 354.763 428.342 327.217C447.615 286.295 457.873 235.236 430.973 195.446C415.454 172.496 391.211 158.006 364.301 152.55C338.411 147.308 313.233 148.44 290.966 132.032C268.445 115.418 248.846 94.6954 228.684 75.4044C176.848 25.7964 82.6682 40.0236 38.9289 106.817C-4.81041 173.61 7.10487 260.377 49.2249 300.625C87.0486 336.782 139.82 343.849 181.585 372.116C202.28 386.156 216.75 406.814 238.681 419.141C264.187 433.471 295.458 439.349 324.194 432.03C343.756 427.041 360.567 416.998 375.056 403.969Z" fill="#B3E1EF"/>
<path d="M418.169 415.443L414.547 381.438" stroke="#263238" stroke-width="0.985332" stroke-linecap="round" stroke-linejoin="round"/>
<path d="M414.529 382.393C414.529 382.393 408.023 377.329 408.023 365.751C408.023 354.173 416.7 344.775 416.7 344.775C416.7 344.775 426.107 356.354 423.935 367.923C421.764 379.492 414.529 382.393 414.529 382.393Z" fill="#78CAE4"/>
<path d="M414.648 382.356L416.203 355.886" stroke="#263238" stroke-width="0.985332" stroke-linecap="round" stroke-linejoin="round"/>
<path d="M421.508 412.935C424.665 404.796 428.521 396.945 433.03 389.47" stroke="#263238" stroke-width="0.985332" stroke-linecap="round" stroke-linejoin="round"/>
<path d="M429.626 395.618C429.626 395.618 426.013 388.196 431.124 377.834C436.234 367.473 448.178 362.858 448.178 362.858C448.178 362.858 451.501 377.394 444.434 386.82C437.367 396.245 429.626 395.618 429.626 395.618Z" fill="#78CAE4"/>
<path d="M429.625 395.459L442.794 373.969" stroke="#263238" stroke-width="0.985332" stroke-linecap="round" stroke-linejoin="round"/>
<path d="M412.297 415.967C410.335 409.429 407.667 403.124 404.341 397.163L399.277 388.439" stroke="#263238" stroke-width="0.985332" stroke-linecap="round" stroke-linejoin="round"/>
<path d="M403.351 395.189C399.355 396.416 395.114 396.611 391.022 395.757C386.931 394.903 383.122 393.026 379.951 390.303C368.719 380.868 369.346 361.614 369.346 361.614C369.346 361.614 391.118 358.507 399.907 370.843C402.454 374.297 404.103 378.331 404.705 382.581C405.306 386.831 404.841 391.163 403.351 395.189Z" fill="#78CAE4"/>
<path d="M403.418 395.46L377.547 368.297" stroke="#263238" stroke-width="0.985332" stroke-linecap="round" stroke-linejoin="round"/>
<path d="M430.074 408.161H402.527V435.174H430.074V408.161Z" fill="#263238" stroke="#263238" stroke-width="0.985332" stroke-linecap="round" stroke-linejoin="round"/>
<path d="M384.261 27.1436H200V182.379H384.261V27.1436Z" fill="white"/>
<path d="M256.872 111.29L255 104.99H256.563L257.696 109.286L258.828 104.99H260.242L258.37 111.29V114.416H256.891L256.872 111.29Z" fill="#2FB2D8"/>
<path d="M262.242 107.256C262.242 106.66 262.479 106.089 262.9 105.668C263.321 105.246 263.893 105.01 264.489 105.01C265.084 105.01 265.656 105.246 266.077 105.668C266.498 106.089 266.735 106.66 266.735 107.256V112.161C266.735 112.757 266.498 113.328 266.077 113.749C265.656 114.171 265.084 114.407 264.489 114.407C263.893 114.407 263.321 114.171 262.9 113.749C262.479 113.328 262.242 112.757 262.242 112.161V107.256ZM263.721 112.254C263.721 112.928 264.021 113.19 264.489 113.19C264.957 113.19 265.256 112.938 265.256 112.254V107.163C265.256 106.489 264.957 106.227 264.489 106.227C264.021 106.227 263.721 106.489 263.721 107.163V112.254Z" fill="#2FB2D8"/>
<path d="M270.213 104.99V112.263C270.213 112.937 270.513 113.199 270.981 113.199C271.449 113.199 271.748 112.956 271.748 112.263V104.99H273.152V112.169C273.152 113.676 272.403 114.537 270.943 114.537C269.483 114.537 268.734 113.676 268.734 112.169V104.99H270.213Z" fill="#2FB2D8"/>
<path d="M278.213 114.416C278.088 114.042 278.044 113.647 278.082 113.255V111.776C278.082 110.906 277.782 110.578 277.146 110.578H276.631V114.416H275.152V104.99H277.389C278.924 104.99 279.58 105.702 279.58 107.162V107.901C279.628 108.271 279.564 108.647 279.398 108.98C279.231 109.314 278.968 109.59 278.644 109.773C279.383 110.082 279.626 110.793 279.626 111.776V113.255C279.597 113.643 279.652 114.032 279.785 114.397L278.213 114.416ZM276.594 106.338V109.23H277.221C277.773 109.23 278.11 108.987 278.11 108.238V107.302C278.11 106.628 277.885 106.366 277.361 106.366L276.594 106.338Z" fill="#2FB2D8"/>
<path d="M290.603 114.416H289.106L288.853 112.712H287.028L286.775 114.416H285.418L286.962 104.99H289.134L290.603 114.416ZM287.224 111.43H288.647L287.898 106.703L287.224 111.43Z" fill="#2FB2D8"/>
<path d="M297.019 110.906V112.16C297.019 113.667 296.261 114.528 294.81 114.528C293.36 114.528 292.602 113.667 292.602 112.16V107.255C292.602 105.739 293.35 104.878 294.81 104.878C296.271 104.878 297.019 105.739 297.019 107.255V108.191H295.615V107.18C295.615 106.507 295.316 106.244 294.848 106.244C294.38 106.244 294.08 106.507 294.08 107.18V112.272C294.08 112.946 294.38 113.208 294.848 113.208C295.316 113.208 295.615 112.974 295.615 112.272V110.924L297.019 110.906Z" fill="#2FB2D8"/>
<path d="M303.437 110.906V112.16C303.437 113.667 302.689 114.528 301.229 114.528C299.768 114.528 299.02 113.667 299.02 112.16V107.255C299.02 105.739 299.778 104.878 301.229 104.878C302.679 104.878 303.437 105.739 303.437 107.255V108.191H302.033V107.18C302.033 106.507 301.743 106.244 301.266 106.244C300.789 106.244 300.498 106.507 300.498 107.18V112.272C300.498 112.946 300.798 113.208 301.266 113.208C301.734 113.208 302.033 112.974 302.033 112.272V110.924L303.437 110.906Z" fill="#2FB2D8"/>
<path d="M305.442 107.255C305.422 106.948 305.466 106.639 305.57 106.349C305.674 106.058 305.837 105.792 306.048 105.567C306.259 105.342 306.514 105.163 306.797 105.04C307.08 104.918 307.385 104.854 307.693 104.854C308.002 104.854 308.307 104.918 308.59 105.04C308.873 105.163 309.128 105.342 309.339 105.567C309.55 105.792 309.712 106.058 309.817 106.349C309.921 106.639 309.964 106.948 309.944 107.255V112.16C309.964 112.468 309.921 112.777 309.817 113.067C309.712 113.357 309.55 113.623 309.339 113.848C309.128 114.073 308.873 114.253 308.59 114.375C308.307 114.498 308.002 114.561 307.693 114.561C307.385 114.561 307.08 114.498 306.797 114.375C306.514 114.253 306.259 114.073 306.048 113.848C305.837 113.623 305.674 113.357 305.57 113.067C305.466 112.777 305.422 112.468 305.442 112.16V107.255ZM306.93 112.254C306.93 112.928 307.221 113.19 307.698 113.19C308.175 113.19 308.465 112.937 308.465 112.254V107.162C308.465 106.488 308.166 106.226 307.698 106.226C307.23 106.226 306.93 106.488 306.93 107.162V112.254Z" fill="#2FB2D8"/>
<path d="M313.428 104.99V112.263C313.428 112.937 313.728 113.199 314.196 113.199C314.664 113.199 314.963 112.956 314.963 112.263V104.99H316.367V112.169C316.367 113.676 315.618 114.537 314.158 114.537C312.698 114.537 311.949 113.676 311.949 112.169V104.99H313.428Z" fill="#2FB2D8"/>
<path d="M319.696 107.639V114.463H318.367V104.99H320.239L321.765 110.606V104.99H323.085V114.416H321.559L319.696 107.639Z" fill="#2FB2D8"/>
<path d="M325.086 104.99H329.672V106.338H328.119V114.416H326.64V106.338H325.086V104.99Z" fill="#2FB2D8"/>
<path d="M313.647 76.0843C315.504 64.5604 307.666 53.7136 296.142 51.8575C284.618 50.0013 273.772 57.8386 271.916 69.3626C270.059 80.8865 277.897 91.7332 289.421 93.5894C300.945 95.4455 311.791 87.6083 313.647 76.0843Z" fill="#2FB2D8"/>
<path d="M301.998 67.8505C301.998 69.6739 301.457 71.4564 300.444 72.9726C299.431 74.4887 297.991 75.6704 296.306 76.3682C294.622 77.0661 292.768 77.2486 290.98 76.8929C289.191 76.5372 287.548 75.6591 286.259 74.3697C284.97 73.0803 284.091 71.4375 283.736 69.6491C283.38 67.8607 283.563 66.0069 284.26 64.3223C284.958 62.6376 286.14 61.1977 287.656 60.1846C289.172 59.1716 290.955 58.6309 292.778 58.6309C295.223 58.6309 297.568 59.6022 299.297 61.3312C301.027 63.0602 301.998 65.4053 301.998 67.8505Z" fill="#263238"/>
<path d="M277.605 87.4219C279.574 89.456 281.932 91.0734 284.539 92.178C287.145 93.2826 289.947 93.8518 292.778 93.8518C295.609 93.8518 298.411 93.2826 301.017 92.178C303.624 91.0734 305.982 89.456 307.951 87.4219V86.8135C307.952 85.7458 307.743 84.6883 307.335 83.7015C306.927 82.7148 306.329 81.818 305.574 81.0626C304.82 80.3072 303.924 79.7079 302.937 79.299C301.951 78.8901 300.894 78.6797 299.826 78.6797H285.739C283.582 78.6797 281.513 79.5366 279.988 81.062C278.462 82.5874 277.605 84.6563 277.605 86.8135V87.4219Z" fill="#263238"/>
<path d="M356.502 154.646H229V170.146H356.502V154.646Z" fill="#2FB2D8"/>
<path d="M271.381 139.594V140.53H269.079V143.881H271.887V144.817H268.012V135.42H271.887V136.356H269.079V139.576L271.381 139.594Z" fill="#BDBDBD"/>
<path d="M273.807 144.855H272.871V135.42H274.247L276.428 142.234V135.42H277.364V144.855H276.269L273.854 137.226L273.807 144.855Z" fill="#BDBDBD"/>
<path d="M279.761 144.855V136.374H277.992V135.438H282.522V136.374H280.8V144.855H279.761Z" fill="#BDBDBD"/>
<path d="M286.631 139.594V140.53H284.329V143.881H287.137V144.817H283.262V135.42H287.137V136.356H284.329V139.576L286.631 139.594Z" fill="#BDBDBD"/>
<path d="M290.226 135.42C291.714 135.42 292.332 136.178 292.332 137.573V138.34C292.396 138.75 292.314 139.17 292.1 139.526C291.886 139.882 291.554 140.152 291.162 140.287C292.023 140.54 292.341 141.223 292.341 142.253V143.722C292.314 144.109 292.378 144.497 292.528 144.855H291.47C291.321 144.491 291.26 144.096 291.293 143.704V142.271C291.293 141.204 290.797 140.867 289.917 140.867H289.224V144.902H288.176V135.42H290.226ZM289.964 139.866C290.797 139.866 291.293 139.594 291.293 138.574V137.638C291.293 136.796 290.984 136.347 290.198 136.347H289.224V139.838L289.964 139.866Z" fill="#BDBDBD"/>
<path d="M299.687 137.695V138.528H298.685V137.592C298.685 136.74 298.348 136.225 297.581 136.225C296.813 136.225 296.476 136.74 296.476 137.592V142.571C296.476 143.423 296.823 143.938 297.581 143.938C298.339 143.938 298.685 143.423 298.685 142.571V141.345H299.687V142.515C299.687 143.947 299.004 144.893 297.553 144.893C296.102 144.893 295.438 143.957 295.438 142.515V137.639C295.438 136.216 296.111 135.271 297.553 135.271C298.994 135.271 299.687 136.272 299.687 137.695Z" fill="#BDBDBD"/>
<path d="M300.559 137.694C300.559 136.253 301.27 135.326 302.711 135.326C304.153 135.326 304.883 136.262 304.883 137.694V142.571C304.883 144.003 304.172 144.948 302.711 144.948C301.251 144.948 300.559 144.012 300.559 142.571V137.694ZM301.598 142.627C301.598 143.488 301.963 143.994 302.711 143.994C303.46 143.994 303.835 143.488 303.835 142.627V137.647C303.835 136.796 303.479 136.281 302.711 136.281C301.944 136.281 301.598 136.796 301.598 137.647V142.627Z" fill="#BDBDBD"/>
<path d="M308.084 135.42C309.553 135.42 310.227 136.309 310.227 137.769V142.524C310.227 143.966 309.553 144.855 308.084 144.855H305.875V135.42H308.084ZM308.084 143.844C308.833 143.844 309.198 143.376 309.198 142.515V137.666C309.198 136.805 308.833 136.328 308.065 136.328H306.933V143.816L308.084 143.844Z" fill="#BDBDBD"/>
<path d="M314.559 139.594V140.53H312.256V143.881H315.064V144.817H311.18V135.42H315.064V136.356H312.256V139.576L314.559 139.594Z" fill="#BDBDBD"/>
<path d="M283.218 157.745C284.678 157.745 285.352 158.681 285.352 160.094V164.849C285.352 166.291 284.678 167.18 283.218 167.18H281V157.745H283.218ZM283.218 166.225C283.977 166.225 284.342 165.748 284.342 164.887V160.038C284.342 159.177 283.976 158.709 283.209 158.709H282.095V166.197L283.218 166.225Z" fill="white"/>
<path d="M287.352 159.992C287.352 158.55 288.063 157.614 289.504 157.614C290.946 157.614 291.676 158.55 291.676 159.992V164.868C291.719 165.173 291.695 165.483 291.604 165.776C291.513 166.07 291.358 166.339 291.15 166.566C290.943 166.792 290.687 166.97 290.403 167.086C290.118 167.202 289.811 167.253 289.504 167.236C288.063 167.236 287.352 166.3 287.352 164.868V159.992ZM288.381 164.924C288.381 165.786 288.746 166.282 289.504 166.282C290.263 166.282 290.618 165.786 290.618 164.924V159.992C290.618 159.14 290.272 158.625 289.504 158.625C288.737 158.625 288.381 159.14 288.381 159.992V164.924Z" fill="white"/>
<path d="M294.631 167.18H293.695V157.745H295.024L297.205 164.569V157.745H298.141V167.18H297.046L294.631 159.552V167.18Z" fill="white"/>
<path d="M303.51 161.929V162.865H301.208V166.225H304.016V167.161H300.141V157.745H304.025V158.681H301.217V161.901L303.51 161.929Z" fill="white"/>
<path d="M384.05 27.1436H199.789V34.6503H384.05V27.1436Z" fill="#2FB2D8"/>
<path d="M76.4883 267.012V265.627" stroke="white" stroke-width="0.985332" stroke-linecap="round" stroke-linejoin="round"/>
<path d="M76.4883 262.884V144.209C76.4883 141.811 76.9607 139.437 77.8785 137.222C78.7964 135.007 80.1416 132.995 81.8375 131.3C83.5333 129.605 85.5465 128.26 87.762 127.344C89.9775 126.427 92.352 125.956 94.7496 125.957H181.582" stroke="white" stroke-width="0.985332" stroke-linecap="round" stroke-linejoin="round" stroke-dasharray="2.93 2.93"/>
<path d="M182.996 125.957H184.372" stroke="#263238" stroke-width="0.985332" stroke-linecap="round" stroke-linejoin="round"/>
<path d="M193.498 126.715L178.578 118.095V135.327L193.498 126.715Z" fill="white"/>
<path d="M335.93 382.599H337.315" stroke="#263238" stroke-width="0.985332" stroke-linecap="round" stroke-linejoin="round"/>
<path d="M340.055 382.599H345.175C350.033 382.599 354.692 380.669 358.127 377.233C361.562 373.798 363.492 369.139 363.492 364.281V191.121" stroke="white" stroke-width="0.985332" stroke-linecap="round" stroke-linejoin="round" stroke-dasharray="2.93 2.93"/>
<path d="M363.496 189.755V188.379" stroke="white" stroke-width="0.985332" stroke-linecap="round" stroke-linejoin="round"/>
<path d="M330.707 381.794L345.627 390.406V373.174L330.707 381.794Z" fill="white"/>
<path d="M252.522 269.437C253.317 267.923 254.513 266.655 255.978 265.772C257.444 264.889 259.123 264.425 260.834 264.43H340.908C340.908 264.43 346.693 264.43 344.961 275.428C343.23 286.426 319.493 353.574 313.699 373.829C307.905 394.084 306.754 436.925 306.754 436.925H210.664C210.664 436.925 218.367 334.648 252.522 269.437Z" fill="white" stroke="#263238" stroke-width="0.985332" stroke-linecap="round" stroke-linejoin="round"/>
<path d="M327.021 283.533C318.924 302.422 301.749 377.133 299.016 436.925H306.756C306.756 436.925 307.945 394.056 313.701 373.829C319.458 353.602 343.223 286.426 344.964 275.428C346.705 264.43 340.911 264.43 340.911 264.43C340.911 264.43 333.507 268.389 327.021 283.533Z" fill="#263238" stroke="#263238" stroke-width="0.985332" stroke-linecap="round" stroke-linejoin="round"/>
<path d="M174.75 265.946C174.75 265.946 160.055 264.158 150.348 253.956C140.642 243.753 171.446 207.371 187.891 198.797C204.337 190.223 211.114 192.573 228.748 205.574C246.382 218.575 263.595 239.438 263.38 253.432C263.165 267.425 255.546 274.117 266.188 281.015C276.83 287.914 306.951 307.504 311.35 320.964C315.749 334.424 308.121 351.169 290.458 360.276C272.796 369.383 243.817 368.962 215.906 359.939C187.994 350.916 181.92 322.368 185.514 310.752C189.108 299.136 198.618 291.152 195.754 282.316C192.89 273.481 174.75 265.946 174.75 265.946Z" fill="#263238" stroke="#263238" stroke-width="0.985332" stroke-linecap="round" stroke-linejoin="round"/>
<path d="M187.347 306.072C187.347 306.072 172.147 303.957 165.127 308.497C158.107 313.036 123.418 372.322 123.418 372.322L104.259 346.536L87.6445 353.996C87.6445 353.996 95.4321 384.135 104.493 399.129C113.553 414.124 118.72 415.641 121.827 415.144C131.075 413.675 157.863 382.684 157.863 382.684L167.598 415.07L160.989 438.61H284.073L269.144 413.712C269.144 413.712 288.622 323.856 283.662 314.337C278.701 304.818 249.797 306.072 240.709 306.072H214.688C210.744 306.854 206.737 307.268 202.716 307.308C197.576 307.158 192.446 306.746 187.347 306.072Z" fill="#B3E1EF"/>
<path d="M269.568 309.105L269.821 309.208L267.462 315.217L267.2 315.114L269.568 309.105ZM268.922 315.788L269.175 315.891L271.543 309.881L271.281 309.778L268.922 315.788ZM279.658 334.91L279.387 334.835L278.348 338.532H278.638L279.658 334.91ZM281.436 335.416L281.165 335.341L280.229 338.532H280.51L281.436 335.416ZM270.204 335.621L271.084 338.532H271.374L270.438 335.537L270.204 335.621ZM272.245 335.013L271.974 335.088L273.012 338.532H273.303L272.245 335.013ZM279.78 321.263L282.99 315.647L282.756 315.507L279.546 321.123L279.78 321.263ZM281.39 322.199L284.394 316.948C284.394 316.789 284.394 316.649 284.338 316.499L281.146 322.068L281.39 322.199ZM283.496 330.183L284.029 329.481L284.085 328.966L283.271 330.015L283.496 330.183ZM275.549 324.483L280.023 329.163L280.22 328.976L275.746 324.296L275.549 324.483ZM274.136 325.728L278.6 330.408L278.806 330.221L274.332 325.541L274.136 325.728ZM269.203 325.728L269.278 325.456L265.824 324.605V324.886L269.203 325.728ZM265.777 322.92L269.662 323.903L269.727 323.631L265.824 322.695L265.777 322.92ZM270.111 331.278L270.027 331.016L265.824 332.476V332.767L270.111 331.278ZM269.446 329.257L265.777 330.473V330.764L269.521 329.519L269.446 329.257ZM267.415 381.551L269.774 375.542L269.521 375.439L267.153 381.448L267.415 381.551ZM271.234 376.113L268.875 382.122L269.128 382.225L271.496 376.216L271.234 376.113ZM271.112 404.286L270.392 401.881L270.12 401.956L271 404.857L271.112 404.286ZM275.792 363.87L275.53 363.964L277.721 370.038H277.777L277.861 369.617L275.792 363.87ZM277.262 363.336L278.413 366.509C278.413 366.332 278.479 366.154 278.507 365.967L277.524 363.243L277.262 363.336ZM281.362 347.518L281.511 348.014L281.596 347.452L281.362 347.518ZM275.203 347.153L274.828 353.593H275.1L275.474 347.144L275.203 347.153ZM276.672 353.705H276.944L277.318 347.256H277.047L276.672 353.705ZM268.8 346.872L268.932 346.629L265.749 344.916V345.234L268.8 346.872ZM265.749 343.128L269.671 345.234L269.802 344.991L265.824 342.885L265.749 343.128ZM268.201 352.872L268.024 352.666L265.824 354.744V355.109L268.201 352.872ZM266.994 351.477L266.816 351.262L265.749 352.198V352.563L266.994 351.477ZM265.824 362.55V362.84L271.646 360.566L271.543 360.313L265.824 362.55ZM265.824 360.566V360.865L270.972 358.853L270.869 358.591L265.824 360.566ZM269.259 372.285L269.325 372.013L265.824 371.227V371.508L269.259 372.285ZM269.662 370.487L269.727 370.216L265.824 369.336V369.617L269.662 370.487ZM269.203 392.184L269.278 391.922L265.777 391.033V391.323L269.203 392.184ZM265.824 389.376L269.708 390.368L269.774 390.097L265.824 389.104V389.376ZM270.158 397.734L270.073 397.472L265.824 398.876V399.176L270.158 397.734ZM269.577 395.984L269.493 395.722L265.824 396.939V397.229L269.577 395.984ZM277.898 341.116L278.638 338.523H278.348L277.636 341.041L277.898 341.116ZM280.547 338.523H280.266L279.415 341.537L279.677 341.621L280.547 338.523ZM272.03 341.79L272.301 341.715L271.365 338.523H271.075L272.03 341.79ZM274.061 341.181L273.265 338.523H272.975L273.799 341.266L274.061 341.181ZM275.605 430.429L277.795 436.494L278.058 436.401L275.867 430.335L275.605 430.429ZM279.789 435.773L277.599 429.708L277.337 429.802L279.536 435.867L279.789 435.773ZM282.887 437.271L282.616 437.196L282.223 438.6H282.513L282.887 437.271ZM265.824 411.7L268.875 413.338L269.006 413.094L265.824 411.381V411.7ZM265.824 409.603L269.568 411.653L269.624 411.372L265.824 409.294V409.603ZM268.23 419.328L268.052 419.113L265.824 421.106V421.462L268.23 419.328ZM267.022 417.924L266.844 417.718L265.777 418.654V419.019L267.022 417.924ZM271.496 426.685L265.824 428.95V429.25L271.646 426.966L271.496 426.685ZM265.777 427.237L270.925 425.225L270.822 424.972L265.777 426.938V427.237ZM265.777 437.599V437.889L268.875 438.581H269.231L269.278 438.394L265.777 437.599ZM269.615 436.859L269.68 436.588L265.777 435.708V435.998L269.615 436.859ZM200.753 315.086L201.006 315.189L203.374 309.179L203.112 309.076L200.753 315.086ZM202.466 315.76L202.728 315.862L205.087 309.853L204.834 309.75L202.466 315.76ZM262.95 324.137L265.758 324.857V324.577L262.997 323.875L262.95 324.137ZM263.475 322.087L263.4 322.349L265.777 322.957V322.667L263.475 322.087ZM265.824 332.767V332.476L263.952 333.104L264.036 333.366L265.824 332.767ZM263.316 331.344L263.4 331.606L265.777 330.82V330.53L263.316 331.344ZM258.336 338.532H258.654L259.871 336.417L259.637 336.277L258.336 338.532ZM260.47 338.532H260.788L261.472 337.334L261.238 337.194L260.47 338.532ZM246.552 335.949L246.336 336.127L248.311 338.532H248.667L246.552 335.949ZM247.769 334.957L250.698 338.532H251.054L247.984 334.788L247.769 334.957ZM240.786 338.111L240.533 338.205L240.646 338.532H240.945L240.786 338.111ZM242.265 337.578L242.611 338.514H242.901L242.527 337.465L242.265 337.578ZM232.137 338.514L232.933 335.378L232.662 335.313L231.847 338.514H232.137ZM234.449 335.762L233.747 338.514H234L234.683 335.837L234.449 335.762ZM213.23 334.891L212.959 334.816L211.91 338.514H212.201L213.23 334.891ZM214.999 335.397L214.737 335.322L213.801 338.514H214.091L214.999 335.397ZM203.767 335.603L204.647 338.514H204.937L204.001 335.518L203.767 335.603ZM205.798 334.994L205.536 335.069L206.575 338.514H206.856L205.798 334.994ZM213.342 321.244L216.553 315.628L216.31 315.488L213.099 321.104L213.342 321.244ZM214.709 322.031L214.943 322.162L218.154 316.546L217.91 316.405L214.709 322.031ZM251.335 326.149L257.278 328.667L257.381 328.414L251.438 325.896L251.335 326.149ZM250.614 327.843L256.558 330.361L256.661 330.108L250.67 327.6L250.614 327.843ZM255.622 318.146L255.884 318.221L257.643 312.016L257.372 311.931L255.622 318.146ZM257.391 318.652L257.662 318.727L259.412 312.512L259.15 312.437L257.391 318.652ZM247.731 307.102L249.603 313.279L249.865 313.204L248.04 307.008L247.731 307.102ZM249.491 306.568L251.363 312.746L251.625 312.671L249.753 306.493L249.491 306.568ZM229.095 333.029L227.223 326.851L226.961 326.926L228.833 333.113L229.095 333.029ZM230.864 332.495L228.992 326.318L228.721 326.392L230.593 332.579L230.864 332.495ZM238.165 328.92L244.558 327.984V327.712L238.165 328.648V328.92ZM238.427 330.745L244.82 329.809V329.537L238.427 330.473V330.745ZM243.107 322.873L243.379 322.939L244.82 316.649L244.549 316.583L243.107 322.873ZM246.346 316.995L244.904 323.285L245.176 323.35L246.617 317.061L246.346 316.995ZM223.704 319.288L223.938 319.438L227.392 313.981L227.158 313.841L223.704 319.288ZM228.955 314.973L228.721 314.824L225.267 320.28L225.501 320.43L228.955 314.973ZM222.955 308.693L228.871 306.109V306.044H228.365L222.871 308.44L222.955 308.693ZM223.582 310.125L223.695 310.378L229.61 307.804L229.498 307.551L223.582 310.125ZM217.966 306.044H217.676L216.216 311.117L216.487 311.192L217.966 306.044ZM214.737 310.724L216.048 306.044H215.757L214.466 310.612L214.737 310.724ZM240.065 308.028L239.429 306.072H239.139L239.747 308.094L240.065 308.028ZM238.034 308.637L238.306 308.562L237.557 306.081H237.267L238.034 308.637ZM216.843 330.034L217.058 330.202L220.99 325.082L220.765 324.914L216.843 330.034ZM218.303 331.157L218.528 331.325L222.45 326.196L222.234 326.027L218.303 331.157ZM209.112 324.502L213.586 329.182L213.792 328.995L209.318 324.315L209.112 324.502ZM207.726 325.728L212.201 330.408L212.397 330.221L207.932 325.541L207.726 325.728ZM232.231 317.454L232.119 317.706L238.062 320.234L238.175 319.972L232.231 317.454ZM232.839 316.012L238.783 318.53L238.895 318.277L232.952 315.76L232.839 316.012ZM202.803 325.728L202.869 325.456L199.368 324.605V324.886L202.803 325.728ZM199.377 322.92L203.252 323.903L203.327 323.631L199.368 322.695L199.377 322.92ZM203.711 331.278L203.617 331.016L199.368 332.476V332.767L203.711 331.278ZM203.037 329.257L199.377 330.473V330.764L203.121 329.519L203.037 329.257ZM203.112 375.439L200.753 381.448L201.006 381.551L203.374 375.542L203.112 375.439ZM204.834 376.113L202.466 382.122L202.728 382.225L205.087 376.216L204.834 376.113ZM263.147 343.811L265.777 345.234V344.916L263.278 343.568L263.147 343.811ZM264.149 341.939L264.018 342.173L265.777 343.109V342.791L264.149 341.939ZM265.824 354.744L263.213 357.009L263.39 357.215L265.824 355.109V354.744ZM262.183 355.82L265.824 352.675V352.31L262.005 355.605L262.183 355.82ZM265.534 362.709L265.627 362.971L265.824 362.887V362.597L265.534 362.709ZM264.86 360.996L264.954 361.249L265.824 360.912V360.613L264.86 360.996ZM265.796 371.292L262.988 370.656L262.922 370.927L265.787 371.573L265.796 371.292ZM265.796 369.42L263.4 368.878L263.344 369.149L265.796 369.701V369.42ZM265.796 391.089L263.016 390.312L262.95 390.583L265.758 391.304L265.796 391.089ZM263.493 388.599L263.418 388.87L265.824 389.376V389.095L263.493 388.599ZM265.824 399.176V398.876L263.952 399.503L264.036 399.766L265.824 399.176ZM265.824 397.229V396.939L263.362 397.753L263.447 398.015L265.824 397.229ZM227.822 341.808L221.879 339.281L221.776 339.534L227.719 342.061L227.822 341.808ZM221.055 341.237L226.999 343.755L227.102 343.503L221.158 340.985L221.055 341.237ZM259.852 402.817L259.618 402.686L258.336 404.942H258.654L259.852 402.817ZM261.453 403.753L261.219 403.612L260.451 404.96H260.77L261.453 403.753ZM246.318 402.545L248.293 404.96H248.648L246.533 402.368L246.318 402.545ZM247.75 401.375L250.68 404.96H251.035L247.965 401.216L247.75 401.375ZM240.767 404.539L240.515 404.633L240.627 404.96H240.926L240.767 404.539ZM242.246 404.006L242.592 404.942H242.883L242.508 403.893L242.246 404.006ZM232.886 401.825L232.615 401.75L231.8 404.96H232.128L232.886 401.825ZM234.402 402.208L233.7 404.96H234L234.683 402.274L234.402 402.208ZM213.183 401.329L212.912 401.254L211.864 404.998H212.154L213.183 401.329ZM214.952 401.834L214.69 401.759L213.754 404.96H214.044L214.952 401.834ZM203.72 402.04L204.6 404.96H204.89L203.954 401.965L203.72 402.04ZM205.489 401.516L206.528 404.96H206.809L205.752 401.432L205.489 401.516ZM216.263 381.953L213.052 387.569L213.296 387.71L216.506 382.094L216.263 381.953ZM218.135 383.002L217.891 382.861L214.69 388.477L214.924 388.618L218.135 383.002ZM244.24 352.245L240.121 347.256L239.916 347.434L243.996 352.432L244.24 352.245ZM242.817 353.415L238.68 348.398L238.465 348.576L242.555 353.574L242.817 353.415ZM232.699 350.682L234.889 356.747L235.151 356.653L232.961 350.588L232.699 350.682ZM234.44 350.055L236.63 356.12L236.883 356.026L234.693 349.961L234.44 350.055ZM257.363 394.852L251.419 392.334L251.316 392.586L257.26 395.104L257.363 394.852ZM256.642 396.555L250.698 394.028L250.595 394.29L256.539 396.808L256.642 396.555ZM257.353 378.378L255.603 384.593L255.865 384.668L257.625 378.453L257.353 378.378ZM259.394 378.958L259.132 378.883L257.372 385.089L257.643 385.164L259.394 378.958ZM249.875 379.623L248.003 373.445L247.74 373.52L249.612 379.707L249.875 379.623ZM251.644 379.089L249.772 372.912L249.5 372.987L251.372 379.174L251.644 379.089ZM232.924 362.925L229.713 368.541L229.947 368.672L233.158 363.056L232.924 362.925ZM231.557 362.148L231.314 362.007L228.113 367.623L228.347 367.754L231.557 362.148ZM220.653 367.249L216.562 362.232L216.347 362.41L220.437 367.408L220.653 367.249ZM222.075 366.079L217.994 361.081L217.779 361.258L221.86 366.257L222.075 366.079ZM209.159 364.048L211.349 370.122L211.611 370.029L209.411 363.954L209.159 364.048ZM210.89 363.421L213.08 369.495L213.342 369.402L211.152 363.327L210.89 363.421ZM255.528 368.335L255.799 368.4L257.391 362.148L257.119 362.073L255.528 368.335ZM259.178 362.597L258.907 362.531L257.316 368.784L257.587 368.849L259.178 362.597ZM248.62 367.848L242.677 365.33L242.574 365.583L248.517 368.11L248.62 367.848ZM249.341 366.154L243.36 363.636L243.257 363.889L249.201 366.406L249.341 366.154ZM229.095 399.438L227.223 393.251L226.961 393.335L228.833 399.513L229.095 399.438ZM230.864 398.904L228.992 392.717L228.721 392.802L230.593 398.979L230.864 398.904ZM244.558 394.421V394.15L238.165 395.086V395.357L244.558 394.421ZM244.82 396.246V395.975L238.427 396.911V397.182L244.82 396.246ZM243.36 389.376L244.801 383.086L244.53 383.02L243.089 389.32L243.36 389.376ZM245.157 389.788L246.599 383.498L246.327 383.432L244.886 389.732L245.157 389.788ZM227.373 380.428L227.139 380.278L223.704 385.697L223.938 385.847L227.373 380.428ZM228.936 381.411L228.702 381.261L225.248 386.718L225.482 386.867L228.936 381.411ZM228.852 372.547L228.749 372.294L222.824 374.877L222.936 375.13L228.852 372.547ZM229.591 374.241L229.479 373.988L223.564 376.571L223.676 376.824L229.591 374.241ZM218.219 371.433L217.957 371.349L216.216 377.517L216.487 377.592L218.219 371.433ZM214.69 377.142L216.441 370.927L216.179 370.852L214.419 377.068L214.69 377.142ZM240.009 374.4L238.137 368.222L237.866 368.297L239.738 374.484L240.009 374.4ZM236.125 368.784L237.997 374.962L238.268 374.887L236.396 368.709L236.125 368.784ZM227.148 352.872L221.991 356.766L222.16 356.981L227.317 353.097L227.148 352.872ZM223.273 358.488L228.421 354.594L228.262 354.379L223.105 358.263L223.273 358.488ZM218.818 353.143L217.03 346.938L216.759 347.022L218.556 353.218L218.818 353.143ZM214.99 347.527L216.778 353.808L217.049 353.733L215.28 347.509L214.99 347.527ZM208.831 347.162L208.457 353.602H208.728L209.102 347.153L208.831 347.162ZM210.291 353.714H210.572L210.946 347.265H210.666L210.291 353.714ZM220.896 391.444L220.671 391.276L216.75 396.405L216.965 396.574L220.896 391.444ZM222.356 392.568L222.141 392.399L218.21 397.528L218.434 397.697L222.356 392.568ZM209.018 390.864L213.492 395.544L213.698 395.348L209.224 390.668L209.018 390.864ZM207.726 392.184L212.201 396.864L212.397 396.677L207.932 391.997L207.726 392.184ZM254.732 356.232L254.517 356.064L250.455 361.081L250.67 361.258L254.732 356.232ZM253.085 354.903L249.023 359.92L249.238 360.098L253.291 355.072L253.085 354.903ZM254.218 345.384H253.946L253.216 351.796H253.497L254.218 345.384ZM252.112 345.141L251.391 351.562H251.662L252.383 345.15L252.112 345.141ZM238.175 386.418L232.231 383.9L232.119 384.153L238.062 386.671L238.175 386.418ZM232.839 382.45L238.783 384.967L238.895 384.715L232.952 382.197L232.839 382.45ZM202.429 346.966L202.56 346.722L199.377 345.01V345.328L202.429 346.966ZM199.377 343.222L203.299 345.328L203.43 345.084L199.368 342.885L199.377 343.222ZM201.83 352.966L201.642 352.76L199.368 354.744V355.109L201.83 352.966ZM200.622 351.571L200.435 351.356L199.377 352.292V352.657L200.622 351.571ZM205.087 360.332L199.377 362.569V362.859L205.19 360.585L205.087 360.332ZM204.516 358.872L204.422 358.61L199.368 360.566V360.865L204.516 358.872ZM202.812 372.303L202.869 372.032L199.377 371.246V371.526L202.812 372.303ZM199.368 369.617L203.206 370.487L203.271 370.216L199.368 369.336V369.617ZM202.803 392.184L202.869 391.922L199.377 391.033V391.323L202.803 392.184ZM199.368 389.376L203.243 390.368L203.318 390.097L199.368 389.104V389.376ZM203.702 397.734L203.608 397.472L199.368 398.876V399.176L203.702 397.734ZM203.121 395.984L203.028 395.722L199.368 396.939V397.229L203.121 395.984ZM256.398 341.874L256.632 342.005L258.626 338.523H258.336L256.398 341.874ZM257.999 342.81L258.233 342.941L260.76 338.542H260.442L257.999 342.81ZM250.614 340.938L248.639 338.523H248.283L250.399 341.106L250.614 340.938ZM251.831 339.946L252.046 339.768L251.026 338.523H250.67L251.831 339.946ZM242.958 344.176L240.917 338.56H240.618L242.695 344.308L242.958 344.176ZM244.427 343.643L244.689 343.549L242.873 338.523H242.583L244.427 343.643ZM231.042 341.574L231.314 341.64L232.109 338.523H231.819L231.042 341.574ZM232.83 342.033L233.101 342.099L234.037 338.523H233.747L232.83 342.033ZM211.442 341.097L212.172 338.504H211.882L211.171 341.022L211.442 341.097ZM214.091 338.504H213.801L212.949 341.518L213.221 341.602L214.091 338.504ZM205.574 341.771L205.836 341.696L204.9 338.504H204.61L205.574 341.771ZM207.605 341.163L206.8 338.504H206.519L207.333 341.247L207.605 341.163ZM263.269 410.005L263.138 410.249L265.768 411.671V411.353L263.269 410.005ZM264.139 408.386L264.008 408.629L265.768 409.565V409.257L264.139 408.386ZM265.824 421.462V421.106L263.213 423.362L263.39 423.568L265.824 421.462ZM265.824 419.028V418.663L262.005 421.967L262.183 422.173L265.824 419.028ZM265.534 429.062L265.627 429.324L265.824 429.25V428.95L265.534 429.062ZM264.86 427.349L264.954 427.612L265.824 427.265V426.966L264.86 427.349ZM262.988 437L262.922 437.271L265.787 437.917V437.627L262.988 437ZM265.796 435.736L263.4 435.193L263.344 435.465L265.796 436.026V435.736ZM227.822 408.208L221.879 405.69L221.776 405.943L227.719 408.461L227.822 408.208ZM221.055 407.637L226.999 410.164L227.102 409.902L221.158 407.385L221.055 407.637ZM239.916 413.806L243.996 418.804L244.212 418.626L240.121 413.637L239.916 413.806ZM242.789 419.796L238.68 414.807L238.465 414.976L242.555 419.974L242.789 419.796ZM235.123 423.072L232.933 416.997L232.671 417.091L234.861 423.166L235.123 423.072ZM236.855 422.445L234.665 416.37L234.412 416.464L236.602 422.538L236.855 422.445ZM233.111 429.474L232.877 429.334L229.666 434.95L229.9 435.09L233.111 429.474ZM231.51 428.538L231.267 428.407L228.066 434.023L228.3 434.164L231.51 428.538ZM220.606 433.639L216.562 428.688L216.347 428.856L220.437 433.855L220.606 433.639ZM222.029 432.469L217.948 427.48L217.732 427.649L221.813 432.647L222.029 432.469ZM211.564 436.419L209.364 430.354L209.112 430.448L211.302 436.513L211.564 436.419ZM213.296 435.792L211.105 429.727L210.843 429.82L213.034 435.886L213.296 435.792ZM257.288 428.557L257.016 428.491L255.425 434.744L255.696 434.809L257.288 428.557ZM259.075 429.006L258.804 428.941L257.213 435.202L257.484 435.268L259.075 429.006ZM248.62 434.304L242.677 431.786L242.574 432.039L248.517 434.557L248.62 434.304ZM249.341 432.6L243.36 430.036L243.257 430.288L249.201 432.816L249.341 432.6ZM217.948 437.758L217.686 438.694H217.976L218.21 437.87L217.948 437.758ZM216.431 437.327L216.169 437.252L215.767 438.656H216.057L216.431 437.327ZM237.884 434.744L239.064 438.656H239.354L238.156 434.66L237.884 434.744ZM236.387 435.193L236.125 435.268L237.136 438.656H237.426L236.387 435.193ZM227.317 419.627L227.148 419.412L221.991 423.297L222.16 423.521L227.317 419.627ZM228.421 421.106L228.262 420.882L223.105 424.766L223.273 424.991L228.421 421.106ZM218.556 419.73L218.818 419.646L217.03 413.45L216.759 413.525L218.556 419.73ZM217.049 420.161L215.28 413.918L215.018 413.993L216.806 420.189L217.049 420.161ZM208.728 420.161L209.102 413.721H208.831L208.457 420.17L208.728 420.161ZM210.6 420.273L210.974 413.824H210.694L210.319 420.264L210.6 420.273ZM254.76 422.688L254.545 422.51L250.483 427.527L250.698 427.705L254.76 422.688ZM253.113 421.35L249.051 426.367L249.266 426.544L253.319 421.528L253.113 421.35ZM254.246 411.84H253.974L253.244 418.252H253.525L254.246 411.84ZM252.14 411.606L251.419 418.018H251.69L252.411 411.597L252.14 411.606ZM202.457 413.422L202.588 413.178L199.405 411.466V411.784L202.457 413.422ZM203.458 411.55L199.368 409.294V409.603L203.29 411.718L203.458 411.55ZM201.83 419.328L201.642 419.113L199.368 421.097V421.462L201.83 419.328ZM200.622 417.924L200.435 417.718L199.377 418.654V419.019L200.622 417.924ZM205.087 426.685L199.377 428.922V429.221L205.19 426.938L205.087 426.685ZM199.377 427.237L204.516 425.225L204.422 424.972L199.377 426.938V427.237ZM199.377 437.599V437.889L202.476 438.581H202.822L202.869 438.394L199.377 437.599ZM203.215 436.859L203.28 436.588L199.377 435.708V435.998L203.215 436.859ZM256.642 408.395L258.636 404.914H258.336L256.464 408.255L256.642 408.395ZM260.451 404.914L258.008 409.172L258.242 409.313L260.77 404.914H260.451ZM250.408 407.497L250.623 407.319L248.648 404.914H248.293L250.408 407.497ZM251.84 406.327L252.055 406.149L251.035 404.914H250.68L251.84 406.327ZM242.967 410.558L240.926 404.942H240.627L242.705 410.679L242.967 410.558ZM244.436 410.033L244.698 409.93L242.883 404.914H242.592L244.436 410.033ZM231.332 408.03L232.128 404.914H231.838L231.061 407.965L231.332 408.03ZM232.849 408.414L233.12 408.48L234.056 404.914H233.766L232.849 408.414ZM211.461 407.478L212.191 404.895H211.901L211.19 407.403L211.461 407.478ZM213.82 404.895L212.968 407.909L213.24 407.984L214.11 404.895H213.82ZM205.592 408.161L205.854 408.077L204.918 404.895H204.628L205.592 408.161ZM207.352 407.628L207.624 407.553L206.819 404.895H206.538L207.352 407.628ZM196.56 324.165L199.368 324.886V324.605L196.607 323.903L196.56 324.165ZM197.084 322.115L197.019 322.377L199.396 322.985V322.695L197.084 322.115ZM199.368 332.767V332.476L197.496 333.104L197.59 333.366L199.368 332.767ZM196.916 331.344L197 331.606L199.377 330.82V330.53L196.916 331.344ZM191.88 338.532H192.198L193.415 336.417L193.172 336.277L191.88 338.532ZM194.005 338.532H194.323L195.016 337.334L194.772 337.194L194.005 338.532ZM180.096 335.949L179.88 336.127L181.855 338.532H182.211L180.096 335.949ZM181.313 334.957L184.233 338.532H184.598L181.528 334.788L181.313 334.957ZM174.33 338.111L174.068 338.205L174.19 338.532H174.48L174.33 338.111ZM175.809 337.578L176.146 338.514H176.445L176.071 337.465L175.809 337.578ZM165.672 338.514L166.468 335.378L166.206 335.313L165.391 338.514H165.672ZM167.993 335.762L167.291 338.514H167.581L168.255 335.837L167.993 335.762ZM145.745 338.514L146.765 334.891L146.503 334.816L145.454 338.514H145.745ZM148.553 335.397L148.281 335.322L147.345 338.514H147.635L148.553 335.397ZM184.851 326.149L190.794 328.667L190.907 328.414L184.963 325.896L184.851 326.149ZM184.13 327.843L190.102 330.408L190.214 330.155L184.27 327.6L184.13 327.843ZM189.138 318.146L189.409 318.221L191.159 312.016L190.897 311.931L189.138 318.146ZM190.916 318.652L191.178 318.727L192.938 312.512L192.676 312.437L190.916 318.652ZM181.322 307.102L183.194 313.279L183.456 313.204L181.584 307.008L181.322 307.102ZM183.091 306.568L184.963 312.746L185.225 312.671L183.353 306.493L183.091 306.568ZM160.571 326.926L162.443 333.113L162.705 333.029L160.833 326.851L160.571 326.926ZM164.465 332.542L162.593 326.364L162.33 326.439L164.202 332.626L164.465 332.542ZM171.765 328.966L178.158 328.03V327.759L171.765 328.695V328.966ZM171.981 330.52V330.792L178.374 329.856V329.584L171.981 330.52ZM178.402 316.696L178.13 316.63L176.698 322.92L176.96 322.985L178.402 316.696ZM179.937 317.042L178.495 323.332L178.757 323.397L180.199 317.107L179.937 317.042ZM157.248 319.288L157.482 319.438L160.936 313.981L160.702 313.841L157.248 319.288ZM158.811 320.28L159.045 320.43L162.499 314.973L162.265 314.824L158.811 320.28ZM173.581 307.991L172.982 305.997H172.701L173.319 308.028L173.581 307.991ZM171.55 308.599L171.812 308.524L171.148 306.297L170.876 306.353L171.55 308.599ZM150.359 329.996L150.574 330.165L154.496 325.045L154.281 324.876L150.359 329.996ZM155.975 326.158L155.75 325.99L151.829 331.119L152.053 331.288L155.975 326.158ZM165.803 317.463L165.7 317.716L171.644 320.243L171.747 319.981L165.803 317.463ZM166.421 316.022L172.364 318.539L172.467 318.287L166.524 315.769L166.421 316.022ZM136.693 375.504L134.335 381.514L134.587 381.616L136.946 375.607L136.693 375.504ZM138.406 376.178L136.048 382.187L136.3 382.29L138.668 376.281L138.406 376.178ZM196.719 343.877L199.359 345.3V344.981L196.85 343.634L196.719 343.877ZM197.73 342.005L197.599 342.239L199.359 343.175V342.857L197.73 342.005ZM199.368 354.744L196.747 357.009L196.934 357.215L199.368 355.109V354.744ZM195.727 355.82L199.368 352.675V352.31L195.549 355.605L195.727 355.82ZM199.068 362.709L199.171 362.971L199.368 362.887V362.597L199.068 362.709ZM199.368 360.613L198.432 360.996L198.535 361.249L199.405 360.912L199.368 360.613ZM199.368 371.274L196.56 370.637L196.504 370.909L199.368 371.554V371.274ZM196.972 368.84L196.906 369.112L199.368 369.664V369.383L196.972 368.84ZM199.368 391.005L196.607 390.303L196.532 390.574L199.34 391.295L199.368 391.005ZM197.056 388.515L196.991 388.786L199.368 389.376V389.095L197.056 388.515ZM199.368 399.176V398.876L197.496 399.503L197.59 399.766L199.368 399.176ZM199.368 397.229V396.939L196.906 397.753L196.991 398.015L199.368 397.229ZM155.376 339.534L161.32 342.061L161.432 341.808L155.488 339.281L155.376 339.534ZM154.655 341.237L160.599 343.755L160.711 343.503L154.768 340.985L154.655 341.237ZM193.462 402.817L193.218 402.686L191.88 404.942H192.198L193.462 402.817ZM195.062 403.753L194.819 403.612L194.052 404.96H194.37L195.062 403.753ZM179.927 402.545L181.902 404.96H182.258L180.143 402.368L179.927 402.545ZM181.359 401.375L184.28 404.96H184.645L181.575 401.216L181.359 401.375ZM174.377 404.539L174.115 404.633L174.236 404.96H174.527L174.377 404.539ZM175.856 404.006L176.193 404.942H176.492L176.118 403.893L175.856 404.006ZM165.438 404.942H165.719L166.514 401.806L166.252 401.731L165.438 404.942ZM168.04 402.19L167.338 404.942H167.628L168.302 402.255L168.04 402.19ZM137.592 401.946L137.33 402.021L137.845 403.725L138.069 403.519L137.592 401.946ZM139.361 401.413L139.09 401.497L139.342 402.302L139.558 402.087L139.361 401.413ZM150.116 382.066L149.872 381.935L146.662 387.551L146.905 387.691L150.116 382.066ZM148.506 388.618L151.716 383.002L151.473 382.861L148.262 388.477L148.506 388.618ZM177.84 352.226L173.722 347.256L173.506 347.434L177.597 352.432L177.84 352.226ZM176.408 353.396L172.318 348.398L172.112 348.576L176.193 353.574L176.408 353.396ZM166.299 350.663L168.489 356.728L168.751 356.635L166.561 350.569L166.299 350.663ZM168.031 350.036L170.221 356.101L170.483 356.008L168.293 349.942L168.031 350.036ZM190.944 394.833L185 392.315L184.888 392.568L190.832 395.086L190.944 394.833ZM190.223 396.536L184.28 394.009L184.167 394.271L190.111 396.789L190.223 396.536ZM190.935 378.359L189.175 384.574L189.446 384.649L191.197 378.434L190.935 378.359ZM192.975 378.94L192.713 378.865L190.944 385.07L191.206 385.145L192.975 378.94ZM183.456 379.604L181.584 373.426L181.322 373.501L183.194 379.688L183.456 379.604ZM185.225 379.071L183.353 372.893L183.091 372.968L184.963 379.155L185.225 379.071ZM166.505 362.906L163.295 368.522L163.538 368.653L166.748 363.037L166.505 362.906ZM164.904 361.97L161.694 367.586L161.937 367.717L165.148 362.101L164.904 361.97ZM149.928 362.391L154.019 367.389L154.225 367.211L150.162 362.232L149.928 362.391ZM151.351 361.221L155.442 366.219L155.657 366.041L151.632 361.062L151.351 361.221ZM142.731 364.029L144.921 370.104L145.183 370.01L142.993 363.935L142.731 364.029ZM144.472 363.402L146.662 369.477L146.915 369.383L144.724 363.308L144.472 363.402ZM189.072 368.335L189.343 368.4L190.925 362.148L190.663 362.073L189.072 368.335ZM192.722 362.597L192.451 362.531L190.86 368.784L191.131 368.849L192.722 362.597ZM182.22 367.848L176.277 365.33L176.165 365.583L182.108 368.11L182.22 367.848ZM182.941 366.154L176.998 363.636L176.885 363.889L182.829 366.406L182.941 366.154ZM162.349 392.802L164.221 398.979L164.483 398.904L162.611 392.717L162.349 392.802ZM178.168 394.421V394.15L171.775 395.086V395.357L178.168 394.421ZM178.42 396.246V395.975L172.027 396.911V397.182L178.42 396.246ZM176.96 389.376L178.402 383.086L178.13 383.02L176.698 389.32L176.96 389.376ZM178.757 389.788L180.199 383.498L179.937 383.432L178.495 389.732L178.757 389.788ZM160.73 380.278L158.296 384.125L158.399 384.481L160.992 380.39L160.73 380.278ZM162.293 381.261L158.998 386.465L159.101 386.811L162.527 381.411L162.293 381.261ZM156.415 374.877L156.527 375.13L162.443 372.547L162.33 372.294L156.415 374.877ZM163.182 374.241L163.07 373.988L157.154 376.571L157.257 376.824L163.182 374.241ZM151.81 371.433L151.538 371.349L149.76 377.517L150.022 377.592L151.81 371.433ZM148.272 377.142L150.031 370.927L149.769 370.852L148.01 377.068L148.272 377.142ZM173.609 374.4L171.737 368.222L171.475 368.297L173.347 374.484L173.609 374.4ZM169.716 368.784L171.588 374.962L171.85 374.887L169.978 368.709L169.716 368.784ZM160.739 352.872L155.591 356.766L155.76 356.981L160.908 353.097L160.739 352.872ZM156.696 358.235L156.864 358.46L162.022 354.566L161.853 354.351L156.696 358.235ZM150.359 347.003L152.147 353.2L152.418 353.125L150.621 346.919L150.359 347.003ZM148.59 347.509L150.378 353.714L150.64 353.639L148.824 347.509H148.59ZM142.038 353.583H142.319L142.693 347.134H142.412L142.038 353.583ZM144.528 347.265H144.256L143.882 353.714H144.153L144.528 347.265ZM146.793 394.711L142.843 390.602L142.646 390.789L146.606 394.908L146.793 394.711ZM141.514 391.903L141.336 392.184L145.342 396.349L145.529 396.153L141.514 391.903ZM188.314 356.148L188.099 355.979L184.046 360.996L184.261 361.174L188.314 356.148ZM186.666 354.819L182.604 359.836L182.82 360.014L186.882 354.987L186.666 354.819ZM187.818 345.384H187.537L186.816 351.796H187.088L187.818 345.384ZM185.702 345.141L184.982 351.562H185.262L185.983 345.15L185.702 345.141ZM171.765 386.418L165.822 383.9L165.719 384.153L171.662 386.671L171.765 386.418ZM172.486 384.715L166.542 382.197L166.44 382.45L172.383 384.967L172.486 384.715ZM135.42 352.975L135.243 352.769L135.027 352.956L134.559 353.724L135.42 352.975ZM138.687 360.341L132.978 362.578V362.868L138.79 360.594L138.687 360.341ZM138.116 358.881L138.013 358.619L132.978 360.594V360.893L138.116 358.881ZM136.403 372.313L136.469 372.041L132.978 371.255V371.536L136.403 372.313ZM136.815 370.516L136.871 370.244L132.978 369.364V369.645L136.815 370.516ZM136.394 392.184L136.469 391.922L132.978 391.033V391.323L136.394 392.184ZM132.978 389.376L136.853 390.368L136.918 390.097L132.978 389.095V389.376ZM137.302 397.734L137.218 397.472L132.978 398.867V399.166L137.302 397.734ZM136.722 395.984L136.637 395.722L132.978 396.929V397.22L136.722 395.984ZM190.008 341.883L190.251 342.014L192.245 338.532H191.88L190.008 341.883ZM191.609 342.819L191.852 342.95L194.37 338.551H194.052L191.609 342.819ZM184.233 340.947L182.258 338.532H181.902L184.018 341.116L184.233 340.947ZM185.44 339.955L185.656 339.777L184.645 338.532H184.28L185.44 339.955ZM176.567 344.186L174.527 338.57H174.236L176.305 344.317L176.567 344.186ZM178.046 343.652L178.308 343.559L176.492 338.532H176.193L178.046 343.652ZM164.661 341.584L164.933 341.649L165.719 338.532H165.438L164.661 341.584ZM166.449 342.042L166.711 342.108L167.647 338.532H167.357L166.449 342.042ZM144.79 341.05L145.061 341.125L145.791 338.532H145.501L144.79 341.05ZM147.71 338.532H147.42L146.568 341.546L146.83 341.631L147.71 338.532ZM196.747 410.277L199.387 411.7V411.381L196.878 410.033L196.747 410.277ZM197.758 408.405L197.627 408.648L199.387 409.584V409.275L197.758 408.405ZM199.368 421.462V421.097L196.747 423.362L196.934 423.568L199.368 421.462ZM199.368 419.028V418.663L195.549 421.967L195.727 422.173L199.368 419.028ZM199.068 429.062L199.171 429.324L199.368 429.25V428.95L199.068 429.062ZM198.395 427.349L198.498 427.612L199.368 427.265V426.966L198.395 427.349ZM196.523 437L196.466 437.271L199.331 437.917V437.627L196.523 437ZM199.331 435.736L196.934 435.193L196.869 435.465L199.331 436.026V435.736ZM173.506 413.806L177.597 418.804L177.812 418.626L173.722 413.637L173.506 413.806ZM176.38 419.796L172.29 414.807L172.084 414.976L176.165 419.974L176.38 419.796ZM168.723 423.072L166.851 417.849L166.72 418.308L168.471 423.166L168.723 423.072ZM170.455 422.445L168.265 416.37L168.003 416.464L170.193 422.538L170.455 422.445ZM166.711 429.474L166.468 429.334L163.257 434.95L163.5 435.09L166.711 429.474ZM164.839 428.426L162.864 431.964L162.555 433.059L165.148 428.529L164.839 428.426ZM190.869 428.576L190.607 428.51L189.016 434.763L189.287 434.828L190.869 428.576ZM192.666 429.025L192.395 428.959L190.804 435.221L191.075 435.287L192.666 429.025ZM182.22 434.304L176.277 431.786L176.165 432.039L182.108 434.557L182.22 434.304ZM182.941 432.6L176.998 430.083L176.885 430.335L182.829 432.862L182.941 432.6ZM171.485 434.744L172.664 438.656H172.954L171.747 434.66L171.485 434.744ZM169.987 435.193L169.716 435.268L170.736 438.656H171.026L169.987 435.193ZM188.323 422.651L188.108 422.473L184.055 427.49L184.27 427.668L188.323 422.651ZM186.676 421.312L182.614 426.329L182.829 426.507L186.891 421.49L186.676 421.312ZM187.818 411.802H187.537L186.816 418.214H187.088L187.818 411.802ZM185.702 411.568L184.982 417.98H185.262L185.983 411.559L185.702 411.568ZM190.242 408.47L192.236 404.988H191.88L190.008 408.33L190.242 408.47ZM194.042 404.988L191.599 409.247L191.843 409.388L194.36 404.988H194.042ZM184.008 407.572L184.224 407.394L182.249 404.988H181.893L184.008 407.572ZM185.431 406.402L185.646 406.224L184.635 404.988H184.27L185.431 406.402ZM176.558 410.632L174.517 405.016H174.227L176.296 410.754L176.558 410.632ZM178.037 410.108L178.299 410.005L176.483 404.988H176.183L178.037 410.108ZM165.026 406.542L165.185 407.057L165.709 404.988H165.429L165.026 406.542ZM166.44 408.489L166.702 408.555L167.638 404.988H167.347L166.44 408.489ZM132.678 362.709L132.781 362.971L132.978 362.887V362.597L132.678 362.709ZM132.978 360.613L132.042 360.996L132.144 361.249L133.015 360.912L132.978 360.613ZM130.104 370.909L132.978 371.554V371.274L130.17 370.637L130.104 370.909ZM130.516 369.112L132.978 369.664V369.383L130.572 368.784L130.516 369.112ZM132.978 391.051L130.17 390.349L130.104 390.621L132.912 391.342L132.978 391.051ZM130.666 388.562L130.6 388.833L132.978 389.432V389.151L130.666 388.562ZM132.978 399.223V398.923L131.106 399.55L131.19 399.812L132.978 399.223ZM132.978 397.276V396.986L130.506 397.8L130.591 398.062L132.978 397.276ZM127.043 402.892L126.809 402.761L125.518 405.016H125.836L127.043 402.892ZM128.644 403.828L128.41 403.687L127.642 405.035H127.961L128.644 403.828ZM113.518 402.62L115.484 405.035H115.849L113.733 402.442L113.518 402.62ZM114.941 401.45L117.87 405.035H118.226L115.156 401.291L114.941 401.45ZM109.699 403.987L109.437 404.08L109.783 405.016H110.083L109.699 403.987ZM105.674 348.669L106.61 349.867L105.674 348.622V348.669ZM99.8618 350.757L102.061 356.822L102.314 356.728L100.152 350.569L99.8618 350.757ZM101.603 350.129L103.793 356.195L104.055 356.101L101.865 350.036L101.603 350.129ZM124.488 394.833L118.544 392.315L118.441 392.568L124.385 395.086L124.488 394.833ZM123.767 396.536L117.833 394.009L117.721 394.271L123.664 396.789L123.767 396.536ZM124.488 378.359L122.728 384.574L122.99 384.649L124.75 378.434L124.488 378.359ZM126.528 378.94L126.257 378.865L124.507 385.07L124.769 385.145L126.528 378.94ZM117.009 379.604L115.137 373.426L114.875 373.501L116.747 379.688L117.009 379.604ZM118.769 379.071L116.897 372.893L116.635 372.968L118.507 379.155L118.769 379.071ZM100.311 363.046L100.077 362.906L96.8666 368.522L97.11 368.653L100.311 363.046ZM98.7105 362.11L98.4765 361.97L95.266 367.586L95.5094 367.717L98.7105 362.11ZM115.811 367.848L109.868 365.33L109.765 365.583L115.708 368.11L115.811 367.848ZM116.532 366.154L110.588 363.636L110.485 363.889L116.429 366.406L116.532 366.154ZM105.356 395.32L111.749 394.384V394.112L105.356 395.048V395.32ZM105.618 397.145L112.011 396.209V395.937L105.618 396.873V397.145ZM110.298 389.282L110.57 389.338L112.011 383.049L111.74 382.983L110.298 389.282ZM113.537 383.395L112.095 389.694L112.367 389.75L113.808 383.46L113.537 383.395ZM95.94 372.256L93.4783 373.333L93.5719 373.595L96.0523 372.509L95.94 372.256ZM96.67 373.951L94.0773 375.083L94.1709 375.345L96.7824 374.203L96.67 373.951ZM105.094 368.335L106.966 374.522L107.237 374.437L105.365 368.26L105.094 368.335ZM103.325 368.868L105.197 375.046L105.468 374.971L103.596 368.793L103.325 368.868ZM89.1914 356.897L89.3599 357.112L94.5173 353.228L94.3488 353.003L89.1914 356.897ZM95.6311 354.697L95.4626 354.482L90.3052 358.366L90.4737 358.591L95.6311 354.697ZM105.375 386.437L99.4313 383.919L99.3189 384.172L105.263 386.69L105.375 386.437ZM100.04 382.468L105.983 384.986L106.096 384.733L100.152 382.169L100.04 382.468ZM130.478 410.08L130.347 410.324L130.581 410.136L130.478 410.08ZM131.349 408.461L131.218 408.704L131.901 409.069L132.126 408.873L131.349 408.461ZM120.744 415.219H121.025L121.409 411.756H121.137L120.744 415.219ZM118.872 414.901L119.143 414.985L119.527 411.55H119.256L118.872 414.901ZM125.789 404.942H125.471L123.599 408.283L123.833 408.424L125.789 404.942ZM127.914 404.942H127.596L125.153 409.2L125.396 409.341L127.914 404.942ZM117.562 407.525L117.767 407.347L115.802 404.942H115.437L117.562 407.525ZM118.984 406.355L119.2 406.177L118.179 404.942H117.824L118.984 406.355ZM109.737 404.942L111.075 408.686L111.59 409.285L110.036 404.979L109.737 404.942Z" fill="white"/>
<path d="M187.347 306.072C187.347 306.072 172.147 303.957 165.127 308.497C158.107 313.036 123.418 372.322 123.418 372.322L104.259 346.536L87.6445 353.996C87.6445 353.996 95.4321 384.135 104.493 399.129C113.553 414.124 118.72 415.641 121.827 415.144C131.075 413.675 157.863 382.684 157.863 382.684L167.598 415.07L160.989 438.61H284.073L269.144 413.712C269.144 413.712 288.622 323.856 283.662 314.337C278.701 304.818 249.797 306.072 240.709 306.072H214.688C210.744 306.854 206.737 307.268 202.716 307.308C197.576 307.158 192.446 306.746 187.347 306.072V306.072Z" stroke="#263238" stroke-width="0.985332"/>
<path d="M157.874 382.684C154.311 375.564 152.927 367.552 153.896 359.649C155.702 347.041 163.509 333.235 163.509 333.235C163.509 333.235 147.934 355.699 147.934 363.187C147.934 370.675 152.567 381.627 152.567 381.627L148.523 393.167L157.874 382.684Z" fill="#263238" stroke="#263238" stroke-width="0.985332" stroke-linecap="round" stroke-linejoin="round"/>
<path d="M200.237 293.652L200.649 306.868L189.501 307.28C189.501 307.28 187.198 355.774 197.12 364.451C207.042 373.127 236.994 306.072 236.994 306.072L226.698 304.004L223.393 277.159L200.237 293.652Z" fill="#FFBE9D" stroke="#263238" stroke-width="0.985332" stroke-linecap="round" stroke-linejoin="round"/>
<path d="M224.582 282.4L200.742 304.864V296.918L224.582 282.4Z" fill="#263238" stroke="#263238" stroke-width="0.985332" stroke-linecap="round" stroke-linejoin="round"/>
<path d="M197.121 364.45C197.121 364.45 198.319 356.644 204.319 346.441L197.121 364.45Z" fill="white"/>
<path d="M197.121 364.45C197.121 364.45 198.319 356.644 204.319 346.441" stroke="#263238" stroke-width="0.985332" stroke-linecap="round" stroke-linejoin="round"/>
<path d="M195.437 219.127L168.293 247.347C170.426 253.354 171.459 259.695 171.344 266.067C171.026 276.064 180.115 290.768 187.546 297.601C194.978 304.434 210.142 293.932 215.804 290.225C219.586 287.663 223.113 284.741 226.334 281.502C228.4 281.412 230.409 280.8 232.173 279.723C233.938 278.646 235.401 277.139 236.424 275.343C236.424 275.343 196.981 233.195 195.437 219.127Z" fill="#FFBE9D" stroke="#263238" stroke-width="0.985332" stroke-linecap="round" stroke-linejoin="round"/>
<path d="M188.077 248.105C189.016 250.017 189.623 252.075 189.874 254.189C189.959 256.801 185.382 269.034 186.037 269.849C186.692 270.663 188.742 273.359 190.342 273.012" stroke="#263238" stroke-width="0.985332" stroke-linecap="round" stroke-linejoin="round"/>
<path d="M199.367 261.481C203.192 260.048 207.397 259.999 211.254 261.341" stroke="#263238" stroke-width="0.492666" stroke-linecap="round" stroke-linejoin="round"/>
<path d="M178.242 262.454C180.287 261.88 182.399 261.584 184.523 261.574" stroke="#263238" stroke-width="0.492666" stroke-linecap="round" stroke-linejoin="round"/>
<path d="M184.654 241.189C183.605 241.111 182.552 241.276 181.578 241.673C180.604 242.069 179.734 242.685 179.038 243.472C176.688 246.178 175.546 248.536 174.957 246.627C174.367 244.717 176.988 241.207 177.914 240.496C178.841 239.785 183.184 236.995 184.654 241.189Z" fill="#263238"/>
<path d="M196.27 239.616C199.023 239.606 201.74 240.247 204.197 241.488C207.782 243.454 206.069 239.466 203.552 238.324C201.034 237.183 196.672 237.295 196.27 239.616Z" fill="#263238"/>
<path d="M237.828 286.556C237.997 289.364 236.546 291.704 234.608 291.816C232.671 291.929 230.958 289.757 230.789 286.968C230.621 284.179 231.791 276.981 233.729 276.869C235.666 276.756 237.669 283.757 237.828 286.556Z" fill="#B3E1EF" stroke="#263238" stroke-width="0.985332" stroke-linecap="round" stroke-linejoin="round"/>
<path d="M183.541 257.401C183.672 259.273 182.96 260.789 181.959 260.854C180.957 260.92 180.087 259.488 179.928 257.653C179.769 255.819 180.508 254.265 181.51 254.199C182.511 254.134 183.457 255.603 183.541 257.401Z" fill="#263238"/>
<path d="M203.738 256.68C203.869 258.552 203.158 260.059 202.166 260.134C201.173 260.209 200.294 258.767 200.125 256.923C199.957 255.079 200.715 253.544 201.707 253.479C202.699 253.413 203.616 254.845 203.738 256.68Z" fill="#263238"/>
<path d="M190.215 278.338C190.215 278.338 194.979 279.864 201.447 274.332" stroke="#263238" stroke-width="0.985332" stroke-linecap="round" stroke-linejoin="round"/>
<path d="M104.26 346.554L95.5458 334.882C95.1433 331.774 94.3664 325.353 94.2354 321.02C94.0575 315.123 94.3477 311.519 90.9968 306.287C87.6459 301.055 78.2953 292.79 77.4155 290.871C76.5356 288.952 73.9897 294.363 75.5903 297.873C77.1908 301.383 78.651 302.459 78.651 302.459C78.651 302.459 61.4379 293.904 60.867 295.299C60.296 296.693 68.8791 321.357 72.8103 327.862C74.4483 330.576 78.9879 334.208 81.1782 337.353C82.2494 338.905 83.1679 340.557 83.9207 342.286C85.9611 350.962 88.3386 360.51 89.5367 360.856C92.2604 361.652 103.82 361.839 104.26 346.554Z" fill="#FFBE9D" stroke="#263238" stroke-width="0.985332" stroke-miterlimit="10"/>
<path d="M79.7947 319.737C79.6373 319.78 79.4732 319.791 79.3116 319.769C79.1501 319.748 78.9944 319.695 78.8534 319.613C78.7125 319.531 78.5891 319.422 78.4904 319.293C78.3917 319.163 78.3197 319.015 78.2783 318.858L64.5847 268.229C64.5114 267.923 64.5579 267.601 64.7144 267.327C64.871 267.054 65.1259 266.851 65.4271 266.76C65.7435 266.676 66.08 266.721 66.3638 266.884C66.6475 267.047 66.8558 267.315 66.9434 267.63L80.6745 318.24C80.7519 318.555 80.7033 318.888 80.5389 319.167C80.3746 319.447 80.1075 319.652 79.7947 319.737Z" fill="#263238" stroke="#263238" stroke-width="0.985332" stroke-miterlimit="10"/>
<path d="M69.9186 287.53C69.9186 287.53 56.7023 294.513 57.5166 295.879C58.3309 297.246 60.7458 302.122 61.8503 302.01C62.9548 301.898 70.9763 295.346 71.5566 294.522C72.1369 293.699 69.9186 287.53 69.9186 287.53Z" fill="#FFBE9D" stroke="#263238" stroke-width="0.985332" stroke-miterlimit="10"/>
<path d="M72.2766 296.104C72.2766 296.104 61.2973 304.2 61.653 305.379C62.0087 306.559 67.3907 320.514 68.3267 321.647C69.2627 322.78 77.8551 318.839 77.8551 318.839L72.2766 296.104Z" fill="#FFBE9D" stroke="#263238" stroke-width="0.985332" stroke-miterlimit="10"/>
<path d="M73.9452 303.629C73.9452 303.629 63.4339 311.884 64.1265 312.146" stroke="#263238" stroke-width="0.985332" stroke-miterlimit="10"/>
<path d="M75.9296 312.577L67.0938 317.753" stroke="#263238" stroke-width="0.985332" stroke-miterlimit="10"/>
<path d="M78.625 302.459L83.4735 307.195C83.4735 307.195 77.0338 320.945 83.202 328.536" stroke="#263238" stroke-width="0.985332" stroke-miterlimit="10"/>
<path d="M269.932 309.001C269.932 309.001 281.697 307.466 286.78 317.191C291.862 326.916 323.621 412.869 324.135 421.087C324.65 429.306 303.15 431.318 295.99 427.742C288.83 424.167 268.846 381.691 266.824 376.056" fill="#B3E1EF"/>
<path d="M273.673 368.521L271.93 374.721L272.199 374.797L273.943 368.597L273.673 368.521Z" fill="white"/>
<path d="M277.739 351.038L275.951 344.832L275.68 344.916L277.477 351.113L277.739 351.038Z" fill="white"/>
<path d="M276.864 369.136L275.102 375.349L275.372 375.425L277.135 369.212L276.864 369.136Z" fill="white"/>
<path d="M279.575 365.068L275.485 360.07L275.27 360.248L279.36 365.237L279.575 365.068Z" fill="white"/>
<path d="M288.4 371.765L282.48 374.348L282.593 374.605L288.512 372.022L288.4 371.765Z" fill="white"/>
<path d="M287.848 379.211L287.614 379.062L284.16 384.518L284.394 384.668L287.848 379.211Z" fill="white"/>
<path d="M273.91 345.422L275.698 351.627L275.969 351.543L274.172 345.347L273.91 345.422Z" fill="white"/>
<path d="M282.598 383.527L282.832 383.676L286.285 378.229L286.051 378.079L282.598 383.527Z" fill="white"/>
<path d="M280.995 363.899L276.915 358.9L276.699 359.078L280.78 364.067L280.995 363.899Z" fill="white"/>
<path d="M287.186 352.248L282.023 356.129L282.192 356.353L287.355 352.473L287.186 352.248Z" fill="white"/>
<path d="M285.891 324.764L287.753 330.951L288.015 330.867L286.162 324.689L285.891 324.764Z" fill="white"/>
<path d="M286.236 351.019L286.068 350.794L280.91 354.678L281.079 354.903L286.236 351.019Z" fill="white"/>
<path d="M282.832 317.304L284.769 314.244C284.704 314.178 284.647 314.103 284.582 314.028L282.598 317.155L282.832 317.304Z" fill="white"/>
<path d="M277.168 328.957L277.393 329.126L281.314 323.997L281.099 323.828L277.168 328.957Z" fill="white"/>
<path d="M280.688 337.372L286.631 339.89L286.743 339.637L280.8 337.119L280.688 337.372Z" fill="white"/>
<path d="M287.66 324.23L289.523 330.417L289.785 330.333L287.932 324.155L287.66 324.23Z" fill="white"/>
<path d="M287.265 365.564L290.476 359.957L290.232 359.826L287.031 365.423L287.265 365.564Z" fill="white"/>
<path d="M280.086 338.841L279.98 339.091L285.926 341.613L286.032 341.363L280.086 338.841Z" fill="white"/>
<path d="M287.647 370.111L281.727 372.692L281.839 372.95L287.759 370.368L287.647 370.111Z" fill="white"/>
<path d="M302.326 427.874L302.223 428.127L305.208 429.4H305.939L302.326 427.874Z" fill="white"/>
<path d="M303.62 407.797L301.804 402.77L301.43 401.731L301.168 401.825L301.514 402.77L303.358 407.89L303.62 407.797Z" fill="white"/>
<path d="M297.402 412.814L301.493 417.812L301.699 417.634L297.618 412.636L297.402 412.814Z" fill="white"/>
<path d="M301.877 408.424L299.845 402.77L299.686 402.358L299.434 402.443L299.546 402.77L301.624 408.517L301.877 408.424Z" fill="white"/>
<path d="M303.694 393.812L297.301 394.711L297.338 394.983L303.731 394.084L303.694 393.812Z" fill="white"/>
<path d="M322.263 421.406L323.995 419.908L323.938 419.6L322.066 421.2L322.263 421.406Z" fill="white"/>
<path d="M275.707 327.834L275.922 328.003L279.854 322.874L279.629 322.705L275.707 327.834Z" fill="white"/>
<path d="M268.338 361.779L268.074 361.874L270.267 367.949L270.531 367.853L268.338 361.779Z" fill="white"/>
<path d="M321.049 420.012L323.52 417.878C323.49 417.779 323.465 417.679 323.445 417.578L320.871 419.806L321.049 420.012Z" fill="white"/>
<path d="M303.134 416.464L299.043 411.476L298.828 411.644L302.918 416.642L303.134 416.464Z" fill="white"/>
<path d="M269.606 345.181L269.23 351.629L269.511 351.645L269.886 345.198L269.606 345.181Z" fill="white"/>
<path d="M298.929 372.228L297.076 366.051L296.805 366.126L298.667 372.313L298.929 372.228Z" fill="white"/>
<path d="M293.587 347.761L293.332 347.854L295.524 353.929L295.779 353.836L293.587 347.761Z" fill="white"/>
<path d="M292.651 336.37L291.762 339.88L292.033 339.946L292.941 336.37L293.624 333.684L293.353 333.618L292.651 336.37Z" fill="white"/>
<path d="M290.75 336.371L289.973 339.422L290.244 339.488L291.03 336.371L291.835 333.235L291.564 333.17L290.75 336.371Z" fill="white"/>
<path d="M295.035 366.659L296.898 372.837L297.16 372.762L295.307 366.575L295.035 366.659Z" fill="white"/>
<path d="M291.837 348.416L291.582 348.508L293.775 354.583L294.03 354.49L291.837 348.416Z" fill="white"/>
<path d="M270.088 361.135L269.824 361.23L272.016 367.306L272.28 367.21L270.088 361.135Z" fill="white"/>
<path d="M284.394 318.241L285.967 315.76L285.798 315.498L284.16 318.1L284.394 318.241Z" fill="white"/>
<path d="M291.762 380.26L297.705 382.777L297.808 382.525L291.865 380.007L291.762 380.26Z" fill="white"/>
<path d="M275.427 313.504L275.183 313.363L271.973 318.96L272.216 319.101L275.427 313.504Z" fill="white"/>
<path d="M319.177 403.697L319.055 403.351L316.949 407.038L317.183 407.169L319.177 403.697Z" fill="white"/>
<path d="M313.138 409.594L312.867 409.565L312.137 415.977L312.418 416.005L313.138 409.594Z" fill="white"/>
<path d="M309.602 391.878L309.496 392.128L315.442 394.65L315.548 394.401L309.602 391.878Z" fill="white"/>
<path d="M317.557 402.77L318.372 401.357L318.259 401.001L317.239 402.77L315.32 406.121L315.564 406.252L317.557 402.77Z" fill="white"/>
<path d="M313.653 420.442L313.437 420.264L309.375 425.281L309.59 425.458L313.653 420.442Z" fill="white"/>
<path d="M315.252 392.25L310.31 390.153L310.207 390.406L315.374 392.596L315.252 392.25Z" fill="white"/>
<path d="M312.21 419.281L311.994 419.104L307.941 424.12L308.157 424.298L312.21 419.281Z" fill="white"/>
<path d="M305.529 381.299L305.258 381.233L303.816 387.523L304.088 387.589L305.529 381.299Z" fill="white"/>
<path d="M309.329 405.363L309.544 405.185L307.569 402.77L305.454 400.187L305.238 400.364L307.213 402.77L309.329 405.363Z" fill="white"/>
<path d="M273.574 319.878L273.818 320.019L277.028 314.412L276.785 314.281L273.574 319.878Z" fill="white"/>
<path d="M291.837 414.81L291.582 414.902L293.775 420.977L294.03 420.885L291.837 414.81Z" fill="white"/>
<path d="M316.275 426.385L316.004 426.311L315.508 428.257L315.817 428.173L316.275 426.385Z" fill="white"/>
<path d="M293.595 414.161L293.34 414.253L295.532 420.328L295.787 420.236L293.595 414.161Z" fill="white"/>
<path d="M302.215 361.727L304.686 362.775C304.686 362.653 304.592 362.532 304.555 362.419L302.318 361.483L302.215 361.727Z" fill="white"/>
<path d="M318.062 426.817L317.791 426.751L317.566 427.621L317.885 427.509L318.062 426.817Z" fill="white"/>
<path d="M286.022 407.74L281.117 405.662L281.323 406.046L285.909 407.993L286.022 407.74Z" fill="white"/>
<path d="M269.258 323.631L272.45 326.954L272.655 326.767L269.277 323.257L269.258 323.631Z" fill="white"/>
<path d="M297.402 346.414L299.593 349.082L299.284 348.277L297.646 346.236L297.402 346.414Z" fill="white"/>
<path d="M271.12 328.237L271.316 328.04L269.163 325.794L269.145 326.178L271.12 328.237Z" fill="white"/>
<path d="M306.641 371.34L308.503 377.526L308.765 377.442L306.912 371.265L306.641 371.34Z" fill="white"/>
<path d="M286.743 406.047L280.8 403.52L280.688 403.772L286.631 406.299L286.743 406.047Z" fill="white"/>
<path d="M279.854 389.283L279.629 389.114L275.707 394.234L275.922 394.403L279.854 389.283Z" fill="white"/>
<path d="M289.785 396.743L287.932 390.556L287.66 390.64L289.523 396.818L289.785 396.743Z" fill="white"/>
<path d="M288.015 397.276L286.162 391.089L285.891 391.173L287.753 397.351L288.015 397.276Z" fill="white"/>
<path d="M281.314 390.396L281.099 390.237L277.168 395.357L277.393 395.526L281.314 390.396Z" fill="white"/>
<path d="M271.879 339.385L272.15 339.46L273.021 336.371L273.901 333.254L273.639 333.17L272.731 336.371L271.879 339.385Z" fill="white"/>
<path d="M270.813 336.37L270.102 338.888L270.373 338.963L271.103 336.37L272.123 332.748L271.861 332.673L270.813 336.37Z" fill="white"/>
<path d="M275.427 379.904L275.183 379.764L271.973 385.37L272.216 385.501L275.427 379.904Z" fill="white"/>
<path d="M277.028 380.821L276.785 380.681L273.574 386.287L273.818 386.418L277.028 380.821Z" fill="white"/>
<path d="M291.843 360.744L288.633 366.341L288.867 366.482L292.077 360.875L291.843 360.744Z" fill="white"/>
<path d="M303.461 380.821L302.02 387.111L302.291 387.177L303.732 380.887L303.461 380.821Z" fill="white"/>
<path d="M305.427 364.787L301.599 363.168L301.496 363.421L305.558 365.143C305.512 365.04 305.474 364.909 305.427 364.787Z" fill="white"/>
<path d="M303.477 392.259L303.44 391.987L297.047 392.886L297.084 393.157L303.477 392.259Z" fill="white"/>
<path d="M306.887 399.017L306.672 399.194L309.602 402.77L310.762 404.193L310.977 404.015L309.957 402.77L306.887 399.017Z" fill="white"/>
<path d="M292.941 402.77L293.624 400.093L293.353 400.027L292.651 402.77L291.762 406.28L292.033 406.345L292.941 402.77Z" fill="white"/>
<path d="M291.149 381.733L291.043 381.982L296.988 384.505L297.094 384.255L291.149 381.733Z" fill="white"/>
<path d="M291.03 402.77L291.835 399.635L291.564 399.569L290.75 402.77L289.973 405.822L290.244 405.897L291.03 402.77Z" fill="white"/>
<path d="M310.582 415.799L311.302 409.387L311.031 409.359L310.301 415.771L310.582 415.799Z" fill="white"/>
<path d="M269.932 309.001C269.932 309.001 281.697 307.466 286.78 317.191C291.862 326.916 323.621 412.869 324.135 421.087C324.65 429.306 303.15 431.318 295.99 427.742C288.83 424.167 268.846 381.691 266.824 376.056" stroke="#B3E1EF" stroke-width="0.985332"/>
<path d="M198.805 426.179C198.805 426.179 174.759 423.109 170.659 423.615C166.56 424.12 148.148 436.41 148.148 436.41H200.302L198.805 426.179Z" fill="#FFBE9D" stroke="#263238" stroke-width="0.985332" stroke-linecap="round" stroke-linejoin="round"/>
<path d="M298.068 409.8L198.852 426.18L200.302 436.411H322.638C323.589 431.347 324.103 426.211 324.173 421.06C324.173 413.385 319.568 404.689 319.568 404.689" fill="#B3E1EF"/>
<path d="M306.285 426.695L308.148 432.872L308.41 432.797L306.557 426.61L306.285 426.695Z" fill="white"/>
<path d="M313.082 409.21L309.02 414.227L309.235 414.405L313.297 409.388L313.082 409.21Z" fill="white"/>
<path d="M307.586 413.067L307.801 413.245L311.854 408.228L311.639 408.05L307.586 413.067Z" fill="white"/>
<path d="M294.68 422.006L296.542 428.193L296.804 428.108L294.951 421.931L294.68 422.006Z" fill="white"/>
<path d="M310.179 432.263L308.317 426.076L308.055 426.16L309.917 432.338L310.179 432.263Z" fill="white"/>
<path d="M298.574 427.583L296.721 421.396L296.449 421.481L298.312 427.658L298.574 427.583Z" fill="white"/>
<path d="M315.652 415.261L314.062 421.521L314.335 421.59L315.924 415.33L315.652 415.261Z" fill="white"/>
<path d="M314.516 436.41H314.806L316.163 431.618L315.892 431.543L314.516 436.41Z" fill="white"/>
<path d="M291.509 435.353L291.406 435.605L293.297 436.41H294.008L291.509 435.353Z" fill="white"/>
<path d="M317.415 415.67L315.824 421.93L316.096 421.999L317.687 415.739L317.415 415.67Z" fill="white"/>
<path d="M269.721 416.48L269.457 416.575L271.649 422.65L271.913 422.555L269.721 416.48Z" fill="white"/>
<path d="M301.137 418.776L307.071 421.294L307.183 421.041L301.24 418.514L301.137 418.776Z" fill="white"/>
<path d="M303.103 436.176L303.047 436.41H303.328L303.374 436.232L303.103 436.176Z" fill="white"/>
<path d="M301.965 416.841L301.859 417.091L307.805 419.613L307.911 419.363L301.965 416.841Z" fill="white"/>
<path d="M274.91 415.594L279 420.592L279.216 420.414L275.125 415.416L274.91 415.594Z" fill="white"/>
<path d="M280.64 419.244L276.55 414.255L276.344 414.423L280.425 419.422L280.64 419.244Z" fill="white"/>
<path d="M320.701 408.957L321.272 408.461L321.16 408.189L320.523 408.751L320.701 408.957Z" fill="white"/>
<path d="M274.732 423.984L272.969 430.197L273.239 430.274L275.002 424.061L274.732 423.984Z" fill="white"/>
<path d="M321.891 422.248L324.146 422.763C324.146 422.669 324.146 422.576 324.146 422.482L321.937 421.977L321.891 422.248Z" fill="white"/>
<path d="M287.26 434.417L285.996 436.411H286.324L287.494 434.557L287.26 434.417Z" fill="white"/>
<path d="M324.079 424.354L321.542 423.783L321.477 424.045L324.06 424.635C324.069 424.541 324.079 424.448 324.079 424.354Z" fill="white"/>
<path d="M321.908 410.352L321.974 410.295L321.871 410.015L321.73 410.146L321.908 410.352Z" fill="white"/>
<path d="M287.287 425.45L281.367 428.031L281.479 428.289L287.399 425.707L287.287 425.45Z" fill="white"/>
<path d="M285.929 433.575L285.695 433.425L283.805 436.411H284.132L285.929 433.575Z" fill="white"/>
<path d="M276.528 424.536L274.766 430.749L275.036 430.826L276.799 424.613L276.528 424.536Z" fill="white"/>
<path d="M288.045 427.118L282.125 429.7L282.237 429.958L288.157 427.375L288.045 427.118Z" fill="white"/>
<path d="M291.722 416.23L291.488 416.09L288.277 421.696L288.511 421.837L291.722 416.23Z" fill="white"/>
<path d="M286.676 420.779L286.91 420.91L290.12 415.312L289.877 415.172L286.676 420.779Z" fill="white"/>
<path d="M220.893 425.455L214.973 428.036L215.085 428.294L221.005 425.712L220.893 425.455Z" fill="white"/>
<path d="M208.67 435.249L208.427 435.118L207.688 436.41H208.006L208.67 435.249Z" fill="white"/>
<path d="M206.836 430.28L208.446 424.589L208.147 424.636L206.574 430.205L206.836 430.28Z" fill="white"/>
<path d="M210.271 436.167L210.028 436.036L209.812 436.411H210.131L210.271 436.167Z" fill="white"/>
<path d="M241.393 419.59L241.506 419.338L241.15 419.197L240.645 419.272L241.393 419.59Z" fill="white"/>
<path d="M248.113 436.41H248.403L249.751 431.618L249.489 431.543L248.113 436.41Z" fill="white"/>
<path d="M250.537 417.643L249.441 421.968L249.703 422.043L250.836 417.597L250.537 417.643Z" fill="white"/>
<path d="M219.527 433.575L219.293 433.425L217.402 436.411H217.73L219.527 433.575Z" fill="white"/>
<path d="M221.093 434.557L220.859 434.417L219.586 436.411H219.914L221.093 434.557Z" fill="white"/>
<path d="M276.43 436.036L276.215 436.411H276.533L276.673 436.167L276.43 436.036Z" fill="white"/>
<path d="M317.669 432.049L316.434 436.411H316.724L317.931 432.124L317.669 432.049Z" fill="white"/>
<path d="M267.983 417.12L267.719 417.216L269.912 423.291L270.176 423.195L267.983 417.12Z" fill="white"/>
<path d="M251.257 432.049L250.031 436.411H250.312L251.529 432.124L251.257 432.049Z" fill="white"/>
<path d="M225.108 435.353L224.996 435.605L226.896 436.41H227.598L225.108 435.353Z" fill="white"/>
<path d="M275.073 435.249L274.829 435.118L274.09 436.41H274.408L275.073 435.249Z" fill="white"/>
<path d="M208.697 424.104L206.953 430.304L207.223 430.38L208.966 424.179L208.697 424.104Z" fill="white"/>
<path d="M261.941 428.8L261.679 428.697L259.32 434.706L259.573 434.809L261.941 428.8Z" fill="white"/>
<path d="M221.627 427.143L215.707 429.725L215.819 429.982L221.739 427.401L221.627 427.143Z" fill="white"/>
<path d="M263.652 429.465L263.39 429.371L261.031 435.38L261.293 435.474L263.652 429.465Z" fill="white"/>
<path d="M255.078 424.055L257.942 424.7L261.368 425.468L261.434 425.197L257.942 424.41L255.134 423.783L255.078 424.055Z" fill="white"/>
<path d="M261.78 423.671L261.845 423.399L257.942 422.519L255.546 421.977L255.48 422.248L257.942 422.8L261.78 423.671Z" fill="white"/>
<path d="M247.928 421.584L248.854 417.924L248.555 417.971L247.656 421.518L247.928 421.584Z" fill="white"/>
<path d="M240.784 421.041L237.752 419.749L237.246 419.833L240.672 421.293L240.784 421.041Z" fill="white"/>
<path d="M231.904 427.658L232.175 427.583L230.313 421.396L230.051 421.481L231.904 427.658Z" fill="white"/>
<path d="M230.406 428.108L228.543 421.931L228.281 422.006L230.144 428.193L230.406 428.108Z" fill="white"/>
<path d="M239.887 426.695L241.749 432.872L242.011 432.797L240.149 426.61L239.887 426.695Z" fill="white"/>
<path d="M236.693 436.176L236.637 436.41H236.927L236.964 436.232L236.693 436.176Z" fill="white"/>
<path d="M243.781 432.263L241.918 426.076L241.656 426.16L243.51 432.338L243.781 432.263Z" fill="white"/>
<path d="M298.068 409.8L198.852 426.18L200.302 436.411H322.638C323.589 431.347 324.102 426.211 324.173 421.06C324.173 413.385 319.568 404.689 319.568 404.689" stroke="#B3E1EF" stroke-width="0.985332"/>
<path d="M319.887 434.753H196.559L192.516 366.912C192.406 366.251 192.441 365.574 192.619 364.928C192.797 364.282 193.113 363.683 193.546 363.172C193.979 362.661 194.518 362.25 195.125 361.968C195.733 361.686 196.395 361.539 197.065 361.539H319.363C320.033 361.538 320.695 361.683 321.304 361.964C321.912 362.246 322.452 362.657 322.885 363.168C323.319 363.68 323.635 364.28 323.812 364.927C323.989 365.573 324.023 366.251 323.911 366.912L319.887 434.753Z" fill="#263238" stroke="#263238" stroke-width="0.985332" stroke-linecap="round" stroke-linejoin="round"/>
<path d="M202.617 363.168H318.475C319.129 363.161 319.777 363.297 320.373 363.567C320.969 363.836 321.499 364.233 321.926 364.728C322.353 365.224 322.667 365.807 322.845 366.436C323.024 367.066 323.062 367.727 322.959 368.372" stroke="white" stroke-width="0.985332" stroke-linecap="round" stroke-linejoin="round"/>
<path d="M193.434 367.333C193.521 366.195 194.038 365.131 194.878 364.358C195.719 363.585 196.822 363.16 197.964 363.168" stroke="white" stroke-width="0.985332" stroke-linecap="round" stroke-linejoin="round"/>
<path d="M320.403 428.145H196.027V434.753H320.403V428.145Z" fill="white" stroke="#263238" stroke-width="0.985332" stroke-linecap="round" stroke-linejoin="round"/>
<path d="M266.59 398.417C266.59 401.338 262.64 403.706 257.773 403.706C252.905 403.706 248.965 401.338 248.965 398.417C248.965 395.497 252.915 393.129 257.773 393.129C262.63 393.129 266.59 395.497 266.59 398.417Z" fill="white" stroke="#263238" stroke-width="0.985332" stroke-linecap="round" stroke-linejoin="round"/>
<path d="M73.8877 427.939C71.2737 427.81 68.7064 427.197 66.3154 426.133C65.7064 425.84 65.2341 425.323 64.9972 424.69C64.7603 424.057 64.7771 423.357 65.0441 422.736C65.311 422.115 65.8075 421.621 66.4299 421.358C67.0523 421.094 67.7524 421.081 68.384 421.322C70.7989 422.351 73.897 422.988 74.7301 422.632C76.2464 420.919 78.5958 410.576 75.5631 405.644C75.4039 405.295 75.1636 404.991 74.8623 404.754C74.561 404.518 74.2076 404.358 73.8315 404.286C72.1093 404.052 69.5634 405.821 68.6648 406.664C68.1525 407.109 67.4872 407.339 66.8091 407.303C66.1311 407.268 65.4931 406.971 65.0297 406.475C64.5662 405.979 64.3135 405.322 64.3246 404.643C64.3357 403.964 64.6098 403.316 65.0893 402.836C65.5666 402.386 69.9097 398.483 74.5242 399.092C75.6696 399.263 76.7606 399.694 77.7131 400.353C78.6656 401.012 79.4543 401.88 80.0185 402.892C84.4832 410.155 81.4319 424.008 77.9967 426.722C76.8041 427.581 75.3556 428.01 73.8877 427.939Z" fill="#78CAE4"/>
<path d="M69.2545 396.958H40.3789V435.287H69.2545V396.958Z" fill="#78CAE4"/>
<path d="M43 394.861C43 394.861 43 391.669 48.85 388.478C54.7 385.286 57.8918 380.503 54.7 371.461C51.5082 362.419 52.0418 356.036 58.444 350.71" stroke="white" stroke-width="0.985332" stroke-linecap="round" stroke-linejoin="round"/>
<path d="M44.3281 360.838C44.6276 356.953 46.3592 353.668 49.9441 350.71" stroke="white" stroke-width="0.985332" stroke-linecap="round" stroke-linejoin="round"/>
<path d="M46.1907 371.462C45.6063 369.849 45.1341 368.197 44.7773 366.52" stroke="white" stroke-width="0.985332" stroke-linecap="round" stroke-linejoin="round"/>
<path d="M66.7548 374.578C66.5306 373.52 66.2335 372.478 65.8656 371.461L65.3789 370.02" stroke="white" stroke-width="0.985332" stroke-linecap="round" stroke-linejoin="round"/>
<path d="M54.168 394.861C54.168 394.861 54.168 391.669 60.018 388.477C63.8556 386.381 66.57 383.601 67.0473 379.389" stroke="white" stroke-width="0.985332" stroke-linecap="round" stroke-linejoin="round"/>
<path d="M449.308 434.632H13.6562V444.273H449.308V434.632Z" fill="#263238"/>
</svg>
