<svg width="45" height="50" viewBox="0 0 45 50" fill="none" xmlns="http://www.w3.org/2000/svg">
<g clip-path="url(#clip0)">
<path d="M43.1928 45.2248C43.0322 45.3826 42.8314 45.4616 42.5905 45.4616C42.3495 45.4616 42.1487 45.3826 41.9881 45.2248C41.8274 45.0669 41.7471 44.8696 41.7471 44.6328C41.7471 44.3961 41.8274 44.179 42.0081 44.0212C42.1688 43.8633 42.3696 43.8041 42.5905 43.8041C42.8314 43.8041 43.0322 43.883 43.1928 44.0409C43.3535 44.1987 43.4338 44.3961 43.4338 44.6328C43.4539 44.8696 43.3736 45.0669 43.1928 45.2248ZM42.1085 44.1395C41.968 44.2777 41.9077 44.4355 41.9077 44.6131C41.9077 44.8104 41.968 44.9683 42.1085 45.1064C42.2491 45.2445 42.4097 45.3037 42.6105 45.3037C42.8113 45.3037 42.972 45.2445 43.1125 45.1064C43.2531 44.9683 43.3133 44.8104 43.3133 44.6131C43.3133 44.4355 43.2531 44.2579 43.1125 44.1395C42.972 44.0014 42.8113 43.9225 42.6105 43.9225C42.4097 43.9422 42.2491 44.0014 42.1085 44.1395ZM42.8716 45.0472C42.7913 45.1064 42.7109 45.1261 42.6306 45.1261C42.5101 45.1261 42.3897 45.0867 42.2893 44.988C42.1889 44.8893 42.1487 44.771 42.1487 44.6328C42.1487 44.4947 42.1889 44.3763 42.2692 44.2777C42.3495 44.179 42.47 44.1395 42.6105 44.1395C42.6909 44.1395 42.7712 44.1593 42.8515 44.1987C42.9519 44.2579 43.0322 44.3566 43.0523 44.5144H42.8314C42.8113 44.4552 42.7913 44.3961 42.7511 44.3763C42.7109 44.3566 42.6708 44.3369 42.6306 44.3369C42.5704 44.3369 42.5101 44.3566 42.47 44.4158C42.4298 44.475 42.4097 44.5539 42.4097 44.6526C42.4097 44.7512 42.4298 44.8302 42.47 44.8696C42.5101 44.9091 42.5704 44.9485 42.6306 44.9485C42.6909 44.9485 42.731 44.9288 42.7712 44.9091L42.8314 44.7907H43.0322C43.0121 44.9091 42.9519 44.988 42.8716 45.0472ZM45 36.2863C45 36.2074 44.9799 36.1285 44.9799 36.0496C44.9799 35.9904 44.9599 35.9509 44.9599 35.9114C44.9398 35.7931 44.9197 35.6944 44.8795 35.576C44.7992 35.359 44.6787 35.1419 44.5181 34.9643C44.3575 34.7867 44.1768 34.6486 43.996 34.55C43.7952 34.4513 43.5944 34.3921 43.4338 34.3526C43.3736 34.3526 43.3334 34.3329 43.2932 34.3329C43.5141 33.3858 43.233 32.6557 43.0523 32.3203L43.0924 32.2808C43.3334 32.044 43.5342 31.827 43.7149 31.6099L43.7551 31.5705C43.8956 31.3732 43.976 31.1759 44.0362 30.9983C44.0764 30.8404 44.1165 30.7023 44.1165 30.5642V30.4458V30.3669V30.1893C44.0964 29.8933 44.0563 29.5184 43.8555 29.104C43.7551 28.9067 43.6145 28.6897 43.4338 28.4923C43.2531 28.295 43.0322 28.1174 42.7712 27.9793C42.7511 27.9596 42.731 27.9596 42.7109 27.9399C42.1688 27.1703 41.5664 26.5586 41.0242 26.1048C40.7431 25.868 40.4821 25.6707 40.2612 25.5129C40.0403 25.355 39.8596 25.2366 39.7592 25.1577C39.5183 24.9801 39.3375 24.8815 39.2572 24.842C39.0564 24.7236 38.9159 24.6249 38.8356 24.5657C38.7753 24.5066 38.7352 24.4868 38.7151 24.4671C38.7151 24.4671 38.7151 24.4474 38.695 24.4079C38.6749 24.3487 38.6749 24.2698 38.6749 24.1317C38.6749 23.9343 38.6749 23.6384 38.695 23.2437C38.7352 22.6123 38.7954 21.7639 38.8757 20.5997C38.8958 20.2248 38.8958 19.8696 38.8958 19.5539C38.8757 19.0212 38.7954 18.5476 38.695 18.1135C38.6749 18.0148 38.6348 17.9162 38.6147 17.8175C38.5946 17.7386 38.5745 17.6991 38.5544 17.6597C38.5344 17.6005 38.5143 17.5413 38.4741 17.4624C38.454 17.4229 38.454 17.3834 38.4139 17.344C38.3737 17.2453 38.3336 17.1466 38.2733 17.048L38.2532 17.0283L38.2332 16.9691L38.2131 16.9296C38.1127 16.752 37.9922 16.5942 37.8717 16.456C37.8115 16.1798 37.7111 15.7852 37.5304 15.3313C37.3697 14.9367 37.1689 14.5026 36.8677 14.0685C36.7673 13.9107 36.6469 13.7725 36.5264 13.6344L36.5665 13.595C36.6268 13.5358 38.0324 12.0756 39.1568 10.1814C41.225 6.64941 40.5423 4.49866 39.5986 3.31476L39.5785 3.2753L39.5584 3.23583C38.6548 2.24925 37.4099 1.6573 35.9039 1.45999C32.7514 1.06535 29.1772 2.60442 28.2335 3.03852L26.5066 1.18374C26.346 1.02589 26.1853 0.868037 26.0046 0.749647C25.8239 0.631257 25.6231 0.512867 25.4223 0.414209C25.0207 0.236624 24.579 0.118234 24.0971 0.0590393C23.1533 -0.0593506 22.069 0.0590393 20.9044 0.355014C19.1574 0.78911 17.2097 1.6573 15.1616 2.86093C13.1135 4.06456 10.985 5.62336 8.9168 7.47814C6.38676 9.72755 4.29847 12.1151 2.77241 14.4039C2.00938 15.5287 1.38691 16.6336 0.92508 17.6991C0.463247 18.7449 0.162052 19.7512 0.0415737 20.6589C-0.0387451 21.3298 -0.0387451 21.9612 0.101813 22.5334C0.162052 22.7899 0.242371 23.0267 0.362849 23.2635C0.503407 23.5594 0.684124 23.8357 0.905001 24.0725L2.69209 25.9075L2.89289 26.1048L2.87281 26.1245L2.81257 26.2429C2.77241 26.3021 2.75233 26.3613 2.71217 26.4008L2.65193 26.5192C2.63186 26.5784 2.5917 26.6376 2.57162 26.6968L2.51138 26.8152C2.4913 26.8743 2.45114 26.9335 2.43106 26.9927C2.41098 27.0322 2.3909 27.0717 2.3909 27.1111L2.33066 27.2887C2.31058 27.3282 2.31058 27.3676 2.2905 27.4071C2.27042 27.4663 2.25034 27.5255 2.23026 27.6044C2.23026 27.6242 2.21018 27.6439 2.21018 27.6636C2.21018 27.6833 2.1901 27.7031 2.1901 27.7228C2.17002 27.782 2.14994 27.8609 2.12986 27.9201C2.12986 27.9596 2.10978 27.9991 2.10978 28.0385C2.10978 28.0583 2.0897 28.0977 2.0897 28.1174C2.0897 28.1569 2.06962 28.1964 2.06962 28.2358C2.06962 28.2753 2.04954 28.3148 2.04954 28.3542C2.02946 28.4331 2.02946 28.5121 2.00938 28.6107C2.00938 28.6305 2.00938 28.6502 1.9893 28.6897V28.7094C1.9893 28.7686 1.96922 28.8278 1.96922 28.8672C1.96922 28.9462 1.94915 29.0448 1.94915 29.1238V30.1103C1.94915 30.1498 1.94915 30.1893 1.96922 30.2287C1.96922 30.2682 1.96922 30.3274 1.9893 30.3866V30.4458C1.9893 30.4852 2.00938 30.5444 2.00938 30.5839C2.00938 30.6234 2.02946 30.6628 2.02946 30.722C2.02946 30.7418 2.02946 30.7615 2.04954 30.7812C2.04954 30.8009 2.06962 30.8404 2.06962 30.8601V30.8996C2.06962 30.9391 2.0897 30.9785 2.10978 31.0575C2.10978 31.0772 2.10978 31.0772 2.12986 31.0969C2.14994 31.1364 2.14994 31.1759 2.14994 31.1956L2.17002 31.235C2.17002 31.2548 2.17002 31.2548 2.1901 31.2745L2.21018 31.314V31.3732C2.21018 31.3929 2.21018 31.3929 2.23026 31.4126L2.25034 31.4521C2.25034 31.4916 2.27042 31.5113 2.27042 31.5508C2.2905 31.5902 2.2905 31.6297 2.31058 31.7086V31.6889V31.7086C2.31058 31.7283 2.31058 31.7283 2.33066 31.7481C2.35074 31.8073 2.37082 31.8467 2.37082 31.8665C2.3909 31.9059 2.41098 31.9454 2.43106 32.0243L2.45114 32.044C2.47122 32.0835 2.47122 32.123 2.4913 32.1427L2.51138 32.1822C2.51138 32.2019 2.53146 32.2216 2.53146 32.2414C2.53146 32.2611 2.55154 32.3006 2.57162 32.3203L2.5917 32.3597C2.61178 32.3795 2.61178 32.4189 2.63186 32.4387C2.65193 32.4584 2.65193 32.4781 2.65193 32.4979C2.67201 32.5373 2.69209 32.5768 2.71217 32.636L2.73225 32.6557C2.75233 32.6755 2.75233 32.6952 2.77241 32.7149C2.79249 32.7346 2.79249 32.7741 2.81257 32.7938C2.83265 32.8136 2.85273 32.853 2.87281 32.9122L2.89289 32.932C2.91297 32.9517 2.91297 32.9714 2.93305 32.9912C2.95313 33.0306 2.97321 33.0504 2.97321 33.0701C2.99329 33.0898 3.01337 33.1293 3.03345 33.1687V33.1885C3.05353 33.2082 3.05353 33.2279 3.07361 33.2477C3.09369 33.2871 3.11377 33.3069 3.13385 33.3266C3.15393 33.3463 3.17401 33.3858 3.21417 33.445C3.23425 33.4647 3.25433 33.4845 3.25433 33.5042C3.27441 33.5436 3.29449 33.5634 3.31456 33.5831C3.33464 33.6028 3.35472 33.6423 3.3748 33.6818C3.39488 33.7015 3.41496 33.741 3.43504 33.7607C3.45512 33.8002 3.4752 33.8199 3.51536 33.8396L3.5756 33.8988L3.59568 33.9185C3.63584 33.958 3.65592 33.9975 3.69608 34.0369L3.73624 34.0764L3.79648 34.1356L3.91696 34.254L3.95712 34.2934L4.01735 34.3526L4.03743 34.3724C4.07759 34.4118 4.13783 34.4513 4.17799 34.5105L4.19807 34.5302C4.21815 34.55 4.23823 34.55 4.25831 34.5894C4.31855 34.6486 4.37879 34.6881 4.43903 34.7473L4.47919 34.767L4.49927 34.7867L4.53943 34.8065C4.59967 34.8459 4.63982 34.8854 4.70006 34.9249L4.72014 34.9446C4.74022 34.9643 4.7603 34.9643 4.7603 34.9643L4.80046 35.0038C4.84062 35.0433 4.88078 35.063 4.92094 35.1024L4.9611 35.1222L5.00126 35.1616L5.02134 35.1814C5.0615 35.2011 5.12174 35.2406 5.1619 35.2603C5.18198 35.28 5.20206 35.2998 5.24222 35.2998L5.28238 35.3195L5.30245 35.3392H5.32253C5.40285 35.3787 5.46309 35.4182 5.52333 35.4576L5.56349 35.4773L5.80445 35.5957H5.82453L5.86469 35.6155L5.98516 35.6747C6.00524 35.6747 6.02532 35.6944 6.0454 35.6944C6.06548 35.7141 6.08556 35.7141 6.12572 35.7339H6.1458C6.18596 35.7536 6.22612 35.7733 6.26628 35.7733H6.28636C6.32652 35.7931 6.36668 35.8128 6.42692 35.8325H6.447L6.48716 35.8522C6.50724 35.8522 6.52732 35.872 6.5474 35.872H6.56748C6.62772 35.8917 6.68795 35.9114 6.76827 35.9312H6.78835C6.88875 35.9706 6.98915 35.9904 7.08955 36.0101H7.10963C7.18995 36.0298 7.29035 36.0496 7.37066 36.0693H7.45098C7.5313 36.089 7.61162 36.1088 7.69194 36.1088H7.77226C7.8325 36.1088 7.87266 36.1285 7.9329 36.1285C7.9329 36.1482 7.95297 36.168 7.95297 36.1877C8.09353 36.5626 8.23409 36.9375 8.39473 37.2927C10.7641 43.7449 17.3302 48.7568 24.8199 49.6841C32.3097 50.5918 40.3214 45.6983 43.5744 39.0882C43.7149 38.8317 43.8354 38.595 43.9559 38.3384C44.2771 38.003 44.5382 37.6676 44.6988 37.3124C44.9599 37.0953 45.0201 36.6612 45 36.2863ZM3.41496 33.7212H3.43504H3.41496Z" fill="#664F44"/>
<path d="M38.5938 4.0061C38.2324 3.61146 37.8107 3.31549 37.3489 3.09844C37.2686 3.05898 37.1883 3.03925 37.0879 3.01952C37.0477 2.99978 37.0076 2.96032 36.9674 2.94059C36.5658 2.78274 36.1441 2.68408 35.7024 2.62488C33.5338 2.34864 31.0439 3.13791 29.6383 3.69039C29.558 3.72986 29.4777 3.74959 29.3973 3.78905C29.2769 3.84825 29.1564 3.88771 29.0359 3.9469C28.8351 4.02583 28.6343 4.12449 28.4134 4.22315C28.3733 4.24288 28.3532 4.24288 28.313 4.26261L27.9315 3.82851L27.7508 3.6312L27.5902 3.45361L27.5299 3.37469L26.0641 1.71723L25.9436 1.57911L25.783 1.40152H25.7629L25.3412 1.50018L24.8593 1.59884C24.5983 1.48045 24.277 1.40152 23.9156 1.34233C23.1927 1.24367 22.2691 1.34233 21.2249 1.59884C20.1808 1.85535 18.9961 2.30918 17.7511 2.92086C15.2412 4.14422 12.4702 6.01873 9.77948 8.42599C8.83573 9.25472 7.97231 10.1229 7.16912 10.9714C6.38601 11.8001 5.68322 12.6486 5.04067 13.4576C3.73549 15.1347 2.75159 16.7527 2.10904 18.2129C1.68736 19.1797 1.42633 20.0677 1.32593 20.8372C1.24561 21.3897 1.26569 21.883 1.36609 22.2776C1.40625 22.4157 1.44641 22.5144 1.48657 22.6328C1.58696 22.8696 1.70744 23.0669 1.86808 23.2445L3.49453 24.9216L3.67525 25.0992L3.69533 25.0795C3.73549 25.0203 3.79573 24.9611 3.85597 24.9216L3.87605 24.9019L3.93629 24.8427C3.97645 24.7835 4.03669 24.7441 4.07685 24.6849C4.11701 24.6454 4.13708 24.6257 4.17724 24.6059C4.2174 24.5862 4.23748 24.5467 4.27764 24.527L4.3178 24.4876C4.35796 24.4678 4.37804 24.4284 4.4182 24.4086C4.45836 24.3692 4.5186 24.3297 4.55876 24.2902C4.57884 24.2705 4.619 24.2508 4.63908 24.231H4.65916C4.7194 24.1916 4.75956 24.1521 4.81979 24.1126C4.85995 24.0929 4.88003 24.0732 4.92019 24.0337C4.98043 23.9943 5.02059 23.9548 5.08083 23.9153C5.12099 23.8956 5.14107 23.8759 5.18123 23.8561C5.24147 23.8167 5.30171 23.7772 5.36195 23.7575C5.40211 23.7377 5.42219 23.718 5.46235 23.6983C5.52258 23.6588 5.58282 23.6391 5.64306 23.5996C5.68322 23.5799 5.7033 23.5602 5.74346 23.5404L5.78362 23.5207C5.84386 23.501 5.88402 23.4615 5.94426 23.4418C5.96434 23.422 6.0045 23.422 6.02458 23.4023C6.06474 23.3826 6.1049 23.3628 6.16513 23.3431L6.28561 23.2839L6.32577 23.2642L6.62697 23.1458C6.66713 23.1261 6.68721 23.1261 6.72737 23.1063C6.76753 23.0866 6.78761 23.0866 6.82776 23.0669L6.86792 23.0471C6.888 23.0471 6.90808 23.0274 6.92816 23.0274C6.96832 23.0077 7.00848 23.0077 7.06872 22.9879H7.10888C7.16912 22.9682 7.20928 22.9682 7.26952 22.9485C7.30968 22.9288 7.36992 22.9288 7.41008 22.909C7.47032 22.8893 7.53055 22.8893 7.59079 22.8696C7.61087 22.8696 7.63095 22.8498 7.67111 22.8498C7.69119 22.8498 7.73135 22.8498 7.75143 22.8301C7.81167 22.8104 7.87191 22.8104 7.93215 22.8104C7.99239 22.8104 8.03255 22.7906 8.09278 22.7906C8.13294 22.7906 8.1731 22.7709 8.21326 22.7709H8.3739C8.5747 22.7709 8.81565 22.7709 9.05661 22.7906H9.09677C9.33773 22.8104 9.61884 22.8498 9.89996 22.909C9.9602 22.9288 10.0405 22.9288 10.1008 22.9485C10.1208 22.9288 10.1208 22.8893 10.1409 22.8696C10.3016 22.613 10.4421 22.3368 10.6027 22.0803C11.5063 20.6004 12.4702 19.2981 13.4541 18.1537C13.7954 17.7591 14.1368 17.4039 14.4781 17.0487C15.9038 15.5886 17.3294 14.4639 18.6145 13.5957C18.8957 13.3984 19.1969 13.2208 19.4579 13.0432C19.8394 12.8064 20.2008 12.6091 20.5422 12.4118C20.8233 12.2539 21.0844 12.1158 21.3454 11.9974C21.7671 11.7804 22.1486 11.6028 22.4899 11.4647L22.7911 11.3463C22.9317 11.2871 23.0722 11.2279 23.1927 11.1884C23.0923 11.1687 22.9718 11.1687 22.8714 11.1687H22.4699C22.3695 11.1687 22.249 11.1687 22.1486 11.1884C21.9478 11.2082 21.7269 11.2279 21.506 11.2476C21.4257 11.2673 21.3655 11.2673 21.2851 11.2871C21.8273 11.0108 22.3695 10.8135 22.8714 10.6557C23.2128 10.557 23.5542 10.4781 23.8754 10.4189C24.3172 10.34 24.7389 10.2808 25.1204 10.261C25.3814 10.2413 25.6224 10.2413 25.8432 10.2413C26.0641 10.2413 26.285 10.261 26.4657 10.261C27.1283 10.3005 27.5299 10.3992 27.5299 10.3992C27.4295 10.261 27.3091 10.1624 27.1886 10.0637C26.9476 9.88613 26.6866 9.76774 26.4456 9.66908C26.3452 9.62962 26.2649 9.60989 26.1846 9.57042C26.1244 9.55069 26.0641 9.53096 26.024 9.53096C26.1444 9.51123 26.2448 9.4915 26.3452 9.4915C26.4657 9.47177 26.5661 9.47177 26.6866 9.45203C27.6303 9.37311 28.4737 9.45203 29.0961 9.55069C29.8391 9.68881 30.3009 9.8664 30.3009 9.8664C30.2005 9.66908 30.0399 9.4915 29.8592 9.33364C29.7387 9.23499 29.5981 9.13633 29.4777 9.0574C29.7387 9.1166 29.9596 9.17579 30.2005 9.25472C30.8029 9.4323 31.3049 9.64935 31.7065 9.82693L32.0679 10.0045C32.1081 10.0243 32.1282 10.044 32.1483 10.044C32.5097 10.2413 32.7105 10.3794 32.7105 10.3794C32.6503 10.1624 32.5298 9.96506 32.3691 9.78747C32.329 9.74801 32.2888 9.68881 32.2487 9.64935H32.2687C32.2888 9.64935 32.3089 9.66908 32.3491 9.66908C32.3691 9.66908 32.4093 9.68881 32.4495 9.70855C32.6101 9.76774 32.8511 9.8664 33.1322 10.0045C33.1522 10.0045 33.1522 10.0243 33.1723 10.0243L33.2928 10.0834C33.3932 10.1426 33.4936 10.1821 33.594 10.261L33.8952 10.4386C33.9554 10.4781 33.9956 10.4978 34.0558 10.5373C34.1562 10.6162 34.2767 10.6951 34.3771 10.7938C34.4976 10.8924 34.598 10.9911 34.6984 11.0898L34.7586 11.149C34.8389 11.2279 34.9193 11.3068 34.9795 11.3857C35.1201 11.5436 35.2405 11.7212 35.361 11.8988C35.5016 12.1158 35.602 12.3723 35.7024 12.6288C35.7024 12.6486 35.7024 12.6683 35.7225 12.6683C35.7827 12.6091 35.9032 12.4907 36.0437 12.3329C37.2083 10.9911 40.7022 6.65014 38.5938 4.0061Z" fill="#132134"/>
<path d="M43.7942 36.4257C43.7942 36.4257 43.8344 36.1297 43.6737 35.8535C43.6737 35.8337 43.6536 35.814 43.6536 35.814L43.6336 35.7943L43.5733 35.7351C43.5332 35.6956 43.493 35.6562 43.4328 35.6167C43.4127 35.597 43.3725 35.5772 43.3324 35.5575C43.232 35.518 43.1316 35.4786 42.991 35.4588C42.8906 35.4391 42.7902 35.4391 42.6697 35.4391H42.5091V35.4786C42.5091 35.4983 42.5292 35.518 42.5292 35.5575C42.5292 35.5772 42.5292 35.597 42.5493 35.597C42.5693 35.6562 42.5894 35.7548 42.6095 35.8338C42.6095 35.8338 42.6095 35.8535 42.5894 35.8929V35.9127C42.5292 36.0508 42.3685 36.3665 42.0071 36.7611C41.9469 36.8401 41.8866 36.8993 41.8063 36.9782C40.8023 38.0042 38.6337 39.4446 34.0555 40.2536C32.5094 40.4707 31.0637 40.4904 29.8589 40.3326C28.0517 40.1155 26.7064 39.5433 26.0638 38.7738C26.0036 38.7146 25.9634 38.6356 25.9032 38.5764C25.863 38.5173 25.843 38.4778 25.8028 38.4186C25.7827 38.3989 25.7827 38.3791 25.7626 38.3594C25.5016 37.8858 25.3811 37.3728 25.3811 36.8795C25.3811 36.2678 25.5819 35.6956 25.9032 35.2615C26.1642 34.9064 26.5056 34.6301 26.9273 34.5117C27.1281 34.4525 27.3489 34.4131 27.5698 34.4328C27.61 34.4328 27.6702 34.4328 27.7505 34.4525C27.8911 34.4723 28.112 34.492 28.373 34.5315C28.3931 34.5315 28.4332 34.5315 28.4533 34.5512C29.3167 34.6499 30.6822 34.788 32.3287 34.6893C35.3406 34.5117 39.2963 33.5843 42.8906 30.3878V30.3681C42.9107 30.0918 42.8705 29.6183 42.5292 29.2434C42.4689 29.1842 42.4087 29.125 42.3284 29.0658C42.2882 29.0263 42.228 29.0066 42.1878 28.9671C42.1276 28.9474 42.0874 28.9079 42.0473 28.8882L41.8665 28.7698V28.7501C41.8465 28.7106 41.8264 28.6712 41.7862 28.6317C40.8626 27.2505 39.5775 26.4415 39.0554 26.0666C38.8144 25.889 38.6538 25.8101 38.6538 25.8101C37.5494 25.1392 37.3888 24.9221 37.4892 23.1266C37.5293 22.4754 37.5896 21.627 37.6699 20.4628C37.6699 20.3049 37.69 20.1668 37.69 20.0287V19.93V19.4565C37.69 19.3578 37.6699 19.2592 37.6699 19.1802C37.6699 19.1408 37.6699 19.1013 37.6498 19.0618C37.6297 18.9632 37.6297 18.8645 37.6097 18.7659C37.6097 18.7264 37.5896 18.6672 37.5896 18.6278C37.5896 18.5686 37.5695 18.5291 37.5494 18.4699C37.5293 18.4304 37.5293 18.3712 37.5093 18.3318C37.4892 18.2726 37.4691 18.2134 37.4691 18.1542C37.4691 18.1345 37.449 18.1147 37.449 18.095C37.449 18.0753 37.4289 18.0555 37.4289 18.0358V18.0161L37.4089 17.9569C37.3888 17.9174 37.3687 17.878 37.3687 17.8385V17.8188L37.3486 17.7793L37.3285 17.7398C37.2884 17.6609 37.2683 17.582 37.2281 17.5228L37.2081 17.4636C37.1679 17.4044 37.1277 17.3255 37.0876 17.2663L37.0675 17.2465L37.0474 17.2268C37.0073 17.1873 36.9872 17.1479 36.947 17.1084L36.9069 17.0492C36.8667 16.99 36.8265 16.9506 36.7864 16.9111V16.7532C36.7663 16.6743 36.7462 16.5757 36.7261 16.477C36.7261 16.4573 36.7061 16.4178 36.7061 16.3981V16.3783C36.7061 16.3389 36.686 16.3192 36.686 16.2797C36.6659 16.2008 36.6458 16.1218 36.6057 16.0429C36.6057 16.0232 36.5856 15.9837 36.5856 15.964L36.5253 15.7864C36.5053 15.7469 36.5053 15.7075 36.4852 15.6877C36.4651 15.6285 36.445 15.5693 36.4049 15.5102L36.3446 15.3918C36.3246 15.3326 36.2844 15.2734 36.2643 15.2142L36.2041 15.0958C36.1639 15.0366 36.1438 14.9774 36.1037 14.9182L36.0434 14.7998C36.0033 14.7406 35.9631 14.6814 35.923 14.6025C35.9029 14.563 35.8828 14.5433 35.8627 14.5038C35.8426 14.4841 35.8226 14.4446 35.8025 14.4249C35.7422 14.3657 35.7021 14.3065 35.6418 14.2473L35.6017 14.2276C35.5214 14.1487 35.4611 14.0697 35.3808 14.0105L35.3607 13.9908C35.3206 13.9711 35.2804 13.9316 35.2603 13.9119H35.2402C35.2001 13.8922 35.18 13.8724 35.1399 13.8527L35.1198 13.833C35.0796 13.8132 35.0194 13.7738 34.9391 13.7343C34.919 13.7146 34.8788 13.7146 34.8387 13.6948C34.6579 13.6356 34.4371 13.5567 34.1559 13.4778C34.1359 13.4778 34.1158 13.4778 34.0957 13.4581C33.8748 13.3989 33.6138 13.3397 33.3327 13.3002C33.2323 13.2805 33.152 13.2805 33.0516 13.2607C33.0114 13.2607 32.9712 13.2607 32.911 13.241H32.8508C32.6299 13.2213 32.4291 13.2016 32.2082 13.2016H32.1881C31.907 13.2016 31.6259 13.2213 31.3649 13.2805C31.4251 13.1818 31.6058 13.0634 31.7665 12.9648C31.9873 12.8464 32.1881 12.7675 32.1881 12.7675C32.0677 12.7675 31.9472 12.7872 31.8267 12.8069C31.7865 12.8069 31.7464 12.8266 31.7062 12.8266C31.6861 12.8266 31.646 12.8266 31.6259 12.8464H31.6058C31.5857 12.8464 31.5657 12.8464 31.5456 12.8661C30.9231 13.0042 30.3207 13.2213 29.9794 13.3594L29.8589 13.4186H29.8388C29.7987 13.4186 29.7786 13.4186 29.7384 13.4383C29.9794 12.9845 30.3408 12.7477 30.6219 12.6293C30.6621 12.6096 30.7223 12.5899 30.7625 12.5701C30.7826 12.5701 30.7826 12.5701 30.8026 12.5504C30.8428 12.5307 30.883 12.5307 30.903 12.5109C30.9633 12.4912 31.0034 12.4912 31.0034 12.4912H30.6822C29.9994 12.5701 29.377 12.7872 28.8549 13.0832C28.4935 13.2805 28.1722 13.4975 27.8911 13.7146C27.8108 13.7343 27.7505 13.754 27.6702 13.754C26.9072 13.9119 26.0437 14.1092 25.1402 14.3854C24.7988 14.4841 24.4575 14.6025 24.1161 14.7209C23.8551 14.8195 23.5739 14.9182 23.3129 15.0169C23.1121 15.0958 22.9314 15.1747 22.7306 15.2536C21.3451 15.8653 19.9596 16.6743 18.8151 17.7596L18.6946 17.878L18.3934 18.1739L18.2729 18.2923C18.2327 18.3515 18.1725 18.4107 18.1323 18.4502C17.9115 18.6869 17.7107 18.9435 17.5099 19.2197C17.3693 19.417 17.2288 19.6341 17.1083 19.8511L17.0882 19.8708C16.8272 20.3247 16.5862 20.7982 16.4055 21.331C16.3051 21.5875 16.2248 21.8637 16.1445 22.14C16.1244 22.2189 16.1043 22.2781 16.0842 22.357L16.0641 22.3965C15.9838 22.6925 15.9236 23.0082 15.8834 23.3239C15.8834 23.3831 15.8633 23.4423 15.8633 23.5212C15.8433 23.6791 15.8232 23.8369 15.8232 24.0145C15.8031 24.1723 15.8031 24.3105 15.8031 24.4683V25.08C15.8031 25.2576 15.8031 25.4352 15.8232 25.6128V25.6325C15.8232 25.8101 15.8433 25.9877 15.8633 26.185C15.8633 26.2639 15.8834 26.3428 15.8834 26.4218V26.4809C15.8834 26.5204 15.8834 26.5599 15.9035 26.6191C15.9236 26.8164 15.9637 27.0334 15.9838 27.2505C15.9838 27.3097 16.0039 27.3689 16.0039 27.4281C16.0441 27.6057 16.0641 27.803 16.1043 27.9806C16.1043 27.9806 16.0641 27.7438 16.0842 27.3886C16.0842 27.3097 16.1043 27.211 16.1043 27.1321C16.1244 26.9348 16.1645 26.698 16.2449 26.4809L16.3051 26.3034C16.3051 26.2836 16.3252 26.2639 16.3453 26.2244C16.3854 26.1258 16.4457 26.0074 16.5059 25.9087C16.526 25.9877 16.526 26.0666 16.5461 26.1258V27.1716C16.5661 27.8424 16.6264 28.6514 16.7669 29.342C16.7669 29.342 16.787 28.0989 17.0079 27.9411C17.0079 27.9411 17.3894 30.2694 17.7308 31.1376C17.7709 31.256 17.8312 31.3349 17.8713 31.3941V31.1573L17.8312 29.8748V29.7367C18.0922 30.2694 18.3934 30.8022 18.7347 31.3744C18.8351 31.5323 18.9155 31.6901 19.0159 31.848C18.3733 32.4004 17.7709 33.2094 17.3292 34.1566C17.2689 34.3144 17.1886 34.4723 17.1284 34.6301C17.0882 34.7288 17.0681 34.8077 17.028 34.9064C17.028 34.9261 17.0079 34.9656 17.0079 34.9853C16.9878 35.0445 16.9677 35.1234 16.9476 35.1826C16.9476 35.2221 16.9276 35.2418 16.9276 35.2813C16.9075 35.3405 16.8874 35.4194 16.8673 35.4786C16.8673 35.518 16.8472 35.5378 16.8472 35.5772L16.787 35.8732C16.7669 35.9719 16.7468 36.0705 16.7468 36.1692C16.7468 36.2087 16.7468 36.2284 16.7268 36.2678C16.7268 36.3468 16.7067 36.406 16.7067 36.4849C16.7067 36.5244 16.7067 36.5638 16.6866 36.6033C16.6866 36.6822 16.6665 36.7414 16.6665 36.8203V37.5109C16.6665 37.5899 16.6665 37.6688 16.6866 37.7675V37.8266C16.6866 37.9253 16.7067 38.024 16.7268 38.1424C16.7268 38.1818 16.7268 38.2015 16.7468 38.241C16.7468 38.3199 16.7669 38.3791 16.787 38.4581C16.787 38.4975 16.8071 38.537 16.8071 38.5764C16.8272 38.6356 16.8272 38.7146 16.8472 38.7738C16.8472 38.8132 16.8673 38.8527 16.8673 38.8922C16.8874 38.9514 16.9075 39.0105 16.9075 39.0895C16.9276 39.1289 16.9276 39.1684 16.9476 39.2276C16.9677 39.2868 16.9878 39.3657 17.0079 39.4249C17.028 39.4644 17.028 39.5038 17.048 39.5433C17.0681 39.6025 17.0882 39.6814 17.1083 39.7406C17.1284 39.7801 17.1284 39.8195 17.1484 39.859C17.1685 39.9379 17.2087 40.0169 17.2288 40.0761C17.2488 40.1155 17.2488 40.1353 17.2689 40.1747L17.5701 40.8259C17.5902 40.8653 17.6103 40.8851 17.6304 40.9245L17.7508 41.1613C17.7709 41.2008 17.791 41.2402 17.8312 41.2797C17.8713 41.3389 17.9115 41.4178 17.9516 41.477C17.9717 41.5165 18.0119 41.5559 18.0319 41.5954C18.0721 41.6546 18.1123 41.7335 18.1725 41.7927C18.2127 41.8322 18.2327 41.8716 18.2729 41.9308C18.3131 41.99 18.3733 42.069 18.4135 42.1281C18.4536 42.1676 18.4737 42.2071 18.5139 42.2663C18.5741 42.3255 18.6143 42.4044 18.6745 42.4636C18.7147 42.503 18.7347 42.5425 18.7749 42.582C18.8351 42.6609 18.8954 42.7201 18.9757 42.799L19.0761 42.8977C19.1765 42.9963 19.2769 43.1147 19.3773 43.2134C19.3773 43.2134 19.317 43.1345 19.2367 42.9766C19.2167 42.9569 19.1966 42.9174 19.1966 42.8779L19.1363 42.7596C19.1163 42.7201 19.0962 42.6806 19.0761 42.6214C18.9155 42.2663 18.7749 41.7532 18.795 41.2008L18.9757 41.4375C19.0359 41.5757 19.1363 41.7532 19.2367 41.9506C19.2769 42.0098 19.317 42.0887 19.3371 42.1479C19.4978 42.4241 19.6584 42.7398 19.8592 43.0358C20.1002 43.4107 20.3411 43.7659 20.6021 44.1013C20.6021 44.1013 20.301 43.4699 20.2006 43.0555C20.1805 42.9371 20.1604 42.8385 20.1805 42.7793C20.2006 42.799 20.2206 42.8385 20.2608 42.8582C20.2809 42.8779 20.301 42.9174 20.3411 42.9371C20.3813 42.9963 20.4415 43.0753 20.5218 43.1739L20.562 43.2134C20.6021 43.2528 20.6222 43.312 20.6624 43.3515C20.7025 43.4107 20.7427 43.4699 20.8029 43.5291C21.2246 44.0618 21.8069 44.7722 22.2085 45.1471C22.3491 45.2655 22.4696 45.3641 22.5499 45.4036L21.9676 44.3776C23.2928 45.4431 28.7947 46.8045 34.1961 45.2852C34.8587 45.1076 35.5013 44.8708 36.1438 44.5946C36.5253 44.4367 36.9069 44.2394 37.2884 44.0421L37.3486 44.0027C37.6097 43.8645 37.8707 43.7067 38.1317 43.5488C38.3325 43.4304 38.5333 43.2923 38.714 43.1739C39.0353 42.9569 39.3566 42.7201 39.6779 42.4636C39.6979 42.4439 39.718 42.4241 39.7381 42.4241C40.0393 42.1676 40.3405 41.8914 40.6015 41.6151C40.963 41.2402 41.2842 40.8653 41.5654 40.4904L41.5854 40.4707C41.6658 40.372 41.726 40.2931 41.7862 40.1944L41.8063 40.1747C41.8264 40.1353 41.8465 40.1155 41.8665 40.0761C41.9669 39.9379 42.0473 39.8195 42.1477 39.6814C42.1677 39.642 42.1878 39.6222 42.2079 39.5828C42.2481 39.5038 42.2882 39.4446 42.3485 39.3657C42.3886 39.3065 42.4087 39.2671 42.4489 39.2079C42.489 39.1487 42.5292 39.0895 42.5493 39.0303C42.6095 38.9316 42.6697 38.8132 42.73 38.7146L42.7902 38.5962L42.9107 38.3594L42.9709 38.241L42.991 38.2015C43.0312 38.1029 43.0914 38.0042 43.1316 37.9056V37.8858C43.3123 37.728 43.4328 37.5701 43.5532 37.432C43.5733 37.4123 43.5934 37.3925 43.5934 37.3728C43.7139 36.9979 43.7942 36.7019 43.7942 36.4257ZM11.486 32.5978C11.486 32.578 11.486 32.5583 11.4659 32.5188C11.4056 32.1834 11.3454 31.8282 11.3253 31.4731V31.3941C11.2651 31.4139 11.2049 31.4928 11.1245 31.5914C11.1045 31.6309 11.0643 31.6704 11.0442 31.7296C10.8635 32.065 10.7029 32.5386 10.7029 32.5386C10.7229 32.3807 10.743 32.2229 10.743 32.065V32.0058C10.7631 31.848 10.7832 31.6704 10.8033 31.5125V31.4533C10.8233 31.256 10.8635 31.0784 10.9037 30.9008C10.9037 30.8811 10.9037 30.8614 10.9237 30.8219V30.8022C10.9237 30.7824 10.9237 30.7627 10.9438 30.743C10.9438 30.7035 10.9639 30.6838 10.9639 30.6443C10.984 30.5062 11.0241 30.3681 11.0442 30.23C11.0643 30.1116 11.0844 29.9932 11.1045 29.8945V29.8551C11.1045 29.8353 11.1045 29.8156 11.1245 29.8156V29.7761C11.1245 29.7564 11.1446 29.7169 11.1446 29.6972C11.1446 29.6775 11.1446 29.6577 11.1647 29.638C11.1647 29.5985 11.1848 29.5591 11.1848 29.5394C11.1848 29.5196 11.2049 29.4802 11.2049 29.4604C11.2049 29.421 11.2249 29.3815 11.2249 29.3618C11.2249 29.342 11.2249 29.3223 11.245 29.3026C11.245 29.2828 11.245 29.2631 11.2651 29.2631C11.2651 29.2236 11.2852 29.2039 11.2852 29.1842V29.125L11.245 29.1645C11.2049 29.1842 11.1848 29.2236 11.1446 29.2434L11.1045 29.2828C11.0643 29.3223 11.0241 29.3618 11.0041 29.4012L10.984 29.421L10.8635 29.5985L10.8434 29.6183C10.8434 29.638 10.8233 29.638 10.8233 29.6577L10.7631 29.7761V29.8156C10.743 29.8748 10.7029 29.934 10.6828 29.9932C10.6225 30.151 10.5623 30.3089 10.5221 30.447C10.5021 30.4865 10.5021 30.5457 10.482 30.5654C10.4619 30.6443 10.4418 30.7233 10.4418 30.743V30.7627V30.743C10.4418 30.6838 10.4418 30.6443 10.4619 30.5851C10.4619 30.4865 10.482 30.3681 10.482 30.2694C10.482 30.1905 10.5021 30.0918 10.5221 30.0129C10.5221 29.9932 10.5221 29.9537 10.5422 29.934C10.5422 29.8945 10.5623 29.8551 10.5623 29.8156C10.5623 29.7761 10.5824 29.7367 10.5824 29.6972V29.638C10.5824 29.5985 10.6025 29.5394 10.6025 29.4999V29.4012V29.3618C10.6025 29.342 10.6025 29.3223 10.6225 29.3026C10.6426 29.2434 10.6627 29.1645 10.6627 29.1053V29.0855C10.6828 29.0461 10.6828 28.9869 10.7029 28.9474V28.9277C10.7229 28.829 10.7631 28.7304 10.7832 28.6317V28.5922C10.7832 28.5725 10.7832 28.5528 10.8033 28.533C10.8434 28.3752 10.9037 28.2173 10.9438 28.0792V28.0595C10.984 27.9411 11.0442 27.803 11.0844 27.6846V27.6648C11.1045 27.6057 11.1245 27.5662 11.1446 27.507C11.1848 27.4281 11.2049 27.3491 11.245 27.2702C11.245 27.2505 11.2651 27.211 11.3052 27.1321C11.3253 27.1124 11.3253 27.0729 11.3454 27.0532C11.3655 27.0137 11.3856 26.9742 11.4056 26.915L11.4257 26.8756L11.7671 26.2639C11.7872 26.2442 11.7872 26.2047 11.8072 26.185V26.1652L11.8273 26.1258C11.8675 26.0666 11.9076 25.9877 11.9478 25.9285C12.008 25.8298 12.0482 25.7311 12.1084 25.6522C12.2088 25.4746 12.2892 25.3168 12.3494 25.2379C12.3695 25.1787 12.3896 25.1589 12.4096 25.1392C12.3896 25.1392 12.2892 25.0603 12.1285 24.9616C11.9277 24.8432 11.6466 24.6854 11.3052 24.5275C11.1848 24.4683 11.0844 24.4289 10.9639 24.3697C10.8233 24.3105 10.6627 24.2513 10.5021 24.1921C10.4619 24.1723 10.4217 24.1723 10.3816 24.1526C10.241 24.1132 10.1205 24.0737 9.97999 24.0342C9.87959 24.0145 9.77919 23.9948 9.69887 23.975C9.61855 23.9553 9.53824 23.9553 9.45792 23.9356C9.41776 23.9356 9.3776 23.9356 9.33744 23.9158C9.29728 23.9158 9.25712 23.9158 9.21696 23.8961C9.11656 23.8961 8.99608 23.8764 8.89569 23.8764H8.73505C8.49409 23.8764 8.27321 23.8961 8.05234 23.9356H8.01218C7.61059 23.9948 7.22907 24.0934 6.84756 24.2315C6.72708 24.271 6.6066 24.3302 6.46604 24.3894C6.42588 24.4091 6.4058 24.4289 6.36564 24.4289L6.24517 24.4881C5.88373 24.6656 5.54238 24.9024 5.2211 25.1589H5.20102C4.91991 25.376 4.67895 25.6325 4.45807 25.889L4.27736 26.1258C4.19704 26.2244 4.1368 26.3231 4.07656 26.4218C3.95608 26.5993 3.8356 26.7967 3.7352 26.994C3.69504 27.0729 3.65488 27.1321 3.6348 27.211C3.6348 27.2308 3.61473 27.2308 3.61473 27.2505C3.41393 27.724 3.25329 28.2173 3.19305 28.7501C3.17297 28.8487 3.17297 28.9474 3.15289 29.0658V29.1053C3.15289 29.1842 3.13281 29.2631 3.13281 29.3618V29.7169C3.13281 29.7959 3.13281 29.8748 3.15289 29.9537V30.0524C3.15289 30.1116 3.17297 30.1708 3.17297 30.23V30.2497C3.17297 30.2892 3.17297 30.3089 3.19305 30.3484C3.19305 30.4075 3.21313 30.4667 3.21313 30.5062C3.21313 30.5457 3.23321 30.5851 3.23321 30.6246C3.25329 30.6838 3.25329 30.7233 3.27337 30.7824C3.27337 30.8219 3.29345 30.8614 3.31353 30.9008V30.9206L3.33361 30.96V30.9995L3.35369 31.039C3.37377 31.0784 3.37377 31.1179 3.39385 31.1573C3.41393 31.1968 3.41393 31.256 3.43401 31.2955C3.45409 31.3349 3.47417 31.3744 3.47417 31.4336L3.49425 31.4731C3.51433 31.5125 3.51433 31.5323 3.53441 31.5717C3.55449 31.6112 3.57457 31.6506 3.59465 31.7098L3.65488 31.8282C3.67496 31.848 3.67496 31.8677 3.69504 31.8874C3.71512 31.9072 3.71512 31.9269 3.7352 31.9466L3.79544 32.065C3.81552 32.1045 3.8356 32.1637 3.87576 32.2031C3.89584 32.2426 3.91592 32.2821 3.936 32.3018C3.95608 32.3412 3.99624 32.4004 4.01632 32.4399C4.0364 32.4794 4.05648 32.4991 4.07656 32.5386C4.09664 32.578 4.1368 32.6372 4.17696 32.6767C4.19704 32.7162 4.21712 32.7359 4.2372 32.7556C4.27736 32.7951 4.29743 32.8543 4.33759 32.8937C4.35767 32.9135 4.37775 32.9529 4.39783 32.9727C4.43799 33.0121 4.47815 33.0713 4.51831 33.1108C4.53839 33.1305 4.55847 33.1502 4.57855 33.1897C4.61871 33.2292 4.65887 33.2884 4.69903 33.3278L4.75927 33.387C4.79943 33.4265 4.83959 33.4857 4.89983 33.5251L4.96007 33.5843L5.10062 33.7225C5.1207 33.7422 5.14078 33.7619 5.16086 33.7619C5.20102 33.8014 5.26126 33.8409 5.3215 33.9C5.34158 33.9198 5.36166 33.9198 5.38174 33.9395C5.44198 33.979 5.48214 34.0184 5.54238 34.0579C5.56246 34.0776 5.58254 34.0776 5.58254 34.0974L5.76325 34.2158L5.80341 34.2355L5.98413 34.3539L6.02429 34.3736C6.08453 34.4131 6.16485 34.4525 6.22509 34.492L6.26525 34.5117C6.32548 34.5512 6.4058 34.5907 6.46604 34.6104L6.5062 34.6301C6.58652 34.6696 6.64676 34.6893 6.72708 34.7288L6.74716 34.7485C6.82748 34.788 6.9078 34.8077 6.96803 34.8472H6.98811C7.06843 34.8669 7.14875 34.9064 7.22907 34.9261H7.24915C7.28931 34.9458 7.32947 34.9458 7.36963 34.9656C7.40979 34.9853 7.44995 34.9853 7.51019 35.005H7.53027C7.61059 35.0248 7.71098 35.0445 7.7913 35.0642C7.87162 35.0839 7.97202 35.1037 8.05234 35.1037C8.33345 35.1431 8.61457 35.1629 8.89569 35.1826H9.09648C9.19688 35.1826 9.2772 35.1826 9.3776 35.1629C9.49808 35.1431 9.63863 35.1431 9.77919 35.1234C9.89967 35.1037 10.0201 35.0839 10.1205 35.0642C10.3013 35.0248 10.482 34.9853 10.6426 34.9261C11.1647 34.788 11.6064 34.5907 11.8876 34.3736C11.8876 34.3736 11.7068 33.5843 11.5663 32.7951C11.5261 32.7556 11.506 32.6767 11.486 32.5978Z" fill="#90694C"/>
<path d="M24.3778 3.27574L24.3176 2.48647L24.7192 1.61828L24.8798 1.57882C24.6188 1.46043 24.2975 1.3815 23.9361 1.32231C23.2132 1.22365 22.2896 1.32231 21.2454 1.57882C20.2013 1.83533 19.0166 2.28916 17.7716 2.90084C15.2617 4.1242 12.4907 5.99871 9.79999 8.40597C8.85624 9.2347 7.99281 10.1029 7.18963 10.9514C6.40652 11.7801 5.70373 12.6285 5.06118 13.4375C3.756 15.1147 2.77209 16.7327 2.12954 18.1929C1.70787 19.1597 1.44683 20.0476 1.34644 20.8172C1.26612 21.3697 1.2862 21.863 1.38659 22.2576C1.42675 22.3957 1.46691 22.4944 1.50707 22.6128C1.60747 22.8495 1.72795 23.0469 1.88859 23.2244L3.51504 24.9016L3.69576 25.0792L3.71584 25.0595C3.756 25.0003 3.81624 24.9411 3.87648 24.9016L3.89656 24.8819L3.9568 24.8227C3.99696 24.7635 4.05719 24.724 4.09735 24.6649C4.13751 24.6254 4.15759 24.6057 4.19775 24.5859C4.23791 24.5662 4.25799 24.5267 4.29815 24.507L4.33831 24.4675C4.37847 24.4478 4.39855 24.4083 4.43871 24.3886C4.47887 24.3491 4.53911 24.3097 4.57927 24.2702C4.59935 24.2505 4.63951 24.2308 4.65959 24.211H4.67966C4.7399 24.1716 4.78006 24.1321 4.8403 24.0926C4.88046 24.0729 4.90054 24.0532 4.9407 24.0137C5.00094 23.9742 5.0411 23.9348 5.10134 23.8953C5.1415 23.8756 5.16158 23.8559 5.20174 23.8361C5.26198 23.7967 5.32222 23.7572 5.38245 23.7375C5.42261 23.7177 5.44269 23.698 5.48285 23.6783C5.54309 23.6388 5.60333 23.6191 5.66357 23.5796C5.70373 23.5599 5.72381 23.5401 5.76397 23.5204L5.80413 23.5007C6.18564 22.4549 6.76795 21.2907 7.53098 20.1068C8.45465 18.6467 9.63935 17.1076 11.0449 15.5686C11.9284 14.6017 12.8923 13.6349 13.9364 12.7075C15.2817 11.5038 16.6672 10.4186 18.0327 9.47148C18.9563 8.84007 19.8599 8.26785 20.7434 7.77456C20.8237 7.73509 20.9041 7.6759 21.0045 7.63644C21.2454 7.49831 21.4663 7.37992 21.7072 7.26153C22.2092 7.00502 22.7112 6.76824 23.1931 6.57093L22.9522 6.29468L22.912 6.25522L22.6108 5.91978L20.9442 3.94662L20.9643 2.52594L20.9442 2.5062L22.1289 2.15104L24.3778 3.27574Z" fill="#2F83C1"/>
<path d="M43.7947 36.4242C43.7947 36.4242 43.8349 36.1283 43.6743 35.852C43.6743 35.8323 43.6542 35.8126 43.6542 35.8126L43.6341 35.7928L43.5739 35.7336C43.5337 35.6942 43.4935 35.6547 43.4333 35.6152C43.4132 35.5955 43.3731 35.5758 43.3329 35.5561C43.2325 35.5166 43.1321 35.4771 42.9915 35.4574C42.8911 35.4377 42.7907 35.4377 42.6703 35.4377H42.5096V35.4771C42.5096 35.4969 42.5297 35.5166 42.5297 35.5561C42.5297 35.5758 42.5297 35.5955 42.5498 35.5955C42.5699 35.6547 42.59 35.7534 42.61 35.8323C42.61 35.8323 42.61 35.852 42.59 35.8915V35.9112C42.5297 36.0493 42.3691 36.365 42.0076 36.7597C41.9474 36.8386 41.8872 36.8978 41.8068 36.9767C40.8029 38.0028 38.6342 39.4432 34.0561 40.2522C32.5099 40.4692 31.0642 40.489 29.8594 40.3311C28.0522 40.1141 26.7069 39.5418 26.0643 38.7723C26.0041 38.7131 25.9639 38.6342 25.9037 38.575C25.8635 38.5158 25.8434 38.4763 25.8033 38.4171C25.7832 38.3974 25.7832 38.3777 25.7631 38.3579C25.5021 37.8844 25.3816 37.3714 25.3816 36.8781C25.3816 36.2664 25.5824 35.6942 25.9037 35.2601C26.1647 34.9049 26.5061 34.6287 26.9277 34.5103C27.1285 34.4511 27.3494 34.4116 27.5703 34.4313C27.6104 34.4313 27.6707 34.4314 27.751 34.4511C27.8916 34.4708 28.1124 34.4905 28.3735 34.53C28.3936 34.53 28.4337 34.53 28.4538 34.5497C29.3172 34.6484 30.6826 34.7865 32.3292 34.6879C35.3412 34.5103 39.2969 33.5829 42.8911 30.3864V30.3666C42.9112 30.0904 42.8711 29.6168 42.5297 29.2419C42.4695 29.1827 42.4092 29.1235 42.3289 29.0644C42.2888 29.0249 42.2285 29.0052 42.1884 28.9657C42.1281 28.946 42.088 28.9065 42.0478 28.8868L41.8671 28.7684V28.7486C41.847 28.7092 41.8269 28.6697 41.7868 28.6303C40.8631 27.249 39.578 26.44 39.0559 26.0651C38.815 25.8876 38.6543 25.8086 38.6543 25.8086C37.5499 25.1378 37.3893 24.9207 37.4897 23.1251C37.5298 22.474 37.5901 21.6255 37.6704 20.4614C37.6704 20.3035 37.6905 20.1654 37.6905 20.0273V19.9286V19.4551C37.6905 19.3564 37.6704 19.2577 37.6704 19.1788C37.6704 19.1394 37.6704 19.0999 37.6503 19.0604C37.6302 18.9618 37.6302 18.8631 37.6102 18.7645C37.6102 18.725 37.5901 18.6658 37.5901 18.6263C37.5901 18.5671 37.57 18.5277 37.5499 18.4685C37.5299 18.429 37.5299 18.3698 37.5098 18.3304C37.4897 18.2712 37.4696 18.212 37.4696 18.1528C37.4696 18.133 37.4495 18.1133 37.4495 18.0936C37.4495 18.0738 37.4294 18.0541 37.4294 18.0344V18.0147L37.4094 17.9555C37.3893 17.916 37.3692 17.8765 37.3692 17.8371V17.8173L37.3491 17.7779L37.3291 17.7384C37.2889 17.6595 37.2688 17.5806 37.2287 17.5214L37.2086 17.4622C37.1684 17.403 37.1283 17.324 37.0881 17.2649L37.068 17.2451L37.0479 17.2254C37.0078 17.1859 36.9877 17.1465 36.9475 17.107L36.9074 17.0478C36.8672 16.9886 36.8271 16.9491 36.7869 16.9097L36.6263 16.7518C36.566 16.7124 36.5058 16.6729 36.4455 16.6532C36.4255 16.6334 36.4054 16.6334 36.3853 16.6334L36.2648 16.5742C36.2447 16.5742 36.2247 16.5545 36.2046 16.5545C36.1644 16.5348 36.1243 16.5348 36.1042 16.515C36.0841 16.515 36.064 16.4953 36.0239 16.4953C35.9837 16.4953 35.9636 16.4756 35.9235 16.4756H35.4817C35.4616 16.4756 35.4416 16.4756 35.4215 16.4953C35.4014 16.4953 35.3813 16.4953 35.3612 16.515C35.3211 16.515 35.2809 16.5348 35.2207 16.5545H35.1805C35.06 16.594 34.9596 16.6334 34.8392 16.6729L34.799 16.6926C34.7588 16.7124 34.7187 16.7321 34.6584 16.7518L34.5982 16.7716L34.4777 16.8308L34.4175 16.8702L34.297 16.9294L34.2368 16.9689C34.1966 16.9886 34.1564 17.0281 34.1163 17.0478L34.0761 17.0675C34.036 17.107 33.9757 17.1267 33.9356 17.1662L33.9155 17.1859C33.8553 17.2254 33.8151 17.2648 33.7549 17.2846C33.6545 17.3438 33.5541 17.4227 33.4537 17.4819C33.3733 17.5411 33.293 17.6003 33.1926 17.6595L33.1525 17.6792C33.0721 17.7384 32.9717 17.7976 32.8914 17.8371L32.8513 17.8568C32.7709 17.916 32.6705 17.9555 32.5902 18.0147L32.5501 18.0344C32.4697 18.0936 32.3693 18.133 32.2689 18.1725L32.2288 18.1922C32.1284 18.2317 32.0481 18.2712 31.9477 18.3106L31.9075 18.3304C31.8071 18.3698 31.7067 18.3896 31.6063 18.429H31.5862C31.4858 18.4487 31.3654 18.4685 31.265 18.4882C31.0842 18.5079 30.8834 18.5277 30.7027 18.5277C30.4015 18.5277 30.1003 18.5079 29.7791 18.4685L29.4779 18.4093C29.4377 18.4093 29.3975 18.3896 29.3775 18.3896C29.1164 18.3304 28.8353 18.2712 28.5743 18.212C28.4538 18.1922 28.3534 18.1528 28.2329 18.133C28.0522 18.0936 27.8715 18.0541 27.6707 18.0147C27.6305 18.0147 27.5904 17.9949 27.5703 17.9949C27.5502 17.9949 27.51 17.9752 27.49 17.9752C27.4498 17.9752 27.4096 17.9555 27.3695 17.9555C27.3293 17.9555 27.2892 17.9357 27.249 17.9357H27.2088C27.1687 17.9357 27.1285 17.916 27.1084 17.916C27.0281 17.8963 26.9478 17.8765 26.8474 17.8765C26.8273 17.8765 26.7872 17.8765 26.7671 17.8568C26.7069 17.8568 26.6466 17.8371 26.5864 17.8371C26.5462 17.8371 26.5261 17.8371 26.486 17.8173C26.4257 17.8173 26.3856 17.7976 26.3253 17.7976H25.4017C25.3013 17.7976 25.221 17.8173 25.1206 17.8173H25.0402C24.98 17.8173 24.9198 17.8371 24.8595 17.8371H24.8394C24.7993 17.8371 24.7792 17.8568 24.739 17.8568C24.6788 17.8765 24.6186 17.8765 24.5583 17.8963C24.5182 17.8963 24.478 17.916 24.4579 17.916C24.3977 17.9357 24.3374 17.9555 24.2772 17.9555C24.237 17.9555 24.217 17.9752 24.1768 17.9949C24.1166 18.0147 24.0362 18.0344 23.976 18.0541C23.9358 18.0738 23.9158 18.0738 23.8957 18.0936C23.7953 18.133 23.6949 18.1725 23.6146 18.212C22.8515 18.6461 22.1889 19.238 21.6869 19.9089C21.5062 20.1457 21.3456 20.3824 21.205 20.6192C21.0444 20.8757 20.9239 21.152 20.8034 21.4282C20.7632 21.5071 20.7432 21.5861 20.703 21.665C20.6628 21.8031 20.6026 21.9412 20.5624 22.0794C20.5624 22.0991 20.5624 22.1188 20.5424 22.1188C20.5022 22.2767 20.462 22.4345 20.4219 22.6121C20.3817 22.7897 20.3616 22.9476 20.3416 23.1251C20.3215 23.2238 20.3215 23.3027 20.3215 23.4014C20.3014 23.6579 20.3014 23.8947 20.3215 24.1512V24.2104C20.3215 24.2696 20.3215 24.3288 20.3416 24.4077C20.3616 24.5853 20.3817 24.7629 20.4219 24.9404C20.442 24.9996 20.462 25.0588 20.462 25.1378C20.4821 25.197 20.4821 25.2562 20.5022 25.3153C20.6227 25.7692 20.8034 26.1835 21.0243 26.5387C21.8475 27.9397 23.213 28.7881 24.217 29.2419C24.5985 29.3998 25.0001 29.5576 25.4217 29.6958L25.3816 29.7352C25.3013 29.755 25.221 29.7747 25.1206 29.7944C24.98 29.8339 24.7993 29.8931 24.6186 29.9523C24.4178 30.0115 24.1768 30.1101 23.9358 30.2088C23.2933 30.4653 22.5704 30.8402 21.9279 31.3532C21.8476 31.4124 21.7672 31.4913 21.6869 31.5505C21.5464 31.6689 21.4259 31.7873 21.3054 31.9254L21.2652 31.9649L21.205 32.0241C21.1648 32.0833 21.1046 32.1228 21.0644 32.1819L21.0042 32.2411C20.944 32.3201 20.8837 32.399 20.8436 32.4779C20.7833 32.5568 20.7432 32.6358 20.6829 32.7147C20.3014 33.3658 20.0805 34.1551 20.1408 35.1022V35.0628C20.1408 35.043 20.1408 35.0233 20.1609 35.0036V34.9838C20.1609 34.9641 20.1809 34.9444 20.1809 34.9049V34.8852C20.1809 34.8654 20.201 34.826 20.201 34.7865C20.201 34.7471 20.2211 34.7273 20.2412 34.6879V34.6681C20.2612 34.6287 20.2612 34.5892 20.2813 34.5497V34.53C20.3014 34.4905 20.3014 34.4511 20.3215 34.4116V34.3919C20.3416 34.3524 20.3616 34.313 20.3817 34.2538L20.4018 34.234C20.4219 34.1946 20.442 34.1354 20.4821 34.0959C20.5223 34.017 20.5624 33.9578 20.6026 33.8789C20.6227 33.8591 20.6428 33.8197 20.6628 33.7999L20.6829 33.7802L20.8034 33.6026C20.8436 33.5632 20.8837 33.504 20.9239 33.4645L20.964 33.425C21.0042 33.3856 21.0243 33.3461 21.0644 33.3264L21.1046 33.2869C21.1448 33.2475 21.205 33.208 21.2452 33.1488C21.2452 33.1488 20.3817 35.0825 20.7632 36.6018V36.5821V36.5426V36.4834V36.4045V36.3059C20.7632 36.2664 20.7632 36.2269 20.7833 36.1875C20.7833 36.148 20.7833 36.1085 20.8034 36.0691V36.0493C20.8034 36.0099 20.8235 35.9507 20.8235 35.9112V35.8718C20.8436 35.8126 20.8436 35.7731 20.8636 35.7139V35.6942C20.8837 35.635 20.9038 35.5758 20.9038 35.5363C20.9038 35.5166 20.9239 35.4969 20.9239 35.4771L20.944 35.4377C20.964 35.3982 20.9841 35.339 21.0042 35.2995C21.0243 35.2403 21.0644 35.1812 21.1046 35.122C21.1046 35.1022 21.1247 35.0825 21.1247 35.0825L21.2452 34.9049C21.2452 34.9049 21.205 35.3785 21.205 35.9507C21.205 36.0493 21.205 36.1283 21.2251 36.2269C21.2251 36.2861 21.2251 36.3453 21.2452 36.4045C21.2853 35.7928 21.4058 35.2206 21.5664 34.6879C21.4058 35.2206 21.2853 35.7928 21.2452 36.4045C21.2251 36.7991 21.2251 37.1938 21.2652 37.6081C21.3255 38.2987 21.5062 39.0485 21.8074 39.8181C21.8074 39.8181 21.5263 38.9302 21.9279 38.0422L22.0483 38.279C22.0885 38.5355 22.1287 38.9104 22.209 39.3248C22.2893 40.0154 22.6106 42.0872 24.0563 43.5276C24.0563 43.5276 23.5142 42.837 23.5945 41.9491C23.6547 42.0675 23.715 42.1661 23.7551 42.2648C23.9961 42.7186 24.478 43.5474 25.0202 44.1393C25.0202 44.1393 24.5985 43.3303 24.6989 43.1527C24.6989 43.1527 26.1045 44.8694 26.5462 45.0272L25.9639 44.0801L25.9438 44.0604C27.9719 45.5205 30.783 46.0533 34.2368 45.1061C34.8392 44.9483 35.4416 44.7312 36.0841 44.4747C36.4656 44.3169 36.8471 44.1196 37.2287 43.9223L37.2889 43.8828C37.5499 43.7447 37.811 43.5868 38.072 43.429C38.2728 43.3106 38.4736 43.1725 38.6543 43.0541C38.9756 42.837 39.2969 42.6002 39.6181 42.3437C39.6382 42.324 39.6583 42.3043 39.6784 42.3043C39.9796 42.0477 40.2808 41.7715 40.5418 41.4953C40.9032 41.1204 41.2245 40.7455 41.5056 40.3706L41.5257 40.3508C41.606 40.2522 41.6663 40.1732 41.7265 40.0746L41.7466 40.0549C41.7667 40.0154 41.7868 39.9957 41.8068 39.9562C41.9072 39.8181 41.9876 39.6997 42.088 39.5616C42.108 39.5221 42.1281 39.5024 42.1482 39.4629C42.1884 39.384 42.2285 39.3248 42.2888 39.2459C42.3289 39.1867 42.349 39.1472 42.3892 39.088C42.4293 39.0288 42.4695 38.9696 42.4896 38.9104C42.5498 38.8118 42.61 38.6934 42.6703 38.5947L42.7305 38.4763L42.851 38.2395L42.9112 38.1212L42.9313 38.0817C42.9715 37.983 43.0317 37.8844 43.0719 37.7857V37.766C43.2526 37.6081 43.3731 37.4503 43.4935 37.3122C43.5136 37.2924 43.5337 37.2727 43.5337 37.253C43.7144 36.9965 43.7947 36.7005 43.7947 36.4242ZM11.3258 31.3927C11.2655 31.4124 11.2053 31.4913 11.125 31.59C11.1049 31.6295 11.0647 31.6689 11.0446 31.7281C10.8639 32.0636 10.7033 32.5371 10.7033 32.5371C10.7234 32.3793 10.7434 32.2214 10.7434 32.0636V32.0044C10.7635 31.8465 10.7836 31.6689 10.8037 31.5111V31.4519C10.8238 31.2546 10.8639 31.077 10.9041 30.8994C10.9041 30.8797 10.9041 30.8599 10.9242 30.8205V30.8007C10.9242 30.781 10.9242 30.7613 10.9442 30.7415C10.9442 30.7021 10.9643 30.6823 10.9643 30.6429C10.9844 30.5048 11.0246 30.3666 11.0446 30.2285C11.0647 30.1101 11.0848 29.9917 11.1049 29.8931V29.8536C11.1049 29.8339 11.1049 29.8142 11.125 29.8142V29.7747C11.125 29.755 11.145 29.7155 11.145 29.6958C11.145 29.676 11.145 29.6563 11.1651 29.6366C11.1651 29.5971 11.1852 29.5576 11.1852 29.5379C11.1852 29.5182 11.2053 29.4787 11.2053 29.459C11.2053 29.4195 11.2254 29.3801 11.2254 29.3603C11.2254 29.3406 11.2254 29.3209 11.2454 29.3011C11.2454 29.2814 11.2454 29.2617 11.2655 29.2617C11.2655 29.2222 11.2856 29.2025 11.2856 29.1827V29.1235L11.2454 29.163C11.2053 29.1827 11.1852 29.2222 11.145 29.2419L11.1049 29.2814C11.0647 29.3209 11.0246 29.3603 11.0045 29.3998L10.9844 29.4195L10.8639 29.5971L10.8438 29.6168C10.8438 29.6366 10.8238 29.6366 10.8238 29.6563L10.7635 29.7747V29.8142C10.7434 29.8733 10.7033 29.9325 10.6832 29.9917C10.623 30.1496 10.5627 30.3074 10.5226 30.4456C10.5025 30.485 10.5025 30.5442 10.4824 30.564C10.4623 30.6429 10.4422 30.7218 10.4422 30.7415V30.7613V30.7415C10.4422 30.6823 10.4422 30.6429 10.4623 30.5837C10.4623 30.485 10.4824 30.3666 10.4824 30.268C10.4824 30.1891 10.5025 30.0904 10.5226 30.0115C10.5226 29.9917 10.5226 29.9523 10.5426 29.9325C10.5426 29.8931 10.5627 29.8536 10.5627 29.8142C10.5627 29.7747 10.5828 29.7352 10.5828 29.6958V29.6366C10.5828 29.5971 10.6029 29.5379 10.6029 29.4984V29.3998V29.3603C10.6029 29.3406 10.6029 29.3209 10.623 29.3011C10.643 29.2419 10.6631 29.163 10.6631 29.1038V29.0841C10.6832 29.0446 10.6832 28.9854 10.7033 28.946V28.9262C10.7234 28.8276 10.7635 28.7289 10.7836 28.6303V28.5908C10.7836 28.5711 10.7836 28.5513 10.8037 28.5316C10.8438 28.3737 10.9041 28.2159 10.9442 28.0778V28.058C10.9844 27.9396 11.0446 27.8015 11.0848 27.6831V27.6634C11.1049 27.6042 11.125 27.5647 11.145 27.5056C11.1852 27.4266 11.2053 27.3477 11.2454 27.2688C11.2454 27.249 11.2655 27.2096 11.3057 27.1307C11.3258 27.1109 11.3258 27.0715 11.3458 27.0517C11.3659 27.0123 11.386 26.9728 11.4061 26.9136L11.4262 26.8741C11.4061 26.8544 11.3659 26.8544 11.3458 26.8347H11.3258L11.2856 26.8149C11.1049 26.736 10.9041 26.6571 10.7033 26.5979H10.6631C10.5226 26.5584 10.4021 26.5387 10.2615 26.519C10.1812 26.519 10.1009 26.4992 10.0206 26.4992H9.81977C9.71937 26.4992 9.61897 26.519 9.51857 26.519C9.47842 26.519 9.45834 26.519 9.41818 26.5387C9.37802 26.5387 9.31778 26.5584 9.27762 26.5584C9.25754 26.5584 9.23746 26.5584 9.21738 26.5782C9.17722 26.5782 9.15714 26.5979 9.11698 26.5979C9.05674 26.6176 8.97642 26.6374 8.91618 26.6571C8.8961 26.6571 8.85594 26.6768 8.83586 26.6768C8.75554 26.7163 8.65514 26.736 8.57483 26.7755C8.53467 26.7952 8.51459 26.8149 8.47443 26.8149L8.35395 26.8741L8.31379 26.8939C8.27363 26.9136 8.23347 26.9333 8.19331 26.9728C8.15315 26.9925 8.11299 27.0123 8.07283 27.0517C8.03267 27.0715 7.99251 27.1109 7.95235 27.1307C7.93227 27.1504 7.89211 27.1701 7.87203 27.1898C7.81179 27.249 7.73148 27.3082 7.67124 27.3674L7.57084 27.4661C7.5106 27.5253 7.47044 27.5845 7.4102 27.6437L7.39012 27.6634C7.37004 27.7029 7.32988 27.7226 7.3098 27.7621L7.24956 27.8213C7.14916 27.9594 7.04876 28.1172 6.96844 28.2751C6.94836 28.2948 6.94836 28.3146 6.92828 28.3343C6.88813 28.4132 6.86805 28.4921 6.82789 28.5711C6.80781 28.6105 6.80781 28.6303 6.78773 28.6697C6.76765 28.7486 6.72749 28.8276 6.70741 28.9262V29.0052C6.68733 29.0644 6.68733 29.1235 6.66725 29.1827C6.66725 29.2222 6.66725 29.2419 6.64717 29.2814C6.64717 29.3209 6.64717 29.3406 6.62709 29.3801V29.459C6.62709 29.5576 6.60701 29.6563 6.62709 29.755C6.62709 29.8339 6.62709 29.9128 6.64717 29.9917V30.0312C6.64717 30.0707 6.66725 30.1101 6.66725 30.1496C6.68733 30.3074 6.72749 30.4456 6.76765 30.6034C6.80781 30.7218 6.84797 30.8205 6.88813 30.9191C6.96844 31.1164 7.06884 31.294 7.18932 31.4716C7.43028 31.8268 7.75156 32.1425 8.13307 32.3793C8.33387 32.5174 8.57483 32.616 8.81578 32.695C9.03666 32.7739 9.27762 32.8331 9.53865 32.8528C9.59889 32.8528 9.65913 32.8726 9.69929 32.8726H9.96033C10.0406 32.8726 10.121 32.8528 10.2013 32.8528C10.2414 32.8528 10.3017 32.8528 10.3418 32.8331C10.4623 32.8134 10.5627 32.7936 10.6832 32.7739H10.7033C10.7434 32.7542 10.7836 32.7542 10.8438 32.7344C10.9844 32.695 11.125 32.6358 11.2454 32.5766L11.2655 32.5568C11.3057 32.5371 11.3458 32.5174 11.3659 32.5174C11.3057 32.1819 11.2454 31.8268 11.2254 31.4716C11.3258 31.4321 11.3258 31.4124 11.3258 31.3927Z" fill="#FCE9CD"/>
<path d="M24.8789 3.5127L24.9391 3.55217L24.8789 3.5127Z" fill="#4D9ED7"/>
<path d="M42.5694 35.616C42.5694 35.5963 42.5694 35.5765 42.5494 35.5765C42.5293 35.5371 42.5293 35.5173 42.5293 35.4976C42.4289 35.1819 42.3084 34.9451 42.1879 34.7675C42.0474 34.5505 41.9269 34.4321 41.9269 34.4321L41.9871 34.1953C42.0072 34.0966 42.0273 33.998 42.0273 33.8993C42.1076 33.189 41.9269 32.6365 41.7663 32.3207C41.7462 32.2615 41.7261 32.2221 41.706 32.1826C41.5855 32.2615 41.4851 32.3405 41.3647 32.4194C39.1961 33.8598 36.7664 34.7872 34.136 35.1819C32.3288 35.4581 30.4213 35.4779 28.4334 35.2411L28.4736 35.2608C28.4736 35.2608 27.2688 35.4187 26.9475 36.5434L26.9676 36.5631L26.8672 37.3129C26.9073 38.339 27.3692 38.9704 27.9113 39.3059C28.4736 39.5229 29.1563 39.6808 29.9193 39.7795C31.2245 39.9373 32.7505 39.8978 34.2766 39.6611C36.3247 39.3848 39.2162 38.3193 41.2844 36.938C41.7462 36.6223 42.1879 36.2869 42.5494 35.9514L42.5694 35.9317L42.5895 35.912C42.5895 35.7738 42.5694 35.6949 42.5694 35.616Z" fill="white"/>
<path d="M38.6544 25.8694C37.55 25.1986 37.3894 24.9815 37.4898 23.1859C37.5299 22.5348 37.5902 21.6863 37.6705 20.5221C37.6705 20.3643 37.6906 20.2262 37.6906 20.0881V19.9894V19.5158C37.6906 19.4172 37.6705 19.3185 37.6705 19.2396C37.6705 19.2001 37.6705 19.1607 37.6504 19.1212C37.6303 19.0225 37.6303 18.9239 37.6103 18.8252C37.6103 18.7858 37.5902 18.7266 37.5902 18.6871C37.5902 18.6279 37.5701 18.5884 37.55 18.5293C37.5299 18.4898 37.5299 18.4306 37.5099 18.3911C37.3492 18.1544 37.1685 17.957 36.9476 17.7794L36.9075 17.74L36.8673 17.7203H36.8472C36.8071 17.7005 36.787 17.6808 36.7468 17.6611C36.7067 17.6413 36.6665 17.6216 36.6464 17.6019C36.3252 17.4045 35.9437 17.2862 35.5621 17.227C35.3413 17.1875 35.1204 17.1875 34.8995 17.1875C34.7991 17.1875 34.6786 17.2072 34.5782 17.2072C34.2971 17.2467 34.016 17.3059 33.7148 17.3848C33.6144 17.444 33.514 17.5229 33.4136 17.5821C33.3333 17.6413 33.253 17.7005 33.1526 17.7597L33.1124 17.7794C33.0321 17.8386 32.9317 17.8978 32.8514 17.9373L32.8112 17.957C32.7309 18.0162 32.6305 18.0557 32.5502 18.1149L32.51 18.1346C32.4297 18.1938 32.3293 18.2333 32.2289 18.2727L32.1888 18.2925C32.0884 18.3319 32.008 18.3714 31.9076 18.4109L31.8675 18.4306C31.7671 18.4701 31.6667 18.4898 31.5663 18.5293H31.5462C31.4458 18.549 31.3253 18.5687 31.2249 18.5884C31.0442 18.6082 30.8434 18.6279 30.6627 18.6279C30.3615 18.6279 30.0603 18.6082 29.739 18.5687L29.4378 18.5095C29.3977 18.5095 29.3575 18.4898 29.3374 18.4898C29.0764 18.4306 28.7953 18.3714 28.5342 18.3122C28.4138 18.2925 28.3134 18.253 28.1929 18.2333C28.0122 18.1938 27.8315 18.1544 27.6307 18.1149C27.5905 18.1149 27.5503 18.0952 27.5303 18.0952C27.3696 18.0952 27.209 18.1149 27.0684 18.1346H27.0283C26.5664 18.1938 26.1247 18.2925 25.6629 18.4503C25.6428 18.4503 25.6227 18.4701 25.5825 18.4701C25.5022 18.4898 25.442 18.5293 25.3617 18.549C25.2613 18.5884 25.1809 18.6279 25.0805 18.6674C24.4179 18.9436 23.7954 19.3383 23.193 19.8315C22.9521 20.0289 22.7312 20.2459 22.5103 20.463C22.1891 20.7984 21.9079 21.1536 21.6469 21.5285C21.6268 21.5482 21.6268 21.5679 21.6068 21.5877C21.4662 21.785 21.3457 22.002 21.2453 22.1993C21.2052 22.2783 21.165 22.3572 21.1248 22.4164V22.4361C21.0044 22.6926 20.904 22.9294 20.8236 23.1859C20.8236 23.2057 20.8236 23.2254 20.8036 23.2254C20.7835 23.2648 20.7835 23.3043 20.7634 23.3438C20.7232 23.4622 20.6831 23.5806 20.663 23.6989C20.6228 23.8173 20.6028 23.9357 20.5827 24.0738C20.5827 24.0936 20.5626 24.133 20.5626 24.1528C20.5425 24.2317 20.5425 24.3106 20.5224 24.3698C20.4823 24.6461 20.4622 24.9223 20.4421 25.1985V25.3959C20.5626 25.8497 20.7433 26.2641 20.9642 26.6192C21.7875 28.0202 23.1529 28.8686 24.1569 29.3225C24.5384 29.4803 24.94 29.6382 25.3617 29.7763L25.3817 29.796L25.4018 29.7763C25.4621 29.7368 25.5022 29.6974 25.5625 29.6579C25.5825 29.6382 25.6026 29.6382 25.6227 29.6184L25.8034 29.5C25.8235 29.4803 25.8436 29.4803 25.8636 29.4606L26.0444 29.3422C26.0644 29.3225 26.0845 29.3225 26.1046 29.3027C26.1648 29.2633 26.2251 29.2238 26.3054 29.1843C26.3255 29.1646 26.3456 29.1646 26.3656 29.1449C26.4259 29.1054 26.5062 29.066 26.5664 29.0265C26.5865 29.0068 26.6066 29.0068 26.6267 28.987C26.6869 28.9476 26.7672 28.9081 26.8275 28.8686C26.8476 28.8489 26.8877 28.8489 26.9078 28.8292C26.968 28.7897 27.0483 28.7502 27.1086 28.7108C27.1287 28.6911 27.1688 28.6713 27.1889 28.6713C27.2491 28.6319 27.3295 28.5924 27.4098 28.5529C27.4499 28.5332 27.47 28.5135 27.5102 28.5135C27.5905 28.474 27.6507 28.4345 27.7311 28.4148C27.7712 28.3951 27.7913 28.3753 27.8315 28.3753C27.9118 28.3359 27.972 28.3162 28.0523 28.2767L28.1728 28.2175C28.2531 28.178 28.3134 28.1583 28.3937 28.1188C28.4338 28.0991 28.474 28.0794 28.5342 28.0596C28.6146 28.0399 28.6748 28.0004 28.7551 27.9807C28.7953 27.961 28.8555 27.9412 28.8957 27.9215C28.976 27.9018 29.0362 27.8623 29.1166 27.8426C29.1768 27.8229 29.217 27.8031 29.2772 27.7834C29.3575 27.7637 29.4178 27.7242 29.4981 27.7045L29.6788 27.6453C29.739 27.6255 29.8193 27.6058 29.8796 27.5663C29.9398 27.5466 30.0201 27.5269 30.0804 27.5072C30.1406 27.4874 30.2209 27.4677 30.2812 27.448C30.3615 27.4282 30.4418 27.4085 30.5021 27.3888C30.5623 27.369 30.6225 27.3493 30.7029 27.3296C30.7832 27.3098 30.8635 27.2901 30.9639 27.2506C31.004 27.2309 31.0442 27.2309 31.0844 27.2112C31.4056 26.4022 32.3895 24.3896 34.0562 24.1725C34.2369 24.1528 34.3975 24.133 34.5582 24.133H34.6786C34.6586 24.0147 34.6385 23.8963 34.6385 23.7581C34.5782 22.8899 34.8594 22.1599 35.2409 22.1401C35.5421 22.1204 35.783 22.5545 35.8232 22.6926C35.9437 22.9491 36.024 23.2846 36.0441 23.6595C36.0641 23.9949 36.024 24.3106 35.9637 24.5869C36.0039 24.6263 36.024 24.6658 36.0641 24.6855C36.4456 25.1591 36.5059 25.7905 36.4858 26.2641C36.6264 26.2443 36.787 26.2443 36.9476 26.2246C36.9878 26.2246 37.028 26.2246 37.0681 26.2049H37.1484C37.3292 26.1851 37.5299 26.1654 37.7307 26.1654C38.1725 26.1259 38.6143 26.1062 39.0761 26.0865C38.8151 25.9484 38.6544 25.8694 38.6544 25.8694ZM42.8511 38.0241C42.1282 38.6555 41.3652 39.1686 40.6021 39.5829C40.2206 39.7802 39.8391 39.9578 39.4777 40.1157C38.6544 40.4708 37.8713 40.7076 37.1685 40.8852C35.6224 41.2601 34.5582 41.2601 34.5582 41.2601C35.4015 41.7139 36.4657 41.7139 37.1886 41.6547C37.6906 41.6153 38.0319 41.5166 38.0319 41.5166C38.0119 41.8126 37.9717 42.0888 37.9315 42.3651C37.8713 42.6611 37.791 42.9176 37.6906 43.1544V43.1741C37.5701 43.4701 37.4095 43.7266 37.2488 43.9634C37.2288 43.9831 37.2087 44.0225 37.1886 44.0423L37.2488 44.0028C37.5099 43.8647 37.7709 43.7068 38.0319 43.549C38.2327 43.4306 38.4335 43.2925 38.6143 43.1741C38.9355 42.957 39.2568 42.7203 39.5781 42.4637C39.5982 42.444 39.6182 42.4243 39.6383 42.4243C39.9395 42.1678 40.2407 41.8915 40.5017 41.6153C40.8632 41.2404 41.1845 40.8655 41.4656 40.4906L41.4856 40.4708C41.566 40.3722 41.6262 40.2933 41.6864 40.1946L41.7065 40.1749C41.7266 40.1354 41.7467 40.1157 41.7668 40.0762C41.8672 39.9381 41.9475 39.8197 42.0479 39.6816C42.068 39.6421 42.088 39.6224 42.1081 39.5829C42.1483 39.504 42.1884 39.4448 42.2487 39.3659C42.2888 39.3067 42.3089 39.2672 42.3491 39.208C42.3892 39.1488 42.4294 39.0896 42.4495 39.0304C42.5097 38.9318 42.57 38.8134 42.6302 38.7147L42.6904 38.5963L42.8109 38.3596L42.8711 38.2412L42.8912 38.2017C42.9314 38.1031 42.9916 38.0044 43.0318 37.9057C42.9515 37.9255 42.9113 37.9649 42.8511 38.0241ZM24.5384 30.0723C24.3376 30.1315 24.0966 30.2301 23.8557 30.3288C23.2131 30.5853 22.4903 30.9602 21.8477 31.4732C21.7674 31.5324 21.6871 31.6113 21.6068 31.6705C21.4662 31.7889 21.3457 31.9073 21.2252 32.0454L21.1851 32.0849L21.1248 32.1441C21.0847 32.2033 21.0244 32.2427 20.9843 32.3019L20.924 32.3611C20.8638 32.4401 20.8036 32.519 20.7634 32.5979C20.7032 32.6768 20.663 32.7558 20.6028 32.8347C20.2213 33.4858 20.0004 34.2751 20.0606 35.2222V35.1828C20.0606 35.163 20.0606 35.1433 20.0807 35.1236V35.1038C20.0807 35.0841 20.1008 35.0644 20.1008 35.0249V35.0052C20.1008 34.9854 20.1209 34.946 20.1209 34.9065C20.1209 34.8671 20.1409 34.8473 20.161 34.8079V34.7881C20.1811 34.7487 20.1811 34.7092 20.2012 34.6697V34.65C20.2213 34.6105 20.2213 34.5711 20.2413 34.5316V34.5119C20.2614 34.4724 20.2815 34.433 20.3016 34.3738L20.3217 34.354C20.3417 34.3146 20.3618 34.2554 20.402 34.2159C20.4421 34.137 20.4823 34.0778 20.5224 33.9989C20.5425 33.9791 20.5626 33.9397 20.5827 33.9199L20.6028 33.9002L20.7232 33.7226C20.7634 33.6832 20.8036 33.624 20.8437 33.5845L20.8839 33.545C20.924 33.5056 20.9441 33.4661 20.9843 33.4464L21.0244 33.4069C21.0646 33.3675 21.1248 33.328 21.165 33.2688C21.165 33.2688 20.3016 35.2025 20.6831 36.7218V36.7021V36.6626V36.6034V36.5245V36.4259C20.6831 36.3864 20.6831 36.3469 20.7032 36.3075C20.7032 36.268 20.7032 36.2285 20.7232 36.1891V36.1693C20.7232 36.1299 20.7433 36.0707 20.7433 36.0312V35.9918C20.7634 35.9326 20.7634 35.8931 20.7835 35.8339V35.8142C20.8036 35.755 20.8236 35.6958 20.8236 35.6563C20.8236 35.6366 20.8437 35.6169 20.8437 35.5971L20.8638 35.5577C20.8839 35.5182 20.904 35.459 20.924 35.4195C20.9441 35.3603 20.9843 35.3012 21.0244 35.242C21.0244 35.2222 21.0445 35.2025 21.0445 35.2025L21.165 35.0249C21.165 35.0249 21.1248 35.4985 21.1248 36.0707C21.1248 36.1693 21.1248 36.2483 21.1449 36.3469C21.1449 36.4061 21.1449 36.4653 21.165 36.5245C21.2052 35.9128 21.3256 35.3406 21.4863 34.8079C21.5264 34.6697 21.5867 34.5119 21.6268 34.3738C21.6268 34.354 21.6469 34.3343 21.6469 34.3146C21.7072 34.1764 21.7473 34.0581 21.8075 33.9199C21.8276 33.9002 21.8276 33.8805 21.8477 33.841C21.9079 33.7226 21.9682 33.5845 22.0284 33.4661C22.0485 33.4464 22.0485 33.4266 22.0485 33.4069C22.1891 33.1504 22.3296 32.9136 22.4702 32.6966C22.4903 32.6768 22.4903 32.6571 22.5103 32.6374C22.5706 32.5585 22.6308 32.4795 22.6911 32.3809C22.7111 32.3611 22.7111 32.3414 22.7312 32.3217C22.7513 32.3019 22.7513 32.2822 22.7714 32.2625C22.8517 32.1638 22.9119 32.0652 22.9923 31.9665C23.0123 31.9468 23.0123 31.927 23.0324 31.927C23.1127 31.8284 23.193 31.7297 23.2734 31.6508C23.3738 31.5324 23.4742 31.4338 23.5746 31.3154C23.6549 31.2364 23.7151 31.1575 23.7954 31.0983L23.8758 31.0194C24.0364 30.8615 24.197 30.7037 24.3577 30.5656C24.7994 30.1709 25.1609 29.9144 25.2813 29.8355C25.201 29.8552 25.1207 29.875 25.0203 29.8947C24.8998 29.9539 24.7392 30.0131 24.5384 30.0723Z" fill="#F2D2AC"/>
<path d="M36.1039 25.7911C36.1039 25.7911 36.1039 25.7517 36.0838 25.6727C36.0035 25.3965 35.7224 24.7256 34.618 24.8243C33.4534 24.9427 33.0518 25.87 32.9514 26.1857C32.9313 26.2449 32.9313 26.2844 32.9313 26.2844L32.9715 26.3041C33.112 26.1857 33.3931 26.1857 33.6542 26.3633C33.7747 26.4423 33.855 26.5212 33.9353 26.6198C34.0357 26.7777 34.0558 26.9355 33.9955 27.0539L33.9353 27.1131C33.9353 27.1131 33.9755 27.1329 34.0558 27.1526C34.377 27.2513 35.2806 27.4288 35.7625 26.8172C35.7826 26.7777 35.8027 26.758 35.8228 26.7185C35.7224 26.679 35.6822 26.5409 35.6822 26.3633C35.6822 26.2844 35.7023 26.2055 35.7224 26.1068C35.7826 25.87 35.9633 25.7319 36.1039 25.7911ZM30.3009 34.2362C29.5378 34.3941 28.8752 34.5125 28.3732 34.5914C28.3933 34.5914 28.4335 34.5914 28.4535 34.6111C29.317 34.7098 30.6824 34.8479 32.3289 34.7492C35.3409 34.5717 39.2966 33.6443 42.8908 30.4478V30.428C42.9109 30.1518 42.8708 29.6782 42.5294 29.3033C42.4692 29.2441 42.4089 29.1849 42.3286 29.1258C42.3085 29.1258 42.3085 29.106 42.2884 29.106C42.188 29.0468 42.1077 29.0074 42.0274 28.9482L41.8467 28.8298V28.81C41.6258 29.1258 41.3648 29.4217 41.0837 29.698C40.9833 29.7966 40.8829 29.8953 40.7624 29.9939C39.7785 30.8621 38.4934 31.6119 37.1079 32.2039C34.8188 33.1905 32.2486 33.8416 30.3009 34.2362ZM11.2653 29.0863C11.2252 29.106 11.2051 29.1455 11.1649 29.1652L11.1248 29.2047C11.0846 29.2441 11.0444 29.2836 11.0244 29.3231L11.0043 29.3428L10.8838 29.5204L10.8637 29.5401C10.8637 29.5598 10.8436 29.5598 10.8436 29.5796L10.7834 29.698V29.7374C10.7633 29.7966 10.7232 29.8558 10.7031 29.915C10.6428 30.0729 10.5826 30.2307 10.5424 30.3688C10.5224 30.4083 10.5224 30.4675 10.5023 30.4872C10.4822 30.5662 10.4621 30.6451 10.4621 30.6648V30.6845V30.6648C10.4621 30.6056 10.4621 30.5662 10.4822 30.507C10.4822 30.4083 10.5023 30.2899 10.5023 30.1913C10.5023 30.1123 10.5224 30.0137 10.5424 29.9347C10.5424 29.915 10.5424 29.8756 10.5625 29.8558C10.5625 29.8164 10.5826 29.7769 10.5826 29.7374C10.5826 29.698 10.6027 29.6585 10.6027 29.619V29.5598C10.6027 29.5204 10.6228 29.4612 10.6228 29.4217V29.3231V29.2836C10.6228 29.2639 10.6228 29.2441 10.6428 29.2244C10.6629 29.1652 10.683 29.0863 10.683 29.0271V29.0074C10.7031 28.9679 10.7031 28.9087 10.7232 28.8692V28.8495C10.7432 28.7509 10.7834 28.6522 10.8035 28.5535V28.5141C10.8035 28.4943 10.8035 28.4746 10.8236 28.4549C10.8637 28.297 10.924 28.1392 10.9641 28.0011V27.9813C11.0043 27.8629 11.0645 27.7248 11.1047 27.6064V27.5867C11.1248 27.5275 11.1448 27.488 11.1649 27.4288C11.2051 27.3499 11.2252 27.271 11.2653 27.1921C11.2653 27.1723 11.2854 27.1329 11.3255 27.0539C11.3456 27.0342 11.3456 26.9947 11.3657 26.975C11.3858 26.9355 11.4059 26.8961 11.4259 26.8369L11.446 26.7974C11.4259 26.7777 11.3858 26.7777 11.3657 26.758H11.3456L11.3055 26.7382C11.1248 26.6593 10.924 26.5804 10.7232 26.5212H10.683C10.5424 26.4817 10.422 26.462 10.2814 26.4423C10.2011 26.4423 10.1208 26.4225 10.0404 26.4225H9.83965C9.73925 26.4225 9.63885 26.4423 9.53846 26.4423C9.4983 26.4423 9.47822 26.4423 9.43806 26.462C9.3979 26.462 9.33766 26.4817 9.2975 26.4817C9.27742 26.4817 9.25734 26.4817 9.23726 26.5015C9.1971 26.5015 9.17702 26.5212 9.13686 26.5212C9.07662 26.5409 8.9963 26.5606 8.93606 26.5804C8.91599 26.5804 8.87583 26.6001 8.85575 26.6001C8.77543 26.6396 8.67503 26.6593 8.59471 26.6988C8.55455 26.7185 8.53447 26.7382 8.49431 26.7382L8.37383 26.7974L8.33367 26.8172C8.29351 26.8369 8.25336 26.8566 8.2132 26.8961C8.17304 26.9158 8.13288 26.9355 8.09272 26.975C8.05256 26.9947 8.0124 27.0342 7.97224 27.0539C7.95216 27.0737 7.912 27.0934 7.89192 27.1131C7.83168 27.1723 7.75136 27.2315 7.69112 27.2907L7.59073 27.3894C7.53049 27.4486 7.49033 27.5078 7.43009 27.567L7.41001 27.5867C7.38993 27.6262 7.34977 27.6459 7.32969 27.6853L7.26945 27.7445C7.16905 27.8827 7.06865 28.0405 6.98833 28.1984C6.96825 28.2181 6.96825 28.2378 6.94817 28.2576C6.90802 28.3365 6.88794 28.4154 6.84778 28.4943C6.8277 28.5338 6.8277 28.5535 6.80762 28.593C6.80762 28.6127 6.8277 28.6325 6.8277 28.6522C6.84778 28.7311 6.86786 28.7903 6.88794 28.8692V28.9087C6.90802 28.9679 6.94817 29.0468 6.96825 29.106C7.04857 29.3033 7.12889 29.4809 7.22929 29.6388C7.24937 29.6585 7.24937 29.6782 7.26945 29.698V29.7177L7.28953 29.7374C7.34977 29.8558 7.41001 29.9545 7.47025 30.0334C7.57065 30.1715 7.65096 30.2702 7.7112 30.3491L7.75136 30.3886C7.75136 30.4083 7.77144 30.4083 7.77144 30.4083L7.8116 30.4478C7.8116 30.4083 7.79152 30.3688 7.79152 30.3491C7.73128 30.0926 7.7112 29.8558 7.7112 29.5993V29.5598C7.7112 29.402 7.7112 29.2441 7.73128 29.106L7.79152 29.2836C7.8116 29.3625 7.85176 29.4415 7.87184 29.5204V29.5598C7.99232 29.8953 8.13288 30.1715 8.27344 30.3886C8.43407 30.6648 8.57463 30.8424 8.67503 30.9608C8.69511 30.9805 8.71519 31.0003 8.71519 31.02L8.75535 31.0594C8.69511 30.7832 8.65495 30.5267 8.65495 30.2702V30.0137C8.65495 29.8953 8.65495 29.7966 8.67503 29.698C8.71519 29.8756 8.77543 30.0531 8.83567 30.211V30.2307C9.05654 30.8029 9.31758 31.2173 9.4983 31.4738L9.51838 31.4935C9.55854 31.533 9.57862 31.5725 9.59869 31.6119C9.61877 31.6317 9.63885 31.6514 9.63885 31.6711L9.67901 31.7106L9.69909 31.7303V31.6909C9.69909 31.6514 9.67901 31.6119 9.67901 31.5725C9.65893 31.4343 9.63885 31.2962 9.61878 31.1778C9.61878 31.0989 9.59869 31.0003 9.59869 30.9213V30.6845V30.6451V30.4872C9.59869 30.3886 9.61878 30.2702 9.61878 30.1715C9.63885 30.2307 9.65893 30.3096 9.67901 30.3688C9.69909 30.4083 9.71917 30.4675 9.73925 30.507V30.5267L9.75933 30.5464C9.77941 30.6056 9.79949 30.6648 9.81957 30.7043C9.85973 30.8029 9.89989 30.9016 9.96013 30.9805C10.0204 31.0989 10.0605 31.1976 10.1208 31.2765C10.1609 31.3357 10.181 31.3751 10.2011 31.4146C10.2412 31.4738 10.2814 31.533 10.3015 31.5725C10.3416 31.6119 10.3617 31.6514 10.3818 31.6909L10.4019 31.7106C10.422 31.75 10.4621 31.7698 10.4822 31.8092C10.5023 31.829 10.5224 31.8487 10.5224 31.8684C10.5625 31.9079 10.5826 31.9474 10.6027 31.9474L10.6228 31.9671V31.9079C10.6428 31.75 10.6629 31.5725 10.683 31.4146V31.3554C10.7031 31.1581 10.7432 30.9805 10.7834 30.8029C10.7834 30.7832 10.7834 30.7635 10.8035 30.724V30.7043C10.8035 30.6845 10.8035 30.6648 10.8236 30.6451C10.8236 30.6056 10.8436 30.5859 10.8436 30.5464C10.8637 30.4083 10.9039 30.2702 10.924 30.1321C10.944 30.0137 10.9641 29.8953 10.9842 29.7966V29.7572C10.9842 29.7374 10.9842 29.7177 11.0043 29.7177V29.6782C11.0043 29.6585 11.0244 29.619 11.0244 29.5993C11.0244 29.5796 11.0244 29.5598 11.0444 29.5401C11.0444 29.5007 11.0645 29.4612 11.0645 29.4415C11.0645 29.4217 11.0846 29.3823 11.0846 29.3625C11.0846 29.3231 11.1047 29.2836 11.1047 29.2639C11.1047 29.2441 11.1047 29.2244 11.1248 29.2047C11.1248 29.1849 11.1248 29.1652 11.1448 29.1652C11.1448 29.1258 11.1649 29.106 11.1649 29.0863V29.0271L11.2653 29.0863ZM35.6019 37.3341C35.883 37.2354 36.124 37.1565 36.3248 37.0776C36.7063 36.9197 36.9071 36.8013 36.9071 36.7619C36.887 36.7224 36.6661 36.7421 36.2645 36.8408C36.0637 36.8803 35.8228 36.9197 35.5216 36.9986C35.381 37.0381 35.2204 37.0578 35.0598 37.0776C34.8991 37.0973 34.7184 37.1368 34.5377 37.1565C34.1762 37.2157 33.7747 37.2552 33.3329 37.2946L32.6703 37.3538C32.4494 37.3735 32.2084 37.3735 31.9675 37.3933C31.0037 37.413 29.9394 37.3735 28.8551 37.1762C28.2929 37.0776 27.5098 36.8211 26.9676 36.5251L26.9476 36.5054C27.2688 35.3807 28.4736 35.2228 28.4736 35.2228L28.4335 35.2031H28.3732C28.1925 35.1833 28.0519 35.1636 27.9114 35.1439C27.811 35.1241 27.7307 35.1241 27.6704 35.1044C27.6102 35.1044 27.5499 35.0847 27.5299 35.0847C26.807 35.0452 26.4054 35.6372 26.2849 35.8937L26.2247 36.0121C26.1243 36.2488 26.044 36.5054 26.0239 36.8013C25.9837 37.3341 26.1243 37.9063 26.546 38.3996C26.8271 38.735 27.309 39.031 27.9315 39.2678C27.3893 38.9323 26.9074 38.2812 26.8873 37.2749C27.5098 37.5314 28.2126 37.6893 28.7547 37.7879C29.8993 38.005 31.0237 38.0247 32.0076 37.9655C32.2486 37.9458 32.5096 37.926 32.7305 37.9063C32.9715 37.8668 33.1923 37.8471 33.4132 37.8274C33.855 37.7484 34.2365 37.6893 34.618 37.6103C34.7987 37.5709 34.9794 37.5314 35.1401 37.4722C35.3208 37.4327 35.4613 37.3933 35.6019 37.3341Z" fill="#F2D2AC"/>
<path d="M34.6577 24.1516C35.2601 24.1713 35.6617 24.3489 35.9428 24.6251C36.0031 24.3686 36.0432 24.0529 36.0231 23.6978C36.0031 23.3229 35.9227 22.9874 35.8023 22.7309C35.7621 22.573 35.5211 22.1587 35.2199 22.1784C34.8384 22.1981 34.5573 22.9282 34.6176 23.7964C34.6176 23.9148 34.6376 24.0332 34.6577 24.1516ZM35.6617 26.3813C35.6617 26.5391 35.7219 26.6772 35.8023 26.7364C35.9428 26.8154 36.1235 26.6575 36.2039 26.401C36.2039 26.3813 36.2239 26.3615 36.2239 26.3418C36.2842 26.105 36.2239 25.8682 36.0834 25.809C35.9428 25.7301 35.7621 25.888 35.6818 26.1445C35.6818 26.2234 35.6617 26.3023 35.6617 26.3813ZM32.9309 26.8154C32.9911 26.914 33.0915 27.0127 33.212 27.0916C33.473 27.2494 33.7541 27.2692 33.9148 27.1311L33.975 27.0719C34.0352 26.9535 34.0152 26.7956 33.9148 26.6378C33.8545 26.5391 33.7541 26.4405 33.6336 26.3813C33.3726 26.2234 33.0915 26.2037 32.9509 26.3221C32.9309 26.3418 32.9108 26.3615 32.8907 26.401C32.8305 26.4996 32.8505 26.6575 32.9309 26.8154ZM42.9105 30.4262C42.8904 30.4262 42.8904 30.4262 42.9105 30.4262V30.4262ZM42.5892 35.8919C42.2077 36.2471 41.786 36.5825 41.3041 36.8982C39.2359 38.2794 36.3444 39.3647 34.2963 39.6212C32.7501 39.858 31.2442 39.8974 29.939 39.7396C29.1759 39.6409 28.5133 39.4831 27.931 39.266C27.3085 39.0292 26.8266 38.7333 26.5455 38.3978C26.1238 37.9045 26.0033 37.3126 26.0234 36.7996C26.0435 36.5233 26.1037 36.2471 26.2242 36.0103L26.2844 35.8919C26.425 35.6354 26.8065 35.0237 27.5294 35.0829C27.5495 35.0829 27.6097 35.0829 27.67 35.1026C27.7302 35.1026 27.8306 35.1224 27.9109 35.1421C28.0515 35.1618 28.192 35.1816 28.3727 35.2013H28.433C30.4209 35.4381 32.3285 35.4184 34.1356 35.1421C36.7661 34.7475 39.1957 33.8201 41.3644 32.3797C41.4848 32.3008 41.5852 32.2218 41.7057 32.1429L42.8904 30.4065C39.2961 33.6228 35.3404 34.5502 32.3285 34.7277C30.6819 34.8264 29.3165 34.708 28.4531 34.5896C28.4129 34.5896 28.3928 34.5896 28.3727 34.5699C28.1117 34.5304 27.9109 34.5107 27.7503 34.491C27.67 34.491 27.6097 34.4712 27.5696 34.4712C27.3487 34.4515 27.1278 34.491 26.927 34.5502C26.5254 34.6686 26.164 34.9448 25.9029 35.3C25.5817 35.7341 25.3809 36.326 25.3809 36.918C25.3809 37.4112 25.5013 37.9243 25.7624 38.3978C25.7825 38.4176 25.7825 38.4373 25.8025 38.457C25.8427 38.5162 25.8628 38.5557 25.9029 38.6149C25.9431 38.6741 26.0033 38.753 26.0636 38.8122C26.686 39.5817 28.0515 40.1342 29.8586 40.371C31.0835 40.5289 32.5092 40.5091 34.0553 40.2921C38.6335 39.4831 40.8021 38.0229 41.8061 37.0166C41.8864 36.9377 41.9467 36.8785 42.0069 36.7996C42.3683 36.3852 42.529 36.0695 42.5892 35.9511V35.9314C42.6093 35.8919 42.6093 35.8722 42.6093 35.8722L42.5892 35.8919Z" fill="#664F44"/>
<path d="M28.0317 20.3043C27.8912 20.2254 27.7305 20.1662 27.5699 20.1267C27.4695 20.107 27.3691 20.0873 27.2486 20.0675C27.2085 20.0675 27.1683 20.0675 27.1281 20.0478C26.586 20.0083 26.1242 20.0873 26.1242 20.0873C26.0238 20.107 25.9234 20.1267 25.843 20.1662C25.1202 20.3832 24.6182 20.7582 24.2567 21.1922C23.9756 21.5474 23.7748 21.9223 23.6744 22.2972C23.6544 22.3367 23.6544 22.3564 23.6544 22.3959C23.6343 22.4945 23.5941 22.5932 23.574 22.6721C23.5138 22.9878 23.4736 23.2641 23.4736 23.5008C23.4736 23.8166 23.4937 24.0139 23.4937 24.0139C23.6142 23.7376 23.7547 23.5009 23.8953 23.2641C24.2367 22.6919 24.5981 22.2183 24.9796 21.8434C25.7025 21.1133 26.4454 20.7187 27.0077 20.5214C27.61 20.3241 28.0317 20.3043 28.0317 20.3043ZM36.7262 19.298L36.7062 19.2585C36.6258 19.1599 36.5254 19.0612 36.405 18.9823C36.1238 18.8047 35.7423 18.7061 35.2203 18.8047C35.2203 18.8047 34.5978 18.9428 34.2363 19.3572C34.2363 19.3572 35.3207 18.9034 36.4853 19.7124C36.5857 19.7913 36.7062 19.8702 36.8065 19.9689C36.9069 20.0675 37.0274 20.1662 37.1278 20.3043C37.1278 20.3043 37.0877 19.811 36.7865 19.3769C36.7664 19.3375 36.7463 19.3177 36.7262 19.298Z" fill="#E9B784"/>
<path d="M28.1721 27.1521C28.5938 27.0337 29.0355 26.9153 29.5375 26.797C29.6178 26.4221 29.6379 25.9682 29.5777 25.475C29.4371 24.3305 28.915 23.4426 28.393 23.5018C27.8709 23.561 27.5697 24.5476 27.7103 25.692C27.7906 26.2839 27.9512 26.797 28.1721 27.1521Z" fill="#664F44"/>
<path d="M25.7828 1.36133L24.6985 1.59811L24.9194 3.53181L22.048 2.0914L20.8633 2.44657L20.8834 2.4663L24.3772 6.37317L24.4174 6.35344L24.4575 6.3337C24.5579 6.27451 24.6784 6.19558 24.7788 6.13639C24.819 6.11666 24.8591 6.09692 24.8993 6.05746C25.0599 5.9588 25.2206 5.86014 25.3812 5.78122L23.8953 4.10403L26.2848 5.24846C26.3651 5.209 26.4254 5.16954 26.5057 5.13007L26.2848 3.45288L27.3691 4.69598H27.3892C27.4896 4.65651 27.5699 4.59732 27.6703 4.55786L27.7105 4.53812L27.7506 4.51839C27.7707 4.51839 27.7908 4.49866 27.7908 4.49866L27.9113 4.43947C27.9113 4.43947 27.9313 4.43947 27.9313 4.41973C28.0518 4.36054 28.1924 4.30134 28.3128 4.24215L25.7828 1.36133Z" fill="#FFD250"/>
<path d="M24.719 1.65746V1.59826V1.65746ZM24.719 1.59826L24.8797 1.5588C24.6186 1.44041 24.2974 1.36148 23.9359 1.30229C23.2131 1.20363 22.2894 1.30229 21.2452 1.5588C20.2011 1.81531 19.0164 2.26914 17.7715 2.88082C15.2615 4.10418 12.4905 5.97869 9.79981 8.38595C8.85607 9.21468 7.99264 10.0829 7.18945 10.9313L10.4424 14.8777C11.3259 13.9305 12.2696 12.9834 13.3138 12.056C14.6993 10.8129 16.1048 9.70797 17.4903 8.76085C18.8357 7.83346 20.181 7.0442 21.446 6.41278L20.8838 3.88713L20.9039 2.46645L20.8838 2.44672L22.0685 2.09155L24.3777 3.25572L24.3174 2.46645L24.719 1.59826Z" fill="#4D9ED7"/>
<path d="M24.7188 1.59717L24.3172 2.46536L24.3774 3.27436L24.9397 3.55061L24.7188 1.59717ZM23.8955 4.1031L26.3051 5.26727L25.3814 5.78029L23.8955 4.1031ZM26.3051 3.45195L26.526 5.12915L27.3894 4.69505L26.3051 3.45195Z" fill="#132134"/>
<path d="M35.3813 2.84187H35.8231C36.2246 2.84187 36.6062 2.90107 36.9676 2.97999C36.9877 2.97999 37.0078 2.97999 37.0278 2.99973H37.0479L37.0881 3.01946H37.1282C37.0881 2.99973 37.0479 2.96026 37.0078 2.94053C36.6062 2.78268 36.1845 2.68402 35.7427 2.62482C33.5741 2.34858 31.0842 3.13785 29.6787 3.69033C29.5983 3.7298 29.518 3.74953 29.4377 3.78899C29.3172 3.84819 29.1968 3.88765 29.0763 3.94685C28.8755 4.02577 28.6747 4.12443 28.4538 4.22309C28.4136 4.24282 28.3936 4.24282 28.3534 4.26255C28.2329 4.32175 28.0924 4.38094 27.9719 4.44014C27.9719 4.44014 27.9518 4.44014 27.9518 4.45987L27.8313 4.51906C27.8113 4.51906 27.7912 4.53879 27.7912 4.53879H27.7109L27.6908 4.55853C27.5904 4.59799 27.5101 4.63745 27.4097 4.69665H27.3896C27.3695 4.71638 27.3494 4.71638 27.3293 4.73611H27.3093C27.2892 4.73611 27.2691 4.75584 27.2691 4.75584C27.1285 4.83477 26.988 4.89396 26.8474 4.97289C26.747 5.03209 26.6466 5.07155 26.5462 5.13074H26.5262C26.4458 5.17021 26.3856 5.20967 26.3053 5.24913C26.0643 5.36752 25.8434 5.50565 25.6025 5.64377C25.5824 5.6635 25.5623 5.6635 25.5222 5.68323C25.5021 5.70296 25.482 5.70296 25.4619 5.72269C25.4419 5.74243 25.4218 5.74243 25.4017 5.76216L25.3816 5.78189C25.221 5.88055 25.0603 5.95947 24.8997 6.05813C24.8595 6.07786 24.8194 6.0976 24.7792 6.13706C24.6788 6.19625 24.5583 6.27518 24.4579 6.33437L24.4178 6.35411L24.3776 6.37384L23.474 6.96579C22.972 7.30123 22.4901 7.63666 22.0082 7.99183C21.948 8.0313 21.8877 8.09049 21.8275 8.12996C20.5625 9.05734 19.3577 10.0637 18.1931 11.0897C16.9682 12.1947 15.7835 13.3194 14.6791 14.4638C14.0767 15.0558 13.5547 15.5885 13.1531 16.0226C12.3097 16.9105 11.8479 17.463 11.868 17.4828C11.868 17.4828 11.9483 17.4236 12.0889 17.2854C11.9885 17.4038 11.868 17.542 11.7676 17.6603C13.6149 15.7266 15.643 13.7535 17.8316 11.8987C19.1569 10.774 20.5424 9.68876 21.9681 8.68244C22.5905 8.24834 23.2331 7.81425 23.8756 7.39988C24.0764 7.26176 24.2973 7.14337 24.4981 7.00525C24.5985 6.94606 24.6989 6.88686 24.8194 6.82767C24.8796 6.7882 24.9399 6.74874 25.0001 6.72901C25.1206 6.66981 25.221 6.59089 25.3415 6.53169C25.4419 6.4725 25.5623 6.4133 25.6627 6.33437C25.723 6.29491 25.7832 6.27518 25.8434 6.23572L26.2651 5.99894C26.3454 5.95947 26.4258 5.90028 26.5061 5.86082C26.7671 5.72269 27.0281 5.58457 27.3093 5.44645C27.3293 5.42672 27.3494 5.42672 27.3695 5.40699L27.49 5.34779C27.5502 5.32806 27.5904 5.2886 27.6506 5.26887C27.6707 5.24913 27.6908 5.24913 27.7109 5.2294L27.8313 5.17021C27.8313 5.17021 27.8514 5.17021 27.8514 5.15048H27.8715C27.992 5.09128 28.1125 5.03209 28.2128 4.99262C28.2329 4.99262 28.253 4.97289 28.2731 4.95316L28.3936 4.89396C28.5341 4.83477 28.6546 4.77557 28.7952 4.71638C28.8353 4.69665 28.8755 4.67692 28.8956 4.65718C28.9156 4.65718 28.9357 4.63745 28.9558 4.63745C28.996 4.61772 29.0361 4.59799 29.0763 4.59799C29.2369 4.53879 29.3775 4.45987 29.5381 4.40067C29.6787 4.34148 29.7991 4.28228 29.9397 4.22309C30.7027 3.90738 31.4055 3.65087 32.0682 3.43382C33.3131 3.09838 34.4175 2.88134 35.3813 2.84187Z" fill="white"/>
</g>
<defs>
<clipPath id="clip0">
<rect width="45" height="50" fill="white"/>
</clipPath>
</defs>
</svg>
