<svg width="18" height="18" viewBox="0 0 18 18" fill="none" xmlns="http://www.w3.org/2000/svg">
<path d="M8.18351 9.0016C8.18351 9.21859 8.26971 9.4267 8.42315 9.58014C8.57659 9.73358 8.7847 9.81978 9.00169 9.81978C9.21869 9.81978 9.4268 9.73358 9.58024 9.58014C9.73367 9.4267 9.81988 9.21859 9.81988 9.0016C9.81988 8.7846 9.73367 8.5765 9.58024 8.42306C9.4268 8.26962 9.21869 8.18342 9.00169 8.18342C8.7847 8.18342 8.57659 8.26962 8.42315 8.42306C8.26971 8.5765 8.18351 8.7846 8.18351 9.0016ZM11.5926 9.0016C11.5926 9.21859 11.6788 9.4267 11.8322 9.58014C11.9857 9.73358 12.1938 9.81978 12.4108 9.81978C12.6278 9.81978 12.8359 9.73358 12.9893 9.58014C13.1428 9.4267 13.229 9.21859 13.229 9.0016C13.229 8.7846 13.1428 8.5765 12.9893 8.42306C12.8359 8.26962 12.6278 8.18342 12.4108 8.18342C12.1938 8.18342 11.9857 8.26962 11.8322 8.42306C11.6788 8.5765 11.5926 8.7846 11.5926 9.0016ZM4.77442 9.0016C4.77442 9.21859 4.86062 9.4267 5.01406 9.58014C5.1675 9.73358 5.37561 9.81978 5.5926 9.81978C5.8096 9.81978 6.01771 9.73358 6.17115 9.58014C6.32458 9.4267 6.41079 9.21859 6.41079 9.0016C6.41079 8.7846 6.32458 8.5765 6.17115 8.42306C6.01771 8.26962 5.8096 8.18342 5.5926 8.18342C5.37561 8.18342 5.1675 8.26962 5.01406 8.42306C4.86062 8.5765 4.77442 8.7846 4.77442 9.0016ZM16.0449 6.04251C15.6596 5.12717 15.1074 4.30558 14.4034 3.59989C13.7043 2.8983 12.8745 2.34061 11.9608 1.95842C11.0233 1.56467 10.0278 1.36523 9.00169 1.36523H8.9676C7.93465 1.37035 6.93408 1.57489 5.99317 1.97717C5.0873 2.36328 4.26521 2.92196 3.57272 3.62205C2.87556 4.32603 2.3284 5.14421 1.94999 6.05614C1.55794 7.00046 1.36022 8.00444 1.36533 9.03739C1.37112 10.2212 1.65117 11.3875 2.18351 12.4448V15.0357C2.18351 15.2436 2.26612 15.4431 2.41317 15.5901C2.56021 15.7372 2.75965 15.8198 2.9676 15.8198H5.56022C6.61754 16.3521 7.78385 16.6322 8.9676 16.638H9.0034C10.0244 16.638 11.0148 16.4402 11.9471 16.0533C12.8562 15.6757 13.683 15.1245 14.3812 14.4306C15.0852 13.7334 15.6392 12.9186 16.0261 12.0101C16.4284 11.0692 16.6329 10.0686 16.6381 9.03569C16.6432 7.99762 16.442 6.99023 16.0449 6.04251ZM13.4693 13.5084C12.2744 14.6914 10.6892 15.3425 9.00169 15.3425H8.97272C7.94488 15.3374 6.92385 15.0817 6.02215 14.601L5.87897 14.5243H3.47897V12.1243L3.40226 11.9811C2.92158 11.0794 2.6659 10.0584 2.66079 9.03058C2.65397 7.33114 3.3034 5.73569 4.49488 4.53398C5.68465 3.33228 7.27499 2.66751 8.97442 2.66069H9.0034C9.85567 2.66069 10.6824 2.82603 11.4614 3.1533C12.2216 3.47205 12.9034 3.93058 13.4898 4.51694C14.0744 5.1016 14.5346 5.78512 14.8534 6.54535C15.1841 7.33285 15.3494 8.16808 15.346 9.03058C15.3358 10.7283 14.6693 12.3186 13.4693 13.5084Z" fill="#54B2D3"/>
</svg>
