<svg width="16" height="16" viewBox="0 0 16 16" fill="none" xmlns="http://www.w3.org/2000/svg">
<path d="M8.80529 11.8162L9.33014 8.75612L7.10687 6.58897L10.1794 6.14252L11.5534 3.3584L12.9275 6.14252L16 6.58897L13.7767 8.75612L14.3015 11.8162L11.5534 10.3714L8.80529 11.8162ZM11.5534 9.31232L13.0565 10.1025L12.7694 8.42886L13.9854 7.24357L12.3049 6.99939L11.5534 5.47665L10.8019 6.99939L9.12143 7.24357L10.3374 8.42886L10.0504 10.1025L11.5534 9.31232Z" fill="#9292A3"/>
<path d="M7.99964 16.0003C5.86286 16.0003 3.85398 15.1681 2.34302 13.6572C0.832119 12.1463 0 10.1374 0 8.00062C0 5.86384 0.832119 3.85496 2.34302 2.344C3.85398 0.833095 5.86286 0.000976562 7.99964 0.000976562C9.65419 0.000976562 11.2423 0.502173 12.5923 1.45038L13.8579 2.33934L12.3117 2.30253C12.2661 2.30144 12.2203 2.30078 12.1744 2.30078C10.2981 2.30078 8.59099 2.90031 7.36739 3.98895C6.1871 5.03906 5.5371 6.46378 5.5371 8.00059C5.5371 9.53739 6.1871 10.9621 7.36739 12.0122C8.59099 13.1008 10.2981 13.7004 12.1744 13.7004C12.2203 13.7004 12.266 13.6997 12.3117 13.6986L13.8579 13.6618L12.5923 14.5508C11.2423 15.4991 9.65416 16.0003 7.99964 16.0003ZM7.99964 0.938434C6.11326 0.938434 4.33981 1.67303 3.00593 3.0069C1.67205 4.34078 0.937458 6.11426 0.937458 8.00062C0.937458 9.88697 1.67205 11.6605 3.00593 12.9943C4.33981 14.3282 6.11326 15.0628 7.99964 15.0628C8.94125 15.0628 9.8584 14.879 10.7105 14.5242C9.1834 14.2821 7.80874 13.6596 6.74429 12.7126C5.36129 11.4821 4.59967 9.80872 4.59967 8.00059C4.59967 6.19245 5.36132 4.51902 6.74429 3.28858C7.80874 2.34153 9.1834 1.71902 10.7105 1.477C9.8584 1.12224 8.94125 0.938434 7.99964 0.938434Z" fill="#9292A3"/>
</svg>
