<svg width="16" height="16" viewBox="0 0 16 16" fill="none" xmlns="http://www.w3.org/2000/svg">
<path d="M16 6.56447V0H9.43556V6.56447H12.4692V15.0625H7.95522C8.18197 14.7729 8.34516 14.4314 8.42247 14.0585H11.0864V11.4834C11.0864 9.97916 9.86253 8.75531 8.35825 8.75531H7.25453L5.18903 5.67588H0V6.61338H4.689L6.12569 8.75531H0V9.69281H8.35825C9.18341 9.69281 9.87963 10.254 10.0862 11.0147H8.91838V11.9522H10.1488V13.121H8.43219C8.2235 11.9878 7.22894 11.1264 6.03634 11.1264C4.84375 11.1264 3.84919 11.9878 3.6405 13.121H0V14.0585H3.65031C3.72759 14.4314 3.89081 14.7729 4.11756 15.0625H0V16H16V15.0625H13.4067V6.56447H16ZM4.53709 13.5632C4.53709 12.7365 5.20966 12.0639 6.03641 12.0639C6.86312 12.0639 7.53569 12.7365 7.53569 13.5632C7.53569 14.3899 6.86312 15.0625 6.03641 15.0625C5.20966 15.0625 4.53709 14.3899 4.53709 13.5632ZM10.3731 0.9375H15.0625V5.62697H10.3731V0.9375Z" fill="#9292A3"/>
<path d="M12.7059 1.65234H11.5506L11.5521 4.84347H12.4896V3.97906C12.4896 3.97906 12.6523 3.97847 12.7059 3.97847C13.3547 3.97847 13.8826 3.45672 13.8826 2.81541C13.8826 2.17409 13.3547 1.65234 12.7059 1.65234ZM12.7059 3.04097C12.6519 3.04097 12.4919 3.04156 12.4919 3.04156L12.4909 2.58984H12.7059C12.8333 2.58984 12.9451 2.69525 12.9451 2.81541C12.9451 2.93556 12.8333 3.04097 12.7059 3.04097Z" fill="#9292A3"/>
</svg>
