<svg width="16" height="16" viewBox="0 0 16 16" fill="none" xmlns="http://www.w3.org/2000/svg">
<g clip-path="url(#clip0)">
<path d="M7.53125 11.2812H8.46875V10.3438H9.40625V9.40625H8.46875V8.46875H7.53125V9.40625H6.59375V10.3438H7.53125V11.2812Z" fill="#9292A3"/>
<path d="M4.42134 13.2719L4.0625 13.7503C3.74084 14.1792 3.68997 14.7434 3.92969 15.2229C4.16941 15.7024 4.65141 16.0003 5.1875 16.0003H10.8125C11.3486 16.0003 11.8306 15.7024 12.0703 15.2229C12.3101 14.7435 12.2592 14.1792 11.9375 13.7503L11.5787 13.2719C14.1456 11.9685 16 9.2707 16 6.09404V5.62529H12.8067C13.0061 5.13554 13.3039 4.68514 13.6776 4.31139L15.5881 2.40092C16.1364 1.85261 16.1364 0.96048 15.5881 0.412199C15.0398 -0.136113 14.1477 -0.136082 13.5994 0.412199L11.6889 2.3227C11.2715 2.74011 10.7091 3.08082 10.1053 3.28207C9.38612 3.52179 8.72262 3.93186 8.18656 4.46792L7.02919 5.62529H0V6.09404C0 9.26139 1.84834 11.9655 4.42134 13.2719ZM11.1875 14.3128C11.2963 14.4579 11.3129 14.6414 11.2318 14.8037C11.1506 14.9659 10.9939 15.0628 10.8125 15.0628H5.1875C5.00609 15.0628 4.84937 14.9659 4.76822 14.8037C4.68709 14.6414 4.70366 14.4579 4.8125 14.3128L5.30591 13.6549C6.16022 13.9641 7.06859 14.1253 8 14.1253C8.93141 14.1253 9.83978 13.9642 10.6941 13.6549L11.1875 14.3128ZM8.8495 5.13082C9.28319 4.69714 9.81997 4.36539 10.4018 4.17145C11.1517 3.92151 11.826 3.51145 12.3518 2.98561L14.2623 1.07511C14.4451 0.892324 14.7425 0.892324 14.9252 1.07511C15.108 1.25786 15.108 1.55526 14.9252 1.73801L13.0147 3.64851C12.4787 4.18457 12.0686 4.84807 11.8289 5.56726C11.8224 5.58664 11.8156 5.60598 11.8088 5.62532H8.355L8.8495 5.13082ZM15.0472 6.56248C14.8061 10.2562 11.7374 13.1878 8 13.1878C4.26259 13.1878 1.19391 10.2562 0.95275 6.56248H15.0472Z" fill="#9292A3"/>
<path d="M2.34375 4.6875H4.02459L4.82481 5.48772L5.48772 4.82481L4.6875 4.02459V2.34375C4.6875 1.05141 3.63609 0 2.34375 0H0V2.34375C0 3.63609 1.05141 4.6875 2.34375 4.6875ZM0.9375 0.9375H2.34375C3.11916 0.9375 3.75 1.56834 3.75 2.34375V3.08709L2.67519 2.01228L2.01231 2.67522L3.08709 3.75H2.34375C1.56834 3.75 0.9375 3.11916 0.9375 2.34375V0.9375Z" fill="#9292A3"/>
<path d="M5.65625 1.40625V2.8125H7.0625C7.83791 2.8125 8.46875 2.18166 8.46875 1.40625V0H7.0625C6.28709 0 5.65625 0.630844 5.65625 1.40625ZM7.53125 1.40625C7.53125 1.66472 7.32097 1.875 7.0625 1.875H6.59375V1.40625C6.59375 1.14778 6.80403 0.9375 7.0625 0.9375H7.53125V1.40625Z" fill="#9292A3"/>
</g>
<defs>
<clipPath id="clip0">
<rect width="16" height="16" fill="white"/>
</clipPath>
</defs>
</svg>
