<svg width="16" height="16" viewBox="0 0 16 16" fill="none" xmlns="http://www.w3.org/2000/svg">
<path d="M13.75 1.75H2.25C1.97344 1.75 1.75 1.97344 1.75 2.25V13.75C1.75 14.0266 1.97344 14.25 2.25 14.25H13.75C14.0266 14.25 14.25 14.0266 14.25 13.75V2.25C14.25 1.97344 14.0266 1.75 13.75 1.75ZM13.125 13.125H2.875V2.875H13.125V13.125ZM7.6875 6.25H10.5625C10.6313 6.25 10.6875 6.19375 10.6875 6.125V5.375C10.6875 5.30625 10.6313 5.25 10.5625 5.25H7.6875C7.61875 5.25 7.5625 5.30625 7.5625 5.375V6.125C7.5625 6.19375 7.61875 6.25 7.6875 6.25ZM7.6875 8.5H10.5625C10.6313 8.5 10.6875 8.44375 10.6875 8.375V7.625C10.6875 7.55625 10.6313 7.5 10.5625 7.5H7.6875C7.61875 7.5 7.5625 7.55625 7.5625 7.625V8.375C7.5625 8.44375 7.61875 8.5 7.6875 8.5ZM7.6875 10.75H10.5625C10.6313 10.75 10.6875 10.6938 10.6875 10.625V9.875C10.6875 9.80625 10.6313 9.75 10.5625 9.75H7.6875C7.61875 9.75 7.5625 9.80625 7.5625 9.875V10.625C7.5625 10.6938 7.61875 10.75 7.6875 10.75ZM5.3125 5.75C5.3125 5.91576 5.37835 6.07473 5.49556 6.19194C5.61277 6.30915 5.77174 6.375 5.9375 6.375C6.10326 6.375 6.26223 6.30915 6.37944 6.19194C6.49665 6.07473 6.5625 5.91576 6.5625 5.75C6.5625 5.58424 6.49665 5.42527 6.37944 5.30806C6.26223 5.19085 6.10326 5.125 5.9375 5.125C5.77174 5.125 5.61277 5.19085 5.49556 5.30806C5.37835 5.42527 5.3125 5.58424 5.3125 5.75ZM5.3125 8C5.3125 8.16576 5.37835 8.32473 5.49556 8.44194C5.61277 8.55915 5.77174 8.625 5.9375 8.625C6.10326 8.625 6.26223 8.55915 6.37944 8.44194C6.49665 8.32473 6.5625 8.16576 6.5625 8C6.5625 7.83424 6.49665 7.67527 6.37944 7.55806C6.26223 7.44085 6.10326 7.375 5.9375 7.375C5.77174 7.375 5.61277 7.44085 5.49556 7.55806C5.37835 7.67527 5.3125 7.83424 5.3125 8ZM5.3125 10.25C5.3125 10.4158 5.37835 10.5747 5.49556 10.6919C5.61277 10.8092 5.77174 10.875 5.9375 10.875C6.10326 10.875 6.26223 10.8092 6.37944 10.6919C6.49665 10.5747 6.5625 10.4158 6.5625 10.25C6.5625 10.0842 6.49665 9.92527 6.37944 9.80806C6.26223 9.69085 6.10326 9.625 5.9375 9.625C5.77174 9.625 5.61277 9.69085 5.49556 9.80806C5.37835 9.92527 5.3125 10.0842 5.3125 10.25Z" fill="#54B2D3"/>
</svg>
