<svg width="50" height="26" viewBox="0 0 50 26" fill="none" xmlns="http://www.w3.org/2000/svg">
<path d="M0 24.9625H25.2446L50 0H0V24.9625Z" fill="#014185"/>
<path fill-rule="evenodd" clip-rule="evenodd" d="M29.6479 4.69227L24.7555 4.69129V16.4988L20.4502 4.69129H16.2428L12.5246 14.5661C12.1332 12.0787 9.58917 11.2189 7.53437 10.5753C6.26236 10.143 4.79465 9.50729 4.89249 8.81238C4.89249 8.23592 5.57743 7.70684 7.04514 7.78581C8.02361 7.83615 8.90424 7.91808 10.6655 8.765L12.4267 5.75734C10.7633 4.94398 8.61069 4.42971 6.84944 4.42773C4.6968 4.42773 2.93555 5.1108 1.85923 6.24299C1.1743 7.03069 0.685059 8.03061 0.685059 9.13911C0.685059 10.6642 1.27214 11.746 2.34846 12.6077C3.42478 13.3333 4.59895 13.8061 5.77312 14.1525C7.14298 14.5799 8.2193 14.9501 8.2193 15.7437C8.2193 16.0369 8.12146 16.3034 7.92576 16.5176C7.53437 16.872 7.04513 17.0062 6.26236 17.023C4.89249 17.0487 3.91402 16.8285 2.25062 15.8484L0.685059 18.8935C2.34846 19.8372 4.30541 20.3919 6.26236 20.3919L6.5559 20.3899C8.2193 20.3584 9.68701 19.8599 10.7633 18.9537C10.8612 18.9004 10.8612 18.8511 10.959 18.8017L10.4698 20.1274H14.9708L15.6557 17.8294C16.4385 18.094 17.3191 18.248 18.2976 18.248C19.2761 18.248 20.0588 18.0989 20.8416 17.8482L21.6244 20.1274H28.8651V15.3607H30.5285C34.3445 15.3607 36.595 13.3856 36.595 10.0729C36.595 6.38513 34.4424 4.69227 29.6479 4.69227ZM18.2976 14.8011C17.7105 14.8011 17.2213 14.6984 16.732 14.5187L18.2976 9.55171L19.8631 14.5345C19.3739 14.7043 18.8847 14.8011 18.2976 14.8011ZM29.9414 11.9444H28.8651V7.9398H29.9414C31.4091 7.9398 32.5833 8.42446 32.5833 9.92187C32.5833 11.4617 31.4091 11.9444 29.9414 11.9444Z" fill="white"/>
<path d="M31.409 23.3687C31.409 22.6057 31.9961 22.0243 32.681 22.0243C33.3659 22.0243 33.953 22.6057 33.953 23.3687C33.953 24.1604 33.3659 24.7309 32.681 24.7309C31.9961 24.7309 31.409 24.1604 31.409 23.3687ZM32.681 25.0014C33.5616 25.0014 34.3444 24.3094 34.3444 23.3687C34.3444 22.4418 33.5616 21.7607 32.681 21.7607C31.8004 21.7607 31.0176 22.4418 31.0176 23.3687C31.0176 24.3094 31.8004 25.0014 32.681 25.0014ZM32.3875 23.5039H32.681L33.1702 24.3094H33.4638L32.9745 23.4881C33.1702 23.4546 33.4638 23.3095 33.4638 22.9778C33.4638 22.6057 33.1702 22.4418 32.7788 22.4418H32.0939V24.3094H32.3875V23.5039ZM32.3875 23.2631V22.6797H32.7788C32.8767 22.6797 33.1702 22.7251 33.1702 22.961C33.1702 23.2443 32.8767 23.2631 32.681 23.2631H32.3875Z" fill="#014185"/>
</svg>
