<svg width="43" height="42" viewBox="0 0 43 42" fill="none" xmlns="http://www.w3.org/2000/svg">
<path d="M10.6016 16.7344C10.6016 17.3311 10.8386 17.9034 11.2606 18.3254C11.6825 18.7473 12.2548 18.9844 12.8516 18.9844C13.4483 18.9844 14.0206 18.7473 14.4426 18.3254C14.8645 17.9034 15.1016 17.3311 15.1016 16.7344C15.1016 16.1376 14.8645 15.5653 14.4426 15.1434C14.0206 14.7214 13.4483 14.4844 12.8516 14.4844C12.2548 14.4844 11.6825 14.7214 11.2606 15.1434C10.8386 15.5653 10.6016 16.1376 10.6016 16.7344ZM27.1016 16.7344C27.1016 17.3311 27.3386 17.9034 27.7606 18.3254C28.1825 18.7473 28.7548 18.9844 29.3516 18.9844C29.9483 18.9844 30.5206 18.7473 30.9426 18.3254C31.3645 17.9034 31.6016 17.3311 31.6016 16.7344C31.6016 16.1376 31.3645 15.5653 30.9426 15.1434C30.5206 14.7214 29.9483 14.4844 29.3516 14.4844C28.7548 14.4844 28.1825 14.7214 27.7606 15.1434C27.3386 15.5653 27.1016 16.1376 27.1016 16.7344ZM21.1016 0C9.50469 0 0.101562 9.40313 0.101562 21C0.101562 32.5969 9.50469 42 21.1016 42C32.6984 42 42.1016 32.5969 42.1016 21C42.1016 9.40313 32.6984 0 21.1016 0ZM33.4297 33.3281C31.8266 34.9313 29.9609 36.1875 27.8844 37.0687C25.7422 37.9781 23.4594 38.4375 21.1016 38.4375C18.7437 38.4375 16.4609 37.9781 14.3141 37.0687C12.2406 36.1931 10.3573 34.9226 8.76875 33.3281C7.16562 31.725 5.90938 29.8594 5.02813 27.7828C4.12344 25.6406 3.66406 23.3578 3.66406 21C3.66406 18.6422 4.12344 16.3594 5.03281 14.2125C5.90847 12.1391 7.17892 10.2557 8.77344 8.66719C10.3766 7.06406 12.2422 5.80781 14.3187 4.92656C16.4609 4.02188 18.7437 3.5625 21.1016 3.5625C23.4594 3.5625 25.7422 4.02187 27.8891 4.93125C29.9625 5.80691 31.8459 7.07736 33.4344 8.67188C35.0375 10.275 36.2938 12.1406 37.175 14.2172C38.0797 16.3594 38.5391 18.6422 38.5391 21C38.5391 23.3578 38.0797 25.6406 37.1703 27.7875C36.2957 29.8601 35.0251 31.7422 33.4297 33.3281ZM28.2266 21.9844H25.9719C25.775 21.9844 25.6062 22.1344 25.5922 22.3313C25.4141 24.6516 23.4688 26.4844 21.1016 26.4844C18.7344 26.4844 16.7844 24.6516 16.6109 22.3313C16.5969 22.1344 16.4281 21.9844 16.2313 21.9844H13.9766C13.9257 21.9843 13.8754 21.9946 13.8286 22.0146C13.7818 22.0346 13.7396 22.0639 13.7045 22.1008C13.6695 22.1376 13.6422 22.1812 13.6245 22.2289C13.6068 22.2765 13.599 22.3273 13.6016 22.3781C13.8078 26.3297 17.0938 29.4844 21.1016 29.4844C25.1094 29.4844 28.3953 26.3297 28.6016 22.3781C28.6041 22.3273 28.5963 22.2765 28.5786 22.2289C28.5609 22.1812 28.5337 22.1376 28.4986 22.1008C28.4635 22.0639 28.4213 22.0346 28.3745 22.0146C28.3278 21.9946 28.2774 21.9843 28.2266 21.9844Z" fill="white"/>
</svg>
