<svg width="24" height="26" viewBox="0 0 16 24" fill="none" xmlns="http://www.w3.org/2000/svg">
<path d="M0 4H16V20H0V4Z" fill="white"/>
<path d="M6.87687 11.7103L12.1702 6.41699L13.5842 7.83099L12.6415 8.77366L14.0555 10.1877L11.6989 12.545L10.2849 11.131L8.29154 13.1243C8.65858 13.8305 8.76094 14.6447 8.58012 15.4198C8.39931 16.1948 7.94724 16.8797 7.3056 17.3506C6.66397 17.8215 5.87507 18.0473 5.08145 17.9874C4.28783 17.9274 3.54182 17.5856 2.9782 17.0237C2.41431 16.4607 2.07075 15.7143 2.00978 14.9198C1.94881 14.1253 2.17446 13.3352 2.64586 12.6928C3.11725 12.0504 3.80319 11.598 4.57937 11.4178C5.35555 11.2376 6.17062 11.3413 6.87687 11.7103ZM6.27754 15.609C6.40488 15.486 6.50646 15.3389 6.57634 15.1762C6.64622 15.0135 6.683 14.8386 6.68454 14.6615C6.68608 14.4845 6.65234 14.3089 6.5853 14.1451C6.51826 13.9812 6.41925 13.8323 6.29406 13.7071C6.16887 13.5819 6.02 13.4829 5.85614 13.4159C5.69228 13.3489 5.51671 13.3151 5.33967 13.3167C5.16263 13.3182 4.98767 13.355 4.825 13.4249C4.66233 13.4947 4.5152 13.5963 4.3922 13.7237C4.14933 13.9751 4.01493 14.3119 4.01797 14.6615C4.02101 15.0111 4.16124 15.3455 4.40845 15.5928C4.65566 15.84 4.99007 15.9802 5.33967 15.9832C5.68926 15.9863 6.02607 15.8519 6.27754 15.609Z" fill="#9292A3"/>
</svg>
