<svg width="16" height="16" viewBox="0 0 16 16" fill="none" xmlns="http://www.w3.org/2000/svg">
<path d="M14.3503 11.1252L13.0761 10.3896C13.3556 9.79827 13.5347 9.15067 13.5913 8.46876H14.3763V8.9831H15.3139V7.0169H14.3763V7.53124H13.5913C13.5347 6.84933 13.3555 6.20173 13.0761 5.61039L14.3503 4.87476L14.6701 5.42882L15.4821 4.96004L14.3735 3.04L13.5616 3.50878L13.8815 4.06284L12.606 4.79925C12.2244 4.25176 11.7479 3.77526 11.2004 3.39368L11.594 2.71205L12.0394 2.96922L12.5081 2.1573L10.8054 1.17412L10.3366 1.98604L10.782 2.24321L10.3892 2.92353C9.79789 2.64405 9.15029 2.46494 8.46838 2.40825V0.937549H9.10817V0H6.89108V0.937549H7.53087V2.40825C6.84895 2.46491 6.20136 2.64405 5.61001 2.92353L5.21724 2.24321L5.66264 1.98604L5.19387 1.17412L3.49112 2.15724L3.9599 2.96916L4.40529 2.71199L4.79885 3.39362C4.25135 3.7752 3.77485 4.25172 3.39324 4.79919L2.11774 4.06278L2.43763 3.50872L1.62571 3.03994L0.517151 4.96001L1.32907 5.42879L1.64896 4.87473L2.92312 5.61036C2.64364 6.2017 2.46453 6.8493 2.40788 7.53121H1.6229V7.01687H0.685347V8.98307H1.6229V8.46873H2.40788C2.46453 9.15064 2.64367 9.79823 2.92312 10.3896L1.64896 11.1252L1.3291 10.5712L0.517182 11.04L1.62571 12.96L2.43763 12.4912L2.11774 11.9372L3.39324 11.2008C3.77482 11.7483 4.25135 12.2248 4.79881 12.6064L4.40526 13.288L3.95986 13.0308L3.49109 13.8427L5.19384 14.8258L5.66261 14.0139L5.21721 13.7568L5.60998 13.0764C6.20133 13.3559 6.84892 13.535 7.53083 13.5917V15.0624H6.89105V16H9.10814V15.0624H8.46835V13.5917C9.15026 13.5351 9.79786 13.3559 10.3892 13.0764L10.782 13.7568L10.3366 14.0139L10.8054 14.8258L12.5081 13.8427L12.0393 13.0308L11.5939 13.288L11.2004 12.6064C11.7479 12.2248 12.2244 11.7482 12.6059 11.2008L13.8815 11.9372L13.5616 12.4913L14.3735 12.96L15.482 11.04L14.6701 10.5712L14.3503 11.1252ZM7.99961 12.6739C5.42238 12.6739 3.32567 10.5772 3.32567 7.99998C3.32567 5.42275 5.42238 3.32605 7.99961 3.32605C10.5768 3.32605 12.6735 5.42275 12.6735 7.99998C12.6735 10.5772 10.5768 12.6739 7.99961 12.6739Z" fill="#9292A3"/>
<path d="M9.90687 5.03125C9.1702 5.03125 8.57086 5.63059 8.57086 6.36726C8.57086 7.10392 9.1702 7.70327 9.90687 7.70327C10.6435 7.70327 11.2429 7.10392 11.2429 6.36726C11.2429 5.63059 10.6435 5.03125 9.90687 5.03125ZM9.90687 6.76572C9.68717 6.76572 9.50841 6.58696 9.50841 6.36726C9.50841 6.14756 9.68717 5.9688 9.90687 5.9688C10.1266 5.9688 10.3053 6.14756 10.3053 6.36726C10.3053 6.58696 10.1266 6.76572 9.90687 6.76572Z" fill="#9292A3"/>
<path d="M8.68583 9.04199C7.9391 9.04199 7.3316 9.64949 7.3316 10.3962C7.3316 11.1429 7.9391 11.7504 8.68583 11.7504C9.43255 11.7504 10.0401 11.1429 10.0401 10.3962C10.0401 9.64949 9.43255 9.04199 8.68583 9.04199ZM8.68583 10.8129C8.45607 10.8129 8.26915 10.626 8.26915 10.3962C8.26915 10.1665 8.45607 9.97954 8.68583 9.97954C8.91559 9.97954 9.10251 10.1665 9.10251 10.3962C9.10251 10.626 8.91559 10.8129 8.68583 10.8129Z" fill="#9292A3"/>
<path d="M5.74034 5.83789C4.92899 5.83789 4.26892 6.49799 4.26892 7.30931C4.26892 8.12066 4.92902 8.78072 5.74034 8.78072C6.55167 8.78072 7.21176 8.12063 7.21176 7.30931C7.21179 6.49795 6.5517 5.83789 5.74034 5.83789ZM5.74034 7.84318C5.44595 7.84318 5.20647 7.60367 5.20647 7.30931C5.20647 7.01495 5.44598 6.77544 5.74034 6.77544C6.0347 6.77544 6.27421 7.01495 6.27421 7.30931C6.27425 7.6037 6.03473 7.84318 5.74034 7.84318Z" fill="#9292A3"/>
</svg>
