<svg width="16" height="16" viewBox="0 0 16 16" fill="none" xmlns="http://www.w3.org/2000/svg">
<path d="M4.09302 7.53185V10.9688H7.53V10.0315H5.03038V8.4692H7.53V5.03223H4.09302V5.96958H6.59264V7.53185H4.09302Z" fill="#9292A3"/>
<path d="M11.9046 10.9688V5.03223H10.9673V7.53185H9.40501V5.03223H8.46765V8.4692H10.9673V10.9688H11.9046Z" fill="#9292A3"/>
<path d="M15.427 5.02426L14.5566 5.37215C15.6067 7.99956 14.9919 10.9906 12.9903 12.9922C11.6561 14.3265 9.88248 15.0616 7.99624 15.0622H7.99395C6.10874 15.0622 4.33657 14.3283 3.00392 12.9957C1.67069 11.6624 0.936735 9.88943 0.937359 8.00331C0.937984 6.1171 1.67309 4.34349 3.0073 3.00928C4.34154 1.67505 6.11511 0.939937 8.00136 0.939343H8.00364C9.54834 0.939343 11.0172 1.43208 12.2305 2.34319L11.513 2.43581L11.633 3.36545L13.7936 3.08655L13.7943 0.942405L12.8569 0.942093L12.8567 1.64146C11.4699 0.577835 9.78128 0.00195312 8.00367 0.00195312H8.00105C5.86452 0.00264052 3.85567 0.835265 2.34449 2.34648C0.833313 3.85769 0.000656539 5.86651 3.88082e-07 8.00303C-0.000655763 10.1396 0.830751 12.1481 2.34112 13.6585C3.85089 15.1683 5.85818 15.9996 7.99392 15.9995H7.99655C10.1331 15.9989 12.1419 15.1662 13.6531 13.6551C15.9201 11.388 16.6165 8.00022 15.427 5.02426Z" fill="#9292A3"/>
</svg>
