<svg width="14" height="14" viewBox="0 0 14 14" fill="none" xmlns="http://www.w3.org/2000/svg">
<path d="M9.64722 4.35329C9.41753 4.34235 9.23108 4.3755 9.23108 4.3755L10.9811 7.00051L9.23108 9.58193C9.23108 9.58193 10.0184 9.71318 10.3684 9.36318C10.5872 9.14443 10.7184 8.92551 11.4622 7.87551C11.5934 7.65676 11.7253 7.87551 11.7253 7.87551C12.3816 8.75051 12.5564 9.10068 12.8627 9.36318C13.2564 9.66943 14 9.58193 14 9.58193L12.25 7.00051L13.9564 4.3755C13.9564 4.3755 13.2127 4.24425 12.8627 4.59425C12.6002 4.85675 12.3378 5.20675 11.7253 6.12551C11.7253 6.12551 11.5934 6.34426 11.4622 6.12551C10.8497 5.2505 10.5873 4.85675 10.3248 4.59425C10.1498 4.41925 9.8769 4.36423 9.64722 4.35329ZM0.183716 4.37123C0.121851 4.36833 0.0601563 4.37004 0 4.3755L1.39966 9.62551C1.39966 9.62551 1.83716 9.62585 2.05591 9.53835C2.36216 9.4071 2.49358 9.27534 2.66858 8.57534C2.84358 7.96284 3.28108 6.08158 3.32483 5.95033C3.41233 5.64408 3.54409 5.64408 3.63159 5.95033C3.67534 6.08158 4.11284 7.91909 4.28784 8.57534C4.46284 9.27534 4.59341 9.4071 4.89966 9.53835C5.16216 9.6696 5.60034 9.62551 5.60034 9.62551L7 4.3755C6.51875 4.33175 5.95 4.59391 5.90625 5.11891L5.16284 7.91909L4.55017 5.64443C4.41892 4.98818 4.11233 4.63783 3.54358 4.63783C2.97483 4.63783 2.71284 4.94443 2.53784 5.64443L1.92517 7.91909L1.18091 5.11891C1.06606 4.62126 0.616772 4.39157 0.183716 4.37123ZM8.57483 4.3755C8.57483 4.3755 8.22534 4.37516 8.00659 4.46266C7.74409 4.59391 7.65625 4.85658 7.65625 5.51283C7.65625 5.51283 7.78784 5.38158 8.00659 5.29408C8.61909 5.07533 8.57483 4.638 8.57483 4.3755ZM8.53125 5.2505V5.28383C8.54189 5.26479 8.54443 5.2505 8.53125 5.2505ZM8.53125 5.28383C8.50656 5.32799 8.42177 5.40811 8.26892 5.46925C8.13767 5.55675 8.00625 5.60068 7.875 5.64443C7.56875 5.77568 7.61267 5.95033 7.61267 6.38783V9.62551C7.61267 9.62551 7.96216 9.6696 8.18091 9.53835C8.48716 9.4071 8.53125 9.23159 8.53125 8.57534V5.28383Z" fill="#9292A3"/>
</svg>
