<svg width="14" height="14" viewBox="0 0 14 14" fill="none" xmlns="http://www.w3.org/2000/svg">
<path d="M7 1.3125C3.86225 1.3125 1.3125 3.86225 1.3125 7C1.3125 10.1377 3.86225 12.6875 7 12.6875C10.1377 12.6875 12.6875 10.1377 12.6875 7C12.6875 3.86225 10.1377 1.3125 7 1.3125ZM7 2.26099C8.23601 2.26099 9.35466 2.73299 10.1967 3.50256C10.1786 3.5022 10.1603 3.49744 10.1377 3.49744C9.67307 3.49744 9.37036 3.90463 9.37036 4.34082C9.37036 4.73413 9.56849 5.06177 9.81042 5.45508C9.99024 5.76789 10.1992 6.17543 10.1992 6.75818C10.1992 7.16593 10.0473 7.63483 9.83862 8.2937L9.37036 9.87195L7.59131 4.39124C7.87568 4.3768 8.13135 4.34851 8.13135 4.34851C8.38728 4.32007 8.35909 3.94101 8.10315 3.95544C8.10315 3.95544 7.33552 4.01697 6.83765 4.01697C6.37346 4.01697 5.59094 3.95544 5.59094 3.95544C5.335 3.94101 5.30681 4.33451 5.56274 4.34851C5.56274 4.34851 5.80412 4.3768 6.06006 4.39124L6.85815 6.8009L5.82422 9.9104L4.03149 4.39209C4.32068 4.37765 4.57666 4.34937 4.57666 4.34937C4.8326 4.32093 4.79959 3.94186 4.54846 3.9563C4.54846 3.9563 3.81268 4.01468 3.31458 4.01697C4.18203 2.94514 5.5073 2.26099 7 2.26099ZM11.1614 4.72534C11.5296 5.39994 11.739 6.1743 11.739 7C11.739 8.87664 10.6569 10.4866 9.0824 11.2554C9.18455 11.205 9.28609 11.1545 9.38403 11.0947L10.8298 6.91028C11.0998 6.2374 11.1896 5.69669 11.1896 5.21326C11.1896 5.03782 11.1806 4.88099 11.1622 4.72961C11.1616 4.72833 11.162 4.72666 11.1614 4.72534ZM2.71387 4.98083L4.92871 11.2614C3.34802 10.4948 2.26099 8.88114 2.26099 7C2.26099 6.27587 2.42598 5.59347 2.71387 4.98083ZM7.08032 7.41272L8.54065 11.4075C8.55001 11.4305 8.55934 11.4498 8.57312 11.4681C8.0806 11.6406 7.55289 11.739 7 11.739C6.53324 11.739 6.08384 11.6696 5.65845 11.545L7.08032 7.41272ZM4.98596 11.2887C5.10909 11.345 5.23348 11.3961 5.35938 11.4442C5.23213 11.3975 5.10775 11.3457 4.98596 11.2887ZM8.93201 11.328C8.83206 11.3725 8.7296 11.4117 8.6261 11.4493C8.72999 11.4131 8.83193 11.3722 8.93201 11.328ZM5.49524 11.4938C5.54587 11.5105 5.59622 11.5272 5.64819 11.5425C5.59665 11.5273 5.54602 11.5107 5.49524 11.4938Z" fill="#9292A3"/>
</svg>
