<svg width="50" height="50" viewBox="0 0 50 50" fill="none" xmlns="http://www.w3.org/2000/svg">
<path d="M24.9999 49.9043C38.7545 49.9043 49.9046 38.7542 49.9046 24.9996C49.9046 11.2451 38.7545 0.0949364 24.9999 0.0949364C11.2454 0.0949364 0.0952148 11.2451 0.0952148 24.9996C0.0952148 38.7542 11.2454 49.9043 24.9999 49.9043Z" fill="#1AB4D7"/>
<path d="M12.0169 24.9281L16.267 20.6674C16.408 20.5238 16.4866 20.3336 16.4866 20.132C16.4866 19.7117 16.145 19.3704 15.7247 19.3704C15.52 19.3704 15.3281 19.4507 15.1834 19.5972C15.1829 19.598 10.937 23.8415 10.937 23.8415L6.67163 19.5908C6.5275 19.4487 6.33652 19.3704 6.13402 19.3704C5.71427 19.3704 5.37256 19.7116 5.37256 20.1314C5.37256 20.3362 5.45432 20.5284 5.60107 20.6732L9.85067 24.9222L5.60328 29.1775C5.45398 29.3245 5.37256 29.5171 5.37256 29.7228C5.37256 30.143 5.71427 30.4839 6.13402 30.4839C6.33686 30.4839 6.52801 30.4052 6.67163 30.2615L10.9304 26.0085L15.1729 30.2459C15.3234 30.4015 15.5175 30.4844 15.7247 30.4844C16.1445 30.4844 16.4862 30.143 16.4862 29.7228C16.4862 29.5201 16.4076 29.3296 16.2647 29.186L12.0169 24.9281Z" fill="white"/>
<path d="M37.2832 24.9268C37.2832 25.6898 37.9037 26.3105 38.6677 26.3105C39.4299 26.3105 40.0506 25.6898 40.0506 24.9268C40.0506 24.1635 39.4299 23.5429 38.6677 23.5429C37.9037 23.5429 37.2832 24.1635 37.2832 24.9268Z" fill="white"/>
<path d="M34.659 24.9265C34.659 22.7168 36.4566 20.9188 38.6666 20.9188C40.8755 20.9188 42.6735 22.7168 42.6735 24.9265C42.6735 27.1358 40.8755 28.933 38.6666 28.933C36.4566 28.933 34.659 27.1358 34.659 24.9265ZM33.0825 24.9265C33.0825 28.0051 35.5875 30.5098 38.6666 30.5098C41.7456 30.5098 44.2519 28.0051 44.2519 24.9265C44.2519 21.8475 41.7456 19.3422 38.6666 19.3422C35.5875 19.3422 33.0825 21.8475 33.0825 24.9265Z" fill="white"/>
<path d="M32.6858 19.438L32.4515 19.4373C31.7482 19.4373 31.0698 19.6591 30.5032 20.0958C30.4286 19.7541 30.1232 19.4971 29.7595 19.4971C29.3409 19.4971 29.0054 19.8325 29.0044 20.252C29.0044 20.2535 29.0069 29.6569 29.0069 29.6569C29.008 30.0757 29.3496 30.416 29.7685 30.416C30.1873 30.416 30.5287 30.0757 30.5298 29.656C30.5298 29.6541 30.5302 23.8731 30.5302 23.8731C30.5302 21.9457 30.7064 21.1673 32.3574 20.961C32.51 20.942 32.676 20.945 32.6767 20.945C33.1285 20.9295 33.4495 20.619 33.4495 20.1995C33.4495 19.7796 33.1068 19.438 32.6858 19.438Z" fill="white"/>
<path d="M18.0641 24.0086C18.0641 23.9878 18.0657 23.9661 18.0667 23.9446C18.5088 22.1969 20.0917 20.9036 21.9767 20.9036C23.8846 20.9036 25.4819 22.2287 25.9014 24.0086H18.0641ZM27.4608 23.8648C27.1327 22.3112 26.2821 21.035 24.9868 20.2154C23.0935 19.0133 20.5933 19.0798 18.7645 20.3803C17.2727 21.4416 16.4116 23.1776 16.4116 24.9659C16.4116 25.4143 16.4657 25.8669 16.5782 26.3124C17.1415 28.5283 19.0464 30.2056 21.3174 30.4836C21.9914 30.5652 22.6474 30.5262 23.3266 30.3503C23.9103 30.2083 24.4751 29.9715 24.9955 29.638C25.5357 29.2908 25.987 28.8329 26.424 28.2848C26.4328 28.2747 26.4417 28.2658 26.4505 28.2553C26.7538 27.8791 26.6976 27.3441 26.3643 27.0887C26.0831 26.8732 25.6112 26.7859 25.2398 27.2615C25.16 27.3752 25.071 27.4922 24.9729 27.6092C24.6776 27.9355 24.3113 28.2516 23.8723 28.4968C23.3137 28.7952 22.6771 28.9658 22.0004 28.9696C19.7854 28.9449 18.6001 27.3988 18.1785 26.2952C18.1049 26.0891 18.0481 25.8754 18.0085 25.6552C18.0033 25.6141 17.9995 25.5743 17.998 25.5377C18.456 25.5377 25.9466 25.5365 25.9466 25.5365C27.0363 25.5136 27.6228 24.7444 27.4608 23.8648Z" fill="white"/>
</svg>
