<svg width="24" height="24" viewBox="0 0 24 24" fill="none" xmlns="http://www.w3.org/2000/svg">
<g clip-path="url(#clip0)">
<path d="M24 3.97266H2.81265V6.78535H0V20.0287H21.1873V17.216H24V3.97266ZM19.781 10.0666C18.8717 9.81832 18.1543 9.10099 17.906 8.19161H19.781V10.0666ZM16.4661 8.19161C16.7604 9.87832 18.0943 11.2122 19.781 11.5065V15.3075C18.0943 15.6018 16.7604 16.9357 16.4661 18.6224H4.72118C4.42685 16.9358 3.09297 15.6018 1.40626 15.3075V11.5065C3.09297 11.2122 4.42685 9.87832 4.72118 8.19161H16.4661ZM3.28122 8.19161C3.03292 9.10099 2.31563 9.81827 1.40626 10.0666V8.19161H3.28122ZM1.40626 16.7475C2.31563 16.9958 3.03292 17.7131 3.28122 18.6225H1.40626V16.7475ZM17.906 18.6225C18.1543 17.7131 18.8717 16.9958 19.781 16.7475V18.6225H17.906ZM22.5937 15.8098H21.1873V6.78535H4.21891V5.37891H22.5937V15.8098Z" fill="#54B2D3"/>
<path d="M10.5935 16.4239C12.2569 16.4239 13.6101 15.0706 13.6101 13.4073C13.6101 11.7439 12.2569 10.3906 10.5935 10.3906C8.93019 10.3906 7.5769 11.7439 7.5769 13.4073C7.5769 15.0706 8.93019 16.4239 10.5935 16.4239ZM10.5935 11.7969C11.4815 11.7969 12.2039 12.5193 12.2039 13.4073C12.2039 14.2952 11.4815 15.0176 10.5935 15.0176C9.70559 15.0176 8.98315 14.2952 8.98315 13.4073C8.98315 12.5193 9.70559 11.7969 10.5935 11.7969Z" fill="#54B2D3"/>
<path d="M15.3086 12.7031H17.6096V14.1094H15.3086V12.7031Z" fill="#54B2D3"/>
<path d="M3.57788 12.7031H5.87893V14.1094H3.57788V12.7031Z" fill="#54B2D3"/>
</g>
<defs>
<clipPath id="clip0">
<rect width="24" height="24" fill="white"/>
</clipPath>
</defs>
</svg>
