<svg width="44" height="44" viewBox="0 0 44 44" fill="none" xmlns="http://www.w3.org/2000/svg">
<circle cx="22" cy="22" r="22" fill="#EEF7FB" fill-opacity="0.6"/>
<path d="M27.4375 11.4531H16.5625C15.7352 11.4531 15.0625 12.1258 15.0625 12.9531V30.9531C15.0625 31.7805 15.7352 32.4531 16.5625 32.4531H27.4375C28.2648 32.4531 28.9375 31.7805 28.9375 30.9531V12.9531C28.9375 12.1258 28.2648 11.4531 27.4375 11.4531ZM27.25 30.7656H16.75V13.1406H27.25V30.7656ZM21.0625 28.375C21.0625 28.6236 21.1613 28.8621 21.3371 29.0379C21.5129 29.2137 21.7514 29.3125 22 29.3125C22.2486 29.3125 22.4871 29.2137 22.6629 29.0379C22.8387 28.8621 22.9375 28.6236 22.9375 28.375C22.9375 28.1264 22.8387 27.8879 22.6629 27.7121C22.4871 27.5363 22.2486 27.4375 22 27.4375C21.7514 27.4375 21.5129 27.5363 21.3371 27.7121C21.1613 27.8879 21.0625 28.1264 21.0625 28.375Z" fill="#54B2D3"/>
</svg>
