<svg width="44" height="44" viewBox="0 0 44 44" fill="none" xmlns="http://www.w3.org/2000/svg">
<circle cx="22" cy="22" r="22" fill="#EEF7FB" fill-opacity="0.6"/>
<path d="M24.25 12.625C20.3148 12.625 17.125 15.8148 17.125 19.75C17.125 21.3977 17.6851 22.9141 18.6226 24.1211L17.6594 25.0844L16.1992 23.6242C16.1635 23.5893 16.1155 23.5697 16.0656 23.5697C16.0157 23.5697 15.9677 23.5893 15.932 23.6242L14.9992 24.557C14.9643 24.5927 14.9447 24.6407 14.9447 24.6906C14.9447 24.7406 14.9643 24.7885 14.9992 24.8242L16.4594 26.2844L15.407 27.3367L13.9469 25.8766C13.9112 25.8416 13.8632 25.8221 13.8133 25.8221C13.7633 25.8221 13.7154 25.8416 13.6797 25.8766L12.7469 26.8094C12.7119 26.8451 12.6924 26.893 12.6924 26.943C12.6924 26.9929 12.7119 27.0409 12.7469 27.0766L14.207 28.5367L12.6765 30.0672C12.6416 30.1024 12.6221 30.15 12.6221 30.1996C12.6221 30.2492 12.6416 30.2968 12.6765 30.332L13.6679 31.3234C13.7406 31.3961 13.8601 31.3961 13.9328 31.3234L19.8765 25.3797C21.1277 26.3502 22.6665 26.8763 24.25 26.875C28.1851 26.875 31.375 23.6852 31.375 19.75C31.375 15.8148 28.1851 12.625 24.25 12.625ZM28.0281 23.5281C27.0203 24.5383 25.6773 25.0938 24.25 25.0938C22.8226 25.0938 21.4797 24.5383 20.4719 23.5281C19.4617 22.5203 18.9062 21.1773 18.9062 19.75C18.9062 18.3227 19.4617 16.9797 20.4719 15.9719C21.4797 14.9617 22.8226 14.4062 24.25 14.4062C25.6773 14.4062 27.0203 14.9617 28.0281 15.9719C29.0383 16.9797 29.5937 18.3227 29.5937 19.75C29.5937 21.1773 29.0383 22.5203 28.0281 23.5281Z" fill="#54B2D3"/>
</svg>
