<svg width="44" height="44" viewBox="0 0 44 44" fill="none" xmlns="http://www.w3.org/2000/svg">
<circle cx="22" cy="22" r="22" fill="#EEF7FB" fill-opacity="0.6"/>
<path d="M31.75 13.75H12.25C11.8352 13.75 11.5 14.0852 11.5 14.5V29.5C11.5 29.9148 11.8352 30.25 12.25 30.25H31.75C32.1648 30.25 32.5 29.9148 32.5 29.5V14.5C32.5 14.0852 32.1648 13.75 31.75 13.75ZM30.8125 16.3469V28.5625H13.1875V16.3469L12.5406 15.843L13.4617 14.6594L14.4648 15.4398H29.5375L30.5406 14.6594L31.4617 15.843L30.8125 16.3469ZM29.5375 15.4375L22 21.2969L14.4625 15.4375L13.4594 14.657L12.5383 15.8406L13.1852 16.3445L21.1914 22.5695C21.4217 22.7484 21.7049 22.8455 21.9965 22.8455C22.2881 22.8455 22.5713 22.7484 22.8016 22.5695L30.8125 16.3469L31.4594 15.843L30.5383 14.6594L29.5375 15.4375Z" fill="#54B2D3"/>
</svg>
