<svg width="44" height="44" viewBox="0 0 44 44" fill="none" xmlns="http://www.w3.org/2000/svg">
<circle cx="22" cy="22" r="22" fill="#EEF7FB" fill-opacity="0.6"/>
<path d="M31.375 17.0852L28.375 18.8125V15.25C28.375 14.4227 27.7023 13.75 26.875 13.75H13C12.1727 13.75 11.5 14.4227 11.5 15.25V28.75C11.5 29.5773 12.1727 30.25 13 30.25H26.875C27.7023 30.25 28.375 29.5773 28.375 28.75V25.1875L31.375 26.9148C31.8742 27.2031 32.5 26.8422 32.5 26.268V17.7344C32.5 17.1578 31.8742 16.7969 31.375 17.0852ZM26.6875 28.5625H13.1875V15.4375H26.6875V28.5625ZM30.8125 24.6484L28.375 23.2469V20.7555L30.8125 19.3516V24.6484ZM14.875 18.4375H17.5C17.6031 18.4375 17.6875 18.3531 17.6875 18.25V17.125C17.6875 17.0219 17.6031 16.9375 17.5 16.9375H14.875C14.7719 16.9375 14.6875 17.0219 14.6875 17.125V18.25C14.6875 18.3531 14.7719 18.4375 14.875 18.4375Z" fill="#54B2D3"/>
</svg>
