<svg width="44" height="44" viewBox="0 0 44 44" fill="none" xmlns="http://www.w3.org/2000/svg">
<circle cx="22" cy="22" r="22" fill="#EEF7FB" fill-opacity="0.6"/>
<path d="M29.5 20.875H17.7812V15.625C17.7812 14.9008 18.3695 14.3125 19.0938 14.3125H24.9062C25.6305 14.3125 26.2188 14.9008 26.2188 15.625V17.2188C26.2188 17.3219 26.3031 17.4062 26.4062 17.4062H27.7188C27.8219 17.4062 27.9062 17.3219 27.9062 17.2188V15.625C27.9062 13.968 26.5633 12.625 24.9062 12.625H19.0938C17.4367 12.625 16.0938 13.968 16.0938 15.625V20.875H14.5C14.0852 20.875 13.75 21.2102 13.75 21.625V30.625C13.75 31.0398 14.0852 31.375 14.5 31.375H29.5C29.9148 31.375 30.25 31.0398 30.25 30.625V21.625C30.25 21.2102 29.9148 20.875 29.5 20.875ZM28.5625 29.6875H15.4375V22.5625H28.5625V29.6875ZM21.3438 26.4297V27.6719C21.3438 27.775 21.4281 27.8594 21.5312 27.8594H22.4688C22.5719 27.8594 22.6562 27.775 22.6562 27.6719V26.4297C22.8497 26.2908 22.9941 26.0941 23.0687 25.8679C23.1432 25.6417 23.1441 25.3977 23.0711 25.1709C22.9982 24.9442 22.8552 24.7465 22.6627 24.6062C22.4702 24.466 22.2382 24.3904 22 24.3904C21.7618 24.3904 21.5298 24.466 21.3373 24.6062C21.1448 24.7465 21.0018 24.9442 20.9289 25.1709C20.8559 25.3977 20.8568 25.6417 20.9313 25.8679C21.0059 26.0941 21.1503 26.2908 21.3438 26.4297Z" fill="#54B2D3"/>
</svg>
